G04*
G04 #@! TF.GenerationSoftware,Altium Limited,Altium Designer,18.0.12 (696)*
G04*
G04 Layer_Color=8421504*
%FSLAX25Y25*%
%MOIN*%
G70*
G01*
G75*
%ADD11R,0.01181X0.06102*%
%ADD12R,0.04724X0.10827*%
%ADD13R,0.02835X0.00984*%
%ADD14R,0.02244X0.00984*%
%ADD15R,0.03740X0.01575*%
G36*
X171874Y127547D02*
D01*
D02*
G37*
G36*
X148252Y226957D02*
D01*
D02*
G37*
D11*
X111835Y247724D02*
D03*
X112819Y218000D02*
D03*
X113803Y247724D02*
D03*
X114787Y218000D02*
D03*
X115772Y247724D02*
D03*
X116756Y218000D02*
D03*
X117740Y247724D02*
D03*
X118724Y218000D02*
D03*
X119709Y247724D02*
D03*
X120693Y218000D02*
D03*
X121677Y247724D02*
D03*
X122661Y218000D02*
D03*
X123646Y247724D02*
D03*
X124630Y218000D02*
D03*
X125614Y247724D02*
D03*
X126598Y218000D02*
D03*
X127583Y247724D02*
D03*
X128567Y218000D02*
D03*
X129551Y247724D02*
D03*
X130535Y218000D02*
D03*
X131520Y247724D02*
D03*
X132504Y218000D02*
D03*
X133488Y247724D02*
D03*
X142347Y218000D02*
D03*
X143331Y247724D02*
D03*
X144315Y218000D02*
D03*
X145299Y247724D02*
D03*
X146283Y218000D02*
D03*
X147268Y247724D02*
D03*
X148252Y218000D02*
D03*
X149236Y247724D02*
D03*
X150221Y218000D02*
D03*
X151205Y247724D02*
D03*
X152189Y218000D02*
D03*
X153173Y247724D02*
D03*
X154157Y218000D02*
D03*
X155142Y247724D02*
D03*
X156126Y218000D02*
D03*
X157110Y247724D02*
D03*
X158095Y218000D02*
D03*
X159079Y247724D02*
D03*
X160063Y218000D02*
D03*
X161047Y247724D02*
D03*
X162031Y218000D02*
D03*
X163016Y247724D02*
D03*
X164000Y218000D02*
D03*
X164984Y247724D02*
D03*
X165969Y218000D02*
D03*
X166953Y247724D02*
D03*
X167937Y218000D02*
D03*
X168921Y247724D02*
D03*
X169905Y218000D02*
D03*
X170890Y247724D02*
D03*
X171874Y218000D02*
D03*
X172858Y247724D02*
D03*
X173843Y218000D02*
D03*
X174827Y247724D02*
D03*
X175811Y218000D02*
D03*
X176795Y247724D02*
D03*
X177779Y218000D02*
D03*
X178764Y247724D02*
D03*
X179748Y218000D02*
D03*
X180732Y247724D02*
D03*
X181717Y218000D02*
D03*
X182701Y247724D02*
D03*
X183685Y218000D02*
D03*
X184669Y247724D02*
D03*
D12*
X189000Y244673D02*
D03*
X107504D02*
D03*
D13*
X180500Y265472D02*
D03*
Y267441D02*
D03*
Y269409D02*
D03*
Y271378D02*
D03*
Y273346D02*
D03*
Y275315D02*
D03*
Y277284D02*
D03*
Y279252D02*
D03*
Y281221D02*
D03*
Y283189D02*
D03*
Y285157D02*
D03*
Y287126D02*
D03*
Y289094D02*
D03*
Y291063D02*
D03*
Y293032D02*
D03*
Y295000D02*
D03*
Y296969D02*
D03*
Y298937D02*
D03*
Y300905D02*
D03*
Y302874D02*
D03*
Y304842D02*
D03*
Y306811D02*
D03*
Y308780D02*
D03*
Y310748D02*
D03*
Y312717D02*
D03*
Y314685D02*
D03*
Y316653D02*
D03*
Y318622D02*
D03*
Y320590D02*
D03*
Y322559D02*
D03*
Y324528D02*
D03*
D14*
X189969Y266457D02*
D03*
Y268425D02*
D03*
Y270394D02*
D03*
Y272362D02*
D03*
Y274331D02*
D03*
Y276299D02*
D03*
Y278268D02*
D03*
Y280236D02*
D03*
Y282205D02*
D03*
Y284173D02*
D03*
Y286142D02*
D03*
Y288110D02*
D03*
Y290079D02*
D03*
Y292047D02*
D03*
Y294016D02*
D03*
Y295984D02*
D03*
Y297953D02*
D03*
Y299921D02*
D03*
Y301890D02*
D03*
Y303858D02*
D03*
Y305827D02*
D03*
Y307795D02*
D03*
Y309764D02*
D03*
Y311732D02*
D03*
Y313701D02*
D03*
Y315669D02*
D03*
Y317638D02*
D03*
Y319606D02*
D03*
Y321575D02*
D03*
Y323543D02*
D03*
D15*
X181543Y262835D02*
D03*
Y327165D02*
D03*
M02*
