M48
;Layer_Color=9474304
;FILE_FORMAT=2:5
INCH,TZ
;TYPE=PLATED
T1F00S00C0.01000
;TYPE=NON_PLATED
T2F00S00C0.04331
T3F00S00C0.06299
T4F00S00C0.11811
%
T01
X162031Y224098
X165969
X164000Y227756
X160063
X173843
X193264Y278268
X195205Y280236
X193264Y282205
X195205Y284173
X193264Y286142
X195205Y288110
X193264Y290079
X195205Y292047
X193264Y294016
X195205Y295984
X193264Y297953
X195205Y299921
X193264Y301890
X195205Y303858
X193264Y305827
X195205Y307795
X193264Y309764
X150221Y227756
X146283
X142347
X144315Y224098
X148252
X152189
X132504Y227756
X128500
X124630
X120693
X116756
X126598Y224098
T02
X108882Y226957
T03
X187622Y226957
T04
X148252Y115736
M30
