G04*
G04 #@! TF.GenerationSoftware,Altium Limited,Altium Designer,18.0.12 (696)*
G04*
G04 Layer_Physical_Order=2*
G04 Layer_Color=16711680*
%FSLAX25Y25*%
%MOIN*%
G70*
G01*
G75*
%ADD26C,0.00600*%
%ADD27C,0.01600*%
D26*
X126598Y245098D02*
X185358Y303858D01*
X128500Y245000D02*
X185390Y301890D01*
X126598Y224098D02*
Y245098D01*
X185358Y303858D02*
X195205D01*
X173843Y227756D02*
Y263342D01*
X188768Y278268D01*
X193264D01*
X165969Y224098D02*
Y257469D01*
X188736Y280236D01*
X195205D01*
X164000Y227756D02*
Y257444D01*
X188760Y282205D01*
X193264D01*
X162031Y224098D02*
Y257031D01*
X189173Y284173D01*
X195205D01*
X160063Y227756D02*
Y257063D01*
X189142Y286142D01*
X193264D01*
X152189Y224098D02*
Y251689D01*
X188610Y288110D01*
X195205D01*
X150221Y227756D02*
Y251720D01*
X188579Y290079D01*
X193264D01*
X148252Y224098D02*
Y252252D01*
X188047Y292047D01*
X195205D01*
X146283Y227756D02*
Y252783D01*
X187516Y294016D01*
X193264D01*
X144315Y224098D02*
Y253315D01*
X186984Y295984D01*
X195205D01*
X142347Y227756D02*
Y253346D01*
X186953Y297953D01*
X193264D01*
X132504Y227756D02*
Y247004D01*
X185421Y299921D01*
X195205D01*
X128500Y227756D02*
Y245000D01*
X185390Y301890D02*
X193264D01*
X124630Y227756D02*
Y247130D01*
X183327Y305827D01*
X193264D01*
X120693Y227756D02*
Y247193D01*
X181295Y307795D01*
X195205D01*
X116756Y227756D02*
Y245756D01*
X180764Y309764D01*
X193264D01*
D27*
X165969Y224098D02*
D03*
X162031D02*
D03*
X152189D02*
D03*
X148252D02*
D03*
X144315D02*
D03*
X126598D02*
D03*
X173843Y227756D02*
D03*
X164000D02*
D03*
X160063D02*
D03*
X150221D02*
D03*
X146283D02*
D03*
X142347D02*
D03*
X132504D02*
D03*
X128500D02*
D03*
X124630D02*
D03*
X120693D02*
D03*
X116756D02*
D03*
X193264Y278268D02*
D03*
Y282205D02*
D03*
X195205Y280236D02*
D03*
X193264Y286142D02*
D03*
X195205Y284173D02*
D03*
X193264Y290079D02*
D03*
X195205Y288110D02*
D03*
X193264Y294016D02*
D03*
X195205Y292047D02*
D03*
X193264Y297953D02*
D03*
X195205Y295984D02*
D03*
X193264Y301890D02*
D03*
X195205Y299921D02*
D03*
X193264Y305827D02*
D03*
X195205Y303858D02*
D03*
Y307795D02*
D03*
X193264Y309764D02*
D03*
M02*
