G04*
G04 #@! TF.GenerationSoftware,Altium Limited,Altium Designer,18.0.12 (696)*
G04*
G04 Layer_Color=8388736*
%FSLAX25Y25*%
%MOIN*%
G70*
G01*
G75*
G04:AMPARAMS|DCode=12|XSize=141.86mil|YSize=78.87mil|CornerRadius=21.72mil|HoleSize=0mil|Usage=FLASHONLY|Rotation=90.000|XOffset=0mil|YOffset=0mil|HoleType=Round|Shape=RoundedRectangle|*
%AMROUNDEDRECTD12*
21,1,0.14186,0.03543,0,0,90.0*
21,1,0.09843,0.07887,0,0,90.0*
1,1,0.04343,0.01772,0.04921*
1,1,0.04343,0.01772,-0.04921*
1,1,0.04343,-0.01772,-0.04921*
1,1,0.04343,-0.01772,0.04921*
%
%ADD12ROUNDEDRECTD12*%
%ADD13C,0.07493*%
%ADD14R,0.07493X0.07493*%
%ADD15C,0.06706*%
D12*
X240158Y94488D02*
D03*
X208661D02*
D03*
X255906D02*
D03*
X177165D02*
D03*
X192913D02*
D03*
X224409D02*
D03*
D13*
X85327Y54366D02*
D03*
X95327D02*
D03*
X105327D02*
D03*
X115327D02*
D03*
X125327D02*
D03*
X135327D02*
D03*
X145327D02*
D03*
X155327D02*
D03*
X165327D02*
D03*
X175327D02*
D03*
X185327D02*
D03*
D14*
X75327D02*
D03*
D15*
X91020Y130000D02*
D03*
X101020D02*
D03*
X122516D02*
D03*
X154012D02*
D03*
X185508D02*
D03*
X217004D02*
D03*
X248500D02*
D03*
X132516D02*
D03*
X164012D02*
D03*
X195508D02*
D03*
X227004D02*
D03*
X258500D02*
D03*
M02*
