G04*
G04 #@! TF.GenerationSoftware,Altium Limited,Altium Designer,18.0.12 (696)*
G04*
G04 Layer_Color=65535*
%FSLAX25Y25*%
%MOIN*%
G70*
G01*
G75*
%ADD10C,0.00800*%
D10*
X225740Y83815D02*
X226240Y84315D01*
Y85314D01*
X225740Y85814D01*
X223741D01*
X223241Y85314D01*
Y84315D01*
X223741Y83815D01*
X224741D01*
Y84815D01*
X225240Y82815D02*
X223241D01*
X224241D01*
X224741Y82315D01*
X225240Y81815D01*
Y81316D01*
X223241Y79316D02*
Y78317D01*
X223741Y77817D01*
X224741D01*
X225240Y78317D01*
Y79316D01*
X224741Y79816D01*
X223741D01*
X223241Y79316D01*
X225240Y76817D02*
X223741D01*
X223241Y76317D01*
Y74818D01*
X225240D01*
X223241Y73818D02*
X225240D01*
Y72319D01*
X224741Y71819D01*
X223241D01*
X226240Y68820D02*
X223241D01*
Y70319D01*
X223741Y70819D01*
X224741D01*
X225240Y70319D01*
Y68820D01*
X175997Y85814D02*
X177996D01*
X178996Y84815D01*
X177996Y83815D01*
X175997D01*
X177496D01*
Y85814D01*
X177996Y82815D02*
X176497D01*
X175997Y82315D01*
Y80816D01*
X177996D01*
Y79816D02*
X175997Y77817D01*
X176997Y78816D01*
X177996Y77817D01*
X175997Y79816D01*
X178996Y73818D02*
X175997D01*
Y71819D01*
X178996Y68820D02*
Y70819D01*
X175997D01*
Y68820D01*
X177496Y70819D02*
Y69819D01*
X178996Y67820D02*
X175997D01*
Y66321D01*
X176497Y65821D01*
X178496D01*
X178996Y66321D01*
Y67820D01*
X210992Y83815D02*
X211492Y84315D01*
Y85314D01*
X210992Y85814D01*
X208992D01*
X208493Y85314D01*
Y84315D01*
X208992Y83815D01*
X209992D01*
Y84815D01*
X208493Y82815D02*
X211492D01*
Y81316D01*
X210992Y80816D01*
X209992D01*
X209492Y81316D01*
Y82815D01*
X211492Y79816D02*
Y78816D01*
Y79316D01*
X208493D01*
Y79816D01*
Y78816D01*
X211492Y75817D02*
Y76817D01*
X210992Y77317D01*
X208992D01*
X208493Y76817D01*
Y75817D01*
X208992Y75318D01*
X210992D01*
X211492Y75817D01*
X210992Y69319D02*
X211492Y69819D01*
Y70819D01*
X210992Y71319D01*
X210492D01*
X209992Y70819D01*
Y69819D01*
X209492Y69319D01*
X208992D01*
X208493Y69819D01*
Y70819D01*
X208992Y71319D01*
X207493Y68320D02*
X210492D01*
Y66820D01*
X209992Y66321D01*
X208992D01*
X208493Y66820D01*
Y68320D01*
X210492Y64821D02*
Y63821D01*
X209992Y63322D01*
X208493D01*
Y64821D01*
X208992Y65321D01*
X209492Y64821D01*
Y63322D01*
X210492Y62322D02*
X208493D01*
X209492D01*
X209992Y61822D01*
X210492Y61322D01*
Y60822D01*
X208493Y57823D02*
Y58823D01*
X208992Y59323D01*
X209992D01*
X210492Y58823D01*
Y57823D01*
X209992Y57323D01*
X209492D01*
Y59323D01*
X241488Y85814D02*
X241988Y85314D01*
Y84315D01*
X241488Y83815D01*
X240988D01*
X240489Y84315D01*
Y84815D01*
Y84315D01*
X239989Y83815D01*
X239489D01*
X238989Y84315D01*
Y85314D01*
X239489Y85814D01*
X238989Y82815D02*
X239489D01*
Y82315D01*
X238989D01*
Y82815D01*
X241488Y80316D02*
X241988Y79816D01*
Y78816D01*
X241488Y78317D01*
X240988D01*
X240489Y78816D01*
Y79316D01*
Y78816D01*
X239989Y78317D01*
X239489D01*
X238989Y78816D01*
Y79816D01*
X239489Y80316D01*
X241988Y77317D02*
X239989D01*
X238989Y76317D01*
X239989Y75318D01*
X241988D01*
X257736Y83815D02*
Y85814D01*
X256237D01*
X256736Y84815D01*
Y84315D01*
X256237Y83815D01*
X255237D01*
X254737Y84315D01*
Y85314D01*
X255237Y85814D01*
X257736Y82815D02*
X255737D01*
X254737Y81815D01*
X255737Y80816D01*
X257736D01*
X231115Y62081D02*
X233114D01*
Y61581D01*
X231115Y59582D01*
Y59082D01*
X234114Y61581D02*
X234614Y62081D01*
X235613D01*
X236113Y61581D01*
Y59582D01*
X235613Y59082D01*
X234614D01*
X234114Y59582D01*
Y61581D01*
X237113Y59082D02*
X238113D01*
X237613D01*
Y62081D01*
X237113Y61581D01*
X241612D02*
X241112Y62081D01*
X240112D01*
X239612Y61581D01*
Y59582D01*
X240112Y59082D01*
X241112D01*
X241612Y59582D01*
X245610Y62081D02*
Y59082D01*
X247610D01*
X250609Y62081D02*
X248609D01*
Y59082D01*
X250609D01*
X248609Y60581D02*
X249609D01*
X251608Y62081D02*
Y59082D01*
X253108D01*
X253608Y59582D01*
Y61581D01*
X253108Y62081D01*
X251608D01*
X257606D02*
Y59082D01*
X259106D01*
X259606Y59582D01*
Y60081D01*
X259106Y60581D01*
X257606D01*
X259106D01*
X259606Y61081D01*
Y61581D01*
X259106Y62081D01*
X257606D01*
X261105Y61081D02*
X262105D01*
X262605Y60581D01*
Y59082D01*
X261105D01*
X260605Y59582D01*
X261105Y60081D01*
X262605D01*
X263604Y61081D02*
Y59082D01*
Y60081D01*
X264104Y60581D01*
X264604Y61081D01*
X265104D01*
X231115Y53563D02*
Y56562D01*
X232614D01*
X233114Y56062D01*
Y55063D01*
X232614Y54563D01*
X231115D01*
X232115D02*
X233114Y53563D01*
X235613D02*
X234614D01*
X234114Y54063D01*
Y55063D01*
X234614Y55562D01*
X235613D01*
X236113Y55063D01*
Y54563D01*
X234114D01*
X237113Y55562D02*
X238113Y53563D01*
X239112Y55562D01*
X243111Y53563D02*
Y55562D01*
X244111Y56562D01*
X245110Y55562D01*
Y53563D01*
Y55063D01*
X243111D01*
X231115Y51043D02*
Y48044D01*
Y49044D01*
X233114Y51043D01*
X231615Y49544D01*
X233114Y48044D01*
X234614Y50043D02*
X235613D01*
X236113Y49544D01*
Y48044D01*
X234614D01*
X234114Y48544D01*
X234614Y49044D01*
X236113D01*
X237113Y50043D02*
Y48044D01*
Y49044D01*
X237613Y49544D01*
X238113Y50043D01*
X238613D01*
X240112Y48044D02*
X241112D01*
X240612D01*
Y51043D01*
X240112D01*
X245610D02*
Y48044D01*
X247110D01*
X247610Y48544D01*
Y49044D01*
X247110Y49544D01*
X245610D01*
X247110D01*
X247610Y50043D01*
Y50543D01*
X247110Y51043D01*
X245610D01*
X248609Y50043D02*
Y48544D01*
X249109Y48044D01*
X250609D01*
Y50043D01*
X253608D02*
X252108D01*
X251608Y49544D01*
Y48544D01*
X252108Y48044D01*
X253608D01*
X254607Y51043D02*
Y48044D01*
Y49544D01*
X255107Y50043D01*
X256107D01*
X256607Y49544D01*
Y48044D01*
X257606D02*
Y51043D01*
Y49044D02*
X259106Y50043D01*
X257606Y49044D02*
X259106Y48044D01*
X261105Y50043D02*
X262105D01*
X262605Y49544D01*
Y48044D01*
X261105D01*
X260605Y48544D01*
X261105Y49044D01*
X262605D01*
X268603Y48044D02*
X266603D01*
X268603Y50043D01*
Y50543D01*
X268103Y51043D01*
X267103D01*
X266603Y50543D01*
X269602D02*
X270102Y51043D01*
X271102D01*
X271602Y50543D01*
Y48544D01*
X271102Y48044D01*
X270102D01*
X269602Y48544D01*
Y50543D01*
X274601Y48044D02*
X272602D01*
X274601Y50043D01*
Y50543D01*
X274101Y51043D01*
X273101D01*
X272602Y50543D01*
X275601D02*
X276100Y51043D01*
X277100D01*
X277600Y50543D01*
Y50043D01*
X277100Y49544D01*
X276600D01*
X277100D01*
X277600Y49044D01*
Y48544D01*
X277100Y48044D01*
X276100D01*
X275601Y48544D01*
X192745Y85814D02*
X194744D01*
X195744Y84815D01*
X194744Y83815D01*
X192745D01*
X194244D01*
Y85814D01*
X192745Y82815D02*
X195744D01*
X192745Y80816D01*
X195744D01*
X195244Y74818D02*
X195744Y75318D01*
Y76317D01*
X195244Y76817D01*
X194744D01*
X194244Y76317D01*
Y75318D01*
X193744Y74818D01*
X193244D01*
X192745Y75318D01*
Y76317D01*
X193244Y76817D01*
X191745Y73818D02*
X194744D01*
Y72319D01*
X194244Y71819D01*
X193244D01*
X192745Y72319D01*
Y73818D01*
X194744Y70319D02*
Y69319D01*
X194244Y68820D01*
X192745D01*
Y70319D01*
X193244Y70819D01*
X193744Y70319D01*
Y68820D01*
X194744Y67820D02*
X192745D01*
X193744D01*
X194244Y67320D01*
X194744Y66820D01*
Y66321D01*
X192745Y63321D02*
Y64321D01*
X193244Y64821D01*
X194244D01*
X194744Y64321D01*
Y63321D01*
X194244Y62822D01*
X193744D01*
Y64821D01*
M02*
