G04*
G04 #@! TF.GenerationSoftware,Altium Limited,Altium Designer,18.0.12 (696)*
G04*
G04 Layer_Color=32896*
%FSLAX25Y25*%
%MOIN*%
G70*
G01*
G75*
%ADD17C,0.00600*%
D17*
X136943Y144117D02*
Y141451D01*
X136409Y140918D01*
X135343D01*
X134810Y141451D01*
Y144117D01*
X131611Y143584D02*
X132144Y144117D01*
X133210D01*
X133744Y143584D01*
Y143051D01*
X133210Y142518D01*
X132144D01*
X131611Y141984D01*
Y141451D01*
X132144Y140918D01*
X133210D01*
X133744Y141451D01*
X130544Y144117D02*
Y140918D01*
X128945D01*
X128412Y141451D01*
Y141984D01*
X128945Y142518D01*
X130544D01*
X128945D01*
X128412Y143051D01*
Y143584D01*
X128945Y144117D01*
X130544D01*
X141741Y138838D02*
Y136172D01*
X141208Y135639D01*
X140141D01*
X139608Y136172D01*
Y138838D01*
X138542Y137239D02*
X136409D01*
X135343Y138838D02*
X133210D01*
X134277D01*
Y135639D01*
X132144Y137772D02*
Y136172D01*
X131611Y135639D01*
X130011D01*
Y137772D01*
X128945D02*
Y135639D01*
Y136706D01*
X128412Y137239D01*
X127879Y137772D01*
X127346D01*
X125746Y135639D02*
Y137772D01*
X124147D01*
X123613Y137239D01*
Y135639D01*
X143494Y103799D02*
Y100600D01*
Y101666D01*
X141362Y103799D01*
X142961Y102199D01*
X141362Y100600D01*
X140296Y103799D02*
Y100600D01*
X138696D01*
X138163Y101133D01*
Y101666D01*
X138696Y102199D01*
X140296D01*
X138696D01*
X138163Y102733D01*
Y103266D01*
X138696Y103799D01*
X140296D01*
X131765Y100600D02*
X133898D01*
X131765Y102733D01*
Y103266D01*
X132298Y103799D01*
X133364D01*
X133898Y103266D01*
X130699D02*
X130166Y103799D01*
X129099D01*
X128566Y103266D01*
Y101133D01*
X129099Y100600D01*
X130166D01*
X130699Y101133D01*
Y103266D01*
X125367Y100600D02*
X127500D01*
X125367Y102733D01*
Y103266D01*
X125900Y103799D01*
X126967D01*
X127500Y103266D01*
X122701Y100600D02*
Y103799D01*
X124301Y102199D01*
X122168D01*
M02*
