G04*
G04 #@! TF.GenerationSoftware,Altium Limited,Altium Designer,18.0.12 (696)*
G04*
G04 Layer_Physical_Order=2*
G04 Layer_Color=16711680*
%FSLAX25Y25*%
%MOIN*%
G70*
G01*
G75*
%ADD17C,0.00600*%
%ADD19C,0.01600*%
%ADD20C,0.02000*%
%ADD21O,0.03543X0.08661*%
%ADD22O,0.03543X0.07087*%
%ADD23O,0.03543X0.04724*%
%ADD24C,0.01400*%
D17*
X153918Y108567D02*
G03*
X153318Y109167I-600J0D01*
G01*
X152336Y109767D02*
G03*
X152936Y109167I600J0D01*
G01*
Y110367D02*
G03*
X152336Y109767I0J-600D01*
G01*
X153318Y110367D02*
G03*
X153918Y110967I0J600D01*
G01*
D02*
G03*
X153318Y111567I-600J0D01*
G01*
X150259Y112167D02*
G03*
X150859Y111567I600J0D01*
G01*
Y112767D02*
G03*
X150259Y112167I0J-600D01*
G01*
X153318Y112767D02*
G03*
X153918Y113367I0J600D01*
G01*
X136061Y134421D02*
G03*
X135461Y135020I-600J0D01*
G01*
X136061Y134421D02*
G03*
X136661Y133820I600J0D01*
G01*
D02*
G03*
X137261Y134421I0J600D01*
G01*
X137861Y135020D02*
G03*
X137261Y134421I0J-600D01*
G01*
X138461D02*
G03*
X137861Y135020I-600J0D01*
G01*
X138461Y133808D02*
G03*
X139061Y133208I600J0D01*
G01*
D02*
G03*
X139661Y133808I0J600D01*
G01*
X140261Y135020D02*
G03*
X139661Y134421I0J-600D01*
G01*
Y109674D02*
G03*
X140261Y109074I600J0D01*
G01*
X139661Y110287D02*
G03*
X139061Y110887I-600J0D01*
G01*
D02*
G03*
X138461Y110287I0J-600D01*
G01*
X137861Y109074D02*
G03*
X138461Y109674I0J600D01*
G01*
X137261D02*
G03*
X137861Y109074I600J0D01*
G01*
X137261Y109674D02*
G03*
X136661Y110274I-600J0D01*
G01*
D02*
G03*
X136061Y109674I0J-600D01*
G01*
X135461Y109074D02*
G03*
X136061Y109674I0J600D01*
G01*
X148334Y121047D02*
X153918Y115464D01*
Y114567D02*
Y115464D01*
Y105615D02*
Y108567D01*
X152936Y109167D02*
X153318D01*
X152936Y110367D02*
X153318D01*
X150859Y111567D02*
X153318D01*
X150859Y112767D02*
X153318D01*
X153918Y113367D02*
Y113967D01*
Y114567D01*
X150290Y101987D02*
X153918Y105615D01*
X117426Y101987D02*
X150290D01*
X114980Y104434D02*
X117426Y101987D01*
X114980Y104434D02*
Y119007D01*
X117171Y121199D01*
X129528Y143701D02*
X149606D01*
X118898Y133071D02*
X129528Y143701D01*
X117323Y133071D02*
X118898D01*
X133465Y142520D02*
X149373D01*
X132858Y141913D02*
X133465Y142520D01*
X132858Y141913D02*
X132858D01*
X121963Y129321D02*
X133962Y141320D01*
X155905Y131496D02*
Y135827D01*
X149409Y125000D02*
X155905Y131496D01*
X147835Y125000D02*
X149409D01*
X110630Y120472D02*
Y140157D01*
X150787Y100787D02*
X155118Y105118D01*
X116929Y100787D02*
X150787D01*
X113779Y103937D02*
X116929Y100787D01*
X149606Y143701D02*
X153150Y140157D01*
X149373Y142520D02*
X151703Y140190D01*
X148876Y141320D02*
X150503Y139693D01*
X133962Y141320D02*
X148876D01*
X145482Y129321D02*
X147632D01*
X144882Y129921D02*
X145482Y129321D01*
X144882Y129921D02*
Y132387D01*
X145920Y130665D02*
Y131728D01*
Y130665D02*
X146063Y130521D01*
X147632D01*
X142229Y129321D02*
X143720Y130812D01*
X144882Y132387D02*
X146747Y134252D01*
X143720Y130812D02*
Y133962D01*
X151703Y135833D02*
Y140190D01*
X148922Y133052D02*
X151703Y135833D01*
X147244Y133052D02*
X148922D01*
X145920Y131728D02*
X147244Y133052D01*
X147632Y130521D02*
X148031Y130921D01*
X121466Y130521D02*
X132858Y141913D01*
X118510Y130521D02*
X121466D01*
X118110Y130921D02*
X118510Y130521D01*
X150503Y136330D02*
Y139693D01*
X148425Y134252D02*
X150503Y136330D01*
X146747Y134252D02*
X148425D01*
X118510Y129321D02*
X121963D01*
X118110Y128921D02*
X118510Y129321D01*
X147632D02*
X148031Y128921D01*
X153150Y131102D02*
Y140157D01*
X149213Y127165D02*
X153150Y131102D01*
X145920Y109183D02*
Y112727D01*
X146766Y113573D02*
X147632D01*
X145920Y112727D02*
X146766Y113573D01*
X146269Y114773D02*
X147632D01*
X144720Y113224D02*
X146269Y114773D01*
X144720Y109680D02*
Y113224D01*
X118510Y113573D02*
X120866D01*
X118110Y113173D02*
X118510Y113573D01*
X130109Y104331D02*
X141067D01*
X120866Y113573D02*
X130109Y104331D01*
X147632Y113573D02*
X148031Y113173D01*
X118110Y115173D02*
X118510Y114773D01*
X121363D01*
X130606Y105531D01*
X140570D01*
X147632Y114773D02*
X148031Y115173D01*
X141067Y104331D02*
X145920Y109183D01*
X140570Y105531D02*
X144720Y109680D01*
X133061Y135020D02*
X133661D01*
X134861D01*
X135461D01*
X138461Y133808D02*
Y134421D01*
X139661Y133808D02*
Y134421D01*
X140261Y135020D02*
X140945D01*
X140551Y128921D02*
X140951Y129321D01*
X130709Y132283D02*
X131093Y132668D01*
Y134749D01*
X132293Y132674D02*
X132677Y132290D01*
X140951Y129321D02*
X142229D01*
X140551Y130921D02*
X140951Y130521D01*
X131093Y134749D02*
X132564Y136221D01*
X141461D01*
X143720Y133962D01*
X132293Y132674D02*
Y134252D01*
X133061Y135020D01*
X140945D02*
X140964D01*
X142520Y133465D01*
Y131309D02*
Y133465D01*
X141732Y130521D02*
X142520Y131309D01*
X140951Y130521D02*
X141732D01*
X140951Y113573D02*
X141732D01*
X142520Y112786D01*
Y110630D02*
Y112786D01*
X140964Y109074D02*
X142520Y110630D01*
X140945Y109074D02*
X140964D01*
X140261D02*
X140945D01*
X139661Y109674D02*
Y110287D01*
X138461Y109674D02*
Y110287D01*
X134861Y109074D02*
X135461D01*
X133661D02*
X134861D01*
X133061D02*
X133661D01*
X132293Y109843D02*
X133061Y109074D01*
X132293Y109843D02*
Y111421D01*
X141461Y107874D02*
X143720Y110133D01*
X132564Y107874D02*
X141461D01*
X131093Y109345D02*
X132564Y107874D01*
X113779Y103937D02*
Y119504D01*
X155118Y105118D02*
Y115961D01*
X148031Y123047D02*
X155118Y115961D01*
X113779Y119504D02*
X117323Y123047D01*
X148031Y121047D02*
X148334D01*
X117171Y121199D02*
X117323Y121047D01*
X117171Y121199D02*
X117171D01*
X146063Y127165D02*
X149213D01*
X115748Y131496D02*
X117323Y133071D01*
X115748Y127953D02*
Y131496D01*
Y127953D02*
X118701Y125000D01*
X140551Y113173D02*
X140951Y113573D01*
Y114773D02*
X142229D01*
X143720Y113283D01*
Y110133D02*
Y113283D01*
X132293Y111421D02*
X132677Y111805D01*
X131093Y109345D02*
Y111427D01*
X130709Y111811D02*
X131093Y111427D01*
X140551Y115173D02*
X140951Y114773D01*
X144488Y121653D02*
X147047Y119095D01*
X144488Y121653D02*
Y125591D01*
X146063Y127165D01*
D19*
X138189Y122047D02*
X140157Y124016D01*
Y126430D01*
X140696Y126969D01*
X140157Y117664D02*
X140696Y117126D01*
X140157Y117664D02*
Y120079D01*
X138189Y122047D02*
X140157Y120079D01*
X125591Y117126D02*
X126575D01*
X133071Y124913D02*
X135936Y122047D01*
X133071Y124913D02*
Y126719D01*
X131838Y127953D02*
X133071Y126719D01*
X131838Y116142D02*
X133071Y117375D01*
Y119182D01*
X135936Y122047D01*
X127559Y116142D02*
X131838D01*
X126575Y117126D02*
X127559Y116142D01*
X125591Y126969D02*
X126575D01*
X127559Y127953D01*
X131838D01*
D20*
X135936Y122047D02*
X138189D01*
D21*
X158661D02*
D03*
X129134D02*
D03*
D22*
X136614Y128937D02*
D03*
Y115157D02*
D03*
X107087Y128937D02*
D03*
Y115157D02*
D03*
D23*
X147638Y106260D02*
D03*
Y137835D02*
D03*
X118110Y106260D02*
D03*
Y137835D02*
D03*
D24*
X110630Y140157D02*
D03*
X125591Y117126D02*
D03*
Y126969D02*
D03*
X140551Y115173D02*
D03*
X140696Y117126D02*
D03*
Y126969D02*
D03*
X148031Y130921D02*
D03*
X118110D02*
D03*
Y128921D02*
D03*
X148031D02*
D03*
X155905Y135827D02*
D03*
X118110Y113173D02*
D03*
X148031D02*
D03*
X118110Y115173D02*
D03*
X148031D02*
D03*
X110630Y120472D02*
D03*
X132677Y111805D02*
D03*
X130709Y111811D02*
D03*
X140551Y128921D02*
D03*
X130709Y132283D02*
D03*
X132677Y132290D02*
D03*
X140551Y130921D02*
D03*
Y113173D02*
D03*
X147047Y119095D02*
D03*
Y125000D02*
D03*
X148031Y123047D02*
D03*
Y121047D02*
D03*
X117323D02*
D03*
Y123047D02*
D03*
X118701Y125000D02*
D03*
M02*
