G04*
G04 #@! TF.GenerationSoftware,Altium Limited,Altium Designer,18.0.12 (696)*
G04*
G04 Layer_Physical_Order=2*
G04 Layer_Color=16711680*
%FSLAX25Y25*%
%MOIN*%
G70*
G01*
G75*
%ADD17C,0.00600*%
%ADD20O,0.03543X0.08661*%
%ADD21O,0.03543X0.07087*%
%ADD22O,0.03543X0.04724*%
%ADD23C,0.01400*%
D17*
X136061Y134421D02*
G03*
X135461Y135020I-600J0D01*
G01*
X136061Y134421D02*
G03*
X136661Y133820I600J0D01*
G01*
D02*
G03*
X137261Y134421I0J600D01*
G01*
X137861Y135020D02*
G03*
X137261Y134421I0J-600D01*
G01*
X138461D02*
G03*
X137861Y135020I-600J0D01*
G01*
X138461Y133808D02*
G03*
X139061Y133208I600J0D01*
G01*
D02*
G03*
X139661Y133808I0J600D01*
G01*
X140261Y135020D02*
G03*
X139661Y134421I0J-600D01*
G01*
Y109674D02*
G03*
X140261Y109074I600J0D01*
G01*
X139661Y110287D02*
G03*
X139061Y110887I-600J0D01*
G01*
D02*
G03*
X138461Y110287I0J-600D01*
G01*
X137861Y109074D02*
G03*
X138461Y109674I0J600D01*
G01*
X137261D02*
G03*
X137861Y109074I600J0D01*
G01*
X137261Y109674D02*
G03*
X136661Y110274I-600J0D01*
G01*
D02*
G03*
X136061Y109674I0J-600D01*
G01*
X135461Y109074D02*
G03*
X136061Y109674I0J600D01*
G01*
X137403Y103525D02*
G03*
X138153Y102775I750J0D01*
G01*
X137403Y104791D02*
G03*
X136653Y105541I-750J0D01*
G01*
D02*
G03*
X135903Y104791I0J-750D01*
G01*
X135153Y102775D02*
G03*
X135903Y103525I0J750D01*
G01*
X134403D02*
G03*
X135153Y102775I750J0D01*
G01*
X134403Y104791D02*
G03*
X133653Y105541I-750J0D01*
G01*
D02*
G03*
X132903Y104791I0J-750D01*
G01*
X132153Y102775D02*
G03*
X132903Y103525I0J750D01*
G01*
X124803Y104921D02*
Y108661D01*
X139939Y138027D02*
X143251Y141339D01*
X149213D01*
X150503Y140048D01*
Y132787D02*
Y140048D01*
X150394Y132677D02*
X150503Y132787D01*
X155512Y129921D02*
Y137402D01*
X149606Y143307D02*
X155512Y137402D01*
X114567Y143307D02*
X149606D01*
X150197Y125000D02*
X153543Y128347D01*
Y135827D01*
X133061Y135020D02*
X133661D01*
X134861D01*
X135461D01*
X138461Y133808D02*
Y134421D01*
X139661Y133808D02*
Y134421D01*
X140261Y135020D02*
X140945D01*
X140551Y128921D02*
X140951Y129321D01*
X130709Y132283D02*
X131093Y132668D01*
Y134749D01*
X132293Y132674D02*
X132677Y132290D01*
X143720Y130812D02*
Y133962D01*
X142229Y129321D02*
X143720Y130812D01*
X140951Y129321D02*
X142229D01*
X140551Y130921D02*
X140951Y130521D01*
X131093Y134749D02*
X132564Y136221D01*
X141461D01*
X143720Y133962D01*
X132293Y132674D02*
Y134252D01*
X133061Y135020D01*
X140945D02*
X140964D01*
X142520Y133465D01*
Y131309D02*
Y133465D01*
X141732Y130521D02*
X142520Y131309D01*
X140951Y130521D02*
X141732D01*
X140951Y113573D02*
X141732D01*
X142520Y112786D01*
Y110630D02*
Y112786D01*
X140964Y109074D02*
X142520Y110630D01*
X140945Y109074D02*
X140964D01*
X140261D02*
X140945D01*
X139661Y109674D02*
Y110287D01*
X138461Y109674D02*
Y110287D01*
X134861Y109074D02*
X135461D01*
X133661D02*
X134861D01*
X133061D02*
X133661D01*
X132293Y109843D02*
X133061Y109074D01*
X132293Y109843D02*
Y111421D01*
X141461Y107874D02*
X143720Y110133D01*
X132564Y107874D02*
X141461D01*
X131093Y109345D02*
X132564Y107874D01*
X148334Y121047D02*
X153918Y115464D01*
Y105615D02*
Y115464D01*
X151078Y102775D02*
X153918Y105615D01*
X147723Y102775D02*
X151078D01*
X116639D02*
X132153D01*
X138153D02*
X147723D01*
X137403Y103525D02*
Y104791D01*
X135903Y103525D02*
Y104791D01*
X134403Y103525D02*
Y104791D01*
X132903Y103525D02*
Y104791D01*
X114980Y104434D02*
X116639Y102775D01*
X114980Y104434D02*
Y119007D01*
X117171Y121199D01*
X123228Y110236D02*
X124803Y108661D01*
X116142Y101575D02*
X151575D01*
X110827Y108661D02*
Y139567D01*
X117717Y110236D02*
X123228D01*
X151575Y101575D02*
X155118Y105118D01*
X113779Y103937D02*
X116142Y101575D01*
X113779Y103937D02*
Y119504D01*
X155118Y105118D02*
Y115961D01*
X148031Y123047D02*
X155118Y115961D01*
X113779Y119504D02*
X117323Y123047D01*
X148031Y121047D02*
X148334D01*
X117171Y121199D02*
X117323Y121047D01*
X117171Y121199D02*
X117171D01*
X150394Y128347D02*
Y132677D01*
X149213Y127165D02*
X150394Y128347D01*
X146063Y127165D02*
X149213D01*
X115748Y131496D02*
X117323Y133071D01*
X115748Y127953D02*
Y131496D01*
Y127953D02*
X118701Y125000D01*
X126772Y133071D02*
X131728Y138027D01*
X117323Y133071D02*
X126772D01*
X131728Y138027D02*
X139939D01*
X140551Y113173D02*
X140951Y113573D01*
Y114773D02*
X142229D01*
X143720Y113283D01*
Y110133D02*
Y113283D01*
X132293Y111421D02*
X132677Y111805D01*
X131093Y109345D02*
Y111427D01*
X130709Y111811D02*
X131093Y111427D01*
X140551Y115173D02*
X140951Y114773D01*
X139473Y124428D02*
X145566Y130521D01*
X139970Y123228D02*
X146063Y129321D01*
X144488Y121653D02*
X147047Y119095D01*
X144488Y121653D02*
Y125591D01*
X146063Y127165D01*
X110827Y139567D02*
X114567Y143307D01*
X146063Y114773D02*
X147632D01*
X139970Y120866D02*
X146063Y114773D01*
X145566Y113573D02*
X147632D01*
X139473Y119666D02*
X145566Y113573D01*
X118110Y115173D02*
X118510Y114773D01*
X129612D01*
X132265Y118982D02*
X134149Y120866D01*
X139970D01*
X147632Y114773D02*
X148031Y115173D01*
X118110Y113173D02*
X118510Y113573D01*
X134646Y119666D02*
X139473D01*
X147632Y113573D02*
X148031Y113173D01*
X118510Y113573D02*
X130109D01*
X133465Y116929D01*
X132265Y117426D02*
Y118982D01*
X129612Y114773D02*
X132265Y117426D01*
X133465Y118485D02*
X134646Y119666D01*
X133465Y116929D02*
Y118485D01*
Y125610D02*
Y127165D01*
Y125610D02*
X134646Y124428D01*
X129612Y129321D02*
X132265Y126668D01*
Y125112D02*
Y126668D01*
X130109Y130521D02*
X133465Y127165D01*
X118510Y130521D02*
X130109D01*
X147632D02*
X148031Y130921D01*
X145566Y130521D02*
X147632D01*
X134646Y124428D02*
X139473D01*
X118110Y130921D02*
X118510Y130521D01*
X146063Y129321D02*
X147632D01*
X148031Y128921D01*
X134149Y123228D02*
X139970D01*
X132265Y125112D02*
X134149Y123228D01*
X118510Y129321D02*
X129612D01*
X118110Y128921D02*
X118510Y129321D01*
X116142Y111811D02*
X117717Y110236D01*
X116142Y111811D02*
Y116535D01*
X118701Y119095D01*
X147835Y125000D02*
X150197D01*
D20*
X158661Y122047D02*
D03*
X129134D02*
D03*
D21*
X136614Y128937D02*
D03*
Y115157D02*
D03*
X107087Y128937D02*
D03*
Y115157D02*
D03*
D22*
X147638Y106260D02*
D03*
Y137835D02*
D03*
X118110Y106260D02*
D03*
Y137835D02*
D03*
D23*
X124803Y104921D02*
D03*
X153543Y135827D02*
D03*
X155512Y129921D02*
D03*
X110827Y108661D02*
D03*
X132677Y111805D02*
D03*
X130709Y111811D02*
D03*
X140551Y128921D02*
D03*
X130709Y132283D02*
D03*
X132677Y132290D02*
D03*
X140551Y130921D02*
D03*
X148031D02*
D03*
X118110D02*
D03*
X148031Y128921D02*
D03*
X118110D02*
D03*
Y113173D02*
D03*
X148031D02*
D03*
Y115173D02*
D03*
X140551Y113173D02*
D03*
Y115173D02*
D03*
X147047Y119095D02*
D03*
Y125000D02*
D03*
X148031Y123047D02*
D03*
Y121047D02*
D03*
X117323D02*
D03*
Y123047D02*
D03*
X118701Y119095D02*
D03*
X118701Y125000D02*
D03*
X118110Y115173D02*
D03*
M02*
