G04*
G04 #@! TF.GenerationSoftware,Altium Limited,Altium Designer,18.0.12 (696)*
G04*
G04 Layer_Color=8388736*
%FSLAX25Y25*%
%MOIN*%
G70*
G01*
G75*
%ADD11R,0.04934X0.01902*%
%ADD12O,0.04343X0.09461*%
%ADD13O,0.04343X0.07887*%
%ADD14O,0.04343X0.05524*%
%ADD15C,0.00800*%
%ADD16C,0.02200*%
D11*
X121949Y113189D02*
D03*
Y115157D02*
D03*
X143799Y113189D02*
D03*
Y115157D02*
D03*
X151476Y113189D02*
D03*
Y115157D02*
D03*
X114272Y113189D02*
D03*
Y115157D02*
D03*
X143799Y132874D02*
D03*
Y130905D02*
D03*
Y128937D02*
D03*
Y126969D02*
D03*
Y125000D02*
D03*
Y123031D02*
D03*
Y121063D02*
D03*
Y119095D02*
D03*
Y117126D02*
D03*
Y111221D02*
D03*
X151476D02*
D03*
Y117126D02*
D03*
Y119095D02*
D03*
Y121063D02*
D03*
Y123031D02*
D03*
Y125000D02*
D03*
Y126969D02*
D03*
Y128937D02*
D03*
Y130905D02*
D03*
Y132874D02*
D03*
X114272D02*
D03*
Y130905D02*
D03*
Y128937D02*
D03*
Y126969D02*
D03*
Y125000D02*
D03*
Y123031D02*
D03*
Y121063D02*
D03*
Y119095D02*
D03*
Y117126D02*
D03*
Y111221D02*
D03*
X121949D02*
D03*
Y117126D02*
D03*
Y119095D02*
D03*
Y121063D02*
D03*
Y123031D02*
D03*
Y125000D02*
D03*
Y126969D02*
D03*
Y128937D02*
D03*
Y130905D02*
D03*
Y132874D02*
D03*
D12*
X158661Y122047D02*
D03*
X129134D02*
D03*
D13*
X136614Y128937D02*
D03*
Y115157D02*
D03*
X107087Y128937D02*
D03*
Y115157D02*
D03*
D14*
X147638Y106260D02*
D03*
Y137835D02*
D03*
X118110Y106260D02*
D03*
Y137835D02*
D03*
D15*
X151279Y107047D02*
D03*
X143996Y137047D02*
D03*
X121752Y107047D02*
D03*
X114469Y137047D02*
D03*
D16*
X110630Y140157D02*
D03*
X125591Y117126D02*
D03*
Y126969D02*
D03*
X140551Y115173D02*
D03*
X140696Y117126D02*
D03*
Y126969D02*
D03*
X148031Y130921D02*
D03*
X118110D02*
D03*
Y128921D02*
D03*
X148031D02*
D03*
X155905Y135827D02*
D03*
X118110Y113173D02*
D03*
X148031D02*
D03*
X118110Y115173D02*
D03*
X148031D02*
D03*
X110630Y120472D02*
D03*
X132677Y111805D02*
D03*
X130709Y111811D02*
D03*
X140551Y128921D02*
D03*
X130709Y132283D02*
D03*
X132677Y132290D02*
D03*
X140551Y130921D02*
D03*
Y113173D02*
D03*
X147047Y119095D02*
D03*
Y125000D02*
D03*
X148031Y123047D02*
D03*
Y121047D02*
D03*
X117323D02*
D03*
Y123047D02*
D03*
X118701Y125000D02*
D03*
M02*
