G04*
G04 #@! TF.GenerationSoftware,Altium Limited,Altium Designer,18.0.12 (696)*
G04*
G04 Layer_Physical_Order=1*
G04 Layer_Color=255*
%FSLAX25Y25*%
%MOIN*%
G70*
G01*
G75*
%ADD10R,0.04134X0.01102*%
%ADD17C,0.00600*%
%ADD18C,0.01200*%
%ADD19C,0.01600*%
%ADD20C,0.02000*%
%ADD21O,0.03543X0.08661*%
%ADD22O,0.03543X0.07087*%
%ADD23O,0.03543X0.04724*%
%ADD24C,0.01400*%
D10*
X121949Y113189D02*
D03*
Y115157D02*
D03*
X143799Y113189D02*
D03*
Y115157D02*
D03*
X151476Y113189D02*
D03*
Y115157D02*
D03*
X114272Y113189D02*
D03*
Y115157D02*
D03*
X143799Y132874D02*
D03*
Y130905D02*
D03*
Y128937D02*
D03*
Y126969D02*
D03*
Y125000D02*
D03*
Y123031D02*
D03*
Y121063D02*
D03*
Y119095D02*
D03*
Y117126D02*
D03*
Y111221D02*
D03*
X151476D02*
D03*
Y117126D02*
D03*
Y119095D02*
D03*
Y121063D02*
D03*
Y123031D02*
D03*
Y125000D02*
D03*
Y126969D02*
D03*
Y128937D02*
D03*
Y130905D02*
D03*
Y132874D02*
D03*
X114272D02*
D03*
Y130905D02*
D03*
Y128937D02*
D03*
Y126969D02*
D03*
Y125000D02*
D03*
Y123031D02*
D03*
Y121063D02*
D03*
Y119095D02*
D03*
Y117126D02*
D03*
Y111221D02*
D03*
X121949D02*
D03*
Y117126D02*
D03*
Y119095D02*
D03*
Y121063D02*
D03*
Y123031D02*
D03*
Y125000D02*
D03*
Y126969D02*
D03*
Y128937D02*
D03*
Y130905D02*
D03*
Y132874D02*
D03*
D17*
X147638Y136653D02*
X148819Y137835D01*
X147638Y107441D02*
X148819Y106260D01*
X157874Y131102D02*
Y138583D01*
X155512Y128740D02*
X157874Y131102D01*
X155512Y126378D02*
Y128740D01*
X154134Y125000D02*
X155512Y126378D01*
X110630Y140157D02*
X113386Y142913D01*
X153543D01*
X157874Y138583D01*
X110630Y137402D02*
X114567Y141339D01*
X110630Y125984D02*
Y137402D01*
Y125984D02*
X111614Y125000D01*
X150394Y141339D02*
X155905Y135827D01*
X114567Y141339D02*
X150394D01*
X140551Y115173D02*
X143783D01*
X151476Y130905D02*
X152657D01*
X148031Y130921D02*
X151461D01*
X151476Y130905D01*
X114272D02*
X118095D01*
X118110Y130921D01*
X114272Y128937D02*
X118095D01*
X118110Y128921D01*
X151476Y128937D02*
X152657D01*
X151461Y128921D02*
X151476Y128937D01*
X148031Y128921D02*
X151461D01*
X118095Y113189D02*
X118110Y113173D01*
X114272Y113189D02*
X118095D01*
X151476D02*
X152657D01*
X151461Y113173D02*
X151476Y113189D01*
X148031Y113173D02*
X151461D01*
X118095Y115157D02*
X118110Y115173D01*
X114272Y115157D02*
X118095D01*
X148031Y115173D02*
X151461D01*
X151476Y115157D01*
X110630Y120472D02*
X112008Y119095D01*
X114272D01*
X130812Y136239D02*
X132293Y134758D01*
X128243Y136239D02*
X130812D01*
X131093Y132668D02*
Y134261D01*
X130315Y135039D02*
X131093Y134261D01*
X128740Y135039D02*
X130315D01*
X127972Y134271D02*
X128740Y135039D01*
X124316Y113189D02*
X124700Y113573D01*
X121949Y113189D02*
X124316D01*
X124700Y113573D02*
X125591D01*
X126772Y112392D01*
Y109327D02*
Y112392D01*
Y109327D02*
X127892Y108207D01*
X127892D01*
X128243Y107855D02*
X128243D01*
X130812D02*
X132293Y109336D01*
X127892Y108207D02*
X128243Y107855D01*
X130812D01*
X132293Y111421D02*
X132677Y111805D01*
X132293Y109336D02*
Y111421D01*
X121949Y115157D02*
X124316D01*
X124700Y114773D01*
X126088D01*
X127972Y112889D01*
Y109824D02*
Y112889D01*
Y109824D02*
X128740Y109055D01*
X130315D01*
X131093Y109833D01*
Y111427D01*
X130709Y111811D02*
X131093Y111427D01*
X140551Y128921D02*
X143291D01*
X130709Y132283D02*
X131093Y132668D01*
X127972Y131205D02*
Y134271D01*
X126088Y129321D02*
X127972Y131205D01*
X124700Y129321D02*
X126088D01*
X124316Y128937D02*
X124700Y129321D01*
X121949Y128937D02*
X124316D01*
X143291Y128921D02*
X143307Y128937D01*
X132293Y132674D02*
Y134758D01*
Y132674D02*
X132677Y132290D01*
X127892Y135888D02*
X128243Y136239D01*
X128243D02*
X128243D01*
X127892Y135888D02*
X127892D01*
X126772Y134768D02*
X127892Y135888D01*
X126772Y131702D02*
Y134768D01*
X125591Y130521D02*
X126772Y131702D01*
X124700Y130521D02*
X125591D01*
X121949Y130905D02*
X124316D01*
X124700Y130521D01*
X143783Y130921D02*
X143799Y130905D01*
X144980D01*
X140551Y130921D02*
X143783D01*
X151476Y111221D02*
X152657D01*
Y125000D02*
X154134D01*
X140551Y113173D02*
X143783D01*
X143799Y113189D01*
X143783Y115173D02*
X143799Y115157D01*
Y121063D02*
X143815Y121047D01*
X148031D01*
X143799Y123031D02*
X143815Y123047D01*
X148031D01*
X143799Y113189D02*
X144980D01*
X143799Y115157D02*
X144980D01*
X111614Y125000D02*
X114272D01*
X117307Y123031D02*
X117323Y123047D01*
X114272Y123031D02*
X117307D01*
Y121063D02*
X117323Y121047D01*
X114272Y121063D02*
X117307D01*
X144980Y125000D02*
X147047D01*
X144980Y119095D02*
X147047D01*
X118701Y125000D02*
X121949D01*
D18*
X107087Y113189D02*
X109055Y111221D01*
X107087Y113189D02*
Y115157D01*
X109055Y111221D02*
X109055Y111221D01*
X114272D01*
X140354Y132874D02*
X143799D01*
X152657Y111221D02*
X156890D01*
X158661Y112992D01*
Y122047D01*
X123819Y111221D02*
X124803Y110236D01*
X121949Y111221D02*
X123819D01*
X140354D02*
X143799D01*
X121949Y126969D02*
X125591D01*
X121949Y117126D02*
X125591D01*
X140696D02*
X143799D01*
X140696Y126969D02*
X143799D01*
X118110Y111221D02*
X121949D01*
X147638Y132874D02*
Y136653D01*
X143799Y132874D02*
X147638D01*
X151476D01*
X147638Y111221D02*
X151476D01*
X143799D02*
X147638D01*
Y107441D02*
Y111221D01*
X143799Y126969D02*
X151476D01*
X143799Y117126D02*
X151476D01*
X114272Y111221D02*
X118110D01*
Y106260D02*
Y111221D01*
Y132874D02*
X121949D01*
X114272D02*
X118110D01*
Y137835D01*
X121949Y132874D02*
Y134153D01*
X114272Y117126D02*
X121949D01*
X114272Y126969D02*
X121949D01*
D19*
X134646Y138583D02*
X140354Y132874D01*
X126378Y138583D02*
X134646D01*
X121949Y134153D02*
X126378Y138583D01*
X124803Y108268D02*
Y110236D01*
X135433Y106299D02*
X140354Y111221D01*
X126772Y106299D02*
X135433D01*
X124803Y108268D02*
X126772Y106299D01*
X125591Y126969D02*
X126575D01*
X125591Y117126D02*
X126575D01*
X138189Y122047D02*
X140157Y120079D01*
Y117664D02*
Y120079D01*
Y117664D02*
X140696Y117126D01*
X140157Y126430D02*
X140696Y126969D01*
X140157Y124016D02*
Y126430D01*
X127559Y127953D02*
X131838D01*
X126575Y126969D02*
X127559Y127953D01*
X126575Y117126D02*
X127559Y116142D01*
X131838D01*
X133071Y119182D02*
X135936Y122047D01*
X133071Y117375D02*
Y119182D01*
X131838Y116142D02*
X133071Y117375D01*
X131838Y127953D02*
X133071Y126719D01*
Y124913D02*
Y126719D01*
Y124913D02*
X135936Y122047D01*
X138189D02*
X140157Y124016D01*
D20*
X135936Y122047D02*
X138189D01*
D21*
X158661D02*
D03*
X129134D02*
D03*
D22*
X136614Y128937D02*
D03*
Y115157D02*
D03*
X107087Y128937D02*
D03*
Y115157D02*
D03*
D23*
X147638Y106260D02*
D03*
Y137835D02*
D03*
X118110Y106260D02*
D03*
Y137835D02*
D03*
D24*
X110630Y140157D02*
D03*
X125591Y117126D02*
D03*
Y126969D02*
D03*
X140551Y115173D02*
D03*
X140696Y117126D02*
D03*
Y126969D02*
D03*
X148031Y130921D02*
D03*
X118110D02*
D03*
Y128921D02*
D03*
X148031D02*
D03*
X155905Y135827D02*
D03*
X118110Y113173D02*
D03*
X148031D02*
D03*
X118110Y115173D02*
D03*
X148031D02*
D03*
X110630Y120472D02*
D03*
X132677Y111805D02*
D03*
X130709Y111811D02*
D03*
X140551Y128921D02*
D03*
X130709Y132283D02*
D03*
X132677Y132290D02*
D03*
X140551Y130921D02*
D03*
Y113173D02*
D03*
X147047Y119095D02*
D03*
Y125000D02*
D03*
X148031Y123047D02*
D03*
Y121047D02*
D03*
X117323D02*
D03*
Y123047D02*
D03*
X118701Y125000D02*
D03*
M02*
