G04*
G04 #@! TF.GenerationSoftware,Altium Limited,Altium Designer,18.0.12 (696)*
G04*
G04 Layer_Color=65535*
%FSLAX25Y25*%
%MOIN*%
G70*
G01*
G75*
%ADD10C,0.00800*%
D10*
X292532Y281570D02*
X293865D01*
X293199D01*
Y277572D01*
X292532D01*
X293865D01*
X295865D02*
Y280237D01*
X297864D01*
X298530Y279571D01*
Y277572D01*
X300530Y280904D02*
Y280237D01*
X299863D01*
X301196D01*
X300530D01*
Y278238D01*
X301196Y277572D01*
X303196D02*
Y278238D01*
X303862D01*
Y277572D01*
X303196D01*
X310526Y281570D02*
Y277572D01*
X312526D01*
X313192Y278238D01*
Y278905D01*
X312526Y279571D01*
X310526D01*
X312526D01*
X313192Y280237D01*
Y280904D01*
X312526Y281570D01*
X310526D01*
X315192Y277572D02*
X316525D01*
X317191Y278238D01*
Y279571D01*
X316525Y280237D01*
X315192D01*
X314525Y279571D01*
Y278238D01*
X315192Y277572D01*
X319190Y280237D02*
X320523D01*
X321190Y279571D01*
Y277572D01*
X319190D01*
X318524Y278238D01*
X319190Y278905D01*
X321190D01*
X322523Y280237D02*
Y277572D01*
Y278905D01*
X323189Y279571D01*
X323855Y280237D01*
X324522D01*
X329187Y281570D02*
Y277572D01*
X327188D01*
X326521Y278238D01*
Y279571D01*
X327188Y280237D01*
X329187D01*
X421956Y283148D02*
Y285814D01*
X419957D01*
Y284481D01*
Y285814D01*
X417957D01*
X420623Y281816D02*
X417957D01*
X419290D01*
X419957Y281149D01*
X420623Y280483D01*
Y279816D01*
Y277150D02*
Y275817D01*
X419957Y275151D01*
X417957D01*
Y277150D01*
X418624Y277817D01*
X419290Y277150D01*
Y275151D01*
X417957Y273818D02*
X420623D01*
Y273152D01*
X419957Y272485D01*
X417957D01*
X419957D01*
X420623Y271819D01*
X419957Y271152D01*
X417957D01*
Y267820D02*
Y269153D01*
X418624Y269819D01*
X419957D01*
X420623Y269153D01*
Y267820D01*
X419957Y267154D01*
X419290D01*
Y269819D01*
X420623Y265821D02*
X418624D01*
X417957Y265154D01*
X418624Y264488D01*
X417957Y263821D01*
X418624Y263155D01*
X420623D01*
X417957Y261156D02*
Y259823D01*
X418624Y259156D01*
X419957D01*
X420623Y259823D01*
Y261156D01*
X419957Y261822D01*
X418624D01*
X417957Y261156D01*
X420623Y257823D02*
X417957D01*
X419290D01*
X419957Y257157D01*
X420623Y256490D01*
Y255824D01*
X417957Y253824D02*
X421956D01*
X419290D02*
X420623Y251825D01*
X419290Y253824D02*
X417957Y251825D01*
X421956Y245827D02*
Y243161D01*
X421290D01*
X418624Y245827D01*
X417957D01*
X421290Y241828D02*
X421956Y241162D01*
Y239829D01*
X421290Y239163D01*
X418624D01*
X417957Y239829D01*
Y241162D01*
X418624Y241828D01*
X421290D01*
X417957Y237830D02*
Y236497D01*
Y237163D01*
X421956D01*
X421290Y237830D01*
Y231832D02*
X421956Y232498D01*
Y233831D01*
X421290Y234497D01*
X418624D01*
X417957Y233831D01*
Y232498D01*
X418624Y231832D01*
X415238Y283148D02*
Y285814D01*
X413238D01*
Y284481D01*
Y285814D01*
X411239D01*
Y281816D02*
Y280483D01*
Y281149D01*
X415238D01*
Y281816D01*
X411239Y276484D02*
Y277817D01*
X411905Y278483D01*
X413238D01*
X413905Y277817D01*
Y276484D01*
X413238Y275817D01*
X412572D01*
Y278483D01*
X413905Y274484D02*
X411239Y271819D01*
X412572Y273152D01*
X413905Y271819D01*
X411239Y274484D01*
X415238Y263821D02*
Y265154D01*
Y264488D01*
X411905D01*
X411239Y265154D01*
Y265821D01*
X411905Y266487D01*
X413905Y262488D02*
X411905D01*
X411239Y261822D01*
Y259823D01*
X413905D01*
X411239Y258490D02*
X413905D01*
Y257823D01*
X413238Y257157D01*
X411239D01*
X413238D01*
X413905Y256490D01*
X413238Y255824D01*
X411239D01*
X409906Y254491D02*
X413905D01*
Y252492D01*
X413238Y251825D01*
X411905D01*
X411239Y252492D01*
Y254491D01*
Y248493D02*
Y249826D01*
X411905Y250492D01*
X413238D01*
X413905Y249826D01*
Y248493D01*
X413238Y247826D01*
X412572D01*
Y250492D01*
X413905Y246494D02*
X411239D01*
X412572D01*
X413238Y245827D01*
X413905Y245161D01*
Y244494D01*
X403188Y285814D02*
X407187D01*
Y283815D01*
X406520Y283148D01*
X405187D01*
X404521Y283815D01*
Y285814D01*
Y284481D02*
X403188Y283148D01*
Y279816D02*
Y281149D01*
X403854Y281816D01*
X405187D01*
X405854Y281149D01*
Y279816D01*
X405187Y279150D01*
X404521D01*
Y281816D01*
X405854Y277817D02*
X403188Y276484D01*
X405854Y275151D01*
X403188Y269819D02*
X405854D01*
X407187Y268486D01*
X405854Y267154D01*
X403188D01*
X405187D01*
Y269819D01*
X400468Y285814D02*
X396469D01*
X397802D01*
X400468Y283148D01*
X398469Y285148D01*
X396469Y283148D01*
X399135Y281149D02*
Y279816D01*
X398469Y279150D01*
X396469D01*
Y281149D01*
X397136Y281816D01*
X397802Y281149D01*
Y279150D01*
X399135Y277817D02*
X396469D01*
X397802D01*
X398469Y277150D01*
X399135Y276484D01*
Y275817D01*
X396469Y273818D02*
Y272485D01*
Y273152D01*
X400468D01*
Y273818D01*
Y266487D02*
X396469D01*
Y264488D01*
X397136Y263821D01*
X397802D01*
X398469Y264488D01*
Y266487D01*
Y264488D01*
X399135Y263821D01*
X399801D01*
X400468Y264488D01*
Y266487D01*
X399135Y262488D02*
X397136D01*
X396469Y261822D01*
Y259823D01*
X399135D01*
Y255824D02*
Y257823D01*
X398469Y258490D01*
X397136D01*
X396469Y257823D01*
Y255824D01*
X400468Y254491D02*
X396469D01*
X398469D01*
X399135Y253824D01*
Y252492D01*
X398469Y251825D01*
X396469D01*
Y250492D02*
X400468D01*
X397802D02*
X399135Y248493D01*
X397802Y250492D02*
X396469Y248493D01*
X399135Y245827D02*
Y244494D01*
X398469Y243828D01*
X396469D01*
Y245827D01*
X397136Y246494D01*
X397802Y245827D01*
Y243828D01*
X396469Y235830D02*
Y238496D01*
X399135Y235830D01*
X399801D01*
X400468Y236497D01*
Y237830D01*
X399801Y238496D01*
Y234497D02*
X400468Y233831D01*
Y232498D01*
X399801Y231832D01*
X397136D01*
X396469Y232498D01*
Y233831D01*
X397136Y234497D01*
X399801D01*
X396469Y227833D02*
Y230499D01*
X399135Y227833D01*
X399801D01*
X400468Y228499D01*
Y229832D01*
X399801Y230499D01*
Y226500D02*
X400468Y225834D01*
Y224501D01*
X399801Y223834D01*
X399135D01*
X398469Y224501D01*
Y225167D01*
Y224501D01*
X397802Y223834D01*
X397136D01*
X396469Y224501D01*
Y225834D01*
X397136Y226500D01*
X379056Y215035D02*
X376391D01*
Y213036D01*
X377724D01*
X376391D01*
Y211036D01*
X380389Y213702D02*
Y211036D01*
Y212369D01*
X381056Y213036D01*
X381722Y213702D01*
X382389D01*
X385054D02*
X386387D01*
X387054Y213036D01*
Y211036D01*
X385054D01*
X384388Y211703D01*
X385054Y212369D01*
X387054D01*
X388387Y211036D02*
Y213702D01*
X389053D01*
X389720Y213036D01*
Y211036D01*
Y213036D01*
X390386Y213702D01*
X391053Y213036D01*
Y211036D01*
X394385D02*
X393052D01*
X392385Y211703D01*
Y213036D01*
X393052Y213702D01*
X394385D01*
X395051Y213036D01*
Y212369D01*
X392385D01*
X396384Y213702D02*
Y211703D01*
X397051Y211036D01*
X397717Y211703D01*
X398383Y211036D01*
X399050Y211703D01*
Y213702D01*
X401049Y211036D02*
X402382D01*
X403049Y211703D01*
Y213036D01*
X402382Y213702D01*
X401049D01*
X400383Y213036D01*
Y211703D01*
X401049Y211036D01*
X404382Y213702D02*
Y211036D01*
Y212369D01*
X405048Y213036D01*
X405714Y213702D01*
X406381D01*
X408380Y211036D02*
Y215035D01*
Y212369D02*
X410380Y213702D01*
X408380Y212369D02*
X410380Y211036D01*
M02*
