G04*
G04 #@! TF.GenerationSoftware,Altium Limited,Altium Designer,18.0.12 (696)*
G04*
G04 Layer_Color=32896*
%FSLAX25Y25*%
%MOIN*%
G70*
G01*
G75*
%ADD10C,0.00800*%
%ADD16C,0.01968*%
%ADD17C,0.00787*%
D10*
X344578Y314235D02*
X345911D01*
X345245D01*
Y310903D01*
X345911Y310236D01*
X346578D01*
X347244Y310903D01*
X340580Y310236D02*
X343245D01*
X340580Y312902D01*
Y313568D01*
X341246Y314235D01*
X342579D01*
X343245Y313568D01*
X418988Y213447D02*
X420321D01*
X419654D01*
Y210115D01*
X420321Y209449D01*
X420987D01*
X421654Y210115D01*
X417655Y209449D02*
X416322D01*
X416988D01*
Y213447D01*
X417655Y212781D01*
D16*
X285039Y296161D02*
G03*
X285039Y296161I-787J0D01*
G01*
X367323Y189370D02*
G03*
X367323Y189370I-787J0D01*
G01*
D17*
X283858Y307972D02*
X285827D01*
X283858Y299311D02*
Y307972D01*
Y299311D02*
X285827D01*
X337008Y307972D02*
X338976D01*
X337008Y299311D02*
X338976D01*
Y307972D01*
X421260Y192520D02*
Y201181D01*
X419291D02*
X421260D01*
X419291Y192520D02*
X421260D01*
X366142Y201181D02*
X368110D01*
X366142Y192520D02*
X368110D01*
X366142D02*
Y201181D01*
M02*
