G04*
G04 #@! TF.GenerationSoftware,Altium Limited,Altium Designer,18.0.12 (696)*
G04*
G04 Layer_Color=16711935*
%FSLAX25Y25*%
%MOIN*%
G70*
G01*
G75*
%ADD11C,0.02600*%
%ADD15R,0.01981X0.07099*%
D11*
X335039Y319886D02*
D03*
X333071Y315823D02*
D03*
X331102Y317854D02*
D03*
X329134Y319886D02*
D03*
X327165Y315917D02*
D03*
X325197Y318008D02*
D03*
X323228Y319980D02*
D03*
X321260Y315823D02*
D03*
X319291Y317854D02*
D03*
X317323Y319886D02*
D03*
X315354Y315917D02*
D03*
X313386Y318008D02*
D03*
X287795Y319980D02*
D03*
X289764Y318008D02*
D03*
X291732Y315917D02*
D03*
X293701Y319886D02*
D03*
X295669Y317854D02*
D03*
X297638Y315823D02*
D03*
X299606Y319980D02*
D03*
X301575Y318008D02*
D03*
X303543Y315917D02*
D03*
X305512Y319886D02*
D03*
X307480Y317854D02*
D03*
X309449Y315823D02*
D03*
X311417Y319980D02*
D03*
X370079Y293307D02*
D03*
X372047Y291335D02*
D03*
X381890Y293307D02*
D03*
X417323Y293213D02*
D03*
X415354Y289150D02*
D03*
X413386Y291181D02*
D03*
X411417Y293213D02*
D03*
X409449Y289244D02*
D03*
X407480Y291335D02*
D03*
X405512Y293307D02*
D03*
X403543Y289150D02*
D03*
X401575Y291181D02*
D03*
X399606Y293213D02*
D03*
X397638Y289244D02*
D03*
X395669Y291335D02*
D03*
X393701Y293307D02*
D03*
X391732Y289150D02*
D03*
X389764Y291181D02*
D03*
X387795Y293213D02*
D03*
X385827Y289244D02*
D03*
X383858Y291335D02*
D03*
X379921Y289150D02*
D03*
X377953Y291181D02*
D03*
X375984Y293213D02*
D03*
X374016Y289244D02*
D03*
X415354Y194858D02*
D03*
X413386Y196890D02*
D03*
X411417Y198921D02*
D03*
X409449Y194953D02*
D03*
X407480Y197043D02*
D03*
X405512Y199016D02*
D03*
X403543Y194858D02*
D03*
X401575Y196890D02*
D03*
X399606Y198921D02*
D03*
X397638Y194953D02*
D03*
X395669Y197043D02*
D03*
X370079Y199016D02*
D03*
X372047Y197043D02*
D03*
X374016Y194953D02*
D03*
X375984Y198921D02*
D03*
X377953Y196890D02*
D03*
X379921Y194858D02*
D03*
X381890Y199016D02*
D03*
X383858Y197043D02*
D03*
X385827Y194953D02*
D03*
X387795Y198921D02*
D03*
X389764Y196890D02*
D03*
X391732Y194858D02*
D03*
X393701Y199016D02*
D03*
X417323Y198921D02*
D03*
X335039Y287303D02*
D03*
X333071Y289276D02*
D03*
X331102Y291366D02*
D03*
X329134Y287398D02*
D03*
X327165Y289429D02*
D03*
X325197Y291461D02*
D03*
X323228Y287303D02*
D03*
X321260Y289276D02*
D03*
X319291Y291366D02*
D03*
X317323Y287398D02*
D03*
X315354Y289429D02*
D03*
X313386Y291461D02*
D03*
X287795Y287398D02*
D03*
X289764Y291461D02*
D03*
X291732Y289429D02*
D03*
X293701Y287398D02*
D03*
X295669Y291366D02*
D03*
X297638Y289276D02*
D03*
X299606Y287303D02*
D03*
X301575Y291461D02*
D03*
X303543Y289429D02*
D03*
X305512Y287398D02*
D03*
X307480Y291366D02*
D03*
X309449Y289276D02*
D03*
X311417Y287303D02*
D03*
D15*
X293701Y310728D02*
D03*
X291732D02*
D03*
X297638D02*
D03*
X295669D02*
D03*
X289764D02*
D03*
X287795D02*
D03*
X307480D02*
D03*
X305512D02*
D03*
X311417D02*
D03*
X309449D02*
D03*
X301575D02*
D03*
X299606D02*
D03*
X303543D02*
D03*
X291732Y296555D02*
D03*
X289764D02*
D03*
X295669D02*
D03*
X293701D02*
D03*
X287795D02*
D03*
X305512D02*
D03*
X303543D02*
D03*
X309449D02*
D03*
X307480D02*
D03*
X299606D02*
D03*
X297638D02*
D03*
X301575D02*
D03*
X323228Y310728D02*
D03*
X321260D02*
D03*
X327165D02*
D03*
X325197D02*
D03*
X315354D02*
D03*
X313386D02*
D03*
X319291D02*
D03*
X317323D02*
D03*
X331102D02*
D03*
X329134D02*
D03*
X335039D02*
D03*
X333071D02*
D03*
X313386Y296555D02*
D03*
X311417D02*
D03*
X315354D02*
D03*
X319291D02*
D03*
X317323D02*
D03*
X321260D02*
D03*
X331102D02*
D03*
X329134D02*
D03*
X335039D02*
D03*
X333071D02*
D03*
X325197D02*
D03*
X323228D02*
D03*
X327165D02*
D03*
X370079Y189764D02*
D03*
Y203937D02*
D03*
X372047Y189764D02*
D03*
Y203937D02*
D03*
X374016Y189764D02*
D03*
Y203937D02*
D03*
X375984Y189764D02*
D03*
Y203937D02*
D03*
X377953Y189764D02*
D03*
Y203937D02*
D03*
X379921Y189764D02*
D03*
Y203937D02*
D03*
X381890Y189764D02*
D03*
Y203937D02*
D03*
X383858Y189764D02*
D03*
Y203937D02*
D03*
X385827Y189764D02*
D03*
Y203937D02*
D03*
X387795Y189764D02*
D03*
Y203937D02*
D03*
X389764Y189764D02*
D03*
Y203937D02*
D03*
X391732Y189764D02*
D03*
Y203937D02*
D03*
X393701Y189764D02*
D03*
Y203937D02*
D03*
X395669Y189764D02*
D03*
Y203937D02*
D03*
X397638Y189764D02*
D03*
Y203937D02*
D03*
X399606Y189764D02*
D03*
Y203937D02*
D03*
X401575Y189764D02*
D03*
Y203937D02*
D03*
X403543Y189764D02*
D03*
Y203937D02*
D03*
X405512Y189764D02*
D03*
Y203937D02*
D03*
X407480Y189764D02*
D03*
Y203937D02*
D03*
X409449Y189764D02*
D03*
Y203937D02*
D03*
X411417Y189764D02*
D03*
Y203937D02*
D03*
X413386Y189764D02*
D03*
Y203937D02*
D03*
X415354Y189764D02*
D03*
Y203937D02*
D03*
X417323Y189764D02*
D03*
Y203937D02*
D03*
M02*
