G04*
G04 #@! TF.GenerationSoftware,Altium Limited,Altium Designer,18.0.12 (696)*
G04*
G04 Layer_Color=39423*
%FSLAX25Y25*%
%MOIN*%
G70*
G01*
G75*
%ADD10C,0.00800*%
%ADD12C,0.00600*%
%ADD18C,0.00394*%
%ADD19C,0.00400*%
D10*
X370485Y199439D02*
X373151D01*
X371818D01*
Y195440D01*
X375150D02*
X376483D01*
X377150Y196106D01*
Y197439D01*
X376483Y198106D01*
X375150D01*
X374484Y197439D01*
Y196106D01*
X375150Y195440D01*
X378483Y194107D02*
Y198106D01*
X380482D01*
X381148Y197439D01*
Y196106D01*
X380482Y195440D01*
X378483D01*
X389146Y198772D02*
X388479Y199439D01*
X387146D01*
X386480Y198772D01*
Y198106D01*
X387146Y197439D01*
X388479D01*
X389146Y196773D01*
Y196106D01*
X388479Y195440D01*
X387146D01*
X386480Y196106D01*
X391145Y198772D02*
Y198106D01*
X390479D01*
X391811D01*
X391145D01*
Y196106D01*
X391811Y195440D01*
X393811D02*
X395144D01*
X394477D01*
Y198106D01*
X393811D01*
X397810Y195440D02*
Y198772D01*
Y197439D01*
X397143D01*
X398476D01*
X397810D01*
Y198772D01*
X398476Y199439D01*
X401142Y195440D02*
Y198772D01*
Y197439D01*
X400475D01*
X401808D01*
X401142D01*
Y198772D01*
X401808Y199439D01*
X405807Y195440D02*
X404474D01*
X403808Y196106D01*
Y197439D01*
X404474Y198106D01*
X405807D01*
X406473Y197439D01*
Y196773D01*
X403808D01*
X407806Y195440D02*
Y198106D01*
X409806D01*
X410472Y197439D01*
Y195440D01*
X413804D02*
X412471D01*
X411805Y196106D01*
Y197439D01*
X412471Y198106D01*
X413804D01*
X414471Y197439D01*
Y196773D01*
X411805D01*
X415804Y198106D02*
Y195440D01*
Y196773D01*
X416470Y197439D01*
X417137Y198106D01*
X417803D01*
X288202Y306132D02*
X290867D01*
X289534D01*
Y302133D01*
X292867D02*
X294200D01*
X294866Y302799D01*
Y304132D01*
X294200Y304799D01*
X292867D01*
X292200Y304132D01*
Y302799D01*
X292867Y302133D01*
X296199Y300800D02*
Y304799D01*
X298198D01*
X298865Y304132D01*
Y302799D01*
X298198Y302133D01*
X296199D01*
X306862Y305465D02*
X306196Y306132D01*
X304863D01*
X304196Y305465D01*
Y304799D01*
X304863Y304132D01*
X306196D01*
X306862Y303466D01*
Y302799D01*
X306196Y302133D01*
X304863D01*
X304196Y302799D01*
X308862Y305465D02*
Y304799D01*
X308195D01*
X309528D01*
X308862D01*
Y302799D01*
X309528Y302133D01*
X311527D02*
X312860D01*
X312194D01*
Y304799D01*
X311527D01*
X315526Y302133D02*
Y305465D01*
Y304132D01*
X314860D01*
X316193D01*
X315526D01*
Y305465D01*
X316193Y306132D01*
X318858Y302133D02*
Y305465D01*
Y304132D01*
X318192D01*
X319525D01*
X318858D01*
Y305465D01*
X319525Y306132D01*
X323523Y302133D02*
X322191D01*
X321524Y302799D01*
Y304132D01*
X322191Y304799D01*
X323523D01*
X324190Y304132D01*
Y303466D01*
X321524D01*
X325523Y302133D02*
Y304799D01*
X327522D01*
X328189Y304132D01*
Y302133D01*
X331521D02*
X330188D01*
X329522Y302799D01*
Y304132D01*
X330188Y304799D01*
X331521D01*
X332187Y304132D01*
Y303466D01*
X329522D01*
X333520Y304799D02*
Y302133D01*
Y303466D01*
X334187Y304132D01*
X334853Y304799D01*
X335520D01*
D12*
X307087Y275773D02*
X307753Y276440D01*
X309086D01*
X309752Y275773D01*
Y275107D01*
X309086Y274440D01*
X309752Y273774D01*
Y273107D01*
X309086Y272441D01*
X307753D01*
X307087Y273107D01*
Y273774D01*
X307753Y274440D01*
X307087Y275107D01*
Y275773D01*
X307753Y274440D02*
X309086D01*
X311085Y275107D02*
X313751Y272441D01*
X312418Y273774D01*
X313751Y275107D01*
X311085Y272441D01*
X319083D02*
Y276440D01*
X321082D01*
X321748Y275773D01*
Y274440D01*
X321082Y273774D01*
X319083D01*
X320416D02*
X321748Y272441D01*
X327080D02*
X328413D01*
X327747D01*
Y276440D01*
X327080Y275773D01*
X330412Y272441D02*
Y273107D01*
X331079D01*
Y272441D01*
X330412D01*
X333745Y275773D02*
X334411Y276440D01*
X335744D01*
X336410Y275773D01*
Y273107D01*
X335744Y272441D01*
X334411D01*
X333745Y273107D01*
Y275773D01*
X337743D02*
X338410Y276440D01*
X339743D01*
X340409Y275773D01*
Y273107D01*
X339743Y272441D01*
X338410D01*
X337743Y273107D01*
Y275773D01*
X435038Y201313D02*
X434382Y202625D01*
X433070Y203937D01*
X431758D01*
X431102Y203281D01*
Y201969D01*
X431758Y201313D01*
X432414D01*
X433070Y201969D01*
Y203937D01*
X431102Y200001D02*
X431758D01*
Y199345D01*
X431102D01*
Y200001D01*
X434382Y196721D02*
X435038Y196065D01*
Y194754D01*
X434382Y194098D01*
X431758D01*
X431102Y194754D01*
Y196065D01*
X431758Y196721D01*
X434382D01*
Y192786D02*
X435038Y192130D01*
Y190818D01*
X434382Y190162D01*
X431758D01*
X431102Y190818D01*
Y192130D01*
X431758Y192786D01*
X434382D01*
X383573Y178141D02*
X384885D01*
X384229D01*
Y182077D01*
X383573Y181421D01*
X389477Y182077D02*
X386853D01*
Y180109D01*
X388165Y180765D01*
X388821D01*
X389477Y180109D01*
Y178797D01*
X388821Y178141D01*
X387509D01*
X386853Y178797D01*
X390789Y178141D02*
Y178797D01*
X391445D01*
Y178141D01*
X390789D01*
X394069Y181421D02*
X394725Y182077D01*
X396037D01*
X396692Y181421D01*
Y178797D01*
X396037Y178141D01*
X394725D01*
X394069Y178797D01*
Y181421D01*
X398004D02*
X398660Y182077D01*
X399972D01*
X400628Y181421D01*
Y178797D01*
X399972Y178141D01*
X398660D01*
X398004Y178797D01*
Y181421D01*
X276190Y293810D02*
Y295122D01*
Y294465D01*
X272254D01*
X272910Y293810D01*
Y297089D02*
X272254Y297745D01*
Y299057D01*
X272910Y299713D01*
X275534D01*
X276190Y299057D01*
Y297745D01*
X275534Y297089D01*
X272910D01*
X276190Y301025D02*
X275534D01*
Y301681D01*
X276190D01*
Y301025D01*
X272910Y304305D02*
X272254Y304961D01*
Y306273D01*
X272910Y306929D01*
X275534D01*
X276190Y306273D01*
Y304961D01*
X275534Y304305D01*
X272910D01*
Y308241D02*
X272254Y308897D01*
Y310209D01*
X272910Y310864D01*
X275534D01*
X276190Y310209D01*
Y308897D01*
X275534Y308241D01*
X272910D01*
X301290Y329322D02*
X302602D01*
X301946D01*
Y333258D01*
X301290Y332602D01*
X307193Y333258D02*
X304570D01*
Y331290D01*
X305882Y331946D01*
X306538D01*
X307193Y331290D01*
Y329978D01*
X306538Y329322D01*
X305226D01*
X304570Y329978D01*
X308505Y329322D02*
Y329978D01*
X309161D01*
Y329322D01*
X308505D01*
X311785Y332602D02*
X312441Y333258D01*
X313753D01*
X314409Y332602D01*
Y329978D01*
X313753Y329322D01*
X312441D01*
X311785Y329978D01*
Y332602D01*
X315721D02*
X316377Y333258D01*
X317689D01*
X318345Y332602D01*
Y329978D01*
X317689Y329322D01*
X316377D01*
X315721Y329978D01*
Y332602D01*
D18*
X340945Y319587D02*
G03*
X337008Y323524I-3937J0D01*
G01*
X337008Y284154D02*
G03*
X340945Y288090I0J3937D01*
G01*
X281890Y288090D02*
G03*
X285827Y284154I3937J0D01*
G01*
X423228Y204724D02*
G03*
X419291Y208661I-3937J0D01*
G01*
X368110D02*
G03*
X364173Y204724I0J-3937D01*
G01*
X419291Y185039D02*
G03*
X423228Y188976I0J3937D01*
G01*
X364173D02*
G03*
X368110Y185039I3937J0D01*
G01*
X285827Y323524D02*
G03*
X281890Y319587I0J-3937D01*
G01*
X423228Y185039D02*
X428559D01*
X423622Y208661D02*
X428559D01*
X427559Y185039D02*
Y196850D01*
Y208661D01*
Y185039D02*
X429559Y191039D01*
X425559D02*
X427559Y185039D01*
X425559Y202661D02*
X427559Y208661D01*
X429559Y202661D01*
X364173Y179709D02*
Y185039D01*
X423228Y179709D02*
Y185039D01*
X364173Y180709D02*
X381973D01*
X402228D02*
X423228D01*
X364173D02*
X370173Y178709D01*
X364173Y180709D02*
X370173Y182709D01*
X417228D02*
X423228Y180709D01*
X417228Y178709D02*
X423228Y180709D01*
X281890Y288090D02*
Y319587D01*
X285827Y284154D02*
X337008D01*
X272622Y323622D02*
X281890D01*
X272622Y284252D02*
X279528D01*
X273622Y312464D02*
Y323622D01*
Y284252D02*
Y292210D01*
X271622Y317622D02*
X273622Y323622D01*
X275622Y317622D01*
X273622Y284252D02*
X275622Y290252D01*
X271622D02*
X273622Y284252D01*
X340945Y323622D02*
Y332890D01*
X281890Y323622D02*
Y332890D01*
X319945Y331890D02*
X340945D01*
X281890D02*
X299690D01*
X334945Y333890D02*
X340945Y331890D01*
X334945Y329890D02*
X340945Y331890D01*
X281890D02*
X287890Y329890D01*
X281890Y331890D02*
X287890Y333890D01*
X340945Y288090D02*
Y319587D01*
X285827Y323524D02*
X337008D01*
X368206Y185039D02*
X419196D01*
X423228Y189072D02*
Y204724D01*
X368206Y208661D02*
X419196D01*
X364173Y189072D02*
Y204724D01*
D19*
X341978Y274936D02*
X346070Y279028D01*
X339792Y285307D02*
X346070Y279028D01*
X339792Y285307D02*
X342620Y279650D01*
X339792Y285307D02*
X345449Y282478D01*
M02*
