G04*
G04 #@! TF.GenerationSoftware,Altium Limited,Altium Designer,18.0.12 (696)*
G04*
G04 Layer_Physical_Order=1*
G04 Layer_Color=255*
%FSLAX25Y25*%
%MOIN*%
G70*
G01*
G75*
%ADD12C,0.00600*%
%ADD13C,0.01800*%
D12*
X323228Y316460D02*
Y319980D01*
Y316460D02*
X329233Y310455D01*
X335039Y319886D02*
X339070Y315855D01*
X394680D01*
X417323Y293213D01*
X415354Y289150D02*
Y292670D01*
X333939Y314955D02*
X393069D01*
X333071Y315823D02*
X333939Y314955D01*
X393069D02*
X415354Y292670D01*
X392696Y314055D02*
X413386Y293365D01*
Y291181D02*
Y293365D01*
X332717Y314055D02*
X392696D01*
X331102Y315670D02*
Y317854D01*
Y315670D02*
X332717Y314055D01*
X329134Y316366D02*
X332345Y313155D01*
X391475D01*
X329134Y316366D02*
Y319886D01*
X391475Y313155D02*
X411417Y293213D01*
X409449Y289244D02*
Y292764D01*
X327165Y315917D02*
X330828Y312255D01*
X389958D01*
X409449Y292764D01*
X389585Y311355D02*
X407480Y293460D01*
Y291335D02*
Y293460D01*
X329606Y311355D02*
X389585D01*
X325197Y315764D02*
Y318008D01*
Y315764D02*
X329606Y311355D01*
X388364Y310455D02*
X405512Y293307D01*
X329233Y310455D02*
X388364D01*
X403543Y289150D02*
Y292670D01*
X327528Y309555D02*
X386658D01*
X321260Y315823D02*
X327528Y309555D01*
X386658D02*
X403543Y292670D01*
X386285Y308655D02*
X401575Y293365D01*
Y291181D02*
Y293365D01*
X319291Y315670D02*
Y317854D01*
Y315670D02*
X326306Y308655D01*
X386285D01*
X385064Y307755D02*
X399606Y293213D01*
X317323Y316366D02*
Y319886D01*
Y316366D02*
X325933Y307755D01*
X385064D01*
X397638Y289244D02*
Y292764D01*
X324416Y306855D02*
X383547D01*
X397638Y292764D01*
X315354Y315917D02*
X324416Y306855D01*
X395669Y291335D02*
Y293460D01*
X313386Y315764D02*
Y318008D01*
X323195Y305955D02*
X383174D01*
X395669Y293460D01*
X313386Y315764D02*
X323195Y305955D01*
X369131Y294255D02*
X370079Y293307D01*
X287795Y316460D02*
Y319980D01*
Y316460D02*
X310000Y294255D01*
X369131D01*
X370352Y295155D02*
X372047Y293460D01*
Y291335D02*
Y293460D01*
X289764Y315764D02*
Y318008D01*
Y315764D02*
X310373Y295155D01*
X370352D01*
X374016Y289244D02*
Y292764D01*
X311595Y296055D02*
X370725D01*
X374016Y292764D01*
X291732Y315917D02*
X311595Y296055D01*
X372242Y296955D02*
X375984Y293213D01*
X293701Y316366D02*
Y319886D01*
Y316366D02*
X313111Y296955D01*
X372242D01*
X373463Y297855D02*
X377953Y293365D01*
Y291181D02*
Y293365D01*
X295669Y317854D02*
X296138Y317386D01*
Y315201D02*
Y317386D01*
Y315201D02*
X313484Y297855D01*
X373463D01*
X379921Y289150D02*
Y292670D01*
X314705Y298755D02*
X373836D01*
X379921Y292670D01*
X297638Y315823D02*
X314705Y298755D01*
X375542Y299655D02*
X381890Y293307D01*
X299606Y316460D02*
Y319980D01*
Y316460D02*
X316411Y299655D01*
X375542D01*
X383858Y291335D02*
Y293460D01*
X301575Y315764D02*
Y318008D01*
X316784Y300555D02*
X376763D01*
X383858Y293460D01*
X301575Y315764D02*
X316784Y300555D01*
X385827Y289244D02*
Y292764D01*
X318005Y301455D02*
X377136D01*
X385827Y292764D01*
X303543Y315917D02*
X318005Y301455D01*
X378653Y302355D02*
X387795Y293213D01*
X305512Y316366D02*
Y319886D01*
Y316366D02*
X319522Y302355D01*
X378653D01*
X389764Y291181D02*
Y293365D01*
X307480Y315670D02*
Y317854D01*
X319895Y303255D02*
X379874D01*
X389764Y293365D01*
X307480Y315670D02*
X319895Y303255D01*
X391732Y289150D02*
Y292670D01*
X321116Y304155D02*
X380247D01*
X391732Y292670D01*
X309449Y315823D02*
X321116Y304155D01*
X381953Y305055D02*
X393701Y293307D01*
X311417Y316460D02*
Y319980D01*
Y316460D02*
X322822Y305055D01*
X381953D01*
X404427Y214160D02*
Y272577D01*
X335782Y286561D02*
X390443D01*
X403527Y213091D02*
Y272204D01*
X334561Y285661D02*
X390070D01*
X402627Y212023D02*
Y271831D01*
X334188Y284761D02*
X389697D01*
X401727Y210954D02*
Y271459D01*
X332671Y283861D02*
X389325D01*
X400827Y209886D02*
Y271086D01*
X331450Y282961D02*
X388952D01*
X399927Y208817D02*
Y270713D01*
X331077Y282061D02*
X388579D01*
X399027Y207749D02*
Y270340D01*
X329371Y281161D02*
X388206D01*
X398127Y206680D02*
Y269967D01*
X328150Y280261D02*
X387833D01*
X397227Y205612D02*
Y269595D01*
X327777Y279361D02*
X387461D01*
X396327Y204543D02*
Y269222D01*
X326260Y278461D02*
X387088D01*
X395427Y203475D02*
Y268849D01*
X325039Y277561D02*
X386715D01*
X394527Y202406D02*
Y268476D01*
X324666Y276661D02*
X386342D01*
X393627Y199090D02*
Y268103D01*
X322960Y275761D02*
X385969D01*
X392727Y202258D02*
Y267731D01*
X321739Y274861D02*
X385597D01*
X391827Y203327D02*
Y267358D01*
X321366Y273961D02*
X385224D01*
X390927Y204395D02*
Y266985D01*
X319849Y273061D02*
X384851D01*
X390027Y205464D02*
Y266612D01*
X318628Y272161D02*
X384478D01*
X389127Y206532D02*
Y266239D01*
X318255Y271261D02*
X384106D01*
X388227Y207601D02*
Y265867D01*
X316549Y270361D02*
X383733D01*
X387327Y208669D02*
Y265494D01*
X315328Y269461D02*
X383360D01*
X386427Y209738D02*
Y265121D01*
X314955Y268561D02*
X382987D01*
X385527Y210806D02*
Y264748D01*
X313438Y267661D02*
X382614D01*
X384627Y211875D02*
Y264375D01*
X312216Y266761D02*
X382242D01*
X383727Y212943D02*
Y264003D01*
X311844Y265861D02*
X381869D01*
X390443Y286561D02*
X404427Y272577D01*
X390070Y285661D02*
X403527Y272204D01*
X389697Y284761D02*
X402627Y271831D01*
X389325Y283861D02*
X401727Y271459D01*
X388952Y282961D02*
X400827Y271086D01*
X388579Y282061D02*
X399927Y270713D01*
X388206Y281161D02*
X399027Y270340D01*
X387833Y280261D02*
X398127Y269967D01*
X387461Y279361D02*
X397227Y269595D01*
X387088Y278461D02*
X396327Y269222D01*
X386715Y277561D02*
X395427Y268849D01*
X386342Y276661D02*
X394527Y268476D01*
X385969Y275761D02*
X393627Y268103D01*
X385597Y274861D02*
X392727Y267731D01*
X385224Y273961D02*
X391827Y267358D01*
X384851Y273061D02*
X390927Y266985D01*
X384478Y272161D02*
X390027Y266612D01*
X384106Y271261D02*
X389127Y266239D01*
X383733Y270361D02*
X388227Y265867D01*
X383360Y269461D02*
X387327Y265494D01*
X382987Y268561D02*
X386427Y265121D01*
X382614Y267661D02*
X385527Y264748D01*
X382242Y266761D02*
X384627Y264375D01*
X381869Y265861D02*
X383727Y264003D01*
X382827Y214012D02*
Y263630D01*
X381496Y264961D02*
X382827Y263630D01*
X310232Y264961D02*
X381496D01*
X335039Y287303D02*
X335782Y286561D01*
X333071Y287150D02*
X334561Y285661D01*
X331102Y287846D02*
X334188Y284761D01*
X329134Y287398D02*
X332671Y283861D01*
X327634Y286776D02*
X331450Y282961D01*
X325197Y287941D02*
X331077Y282061D01*
X323228Y287303D02*
X329371Y281161D01*
X321260Y287150D02*
X328150Y280261D01*
X319291Y287846D02*
X327777Y279361D01*
X317323Y287398D02*
X326260Y278461D01*
X315354Y287245D02*
X325039Y277561D01*
X313386Y287941D02*
X324666Y276661D01*
X311417Y287303D02*
X322960Y275761D01*
X309449Y287150D02*
X321739Y274861D01*
X307480Y287846D02*
X321366Y273961D01*
X305512Y287398D02*
X319849Y273061D01*
X303543Y287245D02*
X318628Y272161D01*
X301575Y287941D02*
X318255Y271261D01*
X299606Y287303D02*
X316549Y270361D01*
X297638Y287150D02*
X315328Y269461D01*
X295669Y287846D02*
X314955Y268561D01*
X293701Y287398D02*
X313438Y267661D01*
X291732Y287245D02*
X312216Y266761D01*
X289764Y287941D02*
X311844Y265861D01*
X287795Y287398D02*
X310232Y264961D01*
X289764Y287941D02*
Y291461D01*
X291732Y287245D02*
Y289429D01*
X295669Y287846D02*
Y291366D01*
X297638Y287150D02*
Y289276D01*
X301575Y287941D02*
Y291461D01*
X303543Y287245D02*
Y289429D01*
X307480Y287846D02*
Y291366D01*
X309449Y287150D02*
Y289276D01*
X313386Y287941D02*
Y291461D01*
X315354Y287245D02*
Y289429D01*
X319291Y287846D02*
Y291366D01*
X321260Y287150D02*
Y289276D01*
X325197Y287941D02*
Y291461D01*
X333071Y287150D02*
Y289276D01*
X331102Y287846D02*
Y291366D01*
X393627Y199090D02*
X393701Y199016D01*
X403527Y213091D02*
X415354Y201264D01*
Y194858D02*
Y201264D01*
X402627Y212023D02*
X413386Y201264D01*
Y196890D02*
Y201264D01*
X401727Y210954D02*
X411417Y201264D01*
Y198921D02*
Y201264D01*
X400827Y209886D02*
X409449Y201264D01*
Y194953D02*
Y201264D01*
X399927Y208817D02*
X407480Y201264D01*
Y197043D02*
Y201264D01*
X399027Y207749D02*
X405512Y201264D01*
Y199016D02*
Y201264D01*
X398127Y206680D02*
X403543Y201264D01*
Y194858D02*
Y201264D01*
X397227Y205612D02*
X401575Y201264D01*
Y196890D02*
Y201264D01*
X396327Y204543D02*
X399606Y201264D01*
Y198921D02*
Y201264D01*
X395427Y203475D02*
X397638Y201264D01*
Y194953D02*
Y201264D01*
X394527Y202406D02*
X395669Y201264D01*
Y197043D02*
Y201264D01*
X370079D02*
X382827Y214012D01*
X370079Y199016D02*
Y201264D01*
X372047D02*
X383727Y212943D01*
X372047Y197043D02*
Y201264D01*
X374016D02*
X384627Y211875D01*
X374016Y194953D02*
Y201264D01*
X375984D02*
X385527Y210806D01*
X375984Y198921D02*
Y201264D01*
X377953D02*
X386427Y209738D01*
X377953Y196890D02*
Y201264D01*
X379921D02*
X387327Y208669D01*
X379921Y194858D02*
Y201264D01*
X381890D02*
X388227Y207601D01*
X381890Y199016D02*
Y201264D01*
X383858D02*
X389127Y206532D01*
X383858Y197043D02*
Y201264D01*
X385827D02*
X390027Y205464D01*
X385827Y194953D02*
Y201264D01*
X387795D02*
X390927Y204395D01*
X387795Y198921D02*
Y201264D01*
X389764D02*
X391827Y203327D01*
X389764Y196890D02*
Y201264D01*
X391732D02*
X392727Y202258D01*
X391732Y194858D02*
Y201264D01*
X404427Y214160D02*
X417323Y201264D01*
Y198921D02*
Y201264D01*
X327165Y289429D02*
X327634Y288961D01*
Y286776D02*
Y288961D01*
D13*
X335039Y319886D02*
D03*
X333071Y315823D02*
D03*
X331102Y317854D02*
D03*
X329134Y319886D02*
D03*
X327165Y315917D02*
D03*
X325197Y318008D02*
D03*
X323228Y319980D02*
D03*
X321260Y315823D02*
D03*
X319291Y317854D02*
D03*
X317323Y319886D02*
D03*
X315354Y315917D02*
D03*
X313386Y318008D02*
D03*
X287795Y319980D02*
D03*
X289764Y318008D02*
D03*
X291732Y315917D02*
D03*
X293701Y319886D02*
D03*
X295669Y317854D02*
D03*
X297638Y315823D02*
D03*
X299606Y319980D02*
D03*
X301575Y318008D02*
D03*
X303543Y315917D02*
D03*
X305512Y319886D02*
D03*
X307480Y317854D02*
D03*
X309449Y315823D02*
D03*
X311417Y319980D02*
D03*
X370079Y293307D02*
D03*
X372047Y291335D02*
D03*
X381890Y293307D02*
D03*
X417323Y293213D02*
D03*
X415354Y289150D02*
D03*
X413386Y291181D02*
D03*
X411417Y293213D02*
D03*
X409449Y289244D02*
D03*
X407480Y291335D02*
D03*
X405512Y293307D02*
D03*
X403543Y289150D02*
D03*
X401575Y291181D02*
D03*
X399606Y293213D02*
D03*
X397638Y289244D02*
D03*
X395669Y291335D02*
D03*
X393701Y293307D02*
D03*
X391732Y289150D02*
D03*
X389764Y291181D02*
D03*
X387795Y293213D02*
D03*
X385827Y289244D02*
D03*
X383858Y291335D02*
D03*
X379921Y289150D02*
D03*
X377953Y291181D02*
D03*
X375984Y293213D02*
D03*
X374016Y289244D02*
D03*
X415354Y194858D02*
D03*
X413386Y196890D02*
D03*
X411417Y198921D02*
D03*
X409449Y194953D02*
D03*
X407480Y197043D02*
D03*
X405512Y199016D02*
D03*
X403543Y194858D02*
D03*
X401575Y196890D02*
D03*
X399606Y198921D02*
D03*
X397638Y194953D02*
D03*
X395669Y197043D02*
D03*
X370079Y199016D02*
D03*
X372047Y197043D02*
D03*
X374016Y194953D02*
D03*
X375984Y198921D02*
D03*
X377953Y196890D02*
D03*
X379921Y194858D02*
D03*
X381890Y199016D02*
D03*
X383858Y197043D02*
D03*
X385827Y194953D02*
D03*
X387795Y198921D02*
D03*
X389764Y196890D02*
D03*
X391732Y194858D02*
D03*
X393701Y199016D02*
D03*
X417323Y198921D02*
D03*
X335039Y287303D02*
D03*
X333071Y289276D02*
D03*
X331102Y291366D02*
D03*
X329134Y287398D02*
D03*
X327165Y289429D02*
D03*
X325197Y291461D02*
D03*
X323228Y287303D02*
D03*
X321260Y289276D02*
D03*
X319291Y291366D02*
D03*
X317323Y287398D02*
D03*
X315354Y289429D02*
D03*
X313386Y291461D02*
D03*
X287795Y287398D02*
D03*
X289764Y291461D02*
D03*
X291732Y289429D02*
D03*
X293701Y287398D02*
D03*
X295669Y291366D02*
D03*
X297638Y289276D02*
D03*
X299606Y287303D02*
D03*
X301575Y291461D02*
D03*
X303543Y289429D02*
D03*
X305512Y287398D02*
D03*
X307480Y291366D02*
D03*
X309449Y289276D02*
D03*
X311417Y287303D02*
D03*
M02*
