M48
;Layer_Color=9474304
;FILE_FORMAT=2:5
INCH,LZ
;TYPE=PLATED
T1F00S00C0.00800
;TYPE=NON_PLATED
T2F00S00C0.08661
%
T01
X01085Y0134
X0109987Y015614
X0127676Y0141187
X01314Y01295
X01336
X0154244Y0136244
X01558Y01378
X0161444Y0141444
X0163Y0143
X0167444Y0144944
X0169Y01465
X0173444Y0148944
X0175Y01505
X01925Y01495
Y0145
X01895Y0107
X0162Y01095
Y0112
Y01145
Y0117
Y01195
Y0122
X0166924Y0124276
X02245Y01285
X0227
X02295
X0232
X02345
X0237
X02386Y0149
X02202Y01085
X01759Y01771
X0174344Y0178656
X0170011Y01724
X0168456Y0173956
X0162389Y0169225
X01639Y0167625
X01565Y01645
X0158056Y0162944
X01564Y01868
X01571Y02084
X01591Y02072
X0161157Y0205991
X0163126Y0204849
X0165094Y0203705
X0167063Y0202563
X01721Y02027
X01845Y02225
X0171Y0242
X01685Y0253
Y0262
X01595
Y0253
X015722Y02753
X01655Y0288
X0172Y02895
X0173175Y0287563
X01745Y02855
X0176Y02835
X01775Y02815
X0179Y02795
X0179359Y0258641
X02045Y02635
X02065Y02715
X0216543Y0304457
X0215957Y0311543
X0144Y0276
X0144346Y0251654
X01535Y0244
X01285Y0233
X0135937Y0212833
X01375Y02055
X0139056Y0203944
X01362Y01918
X01542Y01822
X0109987Y0184487
Y0193935
Y0203384
Y0212833
Y0175038
Y0165589
X0107Y0274
X013Y0261
X0132Y0339
T02
X026Y011
Y034
M30
