M48
;Layer_Color=9474304
;FILE_FORMAT=2:5
INCH,LZ
;TYPE=PLATED
T1F00S00C0.01000
;TYPE=NON_PLATED
T3F00S00C0.02953
%
T01
X0110827Y0108661
X011811Y0113173
Y0115173
X0118701Y0119095
X0117323Y0121047
Y0123047
X0118701Y0125
X011811Y0128921
Y0130921
X0130709Y0132283
X0132677Y013229
X0140551Y0130921
Y0128921
X0148031
Y0130921
X0147047Y0125
X0148031Y0123047
Y0121047
X0147047Y0119095
X0148031Y0115173
Y0113173
X0140551
Y0115173
X0132677Y0111805
X0130709Y0111811
X0124803Y0104921
X0155512Y0129921
X0153543Y0135827
T03
X0121752Y0107047
X0151279
X0143996Y0137047
X0114469
M30
