M48
;Layer_Color=9474304
;FILE_FORMAT=2:5
INCH,LZ
;TYPE=PLATED
T1F00S00C0.01000
;TYPE=NON_PLATED
T3F00S00C0.02953
%
T01
X011063Y0120472
X0117323Y0121047
Y0123047
X0118701Y0125
X011811Y0128921
Y0130921
X0125591Y0126969
Y0117126
X011811Y0115173
Y0113173
X0130709Y0111811
X0132677Y0111805
X0140551Y0113173
Y0115173
X0140696Y0117126
X0147047Y0119095
X0148031Y0121047
Y0123047
X0147047Y0125
X0148031Y0128921
Y0130921
X0140551
Y0128921
X0140696Y0126969
X0132677Y013229
X0130709Y0132283
X011063Y0140157
X0155905Y0135827
X0148031Y0115173
Y0113173
T03
X0121752Y0107047
X0151279
X0143996Y0137047
X0114469
M30
