M48
;Layer_Color=9474304
;FILE_FORMAT=2:5
INCH,LZ
;TYPE=PLATED
;TYPE=NON_PLATED
T2F00S00C0.01968
%
G90
G05
T02
G00X0107087Y0113386
M15
G01Y0116929
M16
G00X0107087Y0127165
M15
G01Y0130709
M16
G00X011811Y0137244
M15
G01Y0138425
M16
G00X0129134Y0124606
M15
G01Y0119488
M16
G00X0136614Y0127165
M15
G01Y0130709
M16
G00X0136614Y0113386
M15
G01Y0116929
M16
G00X0147638Y0105669
M15
G01Y010685
M16
G00X011811Y0105669
M15
G01Y010685
M16
G00X0147638Y0137244
M15
G01Y0138425
M16
G00X0158661Y0124606
M15
G01Y0119488
M16
M17
M30
