G04*
G04 #@! TF.GenerationSoftware,Altium Limited,Altium Designer,18.0.12 (696)*
G04*
G04 Layer_Color=65535*
%FSLAX25Y25*%
%MOIN*%
G70*
G01*
G75*
%ADD10C,0.00787*%
%ADD11C,0.01968*%
%ADD12C,0.00984*%
%ADD13C,0.00394*%
%ADD14C,0.00800*%
D10*
X401108Y215268D02*
G03*
X407333Y215268I3112J0D01*
G01*
Y79835D02*
G03*
X401108Y79835I-3112J0D01*
G01*
X372724Y215268D02*
X401108D01*
X372724Y79835D02*
Y215268D01*
X407333D02*
X435716D01*
X372724Y79835D02*
X401108D01*
X407333D02*
X435716D01*
Y215268D01*
X674063Y101976D02*
X681937D01*
X674063Y118905D02*
X681937D01*
X674063Y101976D02*
Y118905D01*
X681937Y101976D02*
Y118905D01*
X611592Y331465D02*
X619466D01*
X611592Y314535D02*
X619466D01*
Y331465D01*
X611592Y314535D02*
Y331465D01*
X759858Y96055D02*
Y114756D01*
X752969D02*
X759858D01*
X752969Y96055D02*
X759858D01*
X694898Y113772D02*
X701787D01*
X694898Y96055D02*
X701787D01*
X694898D02*
Y113772D01*
X464850Y97260D02*
X469575D01*
X464850D02*
Y100213D01*
Y108677D02*
X469575D01*
X464850Y105724D02*
Y108677D01*
Y115291D02*
X469575D01*
X464850D02*
Y118244D01*
Y126709D02*
X469575D01*
X464850Y123756D02*
Y126709D01*
X421417Y237112D02*
Y307112D01*
Y237112D02*
X661417D01*
Y307112D01*
X428917D02*
X661417D01*
X421417D02*
X428917D01*
X413417Y257112D02*
Y287112D01*
Y257112D02*
X421417D01*
X413417Y287112D02*
X421417D01*
X509291Y333425D02*
Y338150D01*
X512244D01*
X520709Y333425D02*
Y338150D01*
X517756D02*
X520709D01*
X494291Y333425D02*
Y338150D01*
X497244D01*
X505709Y333425D02*
Y338150D01*
X502756D02*
X505709D01*
X479291Y333425D02*
Y338150D01*
X482244D01*
X490709Y333425D02*
Y338150D01*
X487756D02*
X490709D01*
X464291Y333425D02*
Y338150D01*
X467244D01*
X475709Y333425D02*
Y338150D01*
X472756D02*
X475709D01*
X449291Y333425D02*
Y338150D01*
X452244D01*
X460709Y333425D02*
Y338150D01*
X457756D02*
X460709D01*
X434291Y333425D02*
Y338150D01*
X437244D01*
X445709Y333425D02*
Y338150D01*
X442756D02*
X445709D01*
X419291Y333425D02*
Y338150D01*
X422244D01*
X430709Y333425D02*
Y338150D01*
X427756D02*
X430709D01*
X587543Y318898D02*
Y322244D01*
X582031Y318898D02*
X587543D01*
Y327756D02*
Y331102D01*
X582031D02*
X587543D01*
X504000Y81000D02*
Y131000D01*
X524000Y81000D02*
Y131000D01*
X504000D02*
X524000D01*
X504000Y81000D02*
X524000D01*
D11*
X701590Y93102D02*
G03*
X701590Y93102I-787J0D01*
G01*
D12*
X473709Y110055D02*
G03*
X473709Y110055I-492J0D01*
G01*
Y128087D02*
G03*
X473709Y128087I-492J0D01*
G01*
X522579Y329784D02*
G03*
X522579Y329784I-492J0D01*
G01*
X507579D02*
G03*
X507579Y329784I-492J0D01*
G01*
X492579D02*
G03*
X492579Y329784I-492J0D01*
G01*
X477579D02*
G03*
X477579Y329784I-492J0D01*
G01*
X462579D02*
G03*
X462579Y329784I-492J0D01*
G01*
X447579D02*
G03*
X447579Y329784I-492J0D01*
G01*
X432579D02*
G03*
X432579Y329784I-492J0D01*
G01*
X579472Y332087D02*
G03*
X579472Y332087I-492J0D01*
G01*
D13*
X697315Y86417D02*
G03*
X697315Y86417I-492J0D01*
G01*
X564374Y103520D02*
Y105488D01*
X562405Y103520D02*
X564374D01*
X552563D02*
Y105488D01*
Y168480D02*
Y170449D01*
X562405D02*
X564374D01*
Y168480D02*
Y170449D01*
X759449Y21969D02*
Y42047D01*
X740158Y18819D02*
X746063D01*
X740158D02*
Y26693D01*
X754331Y18819D02*
Y21969D01*
X759449D01*
X754331Y42047D02*
X759449D01*
X754331D02*
Y45197D01*
X740158Y37323D02*
Y45197D01*
X746063D01*
X327984Y152307D02*
Y158213D01*
X320110D02*
X327984D01*
X324835Y144039D02*
X327984D01*
X324835Y138921D02*
Y144039D01*
X303969Y138921D02*
X324835D01*
X283102D02*
X303969D01*
X283102D02*
Y144039D01*
X279953D02*
X283102D01*
X279953Y158213D02*
X287827D01*
X279953Y152307D02*
Y158213D01*
X650787Y184173D02*
X656693D01*
X650787D02*
Y192047D01*
X664961Y184173D02*
Y187323D01*
X670079D01*
Y208189D01*
Y229055D01*
X664961D02*
X670079D01*
X664961D02*
Y232205D01*
X650787Y224331D02*
Y232205D01*
X656693D01*
X659421Y93307D02*
X662374D01*
X659421Y90354D02*
Y93307D01*
Y6693D02*
Y9646D01*
Y6693D02*
X662374D01*
D14*
X522000Y347000D02*
X530000Y342000D01*
X570000D01*
X656466Y106799D02*
X653800D01*
Y104799D01*
X655133Y105466D01*
X655799D01*
X656466Y104799D01*
Y103466D01*
X655799Y102800D01*
X654466D01*
X653800Y103466D01*
X657799Y106799D02*
Y104133D01*
X659132Y102800D01*
X660464Y104133D01*
Y106799D01*
X661797Y102800D02*
Y105466D01*
X663130Y106799D01*
X664463Y105466D01*
Y102800D01*
Y104799D01*
X661797D01*
X665796Y106799D02*
Y102800D01*
X668462D01*
X669795Y106799D02*
Y102800D01*
X671128Y104133D01*
X672461Y102800D01*
Y106799D01*
X214800Y232132D02*
X217466D01*
X216133D01*
Y228133D01*
X218799Y230799D02*
Y228133D01*
Y229466D01*
X219465Y230132D01*
X220132Y230799D01*
X220798D01*
X223464D02*
X224797D01*
X225463Y230132D01*
Y228133D01*
X223464D01*
X222797Y228799D01*
X223464Y229466D01*
X225463D01*
X229462Y230799D02*
X227463D01*
X226796Y230132D01*
Y228799D01*
X227463Y228133D01*
X229462D01*
X230795D02*
Y232132D01*
Y229466D02*
X232794Y230799D01*
X230795Y229466D02*
X232794Y228133D01*
X234794Y226800D02*
Y230799D01*
X236793D01*
X237459Y230132D01*
Y228799D01*
X236793Y228133D01*
X234794D01*
X239459D02*
X240792D01*
X241458Y228799D01*
Y230132D01*
X240792Y230799D01*
X239459D01*
X238792Y230132D01*
Y228799D01*
X239459Y228133D01*
X242791D02*
X244124D01*
X243457D01*
Y230799D01*
X242791D01*
X246123Y228133D02*
Y230799D01*
X248123D01*
X248789Y230132D01*
Y228133D01*
X250788Y231465D02*
Y230799D01*
X250122D01*
X251455D01*
X250788D01*
Y228799D01*
X251455Y228133D01*
X576800Y204800D02*
Y208799D01*
X578133Y207466D01*
X579466Y208799D01*
Y204800D01*
X580799D02*
Y205466D01*
X581465D01*
Y204800D01*
X580799D01*
X586797D02*
X584131D01*
X586797Y207466D01*
Y208132D01*
X586130Y208799D01*
X584797D01*
X584131Y208132D01*
X592128Y208799D02*
Y204800D01*
X594128D01*
X594794Y205466D01*
Y206133D01*
X594128Y206799D01*
X592128D01*
X594128D01*
X594794Y207466D01*
Y208132D01*
X594128Y208799D01*
X592128D01*
X596127Y207466D02*
Y204800D01*
Y206133D01*
X596794Y206799D01*
X597460Y207466D01*
X598127D01*
X602125Y204800D02*
X600792D01*
X600126Y205466D01*
Y206799D01*
X600792Y207466D01*
X602125D01*
X602792Y206799D01*
Y206133D01*
X600126D01*
X604791Y207466D02*
X606124D01*
X606790Y206799D01*
Y204800D01*
X604791D01*
X604124Y205466D01*
X604791Y206133D01*
X606790D01*
X608123Y204800D02*
Y208799D01*
Y206133D02*
X610123Y207466D01*
X608123Y206133D02*
X610123Y204800D01*
X612788D02*
X614121D01*
X614788Y205466D01*
Y206799D01*
X614121Y207466D01*
X612788D01*
X612122Y206799D01*
Y205466D01*
X612788Y204800D01*
X616121Y207466D02*
Y205466D01*
X616787Y204800D01*
X618786D01*
Y207466D01*
X620786Y208132D02*
Y207466D01*
X620119D01*
X621452D01*
X620786D01*
Y205466D01*
X621452Y204800D01*
X653868Y252800D02*
Y255466D01*
Y254133D01*
X657867D01*
Y258798D02*
Y257465D01*
X657201Y256799D01*
X655868D01*
X655201Y257465D01*
Y258798D01*
X655868Y259465D01*
X656534D01*
Y256799D01*
X657867Y262797D02*
Y261464D01*
X657201Y260797D01*
X655868D01*
X655201Y261464D01*
Y262797D01*
X655868Y263463D01*
X656534D01*
Y260797D01*
X657867Y264796D02*
X655201D01*
Y266795D01*
X655868Y267462D01*
X657867D01*
Y268795D02*
Y270794D01*
X657201Y271461D01*
X656534Y270794D01*
Y269461D01*
X655868Y268795D01*
X655201Y269461D01*
Y271461D01*
Y272794D02*
X657201D01*
X657867Y273460D01*
Y275459D01*
X658534D01*
X659200Y274793D01*
Y274127D01*
X657867Y275459D02*
X655201D01*
X654535Y280791D02*
X653868Y281457D01*
Y282790D01*
X654535Y283457D01*
X655201D01*
X655868Y282790D01*
Y282124D01*
Y282790D01*
X656534Y283457D01*
X657201D01*
X657867Y282790D01*
Y281457D01*
X657201Y280791D01*
X657867Y284790D02*
X657201D01*
Y285456D01*
X657867D01*
Y284790D01*
X653868Y290788D02*
X654535Y289455D01*
X655868Y288122D01*
X657201D01*
X657867Y288788D01*
Y290121D01*
X657201Y290788D01*
X656534D01*
X655868Y290121D01*
Y288122D01*
X402201Y356800D02*
X406200D01*
Y359466D01*
X402201Y363464D02*
Y360799D01*
X406200D01*
Y363464D01*
X404201Y360799D02*
Y362132D01*
X402201Y364797D02*
X406200D01*
Y366797D01*
X405534Y367463D01*
X402868D01*
X402201Y366797D01*
Y364797D01*
Y372795D02*
X406200D01*
Y374794D01*
X405534Y375461D01*
X404867D01*
X404201Y374794D01*
Y372795D01*
Y374794D01*
X403534Y375461D01*
X402868D01*
X402201Y374794D01*
Y372795D01*
X406200Y377460D02*
Y378793D01*
X405534Y379459D01*
X404201D01*
X403534Y378793D01*
Y377460D01*
X404201Y376794D01*
X405534D01*
X406200Y377460D01*
X403534Y381459D02*
Y382792D01*
X404201Y383458D01*
X406200D01*
Y381459D01*
X405534Y380792D01*
X404867Y381459D01*
Y383458D01*
X403534Y384791D02*
X406200D01*
X404867D01*
X404201Y385457D01*
X403534Y386124D01*
Y386790D01*
X402201Y391456D02*
X406200D01*
Y389456D01*
X405534Y388790D01*
X404201D01*
X403534Y389456D01*
Y391456D01*
X664466Y117799D02*
X661800D01*
Y115799D01*
X663133Y116466D01*
X663799D01*
X664466Y115799D01*
Y114467D01*
X663799Y113800D01*
X662466D01*
X661800Y114467D01*
X665799Y117799D02*
Y115133D01*
X667132Y113800D01*
X668465Y115133D01*
Y117799D01*
X672463Y117132D02*
X671797Y117799D01*
X670464D01*
X669797Y117132D01*
Y116466D01*
X670464Y115799D01*
X671797D01*
X672463Y115133D01*
Y114467D01*
X671797Y113800D01*
X670464D01*
X669797Y114467D01*
X606800Y337799D02*
Y333800D01*
X609466D01*
X610799D02*
X612132D01*
X611465D01*
Y336466D01*
X610799D01*
X616797Y337799D02*
Y333800D01*
X614797D01*
X614131Y334466D01*
Y335799D01*
X614797Y336466D01*
X616797D01*
X624794Y337132D02*
X624128Y337799D01*
X622795D01*
X622128Y337132D01*
Y336466D01*
X622795Y335799D01*
X624128D01*
X624794Y335133D01*
Y334466D01*
X624128Y333800D01*
X622795D01*
X622128Y334466D01*
X628126Y333800D02*
X626793D01*
X626127Y334466D01*
Y335799D01*
X626793Y336466D01*
X628126D01*
X628793Y335799D01*
Y335133D01*
X626127D01*
X630126Y333800D02*
Y336466D01*
X632125D01*
X632792Y335799D01*
Y333800D01*
X634125D02*
X636124D01*
X636790Y334466D01*
X636124Y335133D01*
X634791D01*
X634125Y335799D01*
X634791Y336466D01*
X636790D01*
X638790Y333800D02*
X640123D01*
X640789Y334466D01*
Y335799D01*
X640123Y336466D01*
X638790D01*
X638123Y335799D01*
Y334466D01*
X638790Y333800D01*
X642122Y336466D02*
Y333800D01*
Y335133D01*
X642788Y335799D01*
X643455Y336466D01*
X644121D01*
X650119Y333800D02*
Y337799D01*
X652119D01*
X652785Y337132D01*
Y335799D01*
X652119Y335133D01*
X650119D01*
X654784Y333800D02*
X656117D01*
X656784Y334466D01*
Y335799D01*
X656117Y336466D01*
X654784D01*
X654118Y335799D01*
Y334466D01*
X654784Y333800D01*
X658117Y336466D02*
Y334466D01*
X658783Y333800D01*
X659450Y334466D01*
X660116Y333800D01*
X660783Y334466D01*
Y336466D01*
X664115Y333800D02*
X662782D01*
X662115Y334466D01*
Y335799D01*
X662782Y336466D01*
X664115D01*
X664781Y335799D01*
Y335133D01*
X662115D01*
X666114Y336466D02*
Y333800D01*
Y335133D01*
X666781Y335799D01*
X667447Y336466D01*
X668114D01*
X503466Y129799D02*
X500800D01*
Y127799D01*
X502133Y128466D01*
X502799D01*
X503466Y127799D01*
Y126467D01*
X502799Y125800D01*
X501466D01*
X500800Y126467D01*
X504799Y129799D02*
Y127133D01*
X506132Y125800D01*
X507465Y127133D01*
Y129799D01*
X375535Y154466D02*
X374868Y153799D01*
Y152466D01*
X375535Y151800D01*
X376201D01*
X376868Y152466D01*
Y153799D01*
X377534Y154466D01*
X378201D01*
X378867Y153799D01*
Y152466D01*
X378201Y151800D01*
X380200Y155799D02*
X376201D01*
Y157798D01*
X376868Y158465D01*
X378201D01*
X378867Y157798D01*
Y155799D01*
X376201Y159797D02*
X378867D01*
X377534D01*
X376868Y160464D01*
X376201Y161130D01*
Y161797D01*
X378867Y163796D02*
Y165129D01*
Y164463D01*
X376201D01*
Y163796D01*
X378867Y167128D02*
X376201D01*
Y169128D01*
X376868Y169794D01*
X378867D01*
X375535Y171794D02*
X376201D01*
Y171127D01*
Y172460D01*
Y171794D01*
X378201D01*
X378867Y172460D01*
Y176459D02*
Y175126D01*
X378201Y174459D01*
X376868D01*
X376201Y175126D01*
Y176459D01*
X376868Y177125D01*
X377534D01*
Y174459D01*
X378867Y178458D02*
X374868D01*
X377534D02*
X376201Y180457D01*
X377534Y178458D02*
X378867Y180457D01*
X375535Y189121D02*
X374868Y188455D01*
Y187122D01*
X375535Y186456D01*
X376201D01*
X376868Y187122D01*
Y188455D01*
X377534Y189121D01*
X378201D01*
X378867Y188455D01*
Y187122D01*
X378201Y186456D01*
X374868Y190454D02*
X378867D01*
X377534D01*
X374868Y193120D01*
X376868Y191121D01*
X378867Y193120D01*
X376868Y194453D02*
Y197119D01*
X375535Y198452D02*
X374868Y199118D01*
Y200451D01*
X375535Y201117D01*
X376201D01*
X376868Y200451D01*
X377534Y201117D01*
X378201D01*
X378867Y200451D01*
Y199118D01*
X378201Y198452D01*
X377534D01*
X376868Y199118D01*
X376201Y198452D01*
X375535D01*
X376868Y199118D02*
Y200451D01*
X374868Y202450D02*
Y205116D01*
X375535D01*
X378201Y202450D01*
X378867D01*
X375535Y206449D02*
X374868Y207116D01*
Y208448D01*
X375535Y209115D01*
X378201D01*
X378867Y208448D01*
Y207116D01*
X378201Y206449D01*
X375535D01*
X374868Y210448D02*
Y213113D01*
X375535D01*
X378201Y210448D01*
X378867D01*
X640033Y182697D02*
Y180032D01*
X642032D01*
Y181364D01*
Y180032D01*
X644031D01*
X640033Y184030D02*
X644031D01*
X642699Y185363D01*
X644031Y186696D01*
X640033D01*
X644031Y192028D02*
X641366D01*
X640033Y193360D01*
X641366Y194693D01*
X644031D01*
X642032D01*
Y192028D01*
X641366Y196026D02*
X643365D01*
X644031Y196693D01*
Y198692D01*
X641366D01*
X640033Y202691D02*
X644031D01*
Y200692D01*
X643365Y200025D01*
X642032D01*
X641366Y200692D01*
Y202691D01*
X644031Y204024D02*
Y205357D01*
Y204690D01*
X641366D01*
Y204024D01*
X644031Y208022D02*
Y209355D01*
X643365Y210022D01*
X642032D01*
X641366Y209355D01*
Y208022D01*
X642032Y207356D01*
X643365D01*
X644031Y208022D01*
X640033Y215353D02*
X644031D01*
Y217353D01*
X643365Y218019D01*
X642699D01*
X642032Y217353D01*
Y215353D01*
Y217353D01*
X641366Y218019D01*
X640699D01*
X640033Y217353D01*
Y215353D01*
X644031Y220019D02*
Y221352D01*
X643365Y222018D01*
X642032D01*
X641366Y221352D01*
Y220019D01*
X642032Y219352D01*
X643365D01*
X644031Y220019D01*
X641366Y224017D02*
Y225350D01*
X642032Y226017D01*
X644031D01*
Y224017D01*
X643365Y223351D01*
X642699Y224017D01*
Y226017D01*
X641366Y227350D02*
X644031D01*
X642699D01*
X642032Y228016D01*
X641366Y228682D01*
Y229349D01*
X640033Y234014D02*
X644031D01*
Y232015D01*
X643365Y231348D01*
X642032D01*
X641366Y232015D01*
Y234014D01*
X208800Y199850D02*
Y195851D01*
X211466D01*
X214798D02*
X213465D01*
X212799Y196518D01*
Y197851D01*
X213465Y198517D01*
X214798D01*
X215464Y197851D01*
Y197184D01*
X212799D01*
X217464Y195851D02*
Y199184D01*
Y197851D01*
X216797D01*
X218130D01*
X217464D01*
Y199184D01*
X218130Y199850D01*
X220796Y199184D02*
Y198517D01*
X220130D01*
X221463D01*
X220796D01*
Y196518D01*
X221463Y195851D01*
X208800Y193132D02*
Y189133D01*
Y190466D01*
X211466Y193132D01*
X209466Y191132D01*
X211466Y189133D01*
X214798D02*
X213465D01*
X212799Y189799D01*
Y191132D01*
X213465Y191799D01*
X214798D01*
X215464Y191132D01*
Y190466D01*
X212799D01*
X216797Y191799D02*
Y189799D01*
X217464Y189133D01*
X219463D01*
Y188467D01*
X218797Y187800D01*
X218130D01*
X219463Y189133D02*
Y191799D01*
X220796Y193132D02*
Y189133D01*
X222796D01*
X223462Y189799D01*
Y190466D01*
Y191132D01*
X222796Y191799D01*
X220796D01*
X225461Y189133D02*
X226794D01*
X227461Y189799D01*
Y191132D01*
X226794Y191799D01*
X225461D01*
X224795Y191132D01*
Y189799D01*
X225461Y189133D01*
X229460Y191799D02*
X230793D01*
X231459Y191132D01*
Y189133D01*
X229460D01*
X228794Y189799D01*
X229460Y190466D01*
X231459D01*
X232792Y191799D02*
Y189133D01*
Y190466D01*
X233459Y191132D01*
X234125Y191799D01*
X234792D01*
X239457Y193132D02*
Y189133D01*
X237457D01*
X236791Y189799D01*
Y191132D01*
X237457Y191799D01*
X239457D01*
X700466Y121799D02*
X697800D01*
Y119799D01*
X699133D01*
X697800D01*
Y117800D01*
X701799Y121799D02*
Y117800D01*
X703132Y119133D01*
X704464Y117800D01*
Y121799D01*
X712462D02*
X709796D01*
Y119799D01*
X711129D01*
X709796D01*
Y117800D01*
X713795Y120466D02*
Y117800D01*
Y119133D01*
X714461Y119799D01*
X715128Y120466D01*
X715794D01*
X718460Y117800D02*
X719793D01*
X720459Y118466D01*
Y119799D01*
X719793Y120466D01*
X718460D01*
X717794Y119799D01*
Y118466D01*
X718460Y117800D01*
X721792D02*
Y120466D01*
X723792D01*
X724458Y119799D01*
Y117800D01*
X726457Y121132D02*
Y120466D01*
X725791D01*
X727124D01*
X726457D01*
Y118466D01*
X727124Y117800D01*
X735788Y121132D02*
X735121Y121799D01*
X733788D01*
X733122Y121132D01*
Y118466D01*
X733788Y117800D01*
X735121D01*
X735788Y118466D01*
X737787Y117800D02*
X739120D01*
X739786Y118466D01*
Y119799D01*
X739120Y120466D01*
X737787D01*
X737121Y119799D01*
Y118466D01*
X737787Y117800D01*
X741119Y120466D02*
X742452Y117800D01*
X743785Y120466D01*
X747117Y117800D02*
X745785D01*
X745118Y118466D01*
Y119799D01*
X745785Y120466D01*
X747117D01*
X747784Y119799D01*
Y119133D01*
X745118D01*
X749117Y120466D02*
Y117800D01*
Y119133D01*
X749783Y119799D01*
X750450Y120466D01*
X751116D01*
X352466Y77132D02*
X349800D01*
Y75132D01*
X351133D01*
X349800D01*
Y73133D01*
X353799Y75799D02*
Y73133D01*
Y74466D01*
X354465Y75132D01*
X355132Y75799D01*
X355798D01*
X358464D02*
X359797D01*
X360463Y75132D01*
Y73133D01*
X358464D01*
X357797Y73799D01*
X358464Y74466D01*
X360463D01*
X361796Y73133D02*
Y75799D01*
X362463D01*
X363129Y75132D01*
Y73133D01*
Y75132D01*
X363795Y75799D01*
X364462Y75132D01*
Y73133D01*
X367794D02*
X366461D01*
X365795Y73799D01*
Y75132D01*
X366461Y75799D01*
X367794D01*
X368461Y75132D01*
Y74466D01*
X365795D01*
X369794Y75799D02*
Y73799D01*
X370460Y73133D01*
X371127Y73799D01*
X371793Y73133D01*
X372459Y73799D01*
Y75799D01*
X374459Y73133D02*
X375792D01*
X376458Y73799D01*
Y75132D01*
X375792Y75799D01*
X374459D01*
X373792Y75132D01*
Y73799D01*
X374459Y73133D01*
X377791Y75799D02*
Y73133D01*
Y74466D01*
X378457Y75132D01*
X379124Y75799D01*
X379790D01*
X381790Y73133D02*
Y77132D01*
Y74466D02*
X383789Y75799D01*
X381790Y74466D02*
X383789Y73133D01*
X389787Y77132D02*
X392453D01*
Y76465D01*
X389787Y73799D01*
Y73133D01*
X393786Y76465D02*
X394452Y77132D01*
X395785D01*
X396452Y76465D01*
Y73799D01*
X395785Y73133D01*
X394452D01*
X393786Y73799D01*
Y76465D01*
X397784Y73133D02*
X399117D01*
X398451D01*
Y77132D01*
X397784Y76465D01*
X403783D02*
X403116Y77132D01*
X401783D01*
X401117Y76465D01*
Y73799D01*
X401783Y73133D01*
X403116D01*
X403783Y73799D01*
X409114Y77132D02*
X410447D01*
X409781D01*
Y73133D01*
X409114D01*
X410447D01*
X412446D02*
Y75799D01*
X414446D01*
X415112Y75132D01*
Y73133D01*
X417112Y76465D02*
Y75799D01*
X416445D01*
X417778D01*
X417112D01*
Y73799D01*
X417778Y73133D01*
X421777D02*
X420444D01*
X419777Y73799D01*
Y75132D01*
X420444Y75799D01*
X421777D01*
X422443Y75132D01*
Y74466D01*
X419777D01*
X425109Y71800D02*
X425775D01*
X426442Y72466D01*
Y75799D01*
X424443D01*
X423776Y75132D01*
Y73799D01*
X424443Y73133D01*
X426442D01*
X427775Y75799D02*
Y73133D01*
Y74466D01*
X428441Y75132D01*
X429108Y75799D01*
X429774D01*
X432440D02*
X433773D01*
X434439Y75132D01*
Y73133D01*
X432440D01*
X431774Y73799D01*
X432440Y74466D01*
X434439D01*
X436439Y76465D02*
Y75799D01*
X435772D01*
X437105D01*
X436439D01*
Y73799D01*
X437105Y73133D01*
X439105D02*
X440437D01*
X439771D01*
Y75799D01*
X439105D01*
X443103Y73133D02*
X444436D01*
X445103Y73799D01*
Y75132D01*
X444436Y75799D01*
X443103D01*
X442437Y75132D01*
Y73799D01*
X443103Y73133D01*
X446435D02*
Y75799D01*
X448435D01*
X449101Y75132D01*
Y73133D01*
X454433Y77132D02*
Y73133D01*
X456432D01*
X457099Y73799D01*
Y74466D01*
X456432Y75132D01*
X454433D01*
X456432D01*
X457099Y75799D01*
Y76465D01*
X456432Y77132D01*
X454433D01*
X459098Y73133D02*
X460431D01*
X461097Y73799D01*
Y75132D01*
X460431Y75799D01*
X459098D01*
X458432Y75132D01*
Y73799D01*
X459098Y73133D01*
X463097Y75799D02*
X464430D01*
X465096Y75132D01*
Y73133D01*
X463097D01*
X462430Y73799D01*
X463097Y74466D01*
X465096D01*
X466429Y75799D02*
Y73133D01*
Y74466D01*
X467096Y75132D01*
X467762Y75799D01*
X468428D01*
X473094Y77132D02*
Y73133D01*
X471094D01*
X470428Y73799D01*
Y75132D01*
X471094Y75799D01*
X473094D01*
X654466Y126799D02*
X651800D01*
Y124799D01*
X653133Y125466D01*
X653799D01*
X654466Y124799D01*
Y123467D01*
X653799Y122800D01*
X652466D01*
X651800Y123467D01*
X655799Y126799D02*
Y124133D01*
X657132Y122800D01*
X658464Y124133D01*
Y126799D01*
X666462Y126132D02*
X665796Y126799D01*
X664463D01*
X663796Y126132D01*
Y125466D01*
X664463Y124799D01*
X665796D01*
X666462Y124133D01*
Y123467D01*
X665796Y122800D01*
X664463D01*
X663796Y123467D01*
X669794Y122800D02*
X668461D01*
X667795Y123467D01*
Y124799D01*
X668461Y125466D01*
X669794D01*
X670461Y124799D01*
Y124133D01*
X667795D01*
X671794Y122800D02*
X673127D01*
X672460D01*
Y126799D01*
X671794D01*
X677125Y122800D02*
X675792D01*
X675126Y123467D01*
Y124799D01*
X675792Y125466D01*
X677125D01*
X677792Y124799D01*
Y124133D01*
X675126D01*
X681790Y125466D02*
X679791D01*
X679124Y124799D01*
Y123467D01*
X679791Y122800D01*
X681790D01*
X683790Y126132D02*
Y125466D01*
X683123D01*
X684456D01*
X683790D01*
Y123467D01*
X684456Y122800D01*
X496800Y119132D02*
X497466Y119799D01*
X498799D01*
X499466Y119132D01*
Y118466D01*
X498799Y117799D01*
X498133D01*
X498799D01*
X499466Y117133D01*
Y116466D01*
X498799Y115800D01*
X497466D01*
X496800Y116466D01*
X500799Y119799D02*
Y117133D01*
X502132Y115800D01*
X503465Y117133D01*
Y119799D01*
X504797Y119132D02*
X505464Y119799D01*
X506797D01*
X507463Y119132D01*
Y118466D01*
X506797Y117799D01*
X506130D01*
X506797D01*
X507463Y117133D01*
Y116466D01*
X506797Y115800D01*
X505464D01*
X504797Y116466D01*
X624466Y318799D02*
X621800D01*
Y316799D01*
X623133D01*
X621800D01*
Y314800D01*
X625799Y317466D02*
Y314800D01*
Y316133D01*
X626465Y316799D01*
X627132Y317466D01*
X627798D01*
X630464D02*
X631797D01*
X632463Y316799D01*
Y314800D01*
X630464D01*
X629797Y315466D01*
X630464Y316133D01*
X632463D01*
X633796Y314800D02*
Y317466D01*
X634463D01*
X635129Y316799D01*
Y314800D01*
Y316799D01*
X635795Y317466D01*
X636462Y316799D01*
Y314800D01*
X639794D02*
X638461D01*
X637795Y315466D01*
Y316799D01*
X638461Y317466D01*
X639794D01*
X640461Y316799D01*
Y316133D01*
X637795D01*
X641793Y317466D02*
Y315466D01*
X642460Y314800D01*
X643126Y315466D01*
X643793Y314800D01*
X644459Y315466D01*
Y317466D01*
X646459Y314800D02*
X647792D01*
X648458Y315466D01*
Y316799D01*
X647792Y317466D01*
X646459D01*
X645792Y316799D01*
Y315466D01*
X646459Y314800D01*
X649791Y317466D02*
Y314800D01*
Y316133D01*
X650457Y316799D01*
X651124Y317466D01*
X651790D01*
X653790Y314800D02*
Y318799D01*
Y316133D02*
X655789Y317466D01*
X653790Y316133D02*
X655789Y314800D01*
X621800Y330799D02*
X624466D01*
X623133D01*
Y326800D01*
X625799Y330799D02*
Y326800D01*
Y328799D01*
X626465Y329466D01*
X627798D01*
X628465Y328799D01*
Y326800D01*
X629797D02*
X631130D01*
X630464D01*
Y329466D01*
X629797D01*
X633130Y326800D02*
X635129D01*
X635795Y327466D01*
X635129Y328133D01*
X633796D01*
X633130Y328799D01*
X633796Y329466D01*
X635795D01*
X641127Y330799D02*
Y326800D01*
X643126D01*
X643793Y327466D01*
Y328133D01*
Y328799D01*
X643126Y329466D01*
X641127D01*
X645792Y326800D02*
X647125D01*
X647792Y327466D01*
Y328799D01*
X647125Y329466D01*
X645792D01*
X645126Y328799D01*
Y327466D01*
X645792Y326800D01*
X649791Y329466D02*
X651124D01*
X651790Y328799D01*
Y326800D01*
X649791D01*
X649124Y327466D01*
X649791Y328133D01*
X651790D01*
X653123Y329466D02*
Y326800D01*
Y328133D01*
X653790Y328799D01*
X654456Y329466D01*
X655123D01*
X659788Y330799D02*
Y326800D01*
X657788D01*
X657122Y327466D01*
Y328799D01*
X657788Y329466D01*
X659788D01*
X499466Y89132D02*
X498799Y89799D01*
X497466D01*
X496800Y89132D01*
Y86466D01*
X497466Y85800D01*
X498799D01*
X499466Y86466D01*
Y87799D01*
X498133D01*
X500799Y85800D02*
Y89799D01*
X503465Y85800D01*
Y89799D01*
X504797D02*
Y85800D01*
X506797D01*
X507463Y86466D01*
Y89132D01*
X506797Y89799D01*
X504797D01*
X734200Y9800D02*
X730201D01*
Y11799D01*
X730868Y12466D01*
X732201D01*
X732867Y11799D01*
Y9800D01*
X734200Y14465D02*
Y15798D01*
X733534Y16465D01*
X732201D01*
X731534Y15798D01*
Y14465D01*
X732201Y13799D01*
X733534D01*
X734200Y14465D01*
X731534Y17797D02*
X733534D01*
X734200Y18464D01*
X733534Y19130D01*
X734200Y19797D01*
X733534Y20463D01*
X731534D01*
X734200Y23796D02*
Y22463D01*
X733534Y21796D01*
X732201D01*
X731534Y22463D01*
Y23796D01*
X732201Y24462D01*
X732867D01*
Y21796D01*
X731534Y25795D02*
X734200D01*
X732867D01*
X732201Y26461D01*
X731534Y27128D01*
Y27794D01*
X730201Y33792D02*
X734200D01*
Y35792D01*
X733534Y36458D01*
X732867D01*
X732201Y35792D01*
Y33792D01*
Y35792D01*
X731534Y36458D01*
X730868D01*
X730201Y35792D01*
Y33792D01*
X731534Y37791D02*
X733534D01*
X734200Y38457D01*
Y40457D01*
X731534D01*
X730868Y42456D02*
X731534D01*
Y41790D01*
Y43123D01*
Y42456D01*
X733534D01*
X734200Y43123D01*
X730868Y45788D02*
X731534D01*
Y45122D01*
Y46455D01*
Y45788D01*
X733534D01*
X734200Y46455D01*
Y49121D02*
Y50454D01*
X733534Y51120D01*
X732201D01*
X731534Y50454D01*
Y49121D01*
X732201Y48454D01*
X733534D01*
X734200Y49121D01*
Y52453D02*
X731534D01*
Y54452D01*
X732201Y55119D01*
X734200D01*
X349800Y67800D02*
Y71799D01*
X351799D01*
X352466Y71132D01*
Y69799D01*
X351799Y69133D01*
X349800D01*
X351133D02*
X352466Y67800D01*
X355798D02*
X354465D01*
X353799Y68466D01*
Y69799D01*
X354465Y70466D01*
X355798D01*
X356465Y69799D01*
Y69133D01*
X353799D01*
X357797Y70466D02*
X359130Y67800D01*
X360463Y70466D01*
X365795Y67800D02*
Y70466D01*
X367128Y71799D01*
X368461Y70466D01*
Y67800D01*
Y69799D01*
X365795D01*
X280466Y168799D02*
X277800D01*
Y166799D01*
X279133D01*
X277800D01*
Y164800D01*
X281799Y168799D02*
Y164800D01*
X283132Y166133D01*
X284465Y164800D01*
Y168799D01*
X289796Y164800D02*
Y167466D01*
X291129Y168799D01*
X292462Y167466D01*
Y164800D01*
Y166799D01*
X289796D01*
X293795Y167466D02*
Y165466D01*
X294461Y164800D01*
X296461D01*
Y167466D01*
X300459Y168799D02*
Y164800D01*
X298460D01*
X297794Y165466D01*
Y166799D01*
X298460Y167466D01*
X300459D01*
X301792Y164800D02*
X303125D01*
X302459D01*
Y167466D01*
X301792D01*
X305791Y164800D02*
X307124D01*
X307790Y165466D01*
Y166799D01*
X307124Y167466D01*
X305791D01*
X305124Y166799D01*
Y165466D01*
X305791Y164800D01*
X313122Y168799D02*
Y164800D01*
Y166799D01*
X315788D01*
Y168799D01*
Y164800D01*
X319120D02*
X317787D01*
X317121Y165466D01*
Y166799D01*
X317787Y167466D01*
X319120D01*
X319787Y166799D01*
Y166133D01*
X317121D01*
X321786Y167466D02*
X323119D01*
X323785Y166799D01*
Y164800D01*
X321786D01*
X321119Y165466D01*
X321786Y166133D01*
X323785D01*
X327784Y168799D02*
Y164800D01*
X325784D01*
X325118Y165466D01*
Y166799D01*
X325784Y167466D01*
X327784D01*
X331116Y164800D02*
X329783D01*
X329117Y165466D01*
Y166799D01*
X329783Y167466D01*
X331116D01*
X331783Y166799D01*
Y166133D01*
X329117D01*
X333116Y167466D02*
Y164800D01*
Y166133D01*
X333782Y166799D01*
X334448Y167466D01*
X335115D01*
X349800Y66132D02*
Y62133D01*
Y63466D01*
X352466Y66132D01*
X350466Y64132D01*
X352466Y62133D01*
X354465Y64799D02*
X355798D01*
X356465Y64132D01*
Y62133D01*
X354465D01*
X353799Y62799D01*
X354465Y63466D01*
X356465D01*
X357797Y64799D02*
Y62133D01*
Y63466D01*
X358464Y64132D01*
X359130Y64799D01*
X359797D01*
X361796Y62133D02*
X363129D01*
X362463D01*
Y66132D01*
X361796D01*
X369127D02*
Y62133D01*
X371127D01*
X371793Y62799D01*
Y63466D01*
X371127Y64132D01*
X369127D01*
X371127D01*
X371793Y64799D01*
Y65465D01*
X371127Y66132D01*
X369127D01*
X373126Y64799D02*
Y62799D01*
X373792Y62133D01*
X375792D01*
Y64799D01*
X379790D02*
X377791D01*
X377125Y64132D01*
Y62799D01*
X377791Y62133D01*
X379790D01*
X381123Y66132D02*
Y62133D01*
Y64132D01*
X381790Y64799D01*
X383123D01*
X383789Y64132D01*
Y62133D01*
X385122D02*
Y66132D01*
Y63466D02*
X387121Y64799D01*
X385122Y63466D02*
X387121Y62133D01*
X389787Y64799D02*
X391120D01*
X391787Y64132D01*
Y62133D01*
X389787D01*
X389121Y62799D01*
X389787Y63466D01*
X391787D01*
X393786Y61466D02*
X394452Y62133D01*
Y62799D01*
X393786D01*
Y62133D01*
X394452D01*
X393786Y61466D01*
X393119Y60800D01*
X403783Y62133D02*
X401117D01*
X403783Y64799D01*
Y65465D01*
X403116Y66132D01*
X401783D01*
X401117Y65465D01*
X405116D02*
X405782Y66132D01*
X407115D01*
X407781Y65465D01*
Y62799D01*
X407115Y62133D01*
X405782D01*
X405116Y62799D01*
Y65465D01*
X411780Y62133D02*
X409114D01*
X411780Y64799D01*
Y65465D01*
X411114Y66132D01*
X409781D01*
X409114Y65465D01*
X413113D02*
X413779Y66132D01*
X415112D01*
X415779Y65465D01*
Y64799D01*
X415112Y64132D01*
X414446D01*
X415112D01*
X415779Y63466D01*
Y62799D01*
X415112Y62133D01*
X413779D01*
X413113Y62799D01*
X213800Y253184D02*
Y257183D01*
X215799D01*
X216466Y256517D01*
Y255184D01*
X215799Y254517D01*
X213800D01*
X215133D02*
X216466Y253184D01*
X217799D02*
X219132D01*
X218465D01*
Y255850D01*
X217799D01*
X222464Y251851D02*
X223130D01*
X223797Y252518D01*
Y255850D01*
X221797D01*
X221131Y255184D01*
Y253851D01*
X221797Y253184D01*
X223797D01*
X225130Y257183D02*
Y253184D01*
Y255184D01*
X225796Y255850D01*
X227129D01*
X227796Y255184D01*
Y253184D01*
X229795Y256517D02*
Y255850D01*
X229128D01*
X230461D01*
X229795D01*
Y253851D01*
X230461Y253184D01*
X213800Y249132D02*
Y245133D01*
Y246466D01*
X216466Y249132D01*
X214466Y247132D01*
X216466Y245133D01*
X219798D02*
X218465D01*
X217799Y245799D01*
Y247132D01*
X218465Y247799D01*
X219798D01*
X220464Y247132D01*
Y246466D01*
X217799D01*
X221797Y247799D02*
Y245799D01*
X222464Y245133D01*
X224463D01*
Y244466D01*
X223797Y243800D01*
X223130D01*
X224463Y245133D02*
Y247799D01*
X225796Y249132D02*
Y245133D01*
X227796D01*
X228462Y245799D01*
Y246466D01*
Y247132D01*
X227796Y247799D01*
X225796D01*
X230461Y245133D02*
X231794D01*
X232461Y245799D01*
Y247132D01*
X231794Y247799D01*
X230461D01*
X229795Y247132D01*
Y245799D01*
X230461Y245133D01*
X234460Y247799D02*
X235793D01*
X236459Y247132D01*
Y245133D01*
X234460D01*
X233794Y245799D01*
X234460Y246466D01*
X236459D01*
X237792Y247799D02*
Y245133D01*
Y246466D01*
X238459Y247132D01*
X239125Y247799D01*
X239792D01*
X244457Y249132D02*
Y245133D01*
X242457D01*
X241791Y245799D01*
Y247132D01*
X242457Y247799D01*
X244457D01*
X521000Y73000D02*
Y74333D01*
Y73666D01*
X517001D01*
X517668Y73000D01*
Y76332D02*
X517001Y76999D01*
Y78332D01*
X517668Y78998D01*
X520334D01*
X521000Y78332D01*
Y76999D01*
X520334Y76332D01*
X517668D01*
X510334Y76000D02*
X511000Y76666D01*
Y77999D01*
X510334Y78666D01*
X507668D01*
X507001Y77999D01*
Y76666D01*
X507668Y76000D01*
X508334D01*
X509001Y76666D01*
Y78666D01*
X511000Y134000D02*
Y135333D01*
Y134667D01*
X507001D01*
X507668Y134000D01*
X521000Y135666D02*
Y133000D01*
X518334Y135666D01*
X517668D01*
X517001Y134999D01*
Y133667D01*
X517668Y133000D01*
X556999Y179555D02*
Y180888D01*
Y180221D01*
X553666D01*
X553000Y180888D01*
Y181554D01*
X553666Y182220D01*
X553000Y178222D02*
Y176889D01*
Y177555D01*
X556999D01*
X556332Y178222D01*
X553000Y172224D02*
Y174890D01*
X555666Y172224D01*
X556332D01*
X556999Y172890D01*
Y174223D01*
X556332Y174890D01*
X699666Y10999D02*
X698333D01*
X698999D01*
Y7666D01*
X698333Y7000D01*
X697666D01*
X697000Y7666D01*
X700999Y7000D02*
X702332D01*
X701665D01*
Y10999D01*
X700999Y10332D01*
X704331Y7000D02*
X705664D01*
X704997D01*
Y10999D01*
X704331Y10332D01*
X755666Y14999D02*
X754333D01*
X754999D01*
Y11666D01*
X754333Y11000D01*
X753666D01*
X753000Y11666D01*
X756999D02*
X757665Y11000D01*
X758998D01*
X759664Y11666D01*
Y14332D01*
X758998Y14999D01*
X757665D01*
X756999Y14332D01*
Y13666D01*
X757665Y12999D01*
X759664D01*
X665666Y180999D02*
X664333D01*
X664999D01*
Y177666D01*
X664333Y177000D01*
X663666D01*
X663000Y177666D01*
X666999Y180332D02*
X667665Y180999D01*
X668998D01*
X669664Y180332D01*
Y179666D01*
X668998Y178999D01*
X669664Y178333D01*
Y177666D01*
X668998Y177000D01*
X667665D01*
X666999Y177666D01*
Y178333D01*
X667665Y178999D01*
X666999Y179666D01*
Y180332D01*
X667665Y178999D02*
X668998D01*
X577300Y339899D02*
Y336566D01*
X577966Y335900D01*
X579299D01*
X579966Y336566D01*
Y339899D01*
X581299Y335900D02*
X582632D01*
X581965D01*
Y339899D01*
X581299Y339232D01*
X438000Y213999D02*
Y210666D01*
X438666Y210000D01*
X439999D01*
X440666Y210666D01*
Y213999D01*
X441999Y213332D02*
X442665Y213999D01*
X443998D01*
X444664Y213332D01*
Y212666D01*
X443998Y211999D01*
X443332D01*
X443998D01*
X444664Y211333D01*
Y210666D01*
X443998Y210000D01*
X442665D01*
X441999Y210666D01*
X413000Y306999D02*
Y303666D01*
X413666Y303000D01*
X414999D01*
X415666Y303666D01*
Y306999D01*
X419664Y303000D02*
X416999D01*
X419664Y305666D01*
Y306332D01*
X418998Y306999D01*
X417665D01*
X416999Y306332D01*
X446000Y92000D02*
Y95999D01*
X447999D01*
X448666Y95332D01*
Y93999D01*
X447999Y93333D01*
X446000D01*
X447333D02*
X448666Y92000D01*
X449999Y95332D02*
X450665Y95999D01*
X451998D01*
X452665Y95332D01*
Y94666D01*
X451998Y93999D01*
X451332D01*
X451998D01*
X452665Y93333D01*
Y92666D01*
X451998Y92000D01*
X450665D01*
X449999Y92666D01*
X453997Y95332D02*
X454664Y95999D01*
X455997D01*
X456663Y95332D01*
Y94666D01*
X455997Y93999D01*
X456663Y93333D01*
Y92666D01*
X455997Y92000D01*
X454664D01*
X453997Y92666D01*
Y93333D01*
X454664Y93999D01*
X453997Y94666D01*
Y95332D01*
X454664Y93999D02*
X455997D01*
X446000Y110000D02*
Y113999D01*
X447999D01*
X448666Y113332D01*
Y111999D01*
X447999Y111333D01*
X446000D01*
X447333D02*
X448666Y110000D01*
X449999Y113332D02*
X450665Y113999D01*
X451998D01*
X452665Y113332D01*
Y112666D01*
X451998Y111999D01*
X451332D01*
X451998D01*
X452665Y111333D01*
Y110667D01*
X451998Y110000D01*
X450665D01*
X449999Y110667D01*
X453997Y113999D02*
X456663D01*
Y113332D01*
X453997Y110667D01*
Y110000D01*
X480000D02*
Y113999D01*
X481999D01*
X482666Y113332D01*
Y111999D01*
X481999Y111333D01*
X480000D01*
X481333D02*
X482666Y110000D01*
X483999Y113332D02*
X484665Y113999D01*
X485998D01*
X486664Y113332D01*
Y112666D01*
X485998Y111999D01*
X485332D01*
X485998D01*
X486664Y111333D01*
Y110667D01*
X485998Y110000D01*
X484665D01*
X483999Y110667D01*
X490663Y113999D02*
X489330Y113332D01*
X487997Y111999D01*
Y110667D01*
X488664Y110000D01*
X489997D01*
X490663Y110667D01*
Y111333D01*
X489997Y111999D01*
X487997D01*
X480000Y92000D02*
Y95999D01*
X481999D01*
X482666Y95332D01*
Y93999D01*
X481999Y93333D01*
X480000D01*
X481333D02*
X482666Y92000D01*
X483999Y95332D02*
X484665Y95999D01*
X485998D01*
X486664Y95332D01*
Y94666D01*
X485998Y93999D01*
X485332D01*
X485998D01*
X486664Y93333D01*
Y92666D01*
X485998Y92000D01*
X484665D01*
X483999Y92666D01*
X490663Y95999D02*
X487997D01*
Y93999D01*
X489330Y94666D01*
X489997D01*
X490663Y93999D01*
Y92666D01*
X489997Y92000D01*
X488664D01*
X487997Y92666D01*
X510200Y312900D02*
Y316899D01*
X512199D01*
X512866Y316232D01*
Y314899D01*
X512199Y314233D01*
X510200D01*
X511533D02*
X512866Y312900D01*
X514199Y316232D02*
X514865Y316899D01*
X516198D01*
X516864Y316232D01*
Y315566D01*
X516198Y314899D01*
X515532D01*
X516198D01*
X516864Y314233D01*
Y313566D01*
X516198Y312900D01*
X514865D01*
X514199Y313566D01*
X520197Y312900D02*
Y316899D01*
X518197Y314899D01*
X520863D01*
X495424Y312900D02*
Y316899D01*
X497424D01*
X498090Y316232D01*
Y314899D01*
X497424Y314233D01*
X495424D01*
X496757D02*
X498090Y312900D01*
X499423Y316232D02*
X500090Y316899D01*
X501423D01*
X502089Y316232D01*
Y315566D01*
X501423Y314899D01*
X500756D01*
X501423D01*
X502089Y314233D01*
Y313566D01*
X501423Y312900D01*
X500090D01*
X499423Y313566D01*
X503422Y316232D02*
X504088Y316899D01*
X505421D01*
X506088Y316232D01*
Y315566D01*
X505421Y314899D01*
X504755D01*
X505421D01*
X506088Y314233D01*
Y313566D01*
X505421Y312900D01*
X504088D01*
X503422Y313566D01*
X480200Y312900D02*
Y316899D01*
X482199D01*
X482866Y316232D01*
Y314899D01*
X482199Y314233D01*
X480200D01*
X481533D02*
X482866Y312900D01*
X484199Y316232D02*
X484865Y316899D01*
X486198D01*
X486865Y316232D01*
Y315566D01*
X486198Y314899D01*
X485532D01*
X486198D01*
X486865Y314233D01*
Y313566D01*
X486198Y312900D01*
X484865D01*
X484199Y313566D01*
X490863Y312900D02*
X488197D01*
X490863Y315566D01*
Y316232D01*
X490197Y316899D01*
X488864D01*
X488197Y316232D01*
X465200Y312900D02*
Y316899D01*
X467199D01*
X467866Y316232D01*
Y314899D01*
X467199Y314233D01*
X465200D01*
X466533D02*
X467866Y312900D01*
X469199Y316232D02*
X469865Y316899D01*
X471198D01*
X471865Y316232D01*
Y315566D01*
X471198Y314899D01*
X470532D01*
X471198D01*
X471865Y314233D01*
Y313566D01*
X471198Y312900D01*
X469865D01*
X469199Y313566D01*
X473197Y312900D02*
X474530D01*
X473864D01*
Y316899D01*
X473197Y316232D01*
X570000Y330000D02*
X566001D01*
Y331999D01*
X566668Y332666D01*
X568001D01*
X568667Y331999D01*
Y330000D01*
Y331333D02*
X570000Y332666D01*
X566668Y333999D02*
X566001Y334665D01*
Y335998D01*
X566668Y336665D01*
X567334D01*
X568001Y335998D01*
Y335332D01*
Y335998D01*
X568667Y336665D01*
X569334D01*
X570000Y335998D01*
Y334665D01*
X569334Y333999D01*
X566668Y337997D02*
X566001Y338664D01*
Y339997D01*
X566668Y340663D01*
X569334D01*
X570000Y339997D01*
Y338664D01*
X569334Y337997D01*
X566668D01*
X564000Y330000D02*
X560001D01*
Y331999D01*
X560668Y332666D01*
X562001D01*
X562667Y331999D01*
Y330000D01*
Y331333D02*
X564000Y332666D01*
Y336665D02*
Y333999D01*
X561334Y336665D01*
X560668D01*
X560001Y335998D01*
Y334665D01*
X560668Y333999D01*
X563334Y337997D02*
X564000Y338664D01*
Y339997D01*
X563334Y340663D01*
X560668D01*
X560001Y339997D01*
Y338664D01*
X560668Y337997D01*
X561334D01*
X562001Y338664D01*
Y340663D01*
X558000Y330000D02*
X554001D01*
Y331999D01*
X554668Y332666D01*
X556001D01*
X556667Y331999D01*
Y330000D01*
Y331333D02*
X558000Y332666D01*
Y336665D02*
Y333999D01*
X555334Y336665D01*
X554668D01*
X554001Y335998D01*
Y334665D01*
X554668Y333999D01*
Y337997D02*
X554001Y338664D01*
Y339997D01*
X554668Y340663D01*
X555334D01*
X556001Y339997D01*
X556667Y340663D01*
X557334D01*
X558000Y339997D01*
Y338664D01*
X557334Y337997D01*
X556667D01*
X556001Y338664D01*
X555334Y337997D01*
X554668D01*
X556001Y338664D02*
Y339997D01*
X552000Y330000D02*
X548001D01*
Y331999D01*
X548668Y332666D01*
X550001D01*
X550667Y331999D01*
Y330000D01*
Y331333D02*
X552000Y332666D01*
Y336665D02*
Y333999D01*
X549334Y336665D01*
X548668D01*
X548001Y335998D01*
Y334665D01*
X548668Y333999D01*
X548001Y337997D02*
Y340663D01*
X548668D01*
X551334Y337997D01*
X552000D01*
X450200Y312900D02*
Y316899D01*
X452199D01*
X452866Y316232D01*
Y314899D01*
X452199Y314233D01*
X450200D01*
X451533D02*
X452866Y312900D01*
X456865D02*
X454199D01*
X456865Y315566D01*
Y316232D01*
X456198Y316899D01*
X454865D01*
X454199Y316232D01*
X460863Y316899D02*
X459530Y316232D01*
X458197Y314899D01*
Y313566D01*
X458864Y312900D01*
X460197D01*
X460863Y313566D01*
Y314233D01*
X460197Y314899D01*
X458197D01*
X435200Y312900D02*
Y316899D01*
X437199D01*
X437866Y316232D01*
Y314899D01*
X437199Y314233D01*
X435200D01*
X436533D02*
X437866Y312900D01*
X441864D02*
X439199D01*
X441864Y315566D01*
Y316232D01*
X441198Y316899D01*
X439865D01*
X439199Y316232D01*
X445863Y316899D02*
X443197D01*
Y314899D01*
X444530Y315566D01*
X445197D01*
X445863Y314899D01*
Y313566D01*
X445197Y312900D01*
X443864D01*
X443197Y313566D01*
X420800Y313000D02*
Y316999D01*
X422799D01*
X423466Y316332D01*
Y314999D01*
X422799Y314333D01*
X420800D01*
X422133D02*
X423466Y313000D01*
X427464D02*
X424799D01*
X427464Y315666D01*
Y316332D01*
X426798Y316999D01*
X425465D01*
X424799Y316332D01*
X430797Y313000D02*
Y316999D01*
X428797Y314999D01*
X431463D01*
X546000Y330000D02*
X542001D01*
Y331999D01*
X542668Y332666D01*
X544001D01*
X544667Y331999D01*
Y330000D01*
Y331333D02*
X546000Y332666D01*
Y336665D02*
Y333999D01*
X543334Y336665D01*
X542668D01*
X542001Y335998D01*
Y334665D01*
X542668Y333999D01*
Y337997D02*
X542001Y338664D01*
Y339997D01*
X542668Y340663D01*
X543334D01*
X544001Y339997D01*
Y339330D01*
Y339997D01*
X544667Y340663D01*
X545334D01*
X546000Y339997D01*
Y338664D01*
X545334Y337997D01*
X540000Y330000D02*
X536001D01*
Y331999D01*
X536668Y332666D01*
X538001D01*
X538667Y331999D01*
Y330000D01*
Y331333D02*
X540000Y332666D01*
Y336665D02*
Y333999D01*
X537334Y336665D01*
X536668D01*
X536001Y335998D01*
Y334665D01*
X536668Y333999D01*
X540000Y340663D02*
Y337997D01*
X537334Y340663D01*
X536668D01*
X536001Y339997D01*
Y338664D01*
X536668Y337997D01*
X534000Y330000D02*
X530001D01*
Y331999D01*
X530668Y332666D01*
X532001D01*
X532667Y331999D01*
Y330000D01*
Y331333D02*
X534000Y332666D01*
Y336665D02*
Y333999D01*
X531334Y336665D01*
X530668D01*
X530001Y335998D01*
Y334665D01*
X530668Y333999D01*
X534000Y337997D02*
Y339330D01*
Y338664D01*
X530001D01*
X530668Y337997D01*
X346000Y255000D02*
X342001D01*
Y256999D01*
X342668Y257666D01*
X344001D01*
X344667Y256999D01*
Y255000D01*
Y256333D02*
X346000Y257666D01*
Y261665D02*
Y258999D01*
X343334Y261665D01*
X342668D01*
X342001Y260998D01*
Y259665D01*
X342668Y258999D01*
Y262997D02*
X342001Y263664D01*
Y264997D01*
X342668Y265663D01*
X345334D01*
X346000Y264997D01*
Y263664D01*
X345334Y262997D01*
X342668D01*
X339000Y255000D02*
X335001D01*
Y256999D01*
X335668Y257666D01*
X337001D01*
X337667Y256999D01*
Y255000D01*
Y256333D02*
X339000Y257666D01*
Y258999D02*
Y260332D01*
Y259665D01*
X335001D01*
X335668Y258999D01*
X338334Y262331D02*
X339000Y262997D01*
Y264330D01*
X338334Y264997D01*
X335668D01*
X335001Y264330D01*
Y262997D01*
X335668Y262331D01*
X336334D01*
X337001Y262997D01*
Y264997D01*
X332000Y255000D02*
X328001D01*
Y256999D01*
X328668Y257666D01*
X330001D01*
X330667Y256999D01*
Y255000D01*
Y256333D02*
X332000Y257666D01*
Y258999D02*
Y260332D01*
Y259665D01*
X328001D01*
X328668Y258999D01*
Y262331D02*
X328001Y262997D01*
Y264330D01*
X328668Y264997D01*
X329334D01*
X330001Y264330D01*
X330667Y264997D01*
X331334D01*
X332000Y264330D01*
Y262997D01*
X331334Y262331D01*
X330667D01*
X330001Y262997D01*
X329334Y262331D01*
X328668D01*
X330001Y262997D02*
Y264330D01*
X325000Y255000D02*
X321001D01*
Y256999D01*
X321668Y257666D01*
X323001D01*
X323667Y256999D01*
Y255000D01*
Y256333D02*
X325000Y257666D01*
Y258999D02*
Y260332D01*
Y259665D01*
X321001D01*
X321668Y258999D01*
X321001Y262331D02*
Y264997D01*
X321668D01*
X324334Y262331D01*
X325000D01*
X318000Y255000D02*
X314001D01*
Y256999D01*
X314668Y257666D01*
X316001D01*
X316667Y256999D01*
Y255000D01*
Y256333D02*
X318000Y257666D01*
Y258999D02*
Y260332D01*
Y259665D01*
X314001D01*
X314668Y258999D01*
X314001Y264997D02*
X314668Y263664D01*
X316001Y262331D01*
X317334D01*
X318000Y262997D01*
Y264330D01*
X317334Y264997D01*
X316667D01*
X316001Y264330D01*
Y262331D01*
X311000Y255000D02*
X307001D01*
Y256999D01*
X307668Y257666D01*
X309001D01*
X309667Y256999D01*
Y255000D01*
Y256333D02*
X311000Y257666D01*
Y258999D02*
Y260332D01*
Y259665D01*
X307001D01*
X307668Y258999D01*
X307001Y264997D02*
Y262331D01*
X309001D01*
X308334Y263664D01*
Y264330D01*
X309001Y264997D01*
X310334D01*
X311000Y264330D01*
Y262997D01*
X310334Y262331D01*
X304000Y255000D02*
X300001D01*
Y256999D01*
X300668Y257666D01*
X302001D01*
X302667Y256999D01*
Y255000D01*
Y256333D02*
X304000Y257666D01*
Y258999D02*
Y260332D01*
Y259665D01*
X300001D01*
X300668Y258999D01*
X304000Y264330D02*
X300001D01*
X302001Y262331D01*
Y264997D01*
X297000Y255000D02*
X293001D01*
Y256999D01*
X293668Y257666D01*
X295001D01*
X295667Y256999D01*
Y255000D01*
Y256333D02*
X297000Y257666D01*
Y258999D02*
Y260332D01*
Y259665D01*
X293001D01*
X293668Y258999D01*
Y262331D02*
X293001Y262997D01*
Y264330D01*
X293668Y264997D01*
X294334D01*
X295001Y264330D01*
Y263664D01*
Y264330D01*
X295667Y264997D01*
X296334D01*
X297000Y264330D01*
Y262997D01*
X296334Y262331D01*
X233000Y117000D02*
Y120999D01*
X234999D01*
X235666Y120332D01*
Y118999D01*
X234999Y118333D01*
X233000D01*
X234333D02*
X235666Y117000D01*
X236999D02*
X238332D01*
X237665D01*
Y120999D01*
X236999Y120332D01*
X242997Y117000D02*
X240331D01*
X242997Y119666D01*
Y120332D01*
X242330Y120999D01*
X240997D01*
X240331Y120332D01*
X233000Y124000D02*
Y127999D01*
X234999D01*
X235666Y127332D01*
Y125999D01*
X234999Y125333D01*
X233000D01*
X234333D02*
X235666Y124000D01*
X236999D02*
X238332D01*
X237665D01*
Y127999D01*
X236999Y127332D01*
X240331Y124000D02*
X241664D01*
X240997D01*
Y127999D01*
X240331Y127332D01*
X233000Y131000D02*
Y134999D01*
X234999D01*
X235666Y134332D01*
Y132999D01*
X234999Y132333D01*
X233000D01*
X234333D02*
X235666Y131000D01*
X236999D02*
X238332D01*
X237665D01*
Y134999D01*
X236999Y134332D01*
X240331D02*
X240997Y134999D01*
X242330D01*
X242997Y134332D01*
Y131667D01*
X242330Y131000D01*
X240997D01*
X240331Y131667D01*
Y134332D01*
X233000Y138000D02*
Y141999D01*
X234999D01*
X235666Y141332D01*
Y139999D01*
X234999Y139333D01*
X233000D01*
X234333D02*
X235666Y138000D01*
X236999Y138666D02*
X237665Y138000D01*
X238998D01*
X239665Y138666D01*
Y141332D01*
X238998Y141999D01*
X237665D01*
X236999Y141332D01*
Y140666D01*
X237665Y139999D01*
X239665D01*
X233000Y145000D02*
Y148999D01*
X234999D01*
X235666Y148332D01*
Y146999D01*
X234999Y146333D01*
X233000D01*
X234333D02*
X235666Y145000D01*
X236999Y148332D02*
X237665Y148999D01*
X238998D01*
X239665Y148332D01*
Y147666D01*
X238998Y146999D01*
X239665Y146333D01*
Y145667D01*
X238998Y145000D01*
X237665D01*
X236999Y145667D01*
Y146333D01*
X237665Y146999D01*
X236999Y147666D01*
Y148332D01*
X237665Y146999D02*
X238998D01*
X232772Y152000D02*
Y155999D01*
X234771D01*
X235437Y155332D01*
Y153999D01*
X234771Y153333D01*
X232772D01*
X234105D02*
X235437Y152000D01*
X236770Y155999D02*
X239436D01*
Y155332D01*
X236770Y152666D01*
Y152000D01*
X233000Y159000D02*
Y162999D01*
X234999D01*
X235666Y162332D01*
Y160999D01*
X234999Y160333D01*
X233000D01*
X234333D02*
X235666Y159000D01*
X239665Y162999D02*
X238332Y162332D01*
X236999Y160999D01*
Y159667D01*
X237665Y159000D01*
X238998D01*
X239665Y159667D01*
Y160333D01*
X238998Y160999D01*
X236999D01*
X233000Y166000D02*
Y169999D01*
X234999D01*
X235666Y169332D01*
Y167999D01*
X234999Y167333D01*
X233000D01*
X234333D02*
X235666Y166000D01*
X239665Y169999D02*
X236999D01*
Y167999D01*
X238332Y168666D01*
X238998D01*
X239665Y167999D01*
Y166666D01*
X238998Y166000D01*
X237665D01*
X236999Y166666D01*
X347200Y110900D02*
Y114899D01*
X349199D01*
X349866Y114232D01*
Y112899D01*
X349199Y112233D01*
X347200D01*
X348533D02*
X349866Y110900D01*
X353198D02*
Y114899D01*
X351199Y112899D01*
X353865D01*
X347200Y94900D02*
Y98899D01*
X349199D01*
X349866Y98232D01*
Y96899D01*
X349199Y96233D01*
X347200D01*
X348533D02*
X349866Y94900D01*
X351199Y98232D02*
X351865Y98899D01*
X353198D01*
X353865Y98232D01*
Y97566D01*
X353198Y96899D01*
X352532D01*
X353198D01*
X353865Y96233D01*
Y95566D01*
X353198Y94900D01*
X351865D01*
X351199Y95566D01*
X347200Y139700D02*
Y143699D01*
X349199D01*
X349866Y143032D01*
Y141699D01*
X349199Y141033D01*
X347200D01*
X348533D02*
X349866Y139700D01*
X353865D02*
X351199D01*
X353865Y142366D01*
Y143032D01*
X353198Y143699D01*
X351865D01*
X351199Y143032D01*
X347200Y123700D02*
Y127699D01*
X349199D01*
X349866Y127032D01*
Y125699D01*
X349199Y125033D01*
X347200D01*
X348533D02*
X349866Y123700D01*
X351199D02*
X352532D01*
X351865D01*
Y127699D01*
X351199Y127032D01*
X462666Y129666D02*
Y132332D01*
X461999Y132999D01*
X460666D01*
X460000Y132332D01*
Y129666D01*
X460666Y129000D01*
X461999D01*
X461333Y130333D02*
X462666Y129000D01*
X461999D02*
X462666Y129666D01*
X463999D02*
X464665Y129000D01*
X465998D01*
X466665Y129666D01*
Y132332D01*
X465998Y132999D01*
X464665D01*
X463999Y132332D01*
Y131666D01*
X464665Y130999D01*
X466665D01*
X462666Y91666D02*
Y94332D01*
X461999Y94999D01*
X460666D01*
X460000Y94332D01*
Y91666D01*
X460666Y91000D01*
X461999D01*
X461333Y92333D02*
X462666Y91000D01*
X461999D02*
X462666Y91666D01*
X463999Y94332D02*
X464665Y94999D01*
X465998D01*
X466665Y94332D01*
Y93666D01*
X465998Y92999D01*
X466665Y92333D01*
Y91666D01*
X465998Y91000D01*
X464665D01*
X463999Y91666D01*
Y92333D01*
X464665Y92999D01*
X463999Y93666D01*
Y94332D01*
X464665Y92999D02*
X465998D01*
X520666Y339666D02*
Y342332D01*
X519999Y342999D01*
X518666D01*
X518000Y342332D01*
Y339666D01*
X518666Y339000D01*
X519999D01*
X519333Y340333D02*
X520666Y339000D01*
X519999D02*
X520666Y339666D01*
X521999Y342999D02*
X524664D01*
Y342332D01*
X521999Y339666D01*
Y339000D01*
X505666Y339666D02*
Y342332D01*
X504999Y342999D01*
X503666D01*
X503000Y342332D01*
Y339666D01*
X503666Y339000D01*
X504999D01*
X504333Y340333D02*
X505666Y339000D01*
X504999D02*
X505666Y339666D01*
X509664Y342999D02*
X508332Y342332D01*
X506999Y340999D01*
Y339666D01*
X507665Y339000D01*
X508998D01*
X509664Y339666D01*
Y340333D01*
X508998Y340999D01*
X506999D01*
X490666Y339666D02*
Y342332D01*
X489999Y342999D01*
X488666D01*
X488000Y342332D01*
Y339666D01*
X488666Y339000D01*
X489999D01*
X489333Y340333D02*
X490666Y339000D01*
X489999D02*
X490666Y339666D01*
X494664Y342999D02*
X491999D01*
Y340999D01*
X493332Y341666D01*
X493998D01*
X494664Y340999D01*
Y339666D01*
X493998Y339000D01*
X492665D01*
X491999Y339666D01*
X475666D02*
Y342332D01*
X474999Y342999D01*
X473666D01*
X473000Y342332D01*
Y339666D01*
X473666Y339000D01*
X474999D01*
X474333Y340333D02*
X475666Y339000D01*
X474999D02*
X475666Y339666D01*
X478998Y339000D02*
Y342999D01*
X476999Y340999D01*
X479665D01*
X460666Y339666D02*
Y342332D01*
X459999Y342999D01*
X458666D01*
X458000Y342332D01*
Y339666D01*
X458666Y339000D01*
X459999D01*
X459333Y340333D02*
X460666Y339000D01*
X459999D02*
X460666Y339666D01*
X461999Y342332D02*
X462665Y342999D01*
X463998D01*
X464665Y342332D01*
Y341666D01*
X463998Y340999D01*
X463332D01*
X463998D01*
X464665Y340333D01*
Y339666D01*
X463998Y339000D01*
X462665D01*
X461999Y339666D01*
X445666D02*
Y342332D01*
X444999Y342999D01*
X443666D01*
X443000Y342332D01*
Y339666D01*
X443666Y339000D01*
X444999D01*
X444333Y340333D02*
X445666Y339000D01*
X444999D02*
X445666Y339666D01*
X449664Y339000D02*
X446999D01*
X449664Y341666D01*
Y342332D01*
X448998Y342999D01*
X447665D01*
X446999Y342332D01*
X430666Y339666D02*
Y342332D01*
X429999Y342999D01*
X428666D01*
X428000Y342332D01*
Y339666D01*
X428666Y339000D01*
X429999D01*
X429333Y340333D02*
X430666Y339000D01*
X429999D02*
X430666Y339666D01*
X431999Y339000D02*
X433332D01*
X432665D01*
Y342999D01*
X431999Y342332D01*
X504400Y139600D02*
Y143599D01*
X506399D01*
X507066Y142932D01*
Y141599D01*
X506399Y140933D01*
X504400D01*
X508399Y139600D02*
X509732D01*
X509065D01*
Y143599D01*
X508399Y142932D01*
X533666Y396999D02*
X532333D01*
X532999D01*
Y393666D01*
X532333Y393000D01*
X531666D01*
X531000Y393666D01*
X534999Y393000D02*
X536332D01*
X535665D01*
Y396999D01*
X534999Y396332D01*
X538331D02*
X538997Y396999D01*
X540330D01*
X540997Y396332D01*
Y393666D01*
X540330Y393000D01*
X538997D01*
X538331Y393666D01*
Y396332D01*
X327571Y136999D02*
X326238D01*
X326905D01*
Y133667D01*
X326238Y133000D01*
X325572D01*
X324905Y133667D01*
X328904Y136999D02*
X331570D01*
Y136332D01*
X328904Y133667D01*
Y133000D01*
X614666Y312999D02*
X613333D01*
X613999D01*
Y309666D01*
X613333Y309000D01*
X612666D01*
X612000Y309666D01*
X618665Y312999D02*
X617332Y312332D01*
X615999Y310999D01*
Y309666D01*
X616665Y309000D01*
X617998D01*
X618665Y309666D01*
Y310333D01*
X617998Y310999D01*
X615999D01*
X265666Y263999D02*
X264333D01*
X264999D01*
Y260666D01*
X264333Y260000D01*
X263666D01*
X263000Y260666D01*
X269665Y263999D02*
X266999D01*
Y261999D01*
X268332Y262666D01*
X268998D01*
X269665Y261999D01*
Y260666D01*
X268998Y260000D01*
X267665D01*
X266999Y260666D01*
X210666Y128999D02*
X209333D01*
X209999D01*
Y125666D01*
X209333Y125000D01*
X208666D01*
X208000Y125666D01*
X213998Y125000D02*
Y128999D01*
X211999Y126999D01*
X214665D01*
X209666Y241999D02*
X208333D01*
X208999D01*
Y238666D01*
X208333Y238000D01*
X207666D01*
X207000Y238666D01*
X210999Y241332D02*
X211665Y241999D01*
X212998D01*
X213665Y241332D01*
Y240666D01*
X212998Y239999D01*
X212332D01*
X212998D01*
X213665Y239333D01*
Y238666D01*
X212998Y238000D01*
X211665D01*
X210999Y238666D01*
X755666Y93999D02*
X754333D01*
X754999D01*
Y90666D01*
X754333Y90000D01*
X753666D01*
X753000Y90666D01*
X759664Y90000D02*
X756999D01*
X759664Y92666D01*
Y93332D01*
X758998Y93999D01*
X757665D01*
X756999Y93332D01*
X685666Y106999D02*
X684333D01*
X684999D01*
Y103666D01*
X684333Y103000D01*
X683666D01*
X683000Y103666D01*
X686999Y103000D02*
X688332D01*
X687665D01*
Y106999D01*
X686999Y106332D01*
X600666Y319332D02*
X599999Y319999D01*
X598666D01*
X598000Y319332D01*
Y316666D01*
X598666Y316000D01*
X599999D01*
X600666Y316666D01*
X601999Y319332D02*
X602665Y319999D01*
X603998D01*
X604665Y319332D01*
Y318666D01*
X603998Y317999D01*
X603332D01*
X603998D01*
X604665Y317333D01*
Y316666D01*
X603998Y316000D01*
X602665D01*
X601999Y316666D01*
X349866Y106432D02*
X349199Y107099D01*
X347866D01*
X347200Y106432D01*
Y103767D01*
X347866Y103100D01*
X349199D01*
X349866Y103767D01*
X353865Y103100D02*
X351199D01*
X353865Y105766D01*
Y106432D01*
X353198Y107099D01*
X351865D01*
X351199Y106432D01*
X349866Y135232D02*
X349199Y135899D01*
X347866D01*
X347200Y135232D01*
Y132566D01*
X347866Y131900D01*
X349199D01*
X349866Y132566D01*
X351199Y131900D02*
X352532D01*
X351865D01*
Y135899D01*
X351199Y135232D01*
M02*
