G04*
G04 #@! TF.GenerationSoftware,Altium Limited,Altium Designer,18.0.12 (696)*
G04*
G04 Layer_Physical_Order=1*
G04 Layer_Color=255*
%FSLAX25Y25*%
%MOIN*%
G70*
G01*
G75*
%ADD14C,0.00800*%
%ADD15R,0.05906X0.03937*%
%ADD16R,0.03937X0.03937*%
%ADD17R,0.02835X0.00984*%
%ADD18R,0.02244X0.00984*%
%ADD19R,0.03740X0.01575*%
G04:AMPARAMS|DCode=20|XSize=39.37mil|YSize=11.81mil|CornerRadius=2.95mil|HoleSize=0mil|Usage=FLASHONLY|Rotation=180.000|XOffset=0mil|YOffset=0mil|HoleType=Round|Shape=RoundedRectangle|*
%AMROUNDEDRECTD20*
21,1,0.03937,0.00591,0,0,180.0*
21,1,0.03347,0.01181,0,0,180.0*
1,1,0.00591,-0.01673,0.00295*
1,1,0.00591,0.01673,0.00295*
1,1,0.00591,0.01673,-0.00295*
1,1,0.00591,-0.01673,-0.00295*
%
%ADD20ROUNDEDRECTD20*%
G04:AMPARAMS|DCode=21|XSize=51.18mil|YSize=78.74mil|CornerRadius=12.8mil|HoleSize=0mil|Usage=FLASHONLY|Rotation=180.000|XOffset=0mil|YOffset=0mil|HoleType=Round|Shape=RoundedRectangle|*
%AMROUNDEDRECTD21*
21,1,0.05118,0.05315,0,0,180.0*
21,1,0.02559,0.07874,0,0,180.0*
1,1,0.02559,-0.01280,0.02657*
1,1,0.02559,0.01280,0.02657*
1,1,0.02559,0.01280,-0.02657*
1,1,0.02559,-0.01280,-0.02657*
%
%ADD21ROUNDEDRECTD21*%
%ADD22R,0.02756X0.03543*%
%ADD23R,0.01181X0.06299*%
%ADD24R,0.11024X0.08268*%
%ADD25R,0.07874X0.01575*%
%ADD26R,0.08268X0.11024*%
%ADD27R,0.01575X0.07874*%
G04:AMPARAMS|DCode=28|XSize=51.18mil|YSize=78.74mil|CornerRadius=12.8mil|HoleSize=0mil|Usage=FLASHONLY|Rotation=90.000|XOffset=0mil|YOffset=0mil|HoleType=Round|Shape=RoundedRectangle|*
%AMROUNDEDRECTD28*
21,1,0.05118,0.05315,0,0,90.0*
21,1,0.02559,0.07874,0,0,90.0*
1,1,0.02559,0.02657,0.01280*
1,1,0.02559,0.02657,-0.01280*
1,1,0.02559,-0.02657,-0.01280*
1,1,0.02559,-0.02657,0.01280*
%
%ADD28ROUNDEDRECTD28*%
G04:AMPARAMS|DCode=29|XSize=39.37mil|YSize=11.81mil|CornerRadius=2.95mil|HoleSize=0mil|Usage=FLASHONLY|Rotation=90.000|XOffset=0mil|YOffset=0mil|HoleType=Round|Shape=RoundedRectangle|*
%AMROUNDEDRECTD29*
21,1,0.03937,0.00591,0,0,90.0*
21,1,0.03347,0.01181,0,0,90.0*
1,1,0.00591,0.00295,0.01673*
1,1,0.00591,0.00295,-0.01673*
1,1,0.00591,-0.00295,-0.01673*
1,1,0.00591,-0.00295,0.01673*
%
%ADD29ROUNDEDRECTD29*%
%ADD30R,0.03937X0.03937*%
%ADD31R,0.04134X0.02362*%
%ADD32R,0.03543X0.02756*%
%ADD33R,0.10827X0.04724*%
%ADD34R,0.06102X0.01181*%
%ADD35R,0.02362X0.04134*%
%ADD36R,0.02953X0.02362*%
%ADD67C,0.20866*%
%ADD68C,0.01200*%
%ADD69C,0.01000*%
%ADD70O,0.11811X0.06693*%
%ADD71R,0.06693X0.06693*%
%ADD72C,0.06693*%
%ADD73C,0.05906*%
%ADD74R,0.05906X0.05906*%
%ADD75C,0.01600*%
D14*
X492713Y99713D02*
X509000Y116000D01*
X482000Y99713D02*
X492713D01*
X482000Y117744D02*
X491256D01*
X493000Y116000D01*
X509000D01*
X514000Y121000D01*
Y157000D01*
X557000Y200000D01*
X565000D01*
X519000Y106000D02*
X531000Y118000D01*
Y164000D01*
X561000Y194000D01*
X519000Y96000D02*
X536000Y113000D01*
Y165400D01*
X555600Y185000D01*
X519000Y116000D02*
X526000Y123000D01*
Y162000D01*
X557000Y193000D01*
X519000Y126000D02*
Y158000D01*
X552000Y191000D01*
X596405Y130095D02*
X616600Y109899D01*
X564000Y130095D02*
X596405D01*
X596416Y132063D02*
X618000Y110479D01*
X564000Y132063D02*
X596416D01*
X596428Y134031D02*
X619400Y111059D01*
X564000Y134031D02*
X596428D01*
X596439Y136000D02*
X620800Y111639D01*
X564000Y136000D02*
X596439D01*
X596451Y137969D02*
X622200Y112219D01*
X564000Y137969D02*
X596451D01*
X596462Y139937D02*
X623600Y112799D01*
X564000Y139937D02*
X596462D01*
X596473Y141905D02*
X625000Y113379D01*
X564000Y141905D02*
X596473D01*
X596485Y143874D02*
X626400Y113959D01*
X564000Y143874D02*
X596485D01*
X596496Y145843D02*
X627800Y114539D01*
X564000Y145843D02*
X596496D01*
X596507Y147811D02*
X629200Y115119D01*
X564000Y147811D02*
X596507D01*
X596519Y149779D02*
X630600Y115698D01*
X564000Y149779D02*
X596519D01*
X596530Y151748D02*
X632000Y116278D01*
X564000Y151748D02*
X596530D01*
X564000Y128126D02*
X596394D01*
X564000Y126157D02*
X596382D01*
X564000Y124189D02*
X596371D01*
X564000Y122221D02*
X596359D01*
X650000Y81496D02*
X662276D01*
X650000Y77559D02*
X662276D01*
X650000Y73622D02*
X662276D01*
X649989Y71653D02*
X662276D01*
X649977Y69685D02*
X662276D01*
X650000Y65748D02*
X662276D01*
X650000Y55905D02*
X662276D01*
X649989Y53937D02*
X662276D01*
X649977Y51968D02*
X662276D01*
X649966Y50000D02*
X662276D01*
X649954Y48031D02*
X662276D01*
X649943Y46063D02*
X662276D01*
X650000Y38189D02*
X662276D01*
X649989Y36220D02*
X662276D01*
X650000Y24409D02*
X662276D01*
X632000Y99496D02*
Y116278D01*
X622200Y81726D02*
Y112219D01*
X618000Y79986D02*
Y110479D01*
X616600Y79406D02*
Y109899D01*
X596394Y128126D02*
X615200Y109320D01*
Y72989D02*
Y109320D01*
X596382Y126157D02*
X613800Y108740D01*
Y72409D02*
Y108740D01*
X596371Y124189D02*
X612400Y108160D01*
X596359Y122221D02*
X611000Y107580D01*
X564000Y120252D02*
X596348D01*
X609600Y107000D01*
Y64810D02*
Y107000D01*
Y64810D02*
X650000Y24409D01*
X611000Y71249D02*
X649966Y32283D01*
X662276D01*
X611000Y71249D02*
Y107580D01*
X612400Y71829D02*
X649977Y34252D01*
X662276D01*
X612400Y71829D02*
Y108160D01*
X613800Y72409D02*
X649989Y36220D01*
X615200Y72989D02*
X650000Y38189D01*
X616600Y79406D02*
X649943Y46063D01*
X618000Y79986D02*
X649954Y48031D01*
X619400Y80566D02*
X649966Y50000D01*
X619400Y80566D02*
Y111059D01*
X620800Y81146D02*
X649977Y51968D01*
X620800Y81146D02*
Y111639D01*
X622200Y81726D02*
X649989Y53937D01*
X623600Y82306D02*
Y112799D01*
Y82306D02*
X650000Y55905D01*
X625000Y90748D02*
Y113379D01*
Y90748D02*
X650000Y65748D01*
X626400Y93262D02*
X649977Y69685D01*
X626400Y93262D02*
Y113959D01*
X627800Y93842D02*
X649989Y71653D01*
X627800Y93842D02*
Y114539D01*
X629200Y94422D02*
Y115119D01*
Y94422D02*
X650000Y73622D01*
X630600Y96959D02*
Y115698D01*
Y96959D02*
X650000Y77559D01*
X632000Y99496D02*
X650000Y81496D01*
X692000Y86417D02*
X699583D01*
X703000Y83000D01*
X706000D01*
X686417Y86417D02*
X692000D01*
X684000Y80800D02*
Y84000D01*
X684288Y80512D02*
X692000D01*
X684000Y80800D02*
X684288Y80512D01*
X684394Y74606D02*
X692000D01*
X684000Y70800D02*
Y75000D01*
Y80800D01*
X686099Y68701D02*
X692000D01*
X684000Y75000D02*
X684394Y74606D01*
X684000Y84000D02*
X686417Y86417D01*
X684000Y70800D02*
X686099Y68701D01*
X548818Y166512D02*
X554531D01*
X545346Y169984D02*
X548818Y166512D01*
X545000Y169984D02*
X545346D01*
X692000Y84449D02*
X698551D01*
X702200Y80800D02*
X706000D01*
X698551Y84449D02*
X702200Y80800D01*
X545000Y167784D02*
X545346D01*
X548587Y164543D02*
X554531D01*
X545346Y167784D02*
X548587Y164543D01*
X692000Y82480D02*
X697120D01*
X701000Y78600D02*
X706000D01*
X697120Y82480D02*
X701000Y78600D01*
X545000Y165584D02*
X545346D01*
X548355Y162575D02*
X554531D01*
X545346Y165584D02*
X548355Y162575D01*
X692000Y78543D02*
X697457D01*
X699600Y76400D02*
X706000D01*
X697457Y78543D02*
X699600Y76400D01*
X545000Y163384D02*
X545346D01*
X548124Y160606D02*
X554531D01*
X545346Y163384D02*
X548124Y160606D01*
X692000Y76575D02*
X696425D01*
X698800Y74200D02*
X706000D01*
X696425Y76575D02*
X698800Y74200D01*
X545000Y161184D02*
X545346D01*
X547892Y158638D02*
X554531D01*
X545346Y161184D02*
X547892Y158638D01*
X692000Y72638D02*
X695451D01*
X696089Y72000D02*
X706000D01*
X695451Y72638D02*
X696089Y72000D01*
X545000Y158984D02*
X545346D01*
X547660Y156669D02*
X554531D01*
X545346Y158984D02*
X547660Y156669D01*
X692000Y70669D02*
X695440D01*
X696309Y69800D02*
X706000D01*
X695440Y70669D02*
X696309Y69800D01*
X545000Y156784D02*
X545346D01*
X547429Y154701D02*
X554531D01*
X545346Y156784D02*
X547429Y154701D01*
X705654Y67600D02*
X706000D01*
X704787Y66732D02*
X705654Y67600D01*
X692000Y66732D02*
X704787D01*
X545000Y154584D02*
X545346D01*
X547197Y152732D02*
X554531D01*
X545346Y154584D02*
X547197Y152732D01*
X705018Y64764D02*
X705654Y65400D01*
X706000D01*
X692000Y64764D02*
X705018D01*
X545000Y152384D02*
X545346D01*
X546966Y150764D02*
X554531D01*
X545346Y152384D02*
X546966Y150764D01*
X704200Y63200D02*
X706000D01*
X695921Y54921D02*
X704200Y63200D01*
X692000Y54921D02*
X695921D01*
X545000Y150184D02*
X545346D01*
X546735Y148795D02*
X554531D01*
X545346Y150184D02*
X546735Y148795D01*
X705654Y61000D02*
X706000D01*
X697607Y52953D02*
X705654Y61000D01*
X692000Y52953D02*
X697607D01*
X545000Y147984D02*
X545346D01*
X546503Y146827D02*
X554531D01*
X545346Y147984D02*
X546503Y146827D01*
X705654Y58800D02*
X706000D01*
X697839Y50984D02*
X705654Y58800D01*
X692000Y50984D02*
X697839D01*
X545000Y145784D02*
X545346D01*
X546272Y144858D02*
X554531D01*
X545346Y145784D02*
X546272Y144858D01*
X705434Y56600D02*
X706000D01*
X697850Y49016D02*
X705434Y56600D01*
X692000Y49016D02*
X697850D01*
X545000Y143584D02*
X545346D01*
X546040Y142890D02*
X554531D01*
X545346Y143584D02*
X546040Y142890D01*
X705214Y54400D02*
X706000D01*
X697861Y47047D02*
X705214Y54400D01*
X692000Y47047D02*
X697861D01*
X545000Y141384D02*
X545346D01*
X545809Y140921D02*
X554531D01*
X545346Y141384D02*
X545809Y140921D01*
X704994Y52200D02*
X706000D01*
X697873Y45079D02*
X704994Y52200D01*
X692000Y45079D02*
X697873D01*
X545000Y139184D02*
X545231Y138953D01*
X554531D01*
X704774Y50000D02*
X706000D01*
X697884Y43110D02*
X704774Y50000D01*
X692000Y43110D02*
X697884D01*
X545000Y136984D02*
X554531D01*
X704554Y47800D02*
X706000D01*
X697896Y41142D02*
X704554Y47800D01*
X692000Y41142D02*
X697896D01*
X545000Y134784D02*
X545231Y135016D01*
X554531D01*
X704334Y45600D02*
X706000D01*
X697907Y39173D02*
X704334Y45600D01*
X692000Y39173D02*
X697907D01*
X545809Y133047D02*
X554531D01*
X545000Y132584D02*
X545346D01*
X545809Y133047D01*
X704114Y43400D02*
X706000D01*
X697918Y37205D02*
X704114Y43400D01*
X692000Y37205D02*
X697918D01*
X546040Y131079D02*
X554531D01*
X545000Y130384D02*
X545346D01*
X546040Y131079D01*
X703894Y41200D02*
X706000D01*
X697930Y35236D02*
X703894Y41200D01*
X692000Y35236D02*
X697930D01*
X546272Y129110D02*
X554531D01*
X545000Y128184D02*
X545346D01*
X546272Y129110D01*
X703673Y39000D02*
X706000D01*
X697941Y33268D02*
X703673Y39000D01*
X692000Y33268D02*
X697941D01*
X546503Y127142D02*
X554531D01*
X545000Y125984D02*
X545346D01*
X546503Y127142D01*
X703453Y36800D02*
X706000D01*
X697953Y31299D02*
X703453Y36800D01*
X692000Y31299D02*
X697953D01*
X546735Y125173D02*
X554531D01*
X545000Y123784D02*
X545346D01*
X546735Y125173D01*
X703233Y34600D02*
X706000D01*
X697964Y29331D02*
X703233Y34600D01*
X692000Y29331D02*
X697964D01*
X546966Y123205D02*
X554531D01*
X545000Y121584D02*
X545346D01*
X546966Y123205D01*
X703013Y32400D02*
X706000D01*
X697975Y27362D02*
X703013Y32400D01*
X692000Y27362D02*
X697975D01*
X547197Y121236D02*
X554531D01*
X545000Y119384D02*
X545346D01*
X547197Y121236D01*
X702793Y30200D02*
X706000D01*
X697987Y25394D02*
X702793Y30200D01*
X692000Y25394D02*
X697987D01*
X547429Y119268D02*
X554531D01*
X545000Y117184D02*
X545346D01*
X547429Y119268D01*
X702573Y28000D02*
X706000D01*
X697998Y23425D02*
X702573Y28000D01*
X692000Y23425D02*
X697998D01*
X547660Y117299D02*
X554531D01*
X545000Y114984D02*
X545346D01*
X547660Y117299D01*
X702353Y25800D02*
X706000D01*
X698009Y21457D02*
X702353Y25800D01*
X692000Y21457D02*
X698009D01*
X547892Y115331D02*
X554531D01*
X545000Y112784D02*
X545346D01*
X547892Y115331D01*
X702133Y23600D02*
X706000D01*
X698021Y19488D02*
X702133Y23600D01*
X692000Y19488D02*
X698021D01*
X548124Y113362D02*
X554531D01*
X545000Y110584D02*
X545346D01*
X548124Y113362D01*
X701913Y21400D02*
X706000D01*
X698032Y17520D02*
X701913Y21400D01*
X692000Y17520D02*
X698032D01*
X548355Y111394D02*
X554531D01*
X545000Y108384D02*
X545346D01*
X548355Y111394D01*
X701692Y19200D02*
X706000D01*
X698044Y15551D02*
X701692Y19200D01*
X692000Y15551D02*
X698044D01*
X548587Y109425D02*
X554531D01*
X545000Y106184D02*
X545346D01*
X548587Y109425D01*
X701472Y17000D02*
X706000D01*
X698055Y13583D02*
X701472Y17000D01*
X692000Y13583D02*
X698055D01*
X548818Y107457D02*
X554531D01*
X545000Y103984D02*
X545346D01*
X548818Y107457D01*
X665000Y127000D02*
X671000Y121000D01*
X665000Y127000D02*
Y164000D01*
X734039Y52039D02*
X743126Y61126D01*
X734039Y34961D02*
Y52039D01*
X743126Y61126D02*
Y97827D01*
Y112000D02*
Y125874D01*
X741157Y112000D02*
Y122843D01*
X756000Y39000D02*
Y118000D01*
X749992Y32992D02*
X756000Y39000D01*
X739370Y32992D02*
X749992D01*
X745094Y112000D02*
Y118095D01*
X747000Y120000D01*
X754000D01*
X756000Y118000D01*
X739370Y31024D02*
Y32992D01*
X734039Y30961D02*
Y34961D01*
Y30961D02*
X735945Y29055D01*
X739370D01*
X588031Y319000D02*
X595662D01*
X582031Y325000D02*
X588031Y319000D01*
X577000Y325000D02*
X582031D01*
X600338D02*
X601000Y324338D01*
X589020Y325000D02*
X600338D01*
X595662Y319000D02*
X601000Y324338D01*
X250256Y114000D02*
X255256Y119000D01*
X243000Y114000D02*
X250256D01*
X229000Y128000D02*
X243000Y114000D01*
X199000Y128000D02*
X229000D01*
X193000Y134000D02*
X199000Y128000D01*
X193000Y134000D02*
Y172031D01*
X196484Y175516D01*
X208000D01*
X193000Y179000D02*
X196484Y175516D01*
X193000Y179000D02*
Y187000D01*
X196000Y190000D01*
X242000D01*
X292256Y240256D01*
X255256Y161000D02*
Y168000D01*
Y154000D02*
Y161000D01*
Y147000D02*
Y154000D01*
Y139772D02*
Y147000D01*
Y133000D02*
Y139772D01*
Y126000D02*
Y133000D01*
Y119000D02*
Y126000D01*
X198779Y168142D02*
X208000D01*
X614306Y230000D02*
X626417Y242112D01*
X556185Y230000D02*
X614306D01*
X553785Y227600D02*
X556185Y230000D01*
X538459Y227600D02*
X553785D01*
X532059Y221200D02*
X538459Y227600D01*
X376039Y221200D02*
X532059D01*
X370239Y215400D02*
X376039Y221200D01*
X338865Y215400D02*
X370239D01*
X335865Y212400D02*
X338865Y215400D01*
X282420Y212400D02*
X335865D01*
X233241Y163221D02*
X282420Y212400D01*
X208000Y163221D02*
X233241D01*
X198779D02*
X208000D01*
X236689Y257311D02*
Y264063D01*
X605706Y231400D02*
X616417Y242112D01*
X555605Y231400D02*
X605706D01*
X553205Y229000D02*
X555605Y231400D01*
X537879Y229000D02*
X553205D01*
X531479Y222600D02*
X537879Y229000D01*
X375459Y222600D02*
X531479D01*
X369659Y216800D02*
X375459Y222600D01*
X338285Y216800D02*
X369659D01*
X335285Y213800D02*
X338285Y216800D01*
X281840Y213800D02*
X335285D01*
X233721Y165681D02*
X281840Y213800D01*
X208000Y165681D02*
X233721D01*
X200760D02*
X208000D01*
X239150Y264063D02*
Y270150D01*
X597106Y232800D02*
X606417Y242112D01*
X555025Y232800D02*
X597106D01*
X552825Y230600D02*
X555025Y232800D01*
X537499Y230600D02*
X552825D01*
X530899Y224000D02*
X537499Y230600D01*
X374879Y224000D02*
X530899D01*
X369079Y218200D02*
X374879Y224000D01*
X337705Y218200D02*
X369079D01*
X334705Y215200D02*
X337705Y218200D01*
X281260Y215200D02*
X334705D01*
X234198Y168138D02*
X281260Y215200D01*
X208000Y168138D02*
X234198D01*
X241606Y264063D02*
Y272000D01*
X579906Y235600D02*
X586417Y242112D01*
X553865Y235600D02*
X579906D01*
X551831Y233565D02*
X553865Y235600D01*
X536505Y233565D02*
X551831D01*
X529740Y226800D02*
X536505Y233565D01*
X373720Y226800D02*
X529740D01*
X367920Y221000D02*
X373720Y226800D01*
X336546Y221000D02*
X367920D01*
X334746Y219200D02*
X336546Y221000D01*
X283280Y219200D02*
X334746D01*
X237140Y173059D02*
X283280Y219200D01*
X208000Y173059D02*
X237140D01*
X198779D02*
X208000D01*
X246528Y264063D02*
Y274000D01*
X535345Y236365D02*
X550671D01*
X556417Y242112D01*
X528580Y229600D02*
X535345Y236365D01*
X372560Y229600D02*
X528580D01*
X366760Y223800D02*
X372560Y229600D01*
X285901Y223800D02*
X366760D01*
X240077Y177976D02*
X285901Y223800D01*
X208000Y177976D02*
X240077D01*
X198779D02*
X208000D01*
X251445Y264063D02*
Y276000D01*
X534765Y237765D02*
X542071D01*
X546417Y242112D01*
X528000Y231000D02*
X534765Y237765D01*
X371980Y231000D02*
X528000D01*
X366180Y225200D02*
X371980Y231000D01*
X285321Y225200D02*
X366180D01*
X240558Y180437D02*
X285321Y225200D01*
X208000Y180437D02*
X240558D01*
X200760D02*
X208000D01*
X253906Y264063D02*
Y278000D01*
X371400Y232400D02*
X526706D01*
X536417Y242112D01*
X365600Y226600D02*
X371400Y232400D01*
X241038Y182898D02*
X284741Y226600D01*
X365600D01*
X208000Y182898D02*
X241038D01*
X198779D02*
X208000D01*
X256366Y264063D02*
Y280000D01*
X370820Y233800D02*
X518106D01*
X526417Y242112D01*
X365020Y228000D02*
X370820Y233800D01*
X241519Y185358D02*
X284161Y228000D01*
X365020D01*
X208000Y185358D02*
X241519D01*
X200760D02*
X208000D01*
X258827Y264063D02*
Y282000D01*
X234359Y254062D02*
Y263936D01*
X233875Y252000D02*
X237000D01*
X231772Y254103D02*
X233875Y252000D01*
X233895Y250000D02*
X242000D01*
X229311Y254584D02*
X233895Y250000D01*
X226850Y254150D02*
X233200Y247800D01*
X228010Y251010D02*
X232620Y246400D01*
X228010Y251010D02*
X228010D01*
X224390Y254630D02*
X228010Y251010D01*
X227430Y249610D02*
X232040Y245000D01*
X227430Y249610D02*
X227430D01*
X227020Y250020D02*
X227430Y249610D01*
X227020Y250020D02*
X227020D01*
X221929Y255111D02*
X227020Y250020D01*
X226850Y248210D02*
X231460Y243600D01*
X226850Y248210D02*
X226850D01*
X226440Y248620D02*
X226850Y248210D01*
X226440Y248620D02*
X226440D01*
X226030Y249030D02*
X226440Y248620D01*
X226030Y249030D02*
X226030D01*
X219468Y255592D02*
X226030Y249030D01*
X226270Y246810D02*
X230880Y242200D01*
X226270Y246810D02*
X226270D01*
X225860Y247220D02*
X226270Y246810D01*
X225860Y247220D02*
X225860D01*
X225450Y247630D02*
X225860Y247220D01*
X225450Y247630D02*
X225450D01*
X225040Y248040D02*
X225450Y247630D01*
X225040Y248040D02*
X225040D01*
X217008Y256072D02*
X225040Y248040D01*
X225691Y245410D02*
X230301Y240800D01*
X225691Y245410D02*
X225691D01*
X225280Y245820D02*
X225691Y245410D01*
X225280Y245820D02*
X225280D01*
X224870Y246230D02*
X225280Y245820D01*
X224870Y246230D02*
X224870D01*
X224460Y246640D02*
X224870Y246230D01*
X224460Y246640D02*
X224460D01*
X224050Y247050D02*
X224460Y246640D01*
X224050Y247050D02*
X224050D01*
X214551Y256549D02*
X224050Y247050D01*
X225111Y244010D02*
X229721Y239400D01*
X225111Y244010D02*
X225111D01*
X224701Y244420D02*
X225111Y244010D01*
X224700Y244420D02*
X224701D01*
X224290Y244830D02*
X224700Y244420D01*
X224290Y244830D02*
X224290D01*
X223880Y245240D02*
X224290Y244830D01*
X223880Y245240D02*
X223880D01*
X223470Y245650D02*
X223880Y245240D01*
X223470Y245650D02*
X223470D01*
X223060Y246060D02*
X223470Y245650D01*
X223060Y246060D02*
X223060D01*
X212090Y257030D02*
X223060Y246060D01*
X224531Y242610D02*
X229141Y238000D01*
X224531Y242610D02*
X224531D01*
X224121Y243020D02*
X224531Y242610D01*
X224121Y243020D02*
X224121D01*
X223711Y243430D02*
X224121Y243020D01*
X223711Y243430D02*
X223711D01*
X223301Y243840D02*
X223711Y243430D01*
X223301Y243840D02*
X223301D01*
X222890Y244250D02*
X223301Y243840D01*
X222890Y244250D02*
X222890D01*
X222480Y244660D02*
X222890Y244250D01*
X222480Y244660D02*
X222480D01*
X222070Y245070D02*
X222480Y244660D01*
X222070Y245070D02*
X222070D01*
X209630Y257511D02*
X222070Y245070D01*
X231772Y254103D02*
Y264063D01*
X229311Y254584D02*
Y264063D01*
X226850Y254150D02*
Y264063D01*
X233200Y247800D02*
X268800D01*
X224390Y254630D02*
Y264063D01*
X232620Y246400D02*
X269400D01*
X221929Y255111D02*
Y264063D01*
X232040Y245000D02*
X269980D01*
X219468Y255592D02*
Y264063D01*
X231460Y243600D02*
X270560D01*
X217008Y256072D02*
Y264063D01*
X230880Y242200D02*
X271140D01*
X214551Y256549D02*
Y264063D01*
X230301Y240800D02*
X271720D01*
X212090Y257030D02*
Y264063D01*
X229721Y239400D02*
X272299D01*
X209630Y257511D02*
Y264063D01*
X229141Y238000D02*
X272879D01*
X234232Y264063D02*
X234359Y263936D01*
X283000Y206000D02*
X284000Y205000D01*
X283000Y206000D02*
X286600Y209600D01*
X287000Y205000D02*
Y206000D01*
X289000Y208000D01*
X337405D02*
X340605Y211200D01*
X289000Y208000D02*
X337405D01*
X337025Y209600D02*
X340025Y212600D01*
X286600Y209600D02*
X337025D01*
X285000Y217000D02*
X334525D01*
X287000Y221000D02*
X334566D01*
X283000Y211000D02*
X336445D01*
X232760Y160760D02*
X283000Y211000D01*
X208000Y160760D02*
X232760D01*
X335966Y222400D02*
X367340D01*
X334566Y221000D02*
X335966Y222400D01*
X334525Y217000D02*
X337125Y219600D01*
X336445Y211000D02*
X339445Y214000D01*
X340605Y211200D02*
X371979D01*
X340025Y212600D02*
X371399D01*
X339445Y214000D02*
X370819D01*
X337125Y219600D02*
X368499D01*
X374300Y225400D01*
X370819Y214000D02*
X376619Y219800D01*
X371399Y212600D02*
X377199Y218400D01*
X371979Y211200D02*
X377779Y217000D01*
X317748Y162908D02*
X361840Y207000D01*
X317748Y159000D02*
Y162908D01*
X296000Y166000D02*
X318860D01*
X361260Y208400D02*
X534440D01*
X318860Y166000D02*
X361260Y208400D01*
X294126Y164126D02*
X296000Y166000D01*
X294126Y159000D02*
Y164126D01*
X361840Y207000D02*
X535020D01*
X362420Y205600D02*
X535600D01*
X339600Y182780D02*
X362420Y205600D01*
X339600Y158580D02*
Y182780D01*
X335820Y154800D02*
X339600Y158580D01*
X316400Y154800D02*
X335820D01*
X315779Y155420D02*
X316400Y154800D01*
X315779Y155420D02*
Y159000D01*
X363000Y204200D02*
X536180D01*
X341000Y182200D02*
X363000Y204200D01*
X341000Y158000D02*
Y182200D01*
X336400Y153400D02*
X341000Y158000D01*
X315000Y153400D02*
X336400D01*
X313811Y154589D02*
X315000Y153400D01*
X313811Y154589D02*
Y159000D01*
X391201Y202800D02*
X536760D01*
X340401Y152000D02*
X391201Y202800D01*
X314000Y152000D02*
X340401D01*
X311842Y154157D02*
X314000Y152000D01*
X311842Y154157D02*
Y159000D01*
X391781Y201400D02*
X537340D01*
X334981Y144600D02*
X391781Y201400D01*
X313400Y144600D02*
X334981D01*
X335561Y143200D02*
X392361Y200000D01*
X336141Y141800D02*
X392941Y198600D01*
X336721Y140400D02*
X393521Y197200D01*
X337301Y139000D02*
X394101Y195800D01*
X337880Y137600D02*
X394680Y194400D01*
X338460Y136200D02*
X395260Y193000D01*
X339040Y134800D02*
X395840Y191600D01*
X339620Y133400D02*
X396420Y190200D01*
X340200Y132000D02*
X397000Y188800D01*
X310000Y143200D02*
X335561D01*
X307899Y141800D02*
X336141D01*
X307320Y140400D02*
X336721D01*
X306740Y139000D02*
X337301D01*
X306160Y137600D02*
X337880D01*
X305580Y136200D02*
X338460D01*
X305000Y134800D02*
X339040D01*
X295580Y133400D02*
X339620D01*
X295000Y132000D02*
X340200D01*
X307906Y145294D02*
X310000Y143200D01*
X305937Y143762D02*
X307899Y141800D01*
X303969Y143751D02*
X307320Y140400D01*
X302000Y143740D02*
X306740Y139000D01*
X300031Y143728D02*
X306160Y137600D01*
X298063Y143717D02*
X305580Y136200D01*
X296094Y143705D02*
X305000Y134800D01*
X292158Y136822D02*
X295580Y133400D01*
X290189Y136811D02*
X295000Y132000D01*
X309874Y148126D02*
X313400Y144600D01*
X309874Y148126D02*
Y159000D01*
X392361Y200000D02*
X537920D01*
X307906Y145294D02*
Y159000D01*
X392941Y198600D02*
X538499D01*
X394101Y195800D02*
X539659D01*
X394680Y194400D02*
X540239D01*
X395260Y193000D02*
X540819D01*
X395840Y191600D02*
X541399D01*
X396420Y190200D02*
X541979D01*
X397000Y188800D02*
X542559D01*
X305937Y143762D02*
Y159000D01*
X393521Y197200D02*
X539079D01*
X303969Y143751D02*
Y159000D01*
X302000Y143740D02*
Y159000D01*
X300031Y143728D02*
Y159000D01*
X298063Y143717D02*
Y159000D01*
X296094Y143705D02*
Y159000D01*
X292158Y136822D02*
Y159000D01*
X290189Y136811D02*
Y159000D01*
X352000Y126862D02*
X359138Y134000D01*
X352000Y112382D02*
Y126862D01*
Y112382D02*
X359138Y105244D01*
X355000Y113000D02*
X358500D01*
X355000Y142000D02*
X358744D01*
X355000Y101106D02*
X359138Y105244D01*
X355000Y85000D02*
Y101106D01*
Y85000D02*
X365000Y75000D01*
X373000D01*
X534440Y208400D02*
X547840Y221800D01*
X208000Y141079D02*
X215240D01*
Y136161D02*
X231583D01*
X208000D02*
X215240D01*
X231583D02*
X248744Y119000D01*
X236122Y138622D02*
X248744Y126000D01*
X217220Y138622D02*
X236122D01*
X208000D02*
X217220D01*
X240665Y141079D02*
X248744Y133000D01*
X215240Y141079D02*
X240665D01*
X208000Y143539D02*
X217220D01*
X244976D02*
X248744Y139772D01*
X217220Y143539D02*
X244976D01*
X247744Y146000D02*
X248744Y147000D01*
X215240Y146000D02*
X247744D01*
X208000D02*
X215240D01*
X243205Y148461D02*
X248744Y154000D01*
X217220Y148461D02*
X243205D01*
X208000D02*
X217220D01*
X238665Y150921D02*
X248744Y161000D01*
X215240Y150921D02*
X238665D01*
X208000D02*
X215240D01*
X234126Y153382D02*
X248744Y168000D01*
X217220Y153382D02*
X234126D01*
X208000D02*
X217220D01*
X198779Y158303D02*
X208000D01*
X200760Y155842D02*
X208000D01*
X200760Y160760D02*
X208000D01*
X566800Y204800D02*
X633421D01*
X564063Y202063D02*
X566800Y204800D01*
X555822Y202063D02*
X564063D01*
X566180Y206200D02*
X634001D01*
X563443Y203463D02*
X566180Y206200D01*
X555242Y203463D02*
X563443D01*
X565600Y207600D02*
X634581D01*
X562863Y204863D02*
X565600Y207600D01*
X554662Y204863D02*
X562863D01*
X564980Y209000D02*
X635161D01*
X562243Y206263D02*
X564980Y209000D01*
X554082Y206263D02*
X562243D01*
X564400Y210400D02*
X635741D01*
X561663Y207663D02*
X564400Y210400D01*
X553502Y207663D02*
X561663D01*
X563760Y211800D02*
X636321D01*
X561023Y209063D02*
X563760Y211800D01*
X552922Y209063D02*
X561023D01*
X563180Y213200D02*
X636901D01*
X560443Y210463D02*
X563180Y213200D01*
X552342Y210463D02*
X560443D01*
X562600Y214600D02*
X637480D01*
X559863Y211863D02*
X562600Y214600D01*
X551762Y211863D02*
X559863D01*
X562000Y216000D02*
X638060D01*
X559263Y213263D02*
X562000Y216000D01*
X551183Y213263D02*
X559263D01*
X561404Y217400D02*
X638640D01*
X558667Y214663D02*
X561404Y217400D01*
X550603Y214663D02*
X558667D01*
X558087Y216063D02*
X560824Y218800D01*
X550023Y216063D02*
X558087D01*
X560824Y218800D02*
X639220D01*
X560244Y220200D02*
X639800D01*
X557644Y217600D02*
X560244Y220200D01*
X549580Y217600D02*
X557644D01*
X559664Y221600D02*
X640389D01*
X557064Y219000D02*
X559664Y221600D01*
X549000Y219000D02*
X557064D01*
X559085Y223000D02*
X640969D01*
X556485Y220400D02*
X559085Y223000D01*
X548420Y220400D02*
X556485D01*
X643812Y194409D02*
X650000D01*
X633421Y204800D02*
X643812Y194409D01*
X634001Y206200D02*
X643823Y196378D01*
X634581Y207600D02*
X641866Y200315D01*
X635161Y209000D02*
X641877Y202284D01*
X635741Y210400D02*
X641889Y204252D01*
X636321Y211800D02*
X641900Y206221D01*
X641912Y208189D02*
X650000D01*
X636901Y213200D02*
X641912Y208189D01*
X641923Y210157D02*
X650000D01*
X637480Y214600D02*
X641923Y210157D01*
X641934Y212126D02*
X650000D01*
X638060Y216000D02*
X641934Y212126D01*
X641946Y214094D02*
X650000D01*
X638640Y217400D02*
X641946Y214094D01*
X641957Y216063D02*
X650000D01*
X639220Y218800D02*
X641957Y216063D01*
X641968Y218032D02*
X650000D01*
X639800Y220200D02*
X641968Y218032D01*
X641989Y220000D02*
X650000D01*
X640389Y221600D02*
X641989Y220000D01*
X642000Y221969D02*
X650000D01*
X640969Y223000D02*
X642000Y221969D01*
X643823Y196378D02*
X650000D01*
X641877Y202284D02*
X650000D01*
X641889Y204252D02*
X650000D01*
X641900Y206221D02*
X650000D01*
X640686Y224400D02*
X642286Y226000D01*
X558505Y224400D02*
X640686D01*
X640106Y225800D02*
X656417Y242112D01*
X557925Y225800D02*
X640106D01*
X631506Y227200D02*
X646417Y242112D01*
X557345Y227200D02*
X631506D01*
X641866Y200315D02*
X650000D01*
X556765Y228600D02*
X622906D01*
X554445Y234200D02*
X588506D01*
X571306Y237000D02*
X576417Y242112D01*
X553286Y237000D02*
X571306D01*
X642286Y226000D02*
X647000D01*
X662000Y241000D01*
X555905Y221800D02*
X558505Y224400D01*
X547840Y221800D02*
X555905D01*
X555325Y223200D02*
X557925Y225800D01*
X540180Y223200D02*
X555325D01*
X554745Y224600D02*
X557345Y227200D01*
X539600Y224600D02*
X554745D01*
X622906Y228600D02*
X636417Y242112D01*
X554165Y226000D02*
X556765Y228600D01*
X538839Y226000D02*
X554165D01*
X588506Y234200D02*
X596417Y242112D01*
X536920Y232000D02*
X552245D01*
X554445Y234200D01*
X551251Y234965D02*
X553286Y237000D01*
X535020Y207000D02*
X548420Y220400D01*
X540000Y210000D02*
X549000Y219000D01*
X536180Y204200D02*
X549580Y217600D01*
X541980Y208020D02*
X550023Y216063D01*
X537340Y201400D02*
X550603Y214663D01*
X543960Y206040D02*
X551183Y213263D01*
X538499Y198600D02*
X551762Y211863D01*
X545940Y204060D02*
X552342Y210463D01*
X539659Y195800D02*
X552922Y209063D01*
X547920Y202080D02*
X553502Y207663D01*
X540819Y193000D02*
X554082Y206263D01*
X549899Y200100D02*
X554662Y204863D01*
X541979Y190200D02*
X555242Y203463D01*
X542559Y188800D02*
X555822Y202063D01*
X535925Y234965D02*
X551251D01*
X396000Y248000D02*
Y250000D01*
X394170Y251830D02*
X396000Y250000D01*
X295810Y251830D02*
X394170D01*
X391570Y250430D02*
X393000Y249000D01*
X296390Y250430D02*
X391570D01*
X390000Y245000D02*
X399000D01*
X385970Y249030D02*
X390000Y245000D01*
X296970Y249030D02*
X385970D01*
X532639Y219800D02*
X538839Y226000D01*
X376619Y219800D02*
X532639D01*
X525980Y366000D02*
X551000Y340980D01*
Y288000D02*
Y340980D01*
X526000Y364000D02*
X541000Y349000D01*
X454000Y129000D02*
X463693D01*
X468000Y124693D01*
Y114000D02*
Y124693D01*
X511000Y247000D02*
X547000Y283000D01*
X511000Y238000D02*
Y247000D01*
X510000Y237000D02*
X511000Y238000D01*
X431529Y237000D02*
X510000D01*
X529160Y228200D02*
X535925Y234965D01*
X530320Y225400D02*
X536920Y232000D01*
X533400Y218400D02*
X539600Y224600D01*
X533980Y217000D02*
X540180Y223200D01*
X373140Y228200D02*
X529160D01*
X374300Y225400D02*
X530320D01*
X377199Y218400D02*
X533400D01*
X377779Y217000D02*
X533980D01*
X426417Y242112D02*
X431529Y237000D01*
X650000Y179000D02*
X665000Y164000D01*
X650000Y179000D02*
Y194409D01*
X409000Y237000D02*
X421306D01*
X403000D02*
X409000D01*
X344000Y277256D02*
X389344D01*
X409000Y257600D01*
Y237000D02*
Y257600D01*
X421306Y237000D02*
X426417Y242112D01*
X399744Y240256D02*
X403000Y237000D01*
X292256Y240256D02*
X399744D01*
X363724Y83276D02*
X372724D01*
X358744Y88256D02*
X363724Y83276D01*
X358744Y88256D02*
Y97244D01*
X378000Y78000D02*
X457000D01*
X372724Y83276D02*
X378000Y78000D01*
X372724Y83276D02*
Y113276D01*
X369000Y117000D02*
X372724Y113276D01*
X361000Y117000D02*
X369000D01*
X358744Y119256D02*
X361000Y117000D01*
X358744Y119256D02*
Y126000D01*
X575000Y310694D02*
Y323000D01*
X577000Y325000D01*
X566417Y292417D02*
Y302112D01*
X557000Y283000D02*
X566417Y292417D01*
X547000Y283000D02*
X557000D01*
X531000Y299000D02*
X547000Y283000D01*
X531000Y299000D02*
Y315000D01*
X524000Y322000D02*
X531000Y315000D01*
X518256Y322000D02*
X524000D01*
X571000Y246694D02*
Y326000D01*
X566417Y242112D02*
X571000Y246694D01*
Y326000D02*
X580000Y335000D01*
X541000Y297000D02*
Y349000D01*
X496417Y242112D02*
X521000Y266694D01*
Y310000D01*
X511744Y319256D02*
X521000Y310000D01*
X486417Y242112D02*
X511000Y266694D01*
Y304000D01*
X496969Y318032D02*
X511000Y304000D01*
X476417Y242112D02*
X501000Y266694D01*
Y306000D01*
X497000Y310000D02*
X501000Y306000D01*
X488600Y310000D02*
X497000D01*
X481744Y316856D02*
X488600Y310000D01*
X466417Y242112D02*
X491000Y266694D01*
Y305112D01*
X482912Y313200D02*
X491000Y305112D01*
X468000Y313200D02*
X482912D01*
X456417Y242112D02*
X481000Y266694D01*
Y305000D01*
X474200Y311800D02*
X481000Y305000D01*
X456000Y311800D02*
X474200D01*
X446417Y242112D02*
X471000Y266694D01*
Y306000D01*
X466600Y310400D02*
X471000Y306000D01*
X440000Y310400D02*
X466600D01*
X429200Y309000D02*
X457000D01*
X461000Y305000D01*
Y266694D02*
Y305000D01*
X436417Y242112D02*
X461000Y266694D01*
X734039Y34961D02*
X739370D01*
X580000Y335000D02*
X613000D01*
X528000Y369000D02*
X571000Y326000D01*
X435432Y369000D02*
X528000D01*
X423937Y357505D02*
X435432Y369000D01*
X547920Y202080D02*
X547920D01*
X540239Y194400D02*
X547920Y202080D01*
X545940Y204060D02*
X545940D01*
X539079Y197200D02*
X545940Y204060D01*
X543960Y206040D02*
X543960D01*
X537920Y200000D02*
X543960Y206040D01*
X541980Y208020D02*
X541980D01*
X536760Y202800D02*
X541980Y208020D01*
X540000Y210000D02*
X540000D01*
X535600Y205600D02*
X540000Y210000D01*
X613000Y335000D02*
X615529Y332471D01*
Y328118D02*
Y332471D01*
X473216Y94217D02*
Y99228D01*
X457000Y78000D02*
X473216Y94217D01*
X358500Y113000D02*
X358744Y113244D01*
X666000Y210000D02*
Y309000D01*
X657118Y317882D02*
X666000Y309000D01*
X615529Y317882D02*
X657118D01*
X656315Y200315D02*
X666000Y210000D01*
X650000Y200315D02*
X656315D01*
X454000Y124256D02*
Y129000D01*
X460224Y106224D02*
X468000Y114000D01*
X454000Y106224D02*
X460224D01*
X518000Y335000D02*
X518740Y334260D01*
Y329784D02*
Y334260D01*
X503500Y335000D02*
X518000D01*
X489000D02*
X503500D01*
X503740Y334760D01*
Y329784D02*
Y334760D01*
X474000Y335000D02*
X489000D01*
X488740Y334740D02*
X489000Y335000D01*
X488740Y329784D02*
Y334740D01*
X459000Y335000D02*
X474000D01*
X473740Y334740D02*
X474000Y335000D01*
X473740Y329784D02*
Y334740D01*
X444000Y335000D02*
X459000D01*
X458740Y334740D02*
X459000Y335000D01*
X458740Y329784D02*
Y334740D01*
X430709Y335000D02*
X444000D01*
X443740Y334740D02*
X444000Y335000D01*
X443740Y329784D02*
Y334740D01*
X523937Y340937D02*
Y357505D01*
X518000Y335000D02*
X523937Y340937D01*
X428740Y333032D02*
X430709Y335000D01*
X428740Y329784D02*
Y333032D01*
X512432Y366000D02*
X525980D01*
X520432Y364000D02*
X526000D01*
X513937Y357505D02*
X520432Y364000D01*
X503937Y357505D02*
X512432Y366000D01*
X482000Y106224D02*
X487224D01*
X488000Y107000D01*
X482000Y124256D02*
X490256D01*
X491000Y125000D01*
X398104Y253230D02*
X401667Y249667D01*
X337000Y277256D02*
X344000D01*
X330000D02*
X337000D01*
X323000D02*
X330000D01*
X316000D02*
X323000D01*
X309000D02*
X316000D01*
X302000D02*
X309000D01*
X295000D02*
X302000D01*
X657000Y312000D02*
X662000Y307000D01*
Y241000D02*
Y307000D01*
X578980Y321260D02*
X588240Y312000D01*
X657000D01*
X549899Y200100D02*
X549899D01*
X601000Y330062D02*
X604538D01*
X611600Y323000D01*
X615529D01*
X578980Y328740D02*
X579120Y328600D01*
X588600D01*
X590062Y330062D01*
X601000D01*
X443000Y106744D02*
X454000Y117744D01*
X443000Y89000D02*
Y106744D01*
X454000Y92000D02*
Y99713D01*
X451000Y89000D02*
X454000Y92000D01*
X457256Y102969D02*
X462783D01*
X454000Y99713D02*
X457256Y102969D01*
Y121000D02*
X462783D01*
X454000Y117744D02*
X457256Y121000D01*
X481516Y106709D02*
X482000Y106224D01*
X473216Y106709D02*
X481516D01*
Y124740D02*
X482000Y124256D01*
X473216Y124740D02*
X481516D01*
X481516Y99228D02*
X482000Y99713D01*
X473216Y99228D02*
X481516D01*
Y117260D02*
X482000Y117744D01*
X473216Y117260D02*
X481516D01*
X365256Y126000D02*
Y142000D01*
X365000Y125744D02*
X365256Y126000D01*
X365000Y119000D02*
Y125744D01*
X365256Y97244D02*
Y113244D01*
X365000Y96988D02*
X365256Y97244D01*
X365000Y90000D02*
Y96988D01*
X295230Y253230D02*
X398104D01*
X277580Y233600D02*
X295810Y251830D01*
X277000Y235000D02*
X295230Y253230D01*
X215311Y225311D02*
X220800Y230800D01*
X207937Y225311D02*
X215311D01*
X278740Y230800D02*
X296970Y249030D01*
X220800Y230800D02*
X278740D01*
X218941Y235000D02*
X277000D01*
X216630Y232689D02*
X218941Y235000D01*
X207937Y232689D02*
X216630D01*
X219541Y233600D02*
X277580D01*
X216169Y230228D02*
X219541Y233600D01*
X207937Y230228D02*
X216169D01*
X198000Y229000D02*
X199228Y230228D01*
X207937D01*
X198000Y224000D02*
Y229000D01*
X199150Y222850D02*
X207937D01*
X198000Y224000D02*
X199150Y222850D01*
X207937Y227772D02*
X215772D01*
X220200Y232200D01*
X200772Y235150D02*
X207937D01*
X200772Y227772D02*
X207937D01*
X278160Y232200D02*
X296390Y250430D01*
X220200Y232200D02*
X278160D01*
X367340Y222400D02*
X373140Y228200D01*
X541399Y191600D02*
X549899Y200100D01*
X268800Y247800D02*
X288000Y267000D01*
X269400Y246400D02*
X288000Y265000D01*
X269980Y245000D02*
X288580Y263600D01*
X270560Y243600D02*
X289160Y262200D01*
X271140Y242200D02*
X289740Y260800D01*
X271720Y240800D02*
X290320Y259400D01*
X272299Y239400D02*
X290899Y258000D01*
X272879Y238000D02*
X291479Y256600D01*
X333600D02*
X344000Y267000D01*
X291479Y256600D02*
X333600D01*
X328000Y258000D02*
X337000Y267000D01*
X290899Y258000D02*
X328000D01*
X316800Y260800D02*
X323000Y267000D01*
X289740Y260800D02*
X316800D01*
X311200Y262200D02*
X316000Y267000D01*
X289160Y262200D02*
X311200D01*
X305600Y263600D02*
X309000Y267000D01*
X288580Y263600D02*
X305600D01*
X300000Y265000D02*
X302000Y267000D01*
X288000Y265000D02*
X300000D01*
X290320Y259400D02*
X322400D01*
X295000Y267000D02*
Y270744D01*
X288000Y267000D02*
X295000D01*
X322400Y259400D02*
X330000Y267000D01*
X344000D02*
Y270744D01*
X337000Y267000D02*
Y270744D01*
X330000Y267000D02*
Y270744D01*
X323000Y267000D02*
Y270744D01*
X316000Y267000D02*
Y270744D01*
X309000Y267000D02*
Y270744D01*
X302000Y267000D02*
Y270744D01*
X511744Y319256D02*
Y322000D01*
X496969Y318032D02*
Y322000D01*
X481744Y316856D02*
Y322000D01*
X466744Y314456D02*
X468000Y313200D01*
X466744Y314456D02*
Y322000D01*
X451744Y316056D02*
X456000Y311800D01*
X451744Y316056D02*
Y322000D01*
X436744Y313656D02*
X440000Y310400D01*
X436744Y313656D02*
Y322000D01*
X422000Y316200D02*
X429200Y309000D01*
X422000Y316200D02*
Y322150D01*
X248984Y254984D02*
Y264063D01*
X244000Y255000D02*
Y263996D01*
X244067Y264063D01*
D15*
X678000Y115559D02*
D03*
Y105323D02*
D03*
Y110441D02*
D03*
X615529Y317882D02*
D03*
Y328118D02*
D03*
Y323000D02*
D03*
D16*
X601000Y324338D02*
D03*
Y330062D02*
D03*
D17*
X554531Y107457D02*
D03*
Y109425D02*
D03*
Y111394D02*
D03*
Y113362D02*
D03*
Y115331D02*
D03*
Y117299D02*
D03*
Y119268D02*
D03*
Y121236D02*
D03*
Y123205D02*
D03*
Y125173D02*
D03*
Y127142D02*
D03*
Y129110D02*
D03*
Y131079D02*
D03*
Y133047D02*
D03*
Y135016D02*
D03*
Y136984D02*
D03*
Y138953D02*
D03*
Y140921D02*
D03*
Y142890D02*
D03*
Y144858D02*
D03*
Y146827D02*
D03*
Y148795D02*
D03*
Y150764D02*
D03*
Y152732D02*
D03*
Y154701D02*
D03*
Y156669D02*
D03*
Y158638D02*
D03*
Y160606D02*
D03*
Y162575D02*
D03*
Y164543D02*
D03*
Y166512D02*
D03*
D18*
X564000Y108441D02*
D03*
Y110409D02*
D03*
Y112378D02*
D03*
Y114347D02*
D03*
Y116315D02*
D03*
Y118283D02*
D03*
Y120252D02*
D03*
Y122221D02*
D03*
Y124189D02*
D03*
Y126157D02*
D03*
Y128126D02*
D03*
Y130095D02*
D03*
Y132063D02*
D03*
Y134031D02*
D03*
Y136000D02*
D03*
Y137969D02*
D03*
Y139937D02*
D03*
Y141905D02*
D03*
Y143874D02*
D03*
Y145843D02*
D03*
Y147811D02*
D03*
Y149779D02*
D03*
Y151748D02*
D03*
Y153717D02*
D03*
Y155685D02*
D03*
Y157653D02*
D03*
Y159622D02*
D03*
Y161591D02*
D03*
Y163559D02*
D03*
Y165528D02*
D03*
D19*
X555575Y104819D02*
D03*
Y169150D02*
D03*
D20*
X739370Y29055D02*
D03*
Y31024D02*
D03*
Y32992D02*
D03*
Y34961D02*
D03*
X650000Y194409D02*
D03*
Y196378D02*
D03*
Y198346D02*
D03*
Y200315D02*
D03*
Y202284D02*
D03*
Y204252D02*
D03*
Y206221D02*
D03*
Y208189D02*
D03*
Y210157D02*
D03*
Y212126D02*
D03*
Y214094D02*
D03*
Y216063D02*
D03*
Y218032D02*
D03*
Y220000D02*
D03*
Y221969D02*
D03*
D21*
X750000Y20000D02*
D03*
Y44016D02*
D03*
X660630Y185354D02*
D03*
Y231024D02*
D03*
D22*
X511744Y347000D02*
D03*
X518256D02*
D03*
X496969D02*
D03*
X503480D02*
D03*
X481744D02*
D03*
X488256D02*
D03*
X466744D02*
D03*
X473256D02*
D03*
X451744D02*
D03*
X458256D02*
D03*
X422000Y347150D02*
D03*
X428512D02*
D03*
X365256Y97244D02*
D03*
X358744D02*
D03*
X365256Y113244D02*
D03*
X358744D02*
D03*
X365256Y142000D02*
D03*
X358744D02*
D03*
X365256Y126000D02*
D03*
X358744D02*
D03*
X255256Y168000D02*
D03*
X248744D02*
D03*
X255256Y161000D02*
D03*
X248744D02*
D03*
X255256Y154000D02*
D03*
X248744D02*
D03*
X255256Y147000D02*
D03*
X248744D02*
D03*
X255256Y139772D02*
D03*
X248744D02*
D03*
X255256Y133000D02*
D03*
X248744D02*
D03*
X255256Y126000D02*
D03*
X248744D02*
D03*
X255256Y119000D02*
D03*
X248744D02*
D03*
X518256Y322000D02*
D03*
X511744D02*
D03*
X503480D02*
D03*
X496969D02*
D03*
X488256D02*
D03*
X481744D02*
D03*
X473256D02*
D03*
X466744D02*
D03*
X458256D02*
D03*
X451744D02*
D03*
X443256D02*
D03*
X436744D02*
D03*
X428512Y322150D02*
D03*
X422000D02*
D03*
X443256Y347000D02*
D03*
X436744D02*
D03*
D23*
X703756Y97827D02*
D03*
Y112000D02*
D03*
X705724Y97827D02*
D03*
Y112000D02*
D03*
X707693Y97827D02*
D03*
Y112000D02*
D03*
X709661Y97827D02*
D03*
Y112000D02*
D03*
X711630Y97827D02*
D03*
Y112000D02*
D03*
X713598Y97827D02*
D03*
Y112000D02*
D03*
X715567Y97827D02*
D03*
Y112000D02*
D03*
X717535Y97827D02*
D03*
Y112000D02*
D03*
X719504Y97827D02*
D03*
Y112000D02*
D03*
X721472Y97827D02*
D03*
Y112000D02*
D03*
X723441Y97827D02*
D03*
Y112000D02*
D03*
X725410Y97827D02*
D03*
Y112000D02*
D03*
X727378Y97827D02*
D03*
Y112000D02*
D03*
X729347Y97827D02*
D03*
Y112000D02*
D03*
X731315Y97827D02*
D03*
Y112000D02*
D03*
X733284Y97827D02*
D03*
Y112000D02*
D03*
X735252Y97827D02*
D03*
Y112000D02*
D03*
X737220Y97827D02*
D03*
Y112000D02*
D03*
X739189Y97827D02*
D03*
Y112000D02*
D03*
X741157Y97827D02*
D03*
Y112000D02*
D03*
X743126Y97827D02*
D03*
Y112000D02*
D03*
X745094Y97827D02*
D03*
Y112000D02*
D03*
X747063Y97827D02*
D03*
Y112000D02*
D03*
X749031Y97827D02*
D03*
Y112000D02*
D03*
X751000Y97827D02*
D03*
Y112000D02*
D03*
D24*
X200063Y210252D02*
D03*
Y247748D02*
D03*
X200126Y121095D02*
D03*
Y197968D02*
D03*
D25*
X207937Y222850D02*
D03*
Y225311D02*
D03*
Y227772D02*
D03*
Y230228D02*
D03*
Y232689D02*
D03*
Y235150D02*
D03*
X208000Y153382D02*
D03*
Y155842D02*
D03*
Y158303D02*
D03*
Y160760D02*
D03*
Y163221D02*
D03*
Y165681D02*
D03*
Y173059D02*
D03*
Y170598D02*
D03*
Y168138D02*
D03*
Y180437D02*
D03*
Y177976D02*
D03*
Y175516D02*
D03*
Y182898D02*
D03*
Y185358D02*
D03*
Y150921D02*
D03*
Y143539D02*
D03*
Y146000D02*
D03*
Y148461D02*
D03*
Y136161D02*
D03*
Y138622D02*
D03*
Y141083D02*
D03*
Y133705D02*
D03*
D26*
X194563Y271937D02*
D03*
X271437D02*
D03*
D27*
X226850Y264063D02*
D03*
X229311D02*
D03*
X231772D02*
D03*
X234228D02*
D03*
X236689D02*
D03*
X239150D02*
D03*
X246528D02*
D03*
X244067D02*
D03*
X241606D02*
D03*
X253906D02*
D03*
X251445D02*
D03*
X248984D02*
D03*
X256366D02*
D03*
X258827D02*
D03*
X224390D02*
D03*
X217008D02*
D03*
X219468D02*
D03*
X221929D02*
D03*
X209630D02*
D03*
X212090D02*
D03*
X214551D02*
D03*
X207173D02*
D03*
D28*
X326803Y148370D02*
D03*
X281134D02*
D03*
D29*
X317748Y159000D02*
D03*
X315779D02*
D03*
X313811D02*
D03*
X311842D02*
D03*
X309874D02*
D03*
X307906D02*
D03*
X305937D02*
D03*
X303969D02*
D03*
X302000D02*
D03*
X300031D02*
D03*
X298063D02*
D03*
X296094D02*
D03*
X294126D02*
D03*
X292158D02*
D03*
X290189D02*
D03*
D30*
X359138Y105244D02*
D03*
X364862D02*
D03*
X359138Y134000D02*
D03*
X364862D02*
D03*
D31*
X473216Y99228D02*
D03*
Y106709D02*
D03*
X462783Y102969D02*
D03*
X473216Y117260D02*
D03*
Y124740D02*
D03*
X462783Y121000D02*
D03*
D32*
X454000Y106224D02*
D03*
Y99713D02*
D03*
Y124256D02*
D03*
Y117744D02*
D03*
X482000Y99713D02*
D03*
Y106224D02*
D03*
Y117744D02*
D03*
Y124256D02*
D03*
X344000Y277256D02*
D03*
Y270744D02*
D03*
X337000Y277256D02*
D03*
Y270744D02*
D03*
X330000Y277256D02*
D03*
Y270744D02*
D03*
X323000Y277256D02*
D03*
Y270744D02*
D03*
X316000Y277256D02*
D03*
Y270744D02*
D03*
X309000Y277256D02*
D03*
Y270744D02*
D03*
X302000Y277256D02*
D03*
Y270744D02*
D03*
X295000Y277256D02*
D03*
Y270744D02*
D03*
D33*
X688949Y90748D02*
D03*
Y9252D02*
D03*
D34*
X692000Y13583D02*
D03*
X662276Y14567D02*
D03*
X692000Y15551D02*
D03*
X662276Y16535D02*
D03*
X692000Y17520D02*
D03*
X662276Y18504D02*
D03*
X692000Y19488D02*
D03*
X662276Y20472D02*
D03*
X692000Y21457D02*
D03*
X662276Y22441D02*
D03*
X692000Y23425D02*
D03*
X662276Y24409D02*
D03*
X692000Y25394D02*
D03*
X662276Y26378D02*
D03*
X692000Y27362D02*
D03*
X662276Y28346D02*
D03*
X692000Y29331D02*
D03*
X662276Y30315D02*
D03*
X692000Y31299D02*
D03*
X662276Y32283D02*
D03*
X692000Y33268D02*
D03*
X662276Y34252D02*
D03*
X692000Y35236D02*
D03*
X662276Y36220D02*
D03*
X692000Y37205D02*
D03*
X662276Y38189D02*
D03*
X692000Y39173D02*
D03*
X662276Y40157D02*
D03*
X692000Y41142D02*
D03*
X662276Y42126D02*
D03*
X692000Y43110D02*
D03*
X662276Y44094D02*
D03*
X692000Y45079D02*
D03*
X662276Y46063D02*
D03*
X692000Y47047D02*
D03*
X662276Y48031D02*
D03*
X692000Y49016D02*
D03*
X662276Y50000D02*
D03*
X692000Y50984D02*
D03*
X662276Y51968D02*
D03*
X692000Y52953D02*
D03*
X662276Y53937D02*
D03*
X692000Y54921D02*
D03*
X662276Y55905D02*
D03*
X692000Y64764D02*
D03*
X662276Y65748D02*
D03*
X692000Y66732D02*
D03*
X662276Y67716D02*
D03*
X692000Y68701D02*
D03*
X662276Y69685D02*
D03*
X692000Y70669D02*
D03*
X662276Y71653D02*
D03*
X692000Y72638D02*
D03*
X662276Y73622D02*
D03*
X692000Y74606D02*
D03*
X662276Y75590D02*
D03*
X692000Y76575D02*
D03*
X662276Y77559D02*
D03*
X692000Y78543D02*
D03*
X662276Y79528D02*
D03*
X692000Y80512D02*
D03*
X662276Y81496D02*
D03*
X692000Y82480D02*
D03*
X662276Y83465D02*
D03*
X692000Y84449D02*
D03*
X662276Y85433D02*
D03*
X692000Y86417D02*
D03*
D35*
X511260Y329784D02*
D03*
X518740D02*
D03*
X515000Y340216D02*
D03*
X496260Y329784D02*
D03*
X503740D02*
D03*
X500000Y340216D02*
D03*
X481260Y329784D02*
D03*
X488740D02*
D03*
X485000Y340216D02*
D03*
X466260Y329784D02*
D03*
X473740D02*
D03*
X470000Y340216D02*
D03*
X451260Y329784D02*
D03*
X458740D02*
D03*
X455000Y340216D02*
D03*
X436260Y329784D02*
D03*
X443740D02*
D03*
X440000Y340216D02*
D03*
X421260Y329784D02*
D03*
X428740D02*
D03*
X425000Y340216D02*
D03*
D36*
X589020Y325000D02*
D03*
X578980Y321260D02*
D03*
Y328740D02*
D03*
D67*
X560012Y50000D02*
D03*
D68*
X468000Y75000D02*
X479000Y86000D01*
X509000D01*
X654000Y5000D02*
X676000D01*
X609000Y50000D02*
X654000Y5000D01*
X560012Y50000D02*
X609000D01*
X564000Y116315D02*
Y118283D01*
Y114347D02*
Y116315D01*
Y112378D02*
Y114347D01*
Y110409D02*
Y112378D01*
Y108441D02*
Y110409D01*
Y114347D02*
X592654D01*
X604000Y103000D01*
Y62384D02*
Y103000D01*
Y62384D02*
X649849Y16535D01*
X662276D01*
Y14567D02*
Y16535D01*
X564000Y163559D02*
Y165528D01*
Y161591D02*
Y163559D01*
Y159622D02*
Y161591D01*
Y157653D02*
Y159622D01*
Y155685D02*
Y157653D01*
Y153717D02*
Y155685D01*
X599315D01*
X637000Y118000D01*
Y100000D02*
Y118000D01*
Y100000D02*
X651567Y85433D01*
X662276D01*
X678000Y64800D02*
X684000Y70800D01*
X678000Y7000D02*
Y64800D01*
X676000Y5000D02*
X678000Y7000D01*
Y115559D02*
X678441Y116000D01*
X689000D01*
X731000Y120000D02*
X737000D01*
X739189Y117811D01*
Y112000D02*
Y117811D01*
X671000Y121000D02*
X725000D01*
X667000Y117000D02*
X671000Y121000D01*
X667000Y106000D02*
Y117000D01*
X725000Y121000D02*
X727378Y118622D01*
X678000Y105323D02*
X687677D01*
X702000Y91000D01*
X740000D01*
X741157Y92158D01*
Y97827D01*
X727378Y107378D02*
Y107622D01*
X724000Y104000D02*
X727378Y107378D01*
X705000Y104000D02*
X724000D01*
X703756Y102756D02*
X705000Y104000D01*
X703756Y97827D02*
Y102756D01*
X743126Y103685D02*
X749315D01*
X735000D02*
X743126D01*
Y97827D02*
Y103685D01*
X733000D02*
X735000D01*
X735252Y97827D02*
Y103433D01*
X735000Y103685D02*
X735252Y103433D01*
X751000Y97827D02*
Y102000D01*
X749315Y103685D02*
X751000Y102000D01*
X731315Y103685D02*
X733000D01*
X733284Y103402D01*
Y97827D02*
Y103402D01*
X731315Y97827D02*
Y103685D01*
X727378Y107622D02*
X731315Y103685D01*
X727378Y107622D02*
Y112000D01*
Y118622D01*
X678000Y110441D02*
X680000D01*
X670441D02*
X678000D01*
X418112Y302112D02*
X426417D01*
X417888D02*
X418112D01*
X413937Y306063D02*
X417888Y302112D01*
X413937Y306063D02*
Y357505D01*
X454000Y129000D02*
Y147000D01*
X438000Y163000D02*
X454000Y147000D01*
X392000Y163000D02*
X438000D01*
X373000Y75000D02*
X468000D01*
X417000Y291000D02*
X422000Y296000D01*
X417000Y251529D02*
Y291000D01*
Y251529D02*
X426417Y242112D01*
X414000Y298000D02*
X418112Y302112D01*
X414000Y241000D02*
Y298000D01*
X422000Y296000D02*
X430306D01*
X436417Y302112D01*
X418000Y351568D02*
X423937Y357505D01*
X418000Y315800D02*
Y351568D01*
Y315800D02*
X426688Y307112D01*
X441417D01*
X446417Y302112D01*
X662276Y83465D02*
Y85433D01*
D69*
X515000Y343638D02*
X518512Y347150D01*
X515000Y340216D02*
Y343638D01*
X511260Y322890D02*
X512000Y322150D01*
X481260Y322890D02*
X482000Y322150D01*
X466260Y322890D02*
X467000Y322150D01*
X451260Y322890D02*
X452000Y322150D01*
X436260Y322890D02*
X437000Y322150D01*
X493937Y357505D02*
X500442Y351000D01*
X507744D01*
X511744Y347000D01*
X483937Y357063D02*
Y357505D01*
Y357063D02*
X490000Y351000D01*
X492969D01*
X496969Y347000D01*
X473937Y357505D02*
X481744Y349698D01*
Y347000D02*
Y349698D01*
X463937Y353063D02*
Y357505D01*
Y353063D02*
X466744Y350256D01*
Y347000D02*
Y350256D01*
X453937Y351937D02*
Y357505D01*
X451744Y349744D02*
X453937Y351937D01*
X451744Y347000D02*
Y349744D01*
X436744Y350312D02*
X443937Y357505D01*
X436744Y347000D02*
Y350312D01*
X427432Y351000D02*
X433937Y357505D01*
X423000Y351000D02*
X427432D01*
X422000Y350000D02*
X423000Y351000D01*
X422000Y347150D02*
Y350000D01*
X511260Y322890D02*
Y329784D01*
X518740Y322378D02*
Y329784D01*
X518512Y322150D02*
X518740Y322378D01*
X500000Y343638D02*
X503512Y347150D01*
X500000Y340216D02*
Y343638D01*
X496260Y322890D02*
Y329784D01*
Y322890D02*
X497000Y322150D01*
X503740Y322378D02*
Y329784D01*
X503512Y322150D02*
X503740Y322378D01*
X485000Y343638D02*
X488512Y347150D01*
X485000Y340216D02*
Y343638D01*
X481260Y322890D02*
Y329784D01*
X488740Y322378D02*
Y329784D01*
X488512Y322150D02*
X488740Y322378D01*
X470000Y343638D02*
X473512Y347150D01*
X470000Y340216D02*
Y343638D01*
X466260Y322890D02*
Y329784D01*
X473740Y322378D02*
Y329784D01*
X473512Y322150D02*
X473740Y322378D01*
X455000Y343638D02*
X458512Y347150D01*
X455000Y340216D02*
Y343638D01*
X451260Y322890D02*
Y329784D01*
X458740Y322378D02*
Y329784D01*
X458512Y322150D02*
X458740Y322378D01*
X440000Y343638D02*
X443512Y347150D01*
X440000Y340216D02*
Y343638D01*
X436260Y322890D02*
Y329784D01*
X443740Y322378D02*
Y329784D01*
X443512Y322150D02*
X443740Y322378D01*
X428512Y322150D02*
X428740Y322378D01*
Y329784D01*
X421260Y322890D02*
X422000Y322150D01*
X421260Y322890D02*
Y329784D01*
X425000Y340216D02*
Y343638D01*
X428512Y347150D01*
D70*
X415638Y143000D02*
D03*
Y123000D02*
D03*
Y133000D02*
D03*
Y113000D02*
D03*
D71*
X426417Y242112D02*
D03*
X413937Y357505D02*
D03*
D72*
X656417Y242112D02*
D03*
X646417D02*
D03*
X636417D02*
D03*
X626417D02*
D03*
X616417D02*
D03*
X606417D02*
D03*
X596417D02*
D03*
X586417D02*
D03*
X576417D02*
D03*
X566417D02*
D03*
X556417D02*
D03*
X546417D02*
D03*
X536417D02*
D03*
X526417D02*
D03*
X516417D02*
D03*
X506417D02*
D03*
X496417D02*
D03*
X486417D02*
D03*
X476417D02*
D03*
X466417D02*
D03*
X456417D02*
D03*
X446417D02*
D03*
X436417D02*
D03*
X656417Y302112D02*
D03*
X646417D02*
D03*
X636417D02*
D03*
X626417D02*
D03*
X616417D02*
D03*
X606417D02*
D03*
X596417D02*
D03*
X586417D02*
D03*
X576417D02*
D03*
X566417D02*
D03*
X556417D02*
D03*
X546417D02*
D03*
X536417D02*
D03*
X526417D02*
D03*
X516417D02*
D03*
X506417D02*
D03*
X496417D02*
D03*
X486417D02*
D03*
X476417D02*
D03*
X466417D02*
D03*
X456417D02*
D03*
X446417D02*
D03*
X436417D02*
D03*
X426417D02*
D03*
X466417Y292112D02*
D03*
X476417D02*
D03*
X523937Y357505D02*
D03*
X513937D02*
D03*
X503937D02*
D03*
X493937D02*
D03*
X483937D02*
D03*
X473937D02*
D03*
X463937D02*
D03*
X453937D02*
D03*
X443937D02*
D03*
X433937D02*
D03*
X423937D02*
D03*
D73*
X519000Y86000D02*
D03*
X509000D02*
D03*
X519000Y96000D02*
D03*
X509000D02*
D03*
X519000Y106000D02*
D03*
X509000D02*
D03*
X519000Y116000D02*
D03*
X509000D02*
D03*
X519000Y126000D02*
D03*
D74*
X509000D02*
D03*
D75*
X706000Y83000D02*
D03*
Y80800D02*
D03*
Y78600D02*
D03*
Y76400D02*
D03*
Y74200D02*
D03*
Y72000D02*
D03*
Y69800D02*
D03*
Y67600D02*
D03*
Y65400D02*
D03*
Y63200D02*
D03*
Y61000D02*
D03*
Y58800D02*
D03*
Y56600D02*
D03*
Y54400D02*
D03*
Y52200D02*
D03*
Y50000D02*
D03*
Y47800D02*
D03*
Y45600D02*
D03*
Y43400D02*
D03*
Y41200D02*
D03*
Y39000D02*
D03*
Y36800D02*
D03*
Y34600D02*
D03*
Y32400D02*
D03*
Y30200D02*
D03*
Y28000D02*
D03*
Y25800D02*
D03*
Y23600D02*
D03*
Y21400D02*
D03*
Y19200D02*
D03*
Y17000D02*
D03*
X545000Y169984D02*
D03*
Y167784D02*
D03*
Y165584D02*
D03*
Y163384D02*
D03*
Y161184D02*
D03*
Y158984D02*
D03*
Y156784D02*
D03*
Y154584D02*
D03*
Y152384D02*
D03*
Y150184D02*
D03*
Y147984D02*
D03*
Y145784D02*
D03*
Y143584D02*
D03*
Y141384D02*
D03*
Y139184D02*
D03*
Y103984D02*
D03*
Y106184D02*
D03*
Y108384D02*
D03*
Y110584D02*
D03*
Y112784D02*
D03*
Y114984D02*
D03*
Y117184D02*
D03*
Y119384D02*
D03*
Y121584D02*
D03*
Y123784D02*
D03*
Y125984D02*
D03*
Y128184D02*
D03*
Y130384D02*
D03*
Y132584D02*
D03*
Y134784D02*
D03*
Y136984D02*
D03*
X689000Y116000D02*
D03*
X731000Y120000D02*
D03*
X743126Y125874D02*
D03*
X741157Y122843D02*
D03*
X392000Y163000D02*
D03*
X236689Y257311D02*
D03*
X239150Y270150D02*
D03*
X241606Y272000D02*
D03*
X246528Y274000D02*
D03*
X251445Y276000D02*
D03*
X253906Y278000D02*
D03*
X256366Y280000D02*
D03*
X258827Y282000D02*
D03*
X198779Y163221D02*
D03*
X200760Y165681D02*
D03*
X198779Y168142D02*
D03*
Y173059D02*
D03*
Y177976D02*
D03*
X200760Y180437D02*
D03*
X198779Y182898D02*
D03*
X200760Y185358D02*
D03*
X234359Y254062D02*
D03*
X284000Y205000D02*
D03*
X242000Y250000D02*
D03*
X287000Y205000D02*
D03*
X285000Y217000D02*
D03*
X287000Y221000D02*
D03*
X355000Y113000D02*
D03*
Y142000D02*
D03*
X373000Y75000D02*
D03*
X215240Y136161D02*
D03*
X217220Y138622D02*
D03*
X215240Y141079D02*
D03*
X217220Y143539D02*
D03*
X215240Y146000D02*
D03*
X217220Y148461D02*
D03*
X215240Y150921D02*
D03*
X217220Y153382D02*
D03*
X200760Y155842D02*
D03*
X198779Y158303D02*
D03*
X200760Y160760D02*
D03*
X565000Y200000D02*
D03*
X396000Y248000D02*
D03*
X393000Y249000D02*
D03*
X399000Y245000D02*
D03*
X667000Y106000D02*
D03*
X414000Y241000D02*
D03*
X575000Y310694D02*
D03*
X541000Y297000D02*
D03*
X552000Y191000D02*
D03*
X557000Y193000D02*
D03*
X561000Y194000D02*
D03*
X555600Y185000D02*
D03*
X454000Y129000D02*
D03*
X670441Y110441D02*
D03*
X551000Y288000D02*
D03*
X488000Y107000D02*
D03*
X491000Y125000D02*
D03*
X401667Y249667D02*
D03*
X443000Y89000D02*
D03*
X451000D02*
D03*
X365000Y119000D02*
D03*
Y90000D02*
D03*
X200772Y235150D02*
D03*
Y227772D02*
D03*
X237000Y252000D02*
D03*
X244000Y255000D02*
D03*
X248984Y254984D02*
D03*
X295000Y267000D02*
D03*
X344000D02*
D03*
X337000D02*
D03*
X330000D02*
D03*
X323000D02*
D03*
X316000D02*
D03*
X309000D02*
D03*
X302000D02*
D03*
M02*
