G04*
G04 #@! TF.GenerationSoftware,Altium Limited,Altium Designer,18.0.12 (696)*
G04*
G04 Layer_Color=16711935*
%FSLAX25Y25*%
%MOIN*%
G70*
G01*
G75*
%ADD60O,0.12611X0.07493*%
%ADD61R,0.07493X0.07493*%
%ADD62C,0.07493*%
%ADD63C,0.00800*%
%ADD64C,0.06706*%
%ADD65R,0.06706X0.06706*%
%ADD66C,0.02400*%
%ADD78R,0.04737X0.12611*%
%ADD79R,0.12611X0.08674*%
D60*
X415638Y143000D02*
D03*
Y123000D02*
D03*
Y133000D02*
D03*
Y113000D02*
D03*
D61*
X426417Y242112D02*
D03*
X413937Y357505D02*
D03*
D62*
X656417Y242112D02*
D03*
X646417D02*
D03*
X636417D02*
D03*
X626417D02*
D03*
X616417D02*
D03*
X606417D02*
D03*
X596417D02*
D03*
X586417D02*
D03*
X576417D02*
D03*
X566417D02*
D03*
X556417D02*
D03*
X546417D02*
D03*
X536417D02*
D03*
X526417D02*
D03*
X516417D02*
D03*
X506417D02*
D03*
X496417D02*
D03*
X486417D02*
D03*
X476417D02*
D03*
X466417D02*
D03*
X456417D02*
D03*
X446417D02*
D03*
X436417D02*
D03*
X656417Y302112D02*
D03*
X646417D02*
D03*
X636417D02*
D03*
X626417D02*
D03*
X616417D02*
D03*
X606417D02*
D03*
X596417D02*
D03*
X586417D02*
D03*
X576417D02*
D03*
X566417D02*
D03*
X556417D02*
D03*
X546417D02*
D03*
X536417D02*
D03*
X526417D02*
D03*
X516417D02*
D03*
X506417D02*
D03*
X496417D02*
D03*
X486417D02*
D03*
X476417D02*
D03*
X466417D02*
D03*
X456417D02*
D03*
X446417D02*
D03*
X436417D02*
D03*
X426417D02*
D03*
X466417Y292112D02*
D03*
X476417D02*
D03*
X523937Y357505D02*
D03*
X513937D02*
D03*
X503937D02*
D03*
X493937D02*
D03*
X483937D02*
D03*
X473937D02*
D03*
X463937D02*
D03*
X453937D02*
D03*
X443937D02*
D03*
X433937D02*
D03*
X423937D02*
D03*
D63*
X671232Y10630D02*
D03*
Y89370D02*
D03*
X560012Y50000D02*
D03*
D64*
X519000Y86000D02*
D03*
X509000D02*
D03*
X519000Y96000D02*
D03*
X509000D02*
D03*
X519000Y106000D02*
D03*
X509000D02*
D03*
X519000Y116000D02*
D03*
X509000D02*
D03*
X519000Y126000D02*
D03*
D65*
X509000D02*
D03*
D66*
X706000Y83000D02*
D03*
Y80800D02*
D03*
Y78600D02*
D03*
Y76400D02*
D03*
Y74200D02*
D03*
Y72000D02*
D03*
Y69800D02*
D03*
Y67600D02*
D03*
Y65400D02*
D03*
Y63200D02*
D03*
Y61000D02*
D03*
Y58800D02*
D03*
Y56600D02*
D03*
Y54400D02*
D03*
Y52200D02*
D03*
Y50000D02*
D03*
Y47800D02*
D03*
Y45600D02*
D03*
Y43400D02*
D03*
Y41200D02*
D03*
Y39000D02*
D03*
Y36800D02*
D03*
Y34600D02*
D03*
Y32400D02*
D03*
Y30200D02*
D03*
Y28000D02*
D03*
Y25800D02*
D03*
Y23600D02*
D03*
Y21400D02*
D03*
Y19200D02*
D03*
Y17000D02*
D03*
X545000Y169984D02*
D03*
Y167784D02*
D03*
Y165584D02*
D03*
Y163384D02*
D03*
Y161184D02*
D03*
Y158984D02*
D03*
Y156784D02*
D03*
Y154584D02*
D03*
Y152384D02*
D03*
Y150184D02*
D03*
Y147984D02*
D03*
Y145784D02*
D03*
Y143584D02*
D03*
Y141384D02*
D03*
Y139184D02*
D03*
Y103984D02*
D03*
Y106184D02*
D03*
Y108384D02*
D03*
Y110584D02*
D03*
Y112784D02*
D03*
Y114984D02*
D03*
Y117184D02*
D03*
Y119384D02*
D03*
Y121584D02*
D03*
Y123784D02*
D03*
Y125984D02*
D03*
Y128184D02*
D03*
Y130384D02*
D03*
Y132584D02*
D03*
Y134784D02*
D03*
Y136984D02*
D03*
X689000Y116000D02*
D03*
X731000Y120000D02*
D03*
X743126Y125874D02*
D03*
X741157Y122843D02*
D03*
X392000Y163000D02*
D03*
X236689Y257311D02*
D03*
X239150Y270150D02*
D03*
X241606Y272000D02*
D03*
X246528Y274000D02*
D03*
X251445Y276000D02*
D03*
X253906Y278000D02*
D03*
X256366Y280000D02*
D03*
X258827Y282000D02*
D03*
X198779Y163221D02*
D03*
X200760Y165681D02*
D03*
X198779Y168142D02*
D03*
Y173059D02*
D03*
Y177976D02*
D03*
X200760Y180437D02*
D03*
X198779Y182898D02*
D03*
X200760Y185358D02*
D03*
X234359Y254062D02*
D03*
X284000Y205000D02*
D03*
X242000Y250000D02*
D03*
X287000Y205000D02*
D03*
X285000Y217000D02*
D03*
X287000Y221000D02*
D03*
X355000Y113000D02*
D03*
Y142000D02*
D03*
X373000Y75000D02*
D03*
X215240Y136161D02*
D03*
X217220Y138622D02*
D03*
X215240Y141079D02*
D03*
X217220Y143539D02*
D03*
X215240Y146000D02*
D03*
X217220Y148461D02*
D03*
X215240Y150921D02*
D03*
X217220Y153382D02*
D03*
X200760Y155842D02*
D03*
X198779Y158303D02*
D03*
X200760Y160760D02*
D03*
X565000Y200000D02*
D03*
X396000Y248000D02*
D03*
X393000Y249000D02*
D03*
X399000Y245000D02*
D03*
X667000Y106000D02*
D03*
X414000Y241000D02*
D03*
X575000Y310694D02*
D03*
X541000Y297000D02*
D03*
X552000Y191000D02*
D03*
X557000Y193000D02*
D03*
X561000Y194000D02*
D03*
X555600Y185000D02*
D03*
X454000Y129000D02*
D03*
X670441Y110441D02*
D03*
X551000Y288000D02*
D03*
X488000Y107000D02*
D03*
X491000Y125000D02*
D03*
X401667Y249667D02*
D03*
X443000Y89000D02*
D03*
X451000D02*
D03*
X365000Y119000D02*
D03*
Y90000D02*
D03*
X200772Y235150D02*
D03*
Y227772D02*
D03*
X237000Y252000D02*
D03*
X244000Y255000D02*
D03*
X248984Y254984D02*
D03*
X295000Y267000D02*
D03*
X344000D02*
D03*
X337000D02*
D03*
X330000D02*
D03*
X323000D02*
D03*
X316000D02*
D03*
X309000D02*
D03*
X302000D02*
D03*
D78*
X385520Y73929D02*
D03*
X397331D02*
D03*
X391425D02*
D03*
X403236D02*
D03*
X409142D02*
D03*
X415047D02*
D03*
X420953D02*
D03*
X426858D02*
D03*
X438669D02*
D03*
X432764D02*
D03*
D79*
X414213Y286206D02*
D03*
Y276757D02*
D03*
Y267308D02*
D03*
Y257860D02*
D03*
M02*
