G04*
G04 #@! TF.GenerationSoftware,Altium Limited,Altium Designer,18.0.12 (696)*
G04*
G04 Layer_Color=8421504*
%FSLAX25Y25*%
%MOIN*%
G70*
G01*
G75*
%ADD15R,0.05906X0.03937*%
%ADD16R,0.03937X0.03937*%
%ADD17R,0.02835X0.00984*%
%ADD18R,0.02244X0.00984*%
%ADD19R,0.03740X0.01575*%
G04:AMPARAMS|DCode=20|XSize=39.37mil|YSize=11.81mil|CornerRadius=2.95mil|HoleSize=0mil|Usage=FLASHONLY|Rotation=180.000|XOffset=0mil|YOffset=0mil|HoleType=Round|Shape=RoundedRectangle|*
%AMROUNDEDRECTD20*
21,1,0.03937,0.00591,0,0,180.0*
21,1,0.03347,0.01181,0,0,180.0*
1,1,0.00591,-0.01673,0.00295*
1,1,0.00591,0.01673,0.00295*
1,1,0.00591,0.01673,-0.00295*
1,1,0.00591,-0.01673,-0.00295*
%
%ADD20ROUNDEDRECTD20*%
G04:AMPARAMS|DCode=21|XSize=51.18mil|YSize=78.74mil|CornerRadius=12.8mil|HoleSize=0mil|Usage=FLASHONLY|Rotation=180.000|XOffset=0mil|YOffset=0mil|HoleType=Round|Shape=RoundedRectangle|*
%AMROUNDEDRECTD21*
21,1,0.05118,0.05315,0,0,180.0*
21,1,0.02559,0.07874,0,0,180.0*
1,1,0.02559,-0.01280,0.02657*
1,1,0.02559,0.01280,0.02657*
1,1,0.02559,0.01280,-0.02657*
1,1,0.02559,-0.01280,-0.02657*
%
%ADD21ROUNDEDRECTD21*%
%ADD22R,0.02756X0.03543*%
%ADD23R,0.01181X0.06299*%
%ADD24R,0.11024X0.08268*%
%ADD25R,0.07874X0.01575*%
%ADD26R,0.08268X0.11024*%
%ADD27R,0.01575X0.07874*%
G04:AMPARAMS|DCode=28|XSize=51.18mil|YSize=78.74mil|CornerRadius=12.8mil|HoleSize=0mil|Usage=FLASHONLY|Rotation=90.000|XOffset=0mil|YOffset=0mil|HoleType=Round|Shape=RoundedRectangle|*
%AMROUNDEDRECTD28*
21,1,0.05118,0.05315,0,0,90.0*
21,1,0.02559,0.07874,0,0,90.0*
1,1,0.02559,0.02657,0.01280*
1,1,0.02559,0.02657,-0.01280*
1,1,0.02559,-0.02657,-0.01280*
1,1,0.02559,-0.02657,0.01280*
%
%ADD28ROUNDEDRECTD28*%
G04:AMPARAMS|DCode=29|XSize=39.37mil|YSize=11.81mil|CornerRadius=2.95mil|HoleSize=0mil|Usage=FLASHONLY|Rotation=90.000|XOffset=0mil|YOffset=0mil|HoleType=Round|Shape=RoundedRectangle|*
%AMROUNDEDRECTD29*
21,1,0.03937,0.00591,0,0,90.0*
21,1,0.03347,0.01181,0,0,90.0*
1,1,0.00591,0.00295,0.01673*
1,1,0.00591,0.00295,-0.01673*
1,1,0.00591,-0.00295,-0.01673*
1,1,0.00591,-0.00295,0.01673*
%
%ADD29ROUNDEDRECTD29*%
%ADD30R,0.03937X0.03937*%
%ADD31R,0.04134X0.02362*%
%ADD32R,0.03543X0.02756*%
%ADD33R,0.10827X0.04724*%
%ADD34R,0.06102X0.01181*%
%ADD35R,0.02362X0.04134*%
%ADD36R,0.02953X0.02362*%
G36*
X571823Y26378D02*
D01*
D02*
G37*
G36*
X671232Y50000D02*
D01*
D02*
G37*
D15*
X678000Y115559D02*
D03*
Y105323D02*
D03*
Y110441D02*
D03*
X615529Y317882D02*
D03*
Y328118D02*
D03*
Y323000D02*
D03*
D16*
X601000Y324338D02*
D03*
Y330062D02*
D03*
D17*
X554531Y107457D02*
D03*
Y109425D02*
D03*
Y111394D02*
D03*
Y113362D02*
D03*
Y115331D02*
D03*
Y117299D02*
D03*
Y119268D02*
D03*
Y121236D02*
D03*
Y123205D02*
D03*
Y125173D02*
D03*
Y127142D02*
D03*
Y129110D02*
D03*
Y131079D02*
D03*
Y133047D02*
D03*
Y135016D02*
D03*
Y136984D02*
D03*
Y138953D02*
D03*
Y140921D02*
D03*
Y142890D02*
D03*
Y144858D02*
D03*
Y146827D02*
D03*
Y148795D02*
D03*
Y150764D02*
D03*
Y152732D02*
D03*
Y154701D02*
D03*
Y156669D02*
D03*
Y158638D02*
D03*
Y160606D02*
D03*
Y162575D02*
D03*
Y164543D02*
D03*
Y166512D02*
D03*
D18*
X564000Y108441D02*
D03*
Y110409D02*
D03*
Y112378D02*
D03*
Y114347D02*
D03*
Y116315D02*
D03*
Y118283D02*
D03*
Y120252D02*
D03*
Y122221D02*
D03*
Y124189D02*
D03*
Y126157D02*
D03*
Y128126D02*
D03*
Y130095D02*
D03*
Y132063D02*
D03*
Y134031D02*
D03*
Y136000D02*
D03*
Y137969D02*
D03*
Y139937D02*
D03*
Y141905D02*
D03*
Y143874D02*
D03*
Y145843D02*
D03*
Y147811D02*
D03*
Y149779D02*
D03*
Y151748D02*
D03*
Y153717D02*
D03*
Y155685D02*
D03*
Y157653D02*
D03*
Y159622D02*
D03*
Y161591D02*
D03*
Y163559D02*
D03*
Y165528D02*
D03*
D19*
X555575Y104819D02*
D03*
Y169150D02*
D03*
D20*
X739370Y29055D02*
D03*
Y31024D02*
D03*
Y32992D02*
D03*
Y34961D02*
D03*
X650000Y194409D02*
D03*
Y196378D02*
D03*
Y198346D02*
D03*
Y200315D02*
D03*
Y202284D02*
D03*
Y204252D02*
D03*
Y206221D02*
D03*
Y208189D02*
D03*
Y210157D02*
D03*
Y212126D02*
D03*
Y214094D02*
D03*
Y216063D02*
D03*
Y218032D02*
D03*
Y220000D02*
D03*
Y221969D02*
D03*
D21*
X750000Y20000D02*
D03*
Y44016D02*
D03*
X660630Y185354D02*
D03*
Y231024D02*
D03*
D22*
X511744Y347000D02*
D03*
X518256D02*
D03*
X496969D02*
D03*
X503480D02*
D03*
X481744D02*
D03*
X488256D02*
D03*
X466744D02*
D03*
X473256D02*
D03*
X451744D02*
D03*
X458256D02*
D03*
X422000Y347150D02*
D03*
X428512D02*
D03*
X365256Y97244D02*
D03*
X358744D02*
D03*
X365256Y113244D02*
D03*
X358744D02*
D03*
X365256Y142000D02*
D03*
X358744D02*
D03*
X365256Y126000D02*
D03*
X358744D02*
D03*
X255256Y168000D02*
D03*
X248744D02*
D03*
X255256Y161000D02*
D03*
X248744D02*
D03*
X255256Y154000D02*
D03*
X248744D02*
D03*
X255256Y147000D02*
D03*
X248744D02*
D03*
X255256Y139772D02*
D03*
X248744D02*
D03*
X255256Y133000D02*
D03*
X248744D02*
D03*
X255256Y126000D02*
D03*
X248744D02*
D03*
X255256Y119000D02*
D03*
X248744D02*
D03*
X518256Y322000D02*
D03*
X511744D02*
D03*
X503480D02*
D03*
X496969D02*
D03*
X488256D02*
D03*
X481744D02*
D03*
X473256D02*
D03*
X466744D02*
D03*
X458256D02*
D03*
X451744D02*
D03*
X443256D02*
D03*
X436744D02*
D03*
X428512Y322150D02*
D03*
X422000D02*
D03*
X443256Y347000D02*
D03*
X436744D02*
D03*
D23*
X703756Y97827D02*
D03*
Y112000D02*
D03*
X705724Y97827D02*
D03*
Y112000D02*
D03*
X707693Y97827D02*
D03*
Y112000D02*
D03*
X709661Y97827D02*
D03*
Y112000D02*
D03*
X711630Y97827D02*
D03*
Y112000D02*
D03*
X713598Y97827D02*
D03*
Y112000D02*
D03*
X715567Y97827D02*
D03*
Y112000D02*
D03*
X717535Y97827D02*
D03*
Y112000D02*
D03*
X719504Y97827D02*
D03*
Y112000D02*
D03*
X721472Y97827D02*
D03*
Y112000D02*
D03*
X723441Y97827D02*
D03*
Y112000D02*
D03*
X725410Y97827D02*
D03*
Y112000D02*
D03*
X727378Y97827D02*
D03*
Y112000D02*
D03*
X729347Y97827D02*
D03*
Y112000D02*
D03*
X731315Y97827D02*
D03*
Y112000D02*
D03*
X733284Y97827D02*
D03*
Y112000D02*
D03*
X735252Y97827D02*
D03*
Y112000D02*
D03*
X737220Y97827D02*
D03*
Y112000D02*
D03*
X739189Y97827D02*
D03*
Y112000D02*
D03*
X741157Y97827D02*
D03*
Y112000D02*
D03*
X743126Y97827D02*
D03*
Y112000D02*
D03*
X745094Y97827D02*
D03*
Y112000D02*
D03*
X747063Y97827D02*
D03*
Y112000D02*
D03*
X749031Y97827D02*
D03*
Y112000D02*
D03*
X751000Y97827D02*
D03*
Y112000D02*
D03*
D24*
X200063Y210252D02*
D03*
Y247748D02*
D03*
X200126Y121095D02*
D03*
Y197968D02*
D03*
D25*
X207937Y222850D02*
D03*
Y225311D02*
D03*
Y227772D02*
D03*
Y230228D02*
D03*
Y232689D02*
D03*
Y235150D02*
D03*
X208000Y153382D02*
D03*
Y155842D02*
D03*
Y158303D02*
D03*
Y160760D02*
D03*
Y163221D02*
D03*
Y165681D02*
D03*
Y173059D02*
D03*
Y170598D02*
D03*
Y168138D02*
D03*
Y180437D02*
D03*
Y177976D02*
D03*
Y175516D02*
D03*
Y182898D02*
D03*
Y185358D02*
D03*
Y150921D02*
D03*
Y143539D02*
D03*
Y146000D02*
D03*
Y148461D02*
D03*
Y136161D02*
D03*
Y138622D02*
D03*
Y141083D02*
D03*
Y133705D02*
D03*
D26*
X194563Y271937D02*
D03*
X271437D02*
D03*
D27*
X226850Y264063D02*
D03*
X229311D02*
D03*
X231772D02*
D03*
X234228D02*
D03*
X236689D02*
D03*
X239150D02*
D03*
X246528D02*
D03*
X244067D02*
D03*
X241606D02*
D03*
X253906D02*
D03*
X251445D02*
D03*
X248984D02*
D03*
X256366D02*
D03*
X258827D02*
D03*
X224390D02*
D03*
X217008D02*
D03*
X219468D02*
D03*
X221929D02*
D03*
X209630D02*
D03*
X212090D02*
D03*
X214551D02*
D03*
X207173D02*
D03*
D28*
X326803Y148370D02*
D03*
X281134D02*
D03*
D29*
X317748Y159000D02*
D03*
X315779D02*
D03*
X313811D02*
D03*
X311842D02*
D03*
X309874D02*
D03*
X307906D02*
D03*
X305937D02*
D03*
X303969D02*
D03*
X302000D02*
D03*
X300031D02*
D03*
X298063D02*
D03*
X296094D02*
D03*
X294126D02*
D03*
X292158D02*
D03*
X290189D02*
D03*
D30*
X359138Y105244D02*
D03*
X364862D02*
D03*
X359138Y134000D02*
D03*
X364862D02*
D03*
D31*
X473216Y99228D02*
D03*
Y106709D02*
D03*
X462783Y102969D02*
D03*
X473216Y117260D02*
D03*
Y124740D02*
D03*
X462783Y121000D02*
D03*
D32*
X454000Y106224D02*
D03*
Y99713D02*
D03*
Y124256D02*
D03*
Y117744D02*
D03*
X482000Y99713D02*
D03*
Y106224D02*
D03*
Y117744D02*
D03*
Y124256D02*
D03*
X344000Y277256D02*
D03*
Y270744D02*
D03*
X337000Y277256D02*
D03*
Y270744D02*
D03*
X330000Y277256D02*
D03*
Y270744D02*
D03*
X323000Y277256D02*
D03*
Y270744D02*
D03*
X316000Y277256D02*
D03*
Y270744D02*
D03*
X309000Y277256D02*
D03*
Y270744D02*
D03*
X302000Y277256D02*
D03*
Y270744D02*
D03*
X295000Y277256D02*
D03*
Y270744D02*
D03*
D33*
X688949Y90748D02*
D03*
Y9252D02*
D03*
D34*
X692000Y13583D02*
D03*
X662276Y14567D02*
D03*
X692000Y15551D02*
D03*
X662276Y16535D02*
D03*
X692000Y17520D02*
D03*
X662276Y18504D02*
D03*
X692000Y19488D02*
D03*
X662276Y20472D02*
D03*
X692000Y21457D02*
D03*
X662276Y22441D02*
D03*
X692000Y23425D02*
D03*
X662276Y24409D02*
D03*
X692000Y25394D02*
D03*
X662276Y26378D02*
D03*
X692000Y27362D02*
D03*
X662276Y28346D02*
D03*
X692000Y29331D02*
D03*
X662276Y30315D02*
D03*
X692000Y31299D02*
D03*
X662276Y32283D02*
D03*
X692000Y33268D02*
D03*
X662276Y34252D02*
D03*
X692000Y35236D02*
D03*
X662276Y36220D02*
D03*
X692000Y37205D02*
D03*
X662276Y38189D02*
D03*
X692000Y39173D02*
D03*
X662276Y40157D02*
D03*
X692000Y41142D02*
D03*
X662276Y42126D02*
D03*
X692000Y43110D02*
D03*
X662276Y44094D02*
D03*
X692000Y45079D02*
D03*
X662276Y46063D02*
D03*
X692000Y47047D02*
D03*
X662276Y48031D02*
D03*
X692000Y49016D02*
D03*
X662276Y50000D02*
D03*
X692000Y50984D02*
D03*
X662276Y51968D02*
D03*
X692000Y52953D02*
D03*
X662276Y53937D02*
D03*
X692000Y54921D02*
D03*
X662276Y55905D02*
D03*
X692000Y64764D02*
D03*
X662276Y65748D02*
D03*
X692000Y66732D02*
D03*
X662276Y67716D02*
D03*
X692000Y68701D02*
D03*
X662276Y69685D02*
D03*
X692000Y70669D02*
D03*
X662276Y71653D02*
D03*
X692000Y72638D02*
D03*
X662276Y73622D02*
D03*
X692000Y74606D02*
D03*
X662276Y75590D02*
D03*
X692000Y76575D02*
D03*
X662276Y77559D02*
D03*
X692000Y78543D02*
D03*
X662276Y79528D02*
D03*
X692000Y80512D02*
D03*
X662276Y81496D02*
D03*
X692000Y82480D02*
D03*
X662276Y83465D02*
D03*
X692000Y84449D02*
D03*
X662276Y85433D02*
D03*
X692000Y86417D02*
D03*
D35*
X511260Y329784D02*
D03*
X518740D02*
D03*
X515000Y340216D02*
D03*
X496260Y329784D02*
D03*
X503740D02*
D03*
X500000Y340216D02*
D03*
X481260Y329784D02*
D03*
X488740D02*
D03*
X485000Y340216D02*
D03*
X466260Y329784D02*
D03*
X473740D02*
D03*
X470000Y340216D02*
D03*
X451260Y329784D02*
D03*
X458740D02*
D03*
X455000Y340216D02*
D03*
X436260Y329784D02*
D03*
X443740D02*
D03*
X440000Y340216D02*
D03*
X421260Y329784D02*
D03*
X428740D02*
D03*
X425000Y340216D02*
D03*
D36*
X589020Y325000D02*
D03*
X578980Y321260D02*
D03*
Y328740D02*
D03*
M02*
