G04*
G04 #@! TF.GenerationSoftware,Altium Limited,Altium Designer,18.0.12 (696)*
G04*
G04 Layer_Color=8388736*
%FSLAX25Y25*%
%MOIN*%
G70*
G01*
G75*
%ADD37R,0.06706X0.04737*%
%ADD38R,0.04737X0.04737*%
%ADD39R,0.03635X0.01784*%
%ADD40R,0.03044X0.01784*%
%ADD41R,0.04540X0.02375*%
G04:AMPARAMS|DCode=42|XSize=47.37mil|YSize=19.81mil|CornerRadius=6.95mil|HoleSize=0mil|Usage=FLASHONLY|Rotation=180.000|XOffset=0mil|YOffset=0mil|HoleType=Round|Shape=RoundedRectangle|*
%AMROUNDEDRECTD42*
21,1,0.04737,0.00591,0,0,180.0*
21,1,0.03347,0.01981,0,0,180.0*
1,1,0.01391,-0.01673,0.00295*
1,1,0.01391,0.01673,0.00295*
1,1,0.01391,0.01673,-0.00295*
1,1,0.01391,-0.01673,-0.00295*
%
%ADD42ROUNDEDRECTD42*%
G04:AMPARAMS|DCode=43|XSize=59.18mil|YSize=86.74mil|CornerRadius=16.8mil|HoleSize=0mil|Usage=FLASHONLY|Rotation=180.000|XOffset=0mil|YOffset=0mil|HoleType=Round|Shape=RoundedRectangle|*
%AMROUNDEDRECTD43*
21,1,0.05918,0.05315,0,0,180.0*
21,1,0.02559,0.08674,0,0,180.0*
1,1,0.03359,-0.01280,0.02657*
1,1,0.03359,0.01280,0.02657*
1,1,0.03359,0.01280,-0.02657*
1,1,0.03359,-0.01280,-0.02657*
%
%ADD43ROUNDEDRECTD43*%
%ADD44R,0.03556X0.04343*%
%ADD45R,0.01981X0.07099*%
%ADD46R,0.11824X0.09068*%
%ADD47R,0.08674X0.02375*%
%ADD48R,0.09068X0.11824*%
%ADD49R,0.02375X0.08674*%
G04:AMPARAMS|DCode=50|XSize=59.18mil|YSize=86.74mil|CornerRadius=16.8mil|HoleSize=0mil|Usage=FLASHONLY|Rotation=90.000|XOffset=0mil|YOffset=0mil|HoleType=Round|Shape=RoundedRectangle|*
%AMROUNDEDRECTD50*
21,1,0.05918,0.05315,0,0,90.0*
21,1,0.02559,0.08674,0,0,90.0*
1,1,0.03359,0.02657,0.01280*
1,1,0.03359,0.02657,-0.01280*
1,1,0.03359,-0.02657,-0.01280*
1,1,0.03359,-0.02657,0.01280*
%
%ADD50ROUNDEDRECTD50*%
G04:AMPARAMS|DCode=51|XSize=47.37mil|YSize=19.81mil|CornerRadius=6.95mil|HoleSize=0mil|Usage=FLASHONLY|Rotation=90.000|XOffset=0mil|YOffset=0mil|HoleType=Round|Shape=RoundedRectangle|*
%AMROUNDEDRECTD51*
21,1,0.04737,0.00591,0,0,90.0*
21,1,0.03347,0.01981,0,0,90.0*
1,1,0.01391,0.00295,0.01673*
1,1,0.01391,0.00295,-0.01673*
1,1,0.01391,-0.00295,-0.01673*
1,1,0.01391,-0.00295,0.01673*
%
%ADD51ROUNDEDRECTD51*%
%ADD52R,0.04737X0.04737*%
%ADD53R,0.04934X0.03162*%
%ADD54R,0.04343X0.03556*%
%ADD55R,0.11627X0.05524*%
%ADD56R,0.06902X0.01981*%
%ADD57C,0.21666*%
%ADD58R,0.03162X0.04934*%
%ADD59R,0.03753X0.03162*%
%ADD60O,0.12611X0.07493*%
%ADD61R,0.07493X0.07493*%
%ADD62C,0.07493*%
%ADD63C,0.00800*%
%ADD64C,0.06706*%
%ADD65R,0.06706X0.06706*%
%ADD66C,0.02400*%
D37*
X678000Y115559D02*
D03*
Y105323D02*
D03*
Y110441D02*
D03*
X615529Y317882D02*
D03*
Y328118D02*
D03*
Y323000D02*
D03*
D38*
X601000Y324338D02*
D03*
Y330062D02*
D03*
D39*
X554531Y107457D02*
D03*
Y109425D02*
D03*
Y111394D02*
D03*
Y113362D02*
D03*
Y115331D02*
D03*
Y117299D02*
D03*
Y119268D02*
D03*
Y121236D02*
D03*
Y123205D02*
D03*
Y125173D02*
D03*
Y127142D02*
D03*
Y129110D02*
D03*
Y131079D02*
D03*
Y133047D02*
D03*
Y135016D02*
D03*
Y136984D02*
D03*
Y138953D02*
D03*
Y140921D02*
D03*
Y142890D02*
D03*
Y144858D02*
D03*
Y146827D02*
D03*
Y148795D02*
D03*
Y150764D02*
D03*
Y152732D02*
D03*
Y154701D02*
D03*
Y156669D02*
D03*
Y158638D02*
D03*
Y160606D02*
D03*
Y162575D02*
D03*
Y164543D02*
D03*
Y166512D02*
D03*
D40*
X564000Y108441D02*
D03*
Y110409D02*
D03*
Y112378D02*
D03*
Y114347D02*
D03*
Y116315D02*
D03*
Y118283D02*
D03*
Y120252D02*
D03*
Y122221D02*
D03*
Y124189D02*
D03*
Y126157D02*
D03*
Y128126D02*
D03*
Y130095D02*
D03*
Y132063D02*
D03*
Y134031D02*
D03*
Y136000D02*
D03*
Y137969D02*
D03*
Y139937D02*
D03*
Y141905D02*
D03*
Y143874D02*
D03*
Y145843D02*
D03*
Y147811D02*
D03*
Y149779D02*
D03*
Y151748D02*
D03*
Y153717D02*
D03*
Y155685D02*
D03*
Y157653D02*
D03*
Y159622D02*
D03*
Y161591D02*
D03*
Y163559D02*
D03*
Y165528D02*
D03*
D41*
X555575Y104819D02*
D03*
Y169150D02*
D03*
D42*
X739370Y29055D02*
D03*
Y31024D02*
D03*
Y32992D02*
D03*
Y34961D02*
D03*
X650000Y194409D02*
D03*
Y196378D02*
D03*
Y198346D02*
D03*
Y200315D02*
D03*
Y202284D02*
D03*
Y204252D02*
D03*
Y206221D02*
D03*
Y208189D02*
D03*
Y210157D02*
D03*
Y212126D02*
D03*
Y214094D02*
D03*
Y216063D02*
D03*
Y218032D02*
D03*
Y220000D02*
D03*
Y221969D02*
D03*
D43*
X750000Y20000D02*
D03*
Y44016D02*
D03*
X660630Y185354D02*
D03*
Y231024D02*
D03*
D44*
X511744Y347000D02*
D03*
X518256D02*
D03*
X496969D02*
D03*
X503480D02*
D03*
X481744D02*
D03*
X488256D02*
D03*
X466744D02*
D03*
X473256D02*
D03*
X451744D02*
D03*
X458256D02*
D03*
X422000Y347150D02*
D03*
X428512D02*
D03*
X365256Y97244D02*
D03*
X358744D02*
D03*
X365256Y113244D02*
D03*
X358744D02*
D03*
X365256Y142000D02*
D03*
X358744D02*
D03*
X365256Y126000D02*
D03*
X358744D02*
D03*
X255256Y168000D02*
D03*
X248744D02*
D03*
X255256Y161000D02*
D03*
X248744D02*
D03*
X255256Y154000D02*
D03*
X248744D02*
D03*
X255256Y147000D02*
D03*
X248744D02*
D03*
X255256Y139772D02*
D03*
X248744D02*
D03*
X255256Y133000D02*
D03*
X248744D02*
D03*
X255256Y126000D02*
D03*
X248744D02*
D03*
X255256Y119000D02*
D03*
X248744D02*
D03*
X518256Y322000D02*
D03*
X511744D02*
D03*
X503480D02*
D03*
X496969D02*
D03*
X488256D02*
D03*
X481744D02*
D03*
X473256D02*
D03*
X466744D02*
D03*
X458256D02*
D03*
X451744D02*
D03*
X443256D02*
D03*
X436744D02*
D03*
X428512Y322150D02*
D03*
X422000D02*
D03*
X443256Y347000D02*
D03*
X436744D02*
D03*
D45*
X703756Y97827D02*
D03*
Y112000D02*
D03*
X705724Y97827D02*
D03*
Y112000D02*
D03*
X707693Y97827D02*
D03*
Y112000D02*
D03*
X709661Y97827D02*
D03*
Y112000D02*
D03*
X711630Y97827D02*
D03*
Y112000D02*
D03*
X713598Y97827D02*
D03*
Y112000D02*
D03*
X715567Y97827D02*
D03*
Y112000D02*
D03*
X717535Y97827D02*
D03*
Y112000D02*
D03*
X719504Y97827D02*
D03*
Y112000D02*
D03*
X721472Y97827D02*
D03*
Y112000D02*
D03*
X723441Y97827D02*
D03*
Y112000D02*
D03*
X725410Y97827D02*
D03*
Y112000D02*
D03*
X727378Y97827D02*
D03*
Y112000D02*
D03*
X729347Y97827D02*
D03*
Y112000D02*
D03*
X731315Y97827D02*
D03*
Y112000D02*
D03*
X733284Y97827D02*
D03*
Y112000D02*
D03*
X735252Y97827D02*
D03*
Y112000D02*
D03*
X737220Y97827D02*
D03*
Y112000D02*
D03*
X739189Y97827D02*
D03*
Y112000D02*
D03*
X741157Y97827D02*
D03*
Y112000D02*
D03*
X743126Y97827D02*
D03*
Y112000D02*
D03*
X745094Y97827D02*
D03*
Y112000D02*
D03*
X747063Y97827D02*
D03*
Y112000D02*
D03*
X749031Y97827D02*
D03*
Y112000D02*
D03*
X751000Y97827D02*
D03*
Y112000D02*
D03*
D46*
X200063Y210252D02*
D03*
Y247748D02*
D03*
X200126Y121095D02*
D03*
Y197968D02*
D03*
D47*
X207937Y222850D02*
D03*
Y225311D02*
D03*
Y227772D02*
D03*
Y230228D02*
D03*
Y232689D02*
D03*
Y235150D02*
D03*
X208000Y153382D02*
D03*
Y155842D02*
D03*
Y158303D02*
D03*
Y160760D02*
D03*
Y163221D02*
D03*
Y165681D02*
D03*
Y173059D02*
D03*
Y170598D02*
D03*
Y168138D02*
D03*
Y180437D02*
D03*
Y177976D02*
D03*
Y175516D02*
D03*
Y182898D02*
D03*
Y185358D02*
D03*
Y150921D02*
D03*
Y143539D02*
D03*
Y146000D02*
D03*
Y148461D02*
D03*
Y136161D02*
D03*
Y138622D02*
D03*
Y141083D02*
D03*
Y133705D02*
D03*
D48*
X194563Y271937D02*
D03*
X271437D02*
D03*
D49*
X226850Y264063D02*
D03*
X229311D02*
D03*
X231772D02*
D03*
X234228D02*
D03*
X236689D02*
D03*
X239150D02*
D03*
X246528D02*
D03*
X244067D02*
D03*
X241606D02*
D03*
X253906D02*
D03*
X251445D02*
D03*
X248984D02*
D03*
X256366D02*
D03*
X258827D02*
D03*
X224390D02*
D03*
X217008D02*
D03*
X219468D02*
D03*
X221929D02*
D03*
X209630D02*
D03*
X212090D02*
D03*
X214551D02*
D03*
X207173D02*
D03*
D50*
X326803Y148370D02*
D03*
X281134D02*
D03*
D51*
X317748Y159000D02*
D03*
X315779D02*
D03*
X313811D02*
D03*
X311842D02*
D03*
X309874D02*
D03*
X307906D02*
D03*
X305937D02*
D03*
X303969D02*
D03*
X302000D02*
D03*
X300031D02*
D03*
X298063D02*
D03*
X296094D02*
D03*
X294126D02*
D03*
X292158D02*
D03*
X290189D02*
D03*
D52*
X359138Y105244D02*
D03*
X364862D02*
D03*
X359138Y134000D02*
D03*
X364862D02*
D03*
D53*
X473216Y99228D02*
D03*
Y106709D02*
D03*
X462783Y102969D02*
D03*
X473216Y117260D02*
D03*
Y124740D02*
D03*
X462783Y121000D02*
D03*
D54*
X454000Y106224D02*
D03*
Y99713D02*
D03*
Y124256D02*
D03*
Y117744D02*
D03*
X482000Y99713D02*
D03*
Y106224D02*
D03*
Y117744D02*
D03*
Y124256D02*
D03*
X344000Y277256D02*
D03*
Y270744D02*
D03*
X337000Y277256D02*
D03*
Y270744D02*
D03*
X330000Y277256D02*
D03*
Y270744D02*
D03*
X323000Y277256D02*
D03*
Y270744D02*
D03*
X316000Y277256D02*
D03*
Y270744D02*
D03*
X309000Y277256D02*
D03*
Y270744D02*
D03*
X302000Y277256D02*
D03*
Y270744D02*
D03*
X295000Y277256D02*
D03*
Y270744D02*
D03*
D55*
X688949Y90748D02*
D03*
Y9252D02*
D03*
D56*
X692000Y13583D02*
D03*
X662276Y14567D02*
D03*
X692000Y15551D02*
D03*
X662276Y16535D02*
D03*
X692000Y17520D02*
D03*
X662276Y18504D02*
D03*
X692000Y19488D02*
D03*
X662276Y20472D02*
D03*
X692000Y21457D02*
D03*
X662276Y22441D02*
D03*
X692000Y23425D02*
D03*
X662276Y24409D02*
D03*
X692000Y25394D02*
D03*
X662276Y26378D02*
D03*
X692000Y27362D02*
D03*
X662276Y28346D02*
D03*
X692000Y29331D02*
D03*
X662276Y30315D02*
D03*
X692000Y31299D02*
D03*
X662276Y32283D02*
D03*
X692000Y33268D02*
D03*
X662276Y34252D02*
D03*
X692000Y35236D02*
D03*
X662276Y36220D02*
D03*
X692000Y37205D02*
D03*
X662276Y38189D02*
D03*
X692000Y39173D02*
D03*
X662276Y40157D02*
D03*
X692000Y41142D02*
D03*
X662276Y42126D02*
D03*
X692000Y43110D02*
D03*
X662276Y44094D02*
D03*
X692000Y45079D02*
D03*
X662276Y46063D02*
D03*
X692000Y47047D02*
D03*
X662276Y48031D02*
D03*
X692000Y49016D02*
D03*
X662276Y50000D02*
D03*
X692000Y50984D02*
D03*
X662276Y51968D02*
D03*
X692000Y52953D02*
D03*
X662276Y53937D02*
D03*
X692000Y54921D02*
D03*
X662276Y55905D02*
D03*
X692000Y64764D02*
D03*
X662276Y65748D02*
D03*
X692000Y66732D02*
D03*
X662276Y67716D02*
D03*
X692000Y68701D02*
D03*
X662276Y69685D02*
D03*
X692000Y70669D02*
D03*
X662276Y71653D02*
D03*
X692000Y72638D02*
D03*
X662276Y73622D02*
D03*
X692000Y74606D02*
D03*
X662276Y75590D02*
D03*
X692000Y76575D02*
D03*
X662276Y77559D02*
D03*
X692000Y78543D02*
D03*
X662276Y79528D02*
D03*
X692000Y80512D02*
D03*
X662276Y81496D02*
D03*
X692000Y82480D02*
D03*
X662276Y83465D02*
D03*
X692000Y84449D02*
D03*
X662276Y85433D02*
D03*
X692000Y86417D02*
D03*
D57*
X560012Y50000D02*
D03*
D58*
X511260Y329784D02*
D03*
X518740D02*
D03*
X515000Y340216D02*
D03*
X496260Y329784D02*
D03*
X503740D02*
D03*
X500000Y340216D02*
D03*
X481260Y329784D02*
D03*
X488740D02*
D03*
X485000Y340216D02*
D03*
X466260Y329784D02*
D03*
X473740D02*
D03*
X470000Y340216D02*
D03*
X451260Y329784D02*
D03*
X458740D02*
D03*
X455000Y340216D02*
D03*
X436260Y329784D02*
D03*
X443740D02*
D03*
X440000Y340216D02*
D03*
X421260Y329784D02*
D03*
X428740D02*
D03*
X425000Y340216D02*
D03*
D59*
X589020Y325000D02*
D03*
X578980Y321260D02*
D03*
Y328740D02*
D03*
D60*
X415638Y143000D02*
D03*
Y123000D02*
D03*
Y133000D02*
D03*
Y113000D02*
D03*
D61*
X426417Y242112D02*
D03*
X413937Y357505D02*
D03*
D62*
X656417Y242112D02*
D03*
X646417D02*
D03*
X636417D02*
D03*
X626417D02*
D03*
X616417D02*
D03*
X606417D02*
D03*
X596417D02*
D03*
X586417D02*
D03*
X576417D02*
D03*
X566417D02*
D03*
X556417D02*
D03*
X546417D02*
D03*
X536417D02*
D03*
X526417D02*
D03*
X516417D02*
D03*
X506417D02*
D03*
X496417D02*
D03*
X486417D02*
D03*
X476417D02*
D03*
X466417D02*
D03*
X456417D02*
D03*
X446417D02*
D03*
X436417D02*
D03*
X656417Y302112D02*
D03*
X646417D02*
D03*
X636417D02*
D03*
X626417D02*
D03*
X616417D02*
D03*
X606417D02*
D03*
X596417D02*
D03*
X586417D02*
D03*
X576417D02*
D03*
X566417D02*
D03*
X556417D02*
D03*
X546417D02*
D03*
X536417D02*
D03*
X526417D02*
D03*
X516417D02*
D03*
X506417D02*
D03*
X496417D02*
D03*
X486417D02*
D03*
X476417D02*
D03*
X466417D02*
D03*
X456417D02*
D03*
X446417D02*
D03*
X436417D02*
D03*
X426417D02*
D03*
X466417Y292112D02*
D03*
X476417D02*
D03*
X523937Y357505D02*
D03*
X513937D02*
D03*
X503937D02*
D03*
X493937D02*
D03*
X483937D02*
D03*
X473937D02*
D03*
X463937D02*
D03*
X453937D02*
D03*
X443937D02*
D03*
X433937D02*
D03*
X423937D02*
D03*
D63*
X671232Y10630D02*
D03*
Y89370D02*
D03*
X560012Y50000D02*
D03*
D64*
X519000Y86000D02*
D03*
X509000D02*
D03*
X519000Y96000D02*
D03*
X509000D02*
D03*
X519000Y106000D02*
D03*
X509000D02*
D03*
X519000Y116000D02*
D03*
X509000D02*
D03*
X519000Y126000D02*
D03*
D65*
X509000D02*
D03*
D66*
X706000Y83000D02*
D03*
Y80800D02*
D03*
Y78600D02*
D03*
Y76400D02*
D03*
Y74200D02*
D03*
Y72000D02*
D03*
Y69800D02*
D03*
Y67600D02*
D03*
Y65400D02*
D03*
Y63200D02*
D03*
Y61000D02*
D03*
Y58800D02*
D03*
Y56600D02*
D03*
Y54400D02*
D03*
Y52200D02*
D03*
Y50000D02*
D03*
Y47800D02*
D03*
Y45600D02*
D03*
Y43400D02*
D03*
Y41200D02*
D03*
Y39000D02*
D03*
Y36800D02*
D03*
Y34600D02*
D03*
Y32400D02*
D03*
Y30200D02*
D03*
Y28000D02*
D03*
Y25800D02*
D03*
Y23600D02*
D03*
Y21400D02*
D03*
Y19200D02*
D03*
Y17000D02*
D03*
X545000Y169984D02*
D03*
Y167784D02*
D03*
Y165584D02*
D03*
Y163384D02*
D03*
Y161184D02*
D03*
Y158984D02*
D03*
Y156784D02*
D03*
Y154584D02*
D03*
Y152384D02*
D03*
Y150184D02*
D03*
Y147984D02*
D03*
Y145784D02*
D03*
Y143584D02*
D03*
Y141384D02*
D03*
Y139184D02*
D03*
Y103984D02*
D03*
Y106184D02*
D03*
Y108384D02*
D03*
Y110584D02*
D03*
Y112784D02*
D03*
Y114984D02*
D03*
Y117184D02*
D03*
Y119384D02*
D03*
Y121584D02*
D03*
Y123784D02*
D03*
Y125984D02*
D03*
Y128184D02*
D03*
Y130384D02*
D03*
Y132584D02*
D03*
Y134784D02*
D03*
Y136984D02*
D03*
X689000Y116000D02*
D03*
X731000Y120000D02*
D03*
X743126Y125874D02*
D03*
X741157Y122843D02*
D03*
X392000Y163000D02*
D03*
X236689Y257311D02*
D03*
X239150Y270150D02*
D03*
X241606Y272000D02*
D03*
X246528Y274000D02*
D03*
X251445Y276000D02*
D03*
X253906Y278000D02*
D03*
X256366Y280000D02*
D03*
X258827Y282000D02*
D03*
X198779Y163221D02*
D03*
X200760Y165681D02*
D03*
X198779Y168142D02*
D03*
Y173059D02*
D03*
Y177976D02*
D03*
X200760Y180437D02*
D03*
X198779Y182898D02*
D03*
X200760Y185358D02*
D03*
X234359Y254062D02*
D03*
X284000Y205000D02*
D03*
X242000Y250000D02*
D03*
X287000Y205000D02*
D03*
X285000Y217000D02*
D03*
X287000Y221000D02*
D03*
X355000Y113000D02*
D03*
Y142000D02*
D03*
X373000Y75000D02*
D03*
X215240Y136161D02*
D03*
X217220Y138622D02*
D03*
X215240Y141079D02*
D03*
X217220Y143539D02*
D03*
X215240Y146000D02*
D03*
X217220Y148461D02*
D03*
X215240Y150921D02*
D03*
X217220Y153382D02*
D03*
X200760Y155842D02*
D03*
X198779Y158303D02*
D03*
X200760Y160760D02*
D03*
X565000Y200000D02*
D03*
X396000Y248000D02*
D03*
X393000Y249000D02*
D03*
X399000Y245000D02*
D03*
X667000Y106000D02*
D03*
X414000Y241000D02*
D03*
X575000Y310694D02*
D03*
X541000Y297000D02*
D03*
X552000Y191000D02*
D03*
X557000Y193000D02*
D03*
X561000Y194000D02*
D03*
X555600Y185000D02*
D03*
X454000Y129000D02*
D03*
X670441Y110441D02*
D03*
X551000Y288000D02*
D03*
X488000Y107000D02*
D03*
X491000Y125000D02*
D03*
X401667Y249667D02*
D03*
X443000Y89000D02*
D03*
X451000D02*
D03*
X365000Y119000D02*
D03*
Y90000D02*
D03*
X200772Y235150D02*
D03*
Y227772D02*
D03*
X237000Y252000D02*
D03*
X244000Y255000D02*
D03*
X248984Y254984D02*
D03*
X295000Y267000D02*
D03*
X344000D02*
D03*
X337000D02*
D03*
X330000D02*
D03*
X323000D02*
D03*
X316000D02*
D03*
X309000D02*
D03*
X302000D02*
D03*
M02*
