M48
;Layer_Color=9474304
;FILE_FORMAT=2:5
INCH,LZ
;TYPE=PLATED
T1F00S00C0.01000
T2F00S00C0.03543
T3F00S00C0.04134
;TYPE=NON_PLATED
T4F00S00C0.03937
T5F00S00C0.04331
T6F00S00C0.06299
T7F00S00C0.11811
%
T01
X021524Y0136161
X021722Y0138622
X021524Y0141079
X021722Y0143539
X021524Y0146
X021722Y0148461
X021524Y0150921
X021722Y0153382
X020076Y0155842
X0355Y0142
Y0113
X0365Y0119
Y009
X0373Y0075
X0443Y0089
X0451
X0454Y0129
X0491Y0125
X0488Y0107
X0545Y0106184
Y0103984
Y0108384
Y0110584
Y0112784
Y0114984
Y0117184
Y0119384
Y0121584
Y0123784
Y0125984
Y0128184
Y0130384
Y0132584
Y0134784
Y0136984
Y0139184
Y0141384
Y0143584
Y0145784
Y0147984
Y0150184
Y0152384
Y0154584
X0670441Y0110441
X0667Y0106
X0689Y0116
X0731Y012
X0741157Y0122843
X0743126Y0125874
X0706Y0083
Y00808
Y00786
Y00764
Y00742
Y0072
Y00698
Y00676
Y00654
Y00632
Y0061
Y00588
Y00566
Y00544
Y00522
Y005
Y00478
Y00456
Y00434
Y00412
Y0039
Y00368
Y00346
Y00324
Y00302
Y0028
Y00258
Y00236
Y00214
Y00192
Y0017
X0545Y0156784
Y0158984
Y0161184
Y0163384
Y0165584
Y0167784
Y0169984
X05556Y0185
X0557Y0193
X0561Y0194
X0565Y02
X0552Y0191
X0551Y0288
X0541Y0297
X0575Y0310694
X0414Y0241
X0399Y0245
X0396Y0248
X0393Y0249
X0401667Y0249667
X0344Y0267
X0337
X033
X0323
X0316
X0392Y0163
X0287Y0205
X0284
X0285Y0217
X0287Y0221
X0295Y0267
X0302
X0309
X0258827Y0282
X0256366Y028
X0253906Y0278
X0251445Y0276
X0246528Y0274
X0241606Y0272
X023915Y027015
X0236689Y0257311
X0234359Y0254062
X0237Y0252
X0242Y025
X0244Y0255
X0248984Y0254984
X0200772Y023515
Y0227772
X020076Y0185358
X0198779Y0182898
X020076Y0180437
X0198779Y0177976
Y0173059
Y0168142
X020076Y0165681
X0198779Y0163221
X020076Y016076
X0198779Y0158303
T02
X0509Y0086
X0519
Y0096
X0509
Y0106
X0519
Y0116
X0509
Y0126
X0519
T03
X0626417Y0242112
X0636417
X0646417
X0656417
Y0302112
X0646417
X0636417
X0626417
X0616417
X0606417
X0596417
X0586417
X0576417
X0566417
X0556417
X0546417
X0536417
X0526417
X0516417
X0506417
X0496417
X0486417
X0476417
Y0292112
Y0242112
X0486417
X0496417
X0506417
X0516417
X0526417
X0536417
X0546417
X0556417
X0566417
X0576417
X0586417
X0596417
X0606417
X0616417
X0466417
X0456417
X0446417
X0436417
X0426417
Y0302112
X0436417
X0446417
X0456417
X0466417
Y0292112
X0463937Y0357505
X0453937
X0443937
X0433937
X0423937
X0413937
X0473937
X0483937
X0493937
X0503937
X0513937
X0523937
T04
X0418Y0113
Y0123
Y0133
Y0143
T05
X0671232Y008937
T06
X0671232Y001063
T07
X0560012Y005
M30
