G04*
G04 #@! TF.GenerationSoftware,Altium Limited,Altium Designer,18.0.12 (696)*
G04*
G04 Layer_Color=8388736*
%FSLAX25Y25*%
%MOIN*%
G70*
G01*
G75*
G04:AMPARAMS|DCode=13|XSize=141.86mil|YSize=78.87mil|CornerRadius=21.72mil|HoleSize=0mil|Usage=FLASHONLY|Rotation=0.000|XOffset=0mil|YOffset=0mil|HoleType=Round|Shape=RoundedRectangle|*
%AMROUNDEDRECTD13*
21,1,0.14186,0.03543,0,0,0.0*
21,1,0.09843,0.07887,0,0,0.0*
1,1,0.04343,0.04921,-0.01772*
1,1,0.04343,-0.04921,-0.01772*
1,1,0.04343,-0.04921,0.01772*
1,1,0.04343,0.04921,0.01772*
%
%ADD13ROUNDEDRECTD13*%
%ADD14R,0.06706X0.06706*%
%ADD15C,0.06706*%
%ADD16C,0.03200*%
D13*
X158500Y291500D02*
D03*
Y309500D02*
D03*
Y273500D02*
D03*
D14*
X180000Y280000D02*
D03*
Y210000D02*
D03*
D15*
Y290000D02*
D03*
X190000Y280000D02*
D03*
Y290000D02*
D03*
X200000Y280000D02*
D03*
Y290000D02*
D03*
X210000Y280000D02*
D03*
Y290000D02*
D03*
X220000Y280000D02*
D03*
Y290000D02*
D03*
X230000Y280000D02*
D03*
Y290000D02*
D03*
X240000Y280000D02*
D03*
Y290000D02*
D03*
X250000Y280000D02*
D03*
Y290000D02*
D03*
X260000Y280000D02*
D03*
Y290000D02*
D03*
X270000Y280000D02*
D03*
Y290000D02*
D03*
X280000Y280000D02*
D03*
Y290000D02*
D03*
X290000Y280000D02*
D03*
Y290000D02*
D03*
X300000Y280000D02*
D03*
Y290000D02*
D03*
X180000Y220000D02*
D03*
X190000Y210000D02*
D03*
Y220000D02*
D03*
X200000Y210000D02*
D03*
Y220000D02*
D03*
X210000Y210000D02*
D03*
Y220000D02*
D03*
X220000Y210000D02*
D03*
Y220000D02*
D03*
X230000Y210000D02*
D03*
Y220000D02*
D03*
X240000Y210000D02*
D03*
Y220000D02*
D03*
X250000Y210000D02*
D03*
Y220000D02*
D03*
X260000Y210000D02*
D03*
Y220000D02*
D03*
X270000Y210000D02*
D03*
Y220000D02*
D03*
X280000Y210000D02*
D03*
Y220000D02*
D03*
X290000Y210000D02*
D03*
Y220000D02*
D03*
X300000Y210000D02*
D03*
Y220000D02*
D03*
D16*
X158000Y261500D02*
D03*
X255300Y365300D02*
D03*
X260600D02*
D03*
X265900D02*
D03*
X271200D02*
D03*
X276500D02*
D03*
X257900Y368000D02*
D03*
X250000Y365300D02*
D03*
X247300Y368000D02*
D03*
X244700Y365300D02*
D03*
X300300Y368000D02*
D03*
X297700Y365300D02*
D03*
X305600Y368000D02*
D03*
X303000Y365300D02*
D03*
X295000Y368000D02*
D03*
X289700D02*
D03*
X292400Y365300D02*
D03*
X284400Y368000D02*
D03*
X287100Y365300D02*
D03*
X252600Y368000D02*
D03*
X263200D02*
D03*
X268500D02*
D03*
X281800Y365300D02*
D03*
X279100Y368000D02*
D03*
X273800D02*
D03*
M02*
