G04*
G04 #@! TF.GenerationSoftware,Altium Limited,Altium Designer,18.0.12 (696)*
G04*
G04 Layer_Physical_Order=2*
G04 Layer_Color=16711680*
%FSLAX25Y25*%
%MOIN*%
G70*
G01*
G75*
%ADD17C,0.01200*%
%ADD18C,0.00600*%
%ADD19R,0.05906X0.05906*%
%ADD20C,0.05906*%
%ADD21C,0.02400*%
%ADD22R,0.01181X0.06299*%
%ADD23C,0.01000*%
D17*
X257500Y261500D02*
X270000Y274000D01*
X158000Y261500D02*
X257500D01*
X270000Y274000D02*
Y280000D01*
D18*
X280437Y350063D02*
Y354587D01*
Y350063D02*
X281000Y349500D01*
X282000D01*
X282405Y349905D01*
Y354587D01*
X300122Y290000D02*
Y290122D01*
X207200Y313200D02*
X246200D01*
X184900Y290900D02*
X207200Y313200D01*
X184900Y284900D02*
Y290900D01*
X255000Y347500D02*
X277500D01*
X252878Y345378D02*
X255000Y347500D01*
X252878Y340413D02*
Y345378D01*
X300122Y340413D02*
Y345878D01*
X298500Y347500D02*
X300122Y345878D01*
X290500Y347500D02*
X298500D01*
X283500D02*
X290500D01*
X292248Y340413D02*
Y345752D01*
X290500Y347500D02*
X292248Y345752D01*
X281500Y347500D02*
X283500D01*
X284374Y346626D01*
Y340413D02*
Y346626D01*
X279500Y347500D02*
X281500D01*
X282405Y340413D02*
Y346595D01*
X281500Y347500D02*
X282405Y346595D01*
X279500Y347500D02*
X280437Y346563D01*
X276500Y348500D02*
X277500Y347500D01*
X280437Y340413D02*
Y346563D01*
X277500Y347500D02*
X279500D01*
X276500Y348500D02*
Y354587D01*
X255300Y364400D02*
X255700D01*
X286343Y313142D02*
Y340413D01*
X264900Y291700D02*
X286343Y313142D01*
X284374Y314374D02*
Y340413D01*
X260000Y290000D02*
X284374Y314374D01*
X282405Y314405D02*
Y340413D01*
X263200Y295200D02*
X282405Y314405D01*
X259200Y295200D02*
X263200D01*
X280437Y314937D02*
Y340413D01*
X261800Y296300D02*
X280437Y314937D01*
X256300Y296300D02*
X261800D01*
X278468Y315469D02*
Y340413D01*
X260600Y297600D02*
X278468Y315469D01*
X251100Y297600D02*
X260600D01*
X276500Y316000D02*
Y340413D01*
X259400Y298900D02*
X276500Y316000D01*
X248900Y298900D02*
X259400D01*
X274532Y316531D02*
Y340413D01*
X258200Y300200D02*
X274532Y316531D01*
X243300Y300200D02*
X258200D01*
X272563Y317063D02*
Y340413D01*
X257000Y301500D02*
X272563Y317063D01*
X241500Y301500D02*
X257000D01*
X270595Y317595D02*
Y340413D01*
X255800Y302800D02*
X270595Y317595D01*
X236100Y302800D02*
X255800D01*
X268626Y318126D02*
Y340413D01*
X254600Y304100D02*
X268626Y318126D01*
X234100Y304100D02*
X254600D01*
X266657Y318657D02*
Y340413D01*
X253400Y305400D02*
X266657Y318657D01*
X228500Y305400D02*
X253400D01*
X264689Y319189D02*
Y340413D01*
X252200Y306700D02*
X264689Y319189D01*
X226700Y306700D02*
X252200D01*
X262720Y319721D02*
Y340413D01*
X251000Y308000D02*
X262720Y319721D01*
X221500Y308000D02*
X251000D01*
X260752Y320252D02*
Y340413D01*
X249800Y309300D02*
X260752Y320252D01*
X219300Y309300D02*
X249800D01*
X258784Y320783D02*
Y340413D01*
X248600Y310600D02*
X258784Y320783D01*
X214200Y310600D02*
X248600D01*
X256815Y321315D02*
Y340413D01*
X247400Y311900D02*
X256815Y321315D01*
X211900Y311900D02*
X247400D01*
X254847Y321847D02*
Y340413D01*
X246200Y313200D02*
X254847Y321847D01*
X253619Y360681D02*
X255742D01*
X250000Y364300D02*
X253619Y360681D01*
X250700Y359200D02*
X254000D01*
X254847Y358353D01*
X257900Y364089D02*
Y367100D01*
Y364089D02*
X260058Y361931D01*
X261331D01*
X260600Y364500D02*
X264689Y360411D01*
X265900Y364600D02*
X268626Y361874D01*
X271200Y364700D02*
X272563Y363337D01*
X276500Y354587D02*
Y364800D01*
X278468Y363469D02*
X279200Y364200D01*
X278468Y354587D02*
Y363469D01*
X265700Y362400D02*
X266657Y361442D01*
X264989Y362400D02*
X265700D01*
X263200Y364189D02*
X264989Y362400D01*
X263200Y364189D02*
Y367200D01*
X247300Y362600D02*
Y366900D01*
X244700Y361300D02*
Y364200D01*
X247300Y362600D02*
X250700Y359200D01*
X244700Y361300D02*
X251413Y354587D01*
X297300Y364400D02*
X297700D01*
X295100Y364089D02*
Y367100D01*
X292942Y361931D02*
X295100Y364089D01*
X291669Y361931D02*
X292942D01*
X290280Y360541D02*
X291669Y361931D01*
X290280Y354587D02*
Y360541D01*
X288311Y360411D02*
X292400Y364500D01*
X288311Y354587D02*
Y360411D01*
X300122Y290122D02*
Y340413D01*
X296185Y296185D02*
Y340413D01*
X280000Y290000D02*
X292248Y302248D01*
X295200Y292500D02*
X298153Y295454D01*
X295200Y285200D02*
Y292500D01*
X290000Y280000D02*
X295200Y285200D01*
X298153Y295454D02*
Y340413D01*
X290000Y290000D02*
X296185Y296185D01*
X285100Y291200D02*
X294216Y300317D01*
X285100Y285100D02*
Y291200D01*
X280000Y280000D02*
X285100Y285100D01*
X294216Y300317D02*
Y340413D01*
X275000Y291000D02*
X290280Y306279D01*
X275000Y285000D02*
Y291000D01*
X270000Y280000D02*
X275000Y285000D01*
X290280Y306279D02*
Y340413D01*
X270000Y290000D02*
X288311Y308311D01*
Y340413D01*
X264900Y284900D02*
Y291700D01*
X260000Y280000D02*
X264900Y284900D01*
X292248Y302248D02*
Y340413D01*
X200000Y290000D02*
X219300Y309300D01*
X205000Y291500D02*
X221500Y308000D01*
X205000Y285000D02*
Y291500D01*
X200000Y280000D02*
X205000Y285000D01*
X210000Y290000D02*
X226700Y306700D01*
X214900Y291800D02*
X228500Y305400D01*
X214900Y284900D02*
Y291800D01*
X210000Y280000D02*
X214900Y284900D01*
X220000Y290000D02*
X234100Y304100D01*
X224900Y291600D02*
X236100Y302800D01*
X224900Y284900D02*
Y291600D01*
X220000Y280000D02*
X224900Y284900D01*
X230000Y290000D02*
X241500Y301500D01*
X235100Y292000D02*
X243300Y300200D01*
X235100Y285100D02*
Y292000D01*
X230000Y280000D02*
X235100Y285100D01*
X240000Y290000D02*
X248900Y298900D01*
X245100Y291600D02*
X251100Y297600D01*
X245100Y285100D02*
Y291600D01*
X240000Y280000D02*
X245100Y285100D01*
X180000Y280000D02*
X184900Y284900D01*
X195000Y291400D02*
X214200Y310600D01*
X250000Y290000D02*
X256300Y296300D01*
X254900Y290900D02*
X259200Y295200D01*
X190000Y290000D02*
X211900Y311900D01*
X190000Y280000D02*
X195000Y285000D01*
Y291400D01*
X250000Y280000D02*
X254900Y284900D01*
Y290900D01*
X300000Y290000D02*
X300122Y290122D01*
X279200Y364200D02*
Y367400D01*
X280437Y354587D02*
Y363337D01*
X281800Y364700D01*
X282405Y354587D02*
Y362105D01*
X284500Y364200D01*
Y367300D01*
X284374Y354587D02*
Y361874D01*
X287100Y364600D01*
X286343Y354587D02*
Y361442D01*
X287300Y362400D01*
X288011D01*
X289800Y364189D01*
Y367200D01*
X292248Y354587D02*
Y359348D01*
X297300Y364400D01*
X294216Y354587D02*
Y359478D01*
X296719Y361981D01*
X298392D01*
X300400Y363989D01*
Y367000D01*
X296185Y354587D02*
Y359585D01*
X296900Y360300D01*
X296877D02*
X296900D01*
X296877D02*
X297258Y360681D01*
X299381D01*
X303000Y364300D01*
X298153Y354587D02*
Y358353D01*
X299000Y359200D01*
X302300D01*
X305700Y362600D01*
Y366900D01*
X251413Y354587D02*
X252878D01*
X254847D02*
Y358353D01*
X255742Y360681D02*
X256123Y360300D01*
X256100D02*
X256123D01*
X256100D02*
X256815Y359585D01*
Y354587D02*
Y359585D01*
X252600Y363989D02*
Y367000D01*
Y363989D02*
X254608Y361981D01*
X256281D01*
X258784Y359478D01*
Y354587D02*
Y359478D01*
X255700Y364400D02*
X260752Y359348D01*
Y354587D02*
Y359348D01*
X261331Y361931D02*
X262720Y360541D01*
Y354587D02*
Y360541D01*
X264689Y354587D02*
Y360411D01*
X266657Y354587D02*
Y361442D01*
X268626Y354587D02*
Y361874D01*
X268500Y364200D02*
Y367300D01*
Y364200D02*
X270595Y362105D01*
Y354587D02*
Y362105D01*
X272563Y354587D02*
Y363337D01*
X273800Y364200D02*
Y367400D01*
Y364200D02*
X274532Y363469D01*
Y354587D02*
Y363469D01*
D19*
X180000Y280000D02*
D03*
Y210000D02*
D03*
D20*
Y290000D02*
D03*
X190000Y280000D02*
D03*
Y290000D02*
D03*
X200000Y280000D02*
D03*
Y290000D02*
D03*
X210000Y280000D02*
D03*
Y290000D02*
D03*
X220000Y280000D02*
D03*
Y290000D02*
D03*
X230000Y280000D02*
D03*
Y290000D02*
D03*
X240000Y280000D02*
D03*
Y290000D02*
D03*
X250000Y280000D02*
D03*
Y290000D02*
D03*
X260000Y280000D02*
D03*
Y290000D02*
D03*
X270000Y280000D02*
D03*
Y290000D02*
D03*
X280000Y280000D02*
D03*
Y290000D02*
D03*
X290000Y280000D02*
D03*
Y290000D02*
D03*
X300000Y280000D02*
D03*
Y290000D02*
D03*
X180000Y220000D02*
D03*
X190000Y210000D02*
D03*
Y220000D02*
D03*
X200000Y210000D02*
D03*
Y220000D02*
D03*
X210000Y210000D02*
D03*
Y220000D02*
D03*
X220000Y210000D02*
D03*
Y220000D02*
D03*
X230000Y210000D02*
D03*
Y220000D02*
D03*
X240000Y210000D02*
D03*
Y220000D02*
D03*
X250000Y210000D02*
D03*
Y220000D02*
D03*
X260000Y210000D02*
D03*
Y220000D02*
D03*
X270000Y210000D02*
D03*
Y220000D02*
D03*
X280000Y210000D02*
D03*
Y220000D02*
D03*
X290000Y210000D02*
D03*
Y220000D02*
D03*
X300000Y210000D02*
D03*
Y220000D02*
D03*
D21*
X158000Y261500D02*
D03*
X255300Y365300D02*
D03*
X260600D02*
D03*
X265900D02*
D03*
X271200D02*
D03*
X276500D02*
D03*
X257900Y368000D02*
D03*
X250000Y365300D02*
D03*
X247300Y368000D02*
D03*
X244700Y365300D02*
D03*
X300300Y368000D02*
D03*
X297700Y365300D02*
D03*
X305600Y368000D02*
D03*
X303000Y365300D02*
D03*
X295000Y368000D02*
D03*
X289700D02*
D03*
X292400Y365300D02*
D03*
X284400Y368000D02*
D03*
X287100Y365300D02*
D03*
X252600Y368000D02*
D03*
X263200D02*
D03*
X268500D02*
D03*
X281800Y365300D02*
D03*
X279100Y368000D02*
D03*
X273800D02*
D03*
D22*
X252878Y340413D02*
D03*
Y354587D02*
D03*
X254847Y340413D02*
D03*
Y354587D02*
D03*
X256815Y340413D02*
D03*
Y354587D02*
D03*
X258784Y340413D02*
D03*
Y354587D02*
D03*
X260752Y340413D02*
D03*
Y354587D02*
D03*
X262720Y340413D02*
D03*
Y354587D02*
D03*
X264689Y340413D02*
D03*
Y354587D02*
D03*
X266657Y340413D02*
D03*
Y354587D02*
D03*
X268626Y340413D02*
D03*
Y354587D02*
D03*
X270595Y340413D02*
D03*
Y354587D02*
D03*
X272563Y340413D02*
D03*
Y354587D02*
D03*
X274532Y340413D02*
D03*
Y354587D02*
D03*
X276500Y340413D02*
D03*
Y354587D02*
D03*
X278468Y340413D02*
D03*
Y354587D02*
D03*
X280437Y340413D02*
D03*
Y354587D02*
D03*
X282405Y340413D02*
D03*
Y354587D02*
D03*
X284374Y340413D02*
D03*
Y354587D02*
D03*
X286343Y340413D02*
D03*
Y354587D02*
D03*
X288311Y340413D02*
D03*
Y354587D02*
D03*
X290280Y340413D02*
D03*
Y354587D02*
D03*
X292248Y340413D02*
D03*
Y354587D02*
D03*
X294216Y340413D02*
D03*
Y354587D02*
D03*
X296185Y340413D02*
D03*
Y354587D02*
D03*
X298153Y340413D02*
D03*
Y354587D02*
D03*
X300122Y340413D02*
D03*
Y354587D02*
D03*
D23*
X245500Y315000D02*
X252878Y322378D01*
X205000Y315000D02*
X245500D01*
X252878Y322378D02*
Y340413D01*
X180000Y290000D02*
X205000Y315000D01*
M02*
