G04*
G04 #@! TF.GenerationSoftware,Altium Limited,Altium Designer,18.0.12 (696)*
G04*
G04 Layer_Color=65535*
%FSLAX25Y25*%
%MOIN*%
G70*
G01*
G75*
%ADD10C,0.00787*%
%ADD11C,0.00800*%
D10*
X305000Y275000D02*
Y295000D01*
X175000Y275000D02*
Y295000D01*
X305000D01*
X175000Y275000D02*
X305000D01*
Y205000D02*
Y225000D01*
X175000Y205000D02*
Y225000D01*
X305000D01*
X175000Y205000D02*
X305000D01*
D11*
X228201Y184800D02*
X232200D01*
X230867D01*
X228201Y187466D01*
X230201Y185467D01*
X232200Y187466D01*
X228868Y191464D02*
X228201Y190798D01*
Y189465D01*
X228868Y188799D01*
X229534D01*
X230201Y189465D01*
Y190798D01*
X230867Y191464D01*
X231534D01*
X232200Y190798D01*
Y189465D01*
X231534Y188799D01*
X228201Y194797D02*
Y193464D01*
X228868Y192797D01*
X231534D01*
X232200Y193464D01*
Y194797D01*
X231534Y195463D01*
X228868D01*
X228201Y194797D01*
X232200Y196796D02*
Y198129D01*
Y197463D01*
X228201D01*
X228868Y196796D01*
X232200Y202794D02*
Y200128D01*
X229534Y202794D01*
X228868D01*
X228201Y202128D01*
Y200795D01*
X228868Y200128D01*
X218201Y188300D02*
X222200D01*
X220867D01*
X218201Y190966D01*
X220201Y188967D01*
X222200Y190966D01*
X218868Y194965D02*
X218201Y194298D01*
Y192965D01*
X218868Y192299D01*
X219534D01*
X220201Y192965D01*
Y194298D01*
X220867Y194965D01*
X221534D01*
X222200Y194298D01*
Y192965D01*
X221534Y192299D01*
X218201Y198297D02*
Y196964D01*
X218868Y196297D01*
X221534D01*
X222200Y196964D01*
Y198297D01*
X221534Y198963D01*
X218868D01*
X218201Y198297D01*
X218868Y200296D02*
X218201Y200963D01*
Y202295D01*
X218868Y202962D01*
X219534D01*
X220201Y202295D01*
X220867Y202962D01*
X221534D01*
X222200Y202295D01*
Y200963D01*
X221534Y200296D01*
X220867D01*
X220201Y200963D01*
X219534Y200296D01*
X218868D01*
X220201Y200963D02*
Y202295D01*
X218201Y258300D02*
X222200D01*
X220867D01*
X218201Y260966D01*
X220201Y258966D01*
X222200Y260966D01*
X218868Y264965D02*
X218201Y264298D01*
Y262965D01*
X218868Y262299D01*
X219534D01*
X220201Y262965D01*
Y264298D01*
X220867Y264965D01*
X221534D01*
X222200Y264298D01*
Y262965D01*
X221534Y262299D01*
X218201Y268297D02*
Y266964D01*
X218868Y266297D01*
X221534D01*
X222200Y266964D01*
Y268297D01*
X221534Y268963D01*
X218868D01*
X218201Y268297D01*
X221534Y270296D02*
X222200Y270963D01*
Y272295D01*
X221534Y272962D01*
X218868D01*
X218201Y272295D01*
Y270963D01*
X218868Y270296D01*
X219534D01*
X220201Y270963D01*
Y272962D01*
X288201Y256966D02*
Y254300D01*
X290201D01*
Y255633D01*
Y254300D01*
X292200D01*
X288201Y258299D02*
X292200D01*
Y260964D01*
X288201Y264963D02*
Y262297D01*
X292200D01*
Y264963D01*
X290201Y262297D02*
Y263630D01*
X288201Y266296D02*
X292200D01*
Y268296D01*
X291534Y268962D01*
X288868D01*
X288201Y268296D01*
Y266296D01*
X288868Y272961D02*
X288201Y272294D01*
Y270961D01*
X288868Y270295D01*
X291534D01*
X292200Y270961D01*
Y272294D01*
X291534Y272961D01*
X290201D01*
Y271628D01*
X208201Y192299D02*
X212200D01*
X210867D01*
X208201Y194965D01*
X210201Y192965D01*
X212200Y194965D01*
X208868Y198963D02*
X208201Y198297D01*
Y196964D01*
X208868Y196297D01*
X209534D01*
X210201Y196964D01*
Y198297D01*
X210867Y198963D01*
X211534D01*
X212200Y198297D01*
Y196964D01*
X211534Y196297D01*
X212200Y202295D02*
X208201D01*
X210201Y200296D01*
Y202962D01*
X228201Y254800D02*
X232200D01*
X230867D01*
X228201Y257466D01*
X230201Y255466D01*
X232200Y257466D01*
X228868Y261465D02*
X228201Y260798D01*
Y259465D01*
X228868Y258799D01*
X229534D01*
X230201Y259465D01*
Y260798D01*
X230867Y261465D01*
X231534D01*
X232200Y260798D01*
Y259465D01*
X231534Y258799D01*
X228201Y264797D02*
Y263464D01*
X228868Y262797D01*
X231534D01*
X232200Y263464D01*
Y264797D01*
X231534Y265463D01*
X228868D01*
X228201Y264797D01*
X232200Y266796D02*
Y268129D01*
Y267463D01*
X228201D01*
X228868Y266796D01*
Y270128D02*
X228201Y270795D01*
Y272128D01*
X228868Y272794D01*
X229534D01*
X230201Y272128D01*
Y271461D01*
Y272128D01*
X230867Y272794D01*
X231534D01*
X232200Y272128D01*
Y270795D01*
X231534Y270128D01*
X248201Y226800D02*
X252200D01*
X250867D01*
X248201Y229466D01*
X250201Y227466D01*
X252200Y229466D01*
X248201Y230799D02*
X252200D01*
Y232798D01*
X251534Y233465D01*
X250867D01*
X250201Y232798D01*
Y230799D01*
Y232798D01*
X249534Y233465D01*
X248868D01*
X248201Y232798D01*
Y230799D01*
Y234797D02*
X252200D01*
Y237463D01*
Y238796D02*
X248201D01*
Y240795D01*
X248868Y241462D01*
X250201D01*
X250867Y240795D01*
Y238796D01*
X298868Y264966D02*
X298201Y264299D01*
Y262966D01*
X298868Y262300D01*
X301534D01*
X302200Y262966D01*
Y264299D01*
X301534Y264966D01*
X300201D01*
Y263633D01*
X302200Y266299D02*
X298201D01*
X302200Y268965D01*
X298201D01*
Y270297D02*
X302200D01*
Y272297D01*
X301534Y272963D01*
X298868D01*
X298201Y272297D01*
Y270297D01*
X268201Y256796D02*
Y254130D01*
X270201D01*
X269534Y255463D01*
Y256129D01*
X270201Y256796D01*
X271534D01*
X272200Y256129D01*
Y254796D01*
X271534Y254130D01*
X268201Y258128D02*
X270867D01*
X272200Y259461D01*
X270867Y260794D01*
X268201D01*
X272200Y262127D02*
X269534D01*
X268201Y263460D01*
X269534Y264793D01*
X272200D01*
X270201D01*
Y262127D01*
X268201Y266126D02*
X272200D01*
Y268792D01*
X268201Y270125D02*
X272200D01*
X270867Y271457D01*
X272200Y272790D01*
X268201D01*
X278201Y188800D02*
X281534D01*
X282200Y189467D01*
Y190799D01*
X281534Y191466D01*
X278201D01*
X278868Y195465D02*
X278201Y194798D01*
Y193465D01*
X278868Y192799D01*
X279534D01*
X280201Y193465D01*
Y194798D01*
X280867Y195465D01*
X281534D01*
X282200Y194798D01*
Y193465D01*
X281534Y192799D01*
X278201Y196797D02*
X282200D01*
Y198797D01*
X281534Y199463D01*
X280867D01*
X280201Y198797D01*
Y196797D01*
Y198797D01*
X279534Y199463D01*
X278868D01*
X278201Y198797D01*
Y196797D01*
X282200Y200796D02*
X278201D01*
Y202796D01*
X278868Y203462D01*
X280201D01*
X280867Y202796D01*
Y200796D01*
X198201Y259966D02*
X202200D01*
X200867D01*
X198201Y262632D01*
X200201Y260633D01*
X202200Y262632D01*
X198868Y266631D02*
X198201Y265965D01*
Y264632D01*
X198868Y263965D01*
X199534D01*
X200201Y264632D01*
Y265965D01*
X200867Y266631D01*
X201534D01*
X202200Y265965D01*
Y264632D01*
X201534Y263965D01*
X198201Y269963D02*
Y268630D01*
X198868Y267964D01*
X201534D01*
X202200Y268630D01*
Y269963D01*
X201534Y270630D01*
X198868D01*
X198201Y269963D01*
X202200Y271963D02*
Y273295D01*
Y272629D01*
X198201D01*
X198868Y271963D01*
X268201Y194966D02*
Y192300D01*
X270201D01*
X269534Y193633D01*
Y194299D01*
X270201Y194966D01*
X271534D01*
X272200Y194299D01*
Y192966D01*
X271534Y192300D01*
X268201Y196299D02*
X270867D01*
X272200Y197632D01*
X270867Y198965D01*
X268201D01*
X268868Y202963D02*
X268201Y202297D01*
Y200964D01*
X268868Y200297D01*
X269534D01*
X270201Y200964D01*
Y202297D01*
X270867Y202963D01*
X271534D01*
X272200Y202297D01*
Y200964D01*
X271534Y200297D01*
X238201Y296800D02*
X242200D01*
X240867D01*
X238201Y299466D01*
X240201Y297466D01*
X242200Y299466D01*
X238868Y303465D02*
X238201Y302798D01*
Y301465D01*
X238868Y300799D01*
X239534D01*
X240201Y301465D01*
Y302798D01*
X240867Y303465D01*
X241534D01*
X242200Y302798D01*
Y301465D01*
X241534Y300799D01*
X238201Y306797D02*
Y305464D01*
X238868Y304797D01*
X241534D01*
X242200Y305464D01*
Y306797D01*
X241534Y307463D01*
X238868D01*
X238201Y306797D01*
X242200Y308796D02*
Y310129D01*
Y309463D01*
X238201D01*
X238868Y308796D01*
X238201Y314794D02*
Y312128D01*
X240201D01*
X239534Y313461D01*
Y314128D01*
X240201Y314794D01*
X241534D01*
X242200Y314128D01*
Y312795D01*
X241534Y312128D01*
X268201Y226800D02*
X271534D01*
X272200Y227466D01*
Y228799D01*
X271534Y229466D01*
X268201D01*
X268868Y233465D02*
X268201Y232798D01*
Y231465D01*
X268868Y230799D01*
X269534D01*
X270201Y231465D01*
Y232798D01*
X270867Y233465D01*
X271534D01*
X272200Y232798D01*
Y231465D01*
X271534Y230799D01*
X268201Y234797D02*
X272200D01*
Y236797D01*
X271534Y237463D01*
X270867D01*
X270201Y236797D01*
Y234797D01*
Y236797D01*
X269534Y237463D01*
X268868D01*
X268201Y236797D01*
Y234797D01*
X272200Y238796D02*
X268201D01*
X272200Y241462D01*
X268201D01*
X188201Y296800D02*
X192200D01*
X190867D01*
X188201Y299466D01*
X190201Y297466D01*
X192200Y299466D01*
X188868Y303465D02*
X188201Y302798D01*
Y301465D01*
X188868Y300799D01*
X189534D01*
X190201Y301465D01*
Y302798D01*
X190867Y303465D01*
X191534D01*
X192200Y302798D01*
Y301465D01*
X191534Y300799D01*
X188201Y304797D02*
Y306130D01*
Y305464D01*
X192200D01*
Y304797D01*
Y306130D01*
X188868Y308130D02*
X188201Y308796D01*
Y310129D01*
X188868Y310795D01*
X189534D01*
X190201Y310129D01*
Y309463D01*
Y310129D01*
X190867Y310795D01*
X191534D01*
X192200Y310129D01*
Y308796D01*
X191534Y308130D01*
X228201Y296800D02*
X232200D01*
X230867D01*
X228201Y299466D01*
X230201Y297466D01*
X232200Y299466D01*
X228868Y303465D02*
X228201Y302798D01*
Y301465D01*
X228868Y300799D01*
X229534D01*
X230201Y301465D01*
Y302798D01*
X230867Y303465D01*
X231534D01*
X232200Y302798D01*
Y301465D01*
X231534Y300799D01*
X228201Y306797D02*
Y305464D01*
X228868Y304797D01*
X231534D01*
X232200Y305464D01*
Y306797D01*
X231534Y307463D01*
X228868D01*
X228201Y306797D01*
X232200Y308796D02*
Y310129D01*
Y309463D01*
X228201D01*
X228868Y308796D01*
X232200Y312128D02*
Y313461D01*
Y312795D01*
X228201D01*
X228868Y312128D01*
X238868Y256966D02*
X238201Y256299D01*
Y254966D01*
X238868Y254300D01*
X241534D01*
X242200Y254966D01*
Y256299D01*
X241534Y256966D01*
X242200Y258299D02*
X239534D01*
X238201Y259632D01*
X239534Y260964D01*
X242200D01*
X240201D01*
Y258299D01*
X242200Y262297D02*
X238201D01*
Y264297D01*
X238868Y264963D01*
X240201D01*
X240867Y264297D01*
Y262297D01*
X238868Y268962D02*
X238201Y268296D01*
Y266963D01*
X238868Y266296D01*
X239534D01*
X240201Y266963D01*
Y268296D01*
X240867Y268962D01*
X241534D01*
X242200Y268296D01*
Y266963D01*
X241534Y266296D01*
X242200Y270295D02*
X238201D01*
Y272294D01*
X238868Y272961D01*
X240201D01*
X240867Y272294D01*
Y270295D01*
X288201Y299466D02*
Y296800D01*
X290201D01*
Y298133D01*
Y296800D01*
X292200D01*
X288201Y300799D02*
X292200D01*
Y303465D01*
X288201Y307463D02*
Y304797D01*
X292200D01*
Y307463D01*
X290201Y304797D02*
Y306130D01*
X288201Y308796D02*
X292200D01*
Y310795D01*
X291534Y311462D01*
X288868D01*
X288201Y310795D01*
Y308796D01*
X292200Y312795D02*
X288201D01*
Y314794D01*
X288868Y315461D01*
X290201D01*
X290867Y314794D01*
Y312795D01*
Y314128D02*
X292200Y315461D01*
X298868Y299466D02*
X298201Y298799D01*
Y297466D01*
X298868Y296800D01*
X301534D01*
X302200Y297466D01*
Y298799D01*
X301534Y299466D01*
X300201D01*
Y298133D01*
X302200Y300799D02*
X298201D01*
X302200Y303465D01*
X298201D01*
Y304797D02*
X302200D01*
Y306797D01*
X301534Y307463D01*
X298868D01*
X298201Y306797D01*
Y304797D01*
X278201Y256964D02*
Y254299D01*
X280201D01*
Y255632D01*
Y254299D01*
X282200D01*
X278868Y260963D02*
X278201Y260297D01*
Y258964D01*
X278868Y258297D01*
X281534D01*
X282200Y258964D01*
Y260297D01*
X281534Y260963D01*
X278201Y262296D02*
Y264962D01*
Y263629D01*
X282200D01*
Y266295D02*
X278201D01*
Y268294D01*
X278868Y268961D01*
X280201D01*
X280867Y268294D01*
Y266295D01*
Y267628D02*
X282200Y268961D01*
X278201Y270294D02*
X282200D01*
Y272959D01*
X288201Y229466D02*
Y226800D01*
X290201D01*
Y228133D01*
Y226800D01*
X292200D01*
X288201Y230799D02*
X292200D01*
Y233465D01*
X288201Y237463D02*
Y234797D01*
X292200D01*
Y237463D01*
X290201Y234797D02*
Y236130D01*
X288201Y238796D02*
X292200D01*
Y240795D01*
X291534Y241462D01*
X288868D01*
X288201Y240795D01*
Y238796D01*
X288868Y245461D02*
X288201Y244794D01*
Y243461D01*
X288868Y242795D01*
X291534D01*
X292200Y243461D01*
Y244794D01*
X291534Y245461D01*
X149932Y189966D02*
Y187300D01*
X151931D01*
Y188633D01*
Y187300D01*
X153930D01*
X151264Y191299D02*
X153930D01*
X152597D01*
X151931Y191965D01*
X151264Y192632D01*
Y193298D01*
Y195964D02*
Y197297D01*
X151931Y197963D01*
X153930D01*
Y195964D01*
X153264Y195297D01*
X152597Y195964D01*
Y197963D01*
X153930Y199296D02*
X151264D01*
Y199963D01*
X151931Y200629D01*
X153930D01*
X151931D01*
X151264Y201295D01*
X151931Y201962D01*
X153930D01*
Y205294D02*
Y203961D01*
X153264Y203295D01*
X151931D01*
X151264Y203961D01*
Y205294D01*
X151931Y205961D01*
X152597D01*
Y203295D01*
X151264Y207294D02*
X153264D01*
X153930Y207960D01*
X153264Y208627D01*
X153930Y209293D01*
X153264Y209959D01*
X151264D01*
X153930Y211959D02*
Y213292D01*
X153264Y213958D01*
X151931D01*
X151264Y213292D01*
Y211959D01*
X151931Y211292D01*
X153264D01*
X153930Y211959D01*
X151264Y215291D02*
X153930D01*
X152597D01*
X151931Y215957D01*
X151264Y216624D01*
Y217290D01*
X153930Y219290D02*
X149932D01*
X152597D02*
X151264Y221289D01*
X152597Y219290D02*
X153930Y221289D01*
X149932Y227287D02*
Y228620D01*
Y227954D01*
X153930D01*
Y227287D01*
Y228620D01*
Y230619D02*
X151264D01*
Y232619D01*
X151931Y233285D01*
X153930D01*
X155263Y234618D02*
X151264D01*
Y236617D01*
X151931Y237284D01*
X153264D01*
X153930Y236617D01*
Y234618D01*
X151264Y238617D02*
X153264D01*
X153930Y239283D01*
Y241283D01*
X151264D01*
X150598Y243282D02*
X151264D01*
Y242616D01*
Y243948D01*
Y243282D01*
X153264D01*
X153930Y243948D01*
X157983Y187300D02*
X161981D01*
Y189299D01*
X161315Y189966D01*
X160649D01*
X159982Y189299D01*
Y187300D01*
Y189299D01*
X159316Y189966D01*
X158649D01*
X157983Y189299D01*
Y187300D01*
X159316Y191299D02*
X161981D01*
X160649D01*
X159982Y191965D01*
X159316Y192632D01*
Y193298D01*
X161981Y197297D02*
Y195964D01*
X161315Y195297D01*
X159982D01*
X159316Y195964D01*
Y197297D01*
X159982Y197963D01*
X160649D01*
Y195297D01*
X159316Y199963D02*
Y201295D01*
X159982Y201962D01*
X161981D01*
Y199963D01*
X161315Y199296D01*
X160649Y199963D01*
Y201962D01*
X161981Y203295D02*
X157983D01*
X160649D02*
X159316Y205294D01*
X160649Y203295D02*
X161981Y205294D01*
Y207960D02*
Y209293D01*
X161315Y209959D01*
X159982D01*
X159316Y209293D01*
Y207960D01*
X159982Y207294D01*
X161315D01*
X161981Y207960D01*
X159316Y211292D02*
X161315D01*
X161981Y211959D01*
Y213958D01*
X159316D01*
X158649Y215957D02*
X159316D01*
Y215291D01*
Y216624D01*
Y215957D01*
X161315D01*
X161981Y216624D01*
X162648Y219290D02*
X161981Y219956D01*
X161315D01*
Y219290D01*
X161981D01*
Y219956D01*
X162648Y219290D01*
X163314Y218623D01*
X161981Y226621D02*
X157983D01*
Y228620D01*
X158649Y229287D01*
X159982D01*
X160649Y228620D01*
Y226621D01*
Y227954D02*
X161981Y229287D01*
Y232619D02*
Y231286D01*
X161315Y230619D01*
X159982D01*
X159316Y231286D01*
Y232619D01*
X159982Y233285D01*
X160649D01*
Y230619D01*
X159316Y234618D02*
X161981Y235951D01*
X159316Y237284D01*
X161981Y242616D02*
X159316D01*
X157983Y243948D01*
X159316Y245281D01*
X161981D01*
X159982D01*
Y242616D01*
X164701Y187300D02*
X168700D01*
X167367D01*
X164701Y189966D01*
X166701Y187967D01*
X168700Y189966D01*
Y191299D02*
X168034D01*
Y191965D01*
X168700D01*
Y191299D01*
X164701Y194631D02*
X168700D01*
Y196630D01*
X168034Y197297D01*
X167367D01*
X166701Y196630D01*
Y194631D01*
Y196630D01*
X166034Y197297D01*
X165368D01*
X164701Y196630D01*
Y194631D01*
X166034Y198630D02*
X168034D01*
X168700Y199296D01*
Y201295D01*
X166034D01*
Y205294D02*
Y203295D01*
X166701Y202628D01*
X168034D01*
X168700Y203295D01*
Y205294D01*
X164701Y206627D02*
X168700D01*
X166701D01*
X166034Y207294D01*
Y208627D01*
X166701Y209293D01*
X168700D01*
Y210626D02*
X164701D01*
X167367D02*
X166034Y212625D01*
X167367Y210626D02*
X168700Y212625D01*
X166034Y215291D02*
Y216624D01*
X166701Y217290D01*
X168700D01*
Y215291D01*
X168034Y214625D01*
X167367Y215291D01*
Y217290D01*
X168700Y225288D02*
Y222622D01*
X166034Y225288D01*
X165368D01*
X164701Y224621D01*
Y223288D01*
X165368Y222622D01*
Y226621D02*
X164701Y227287D01*
Y228620D01*
X165368Y229287D01*
X168034D01*
X168700Y228620D01*
Y227287D01*
X168034Y226621D01*
X165368D01*
X168700Y233285D02*
Y230619D01*
X166034Y233285D01*
X165368D01*
X164701Y232619D01*
Y231286D01*
X165368Y230619D01*
X168700Y237284D02*
Y234618D01*
X166034Y237284D01*
X165368D01*
X164701Y236617D01*
Y235284D01*
X165368Y234618D01*
X258868Y229466D02*
X258201Y228799D01*
Y227466D01*
X258868Y226800D01*
X259534D01*
X260201Y227466D01*
Y228799D01*
X260867Y229466D01*
X261534D01*
X262200Y228799D01*
Y227466D01*
X261534Y226800D01*
X258201Y230799D02*
X262200D01*
Y232798D01*
X261534Y233465D01*
X258868D01*
X258201Y232798D01*
Y230799D01*
X262200Y234797D02*
X259534D01*
X258201Y236130D01*
X259534Y237463D01*
X262200D01*
X260201D01*
Y234797D01*
X278868Y229466D02*
X278201Y228799D01*
Y227466D01*
X278868Y226800D01*
X279534D01*
X280201Y227466D01*
Y228799D01*
X280867Y229466D01*
X281534D01*
X282200Y228799D01*
Y227466D01*
X281534Y226800D01*
X278201Y230799D02*
X282200D01*
X280867Y232132D01*
X282200Y233465D01*
X278201D01*
X258868Y194966D02*
X258201Y194299D01*
Y192966D01*
X258868Y192300D01*
X259534D01*
X260201Y192966D01*
Y194299D01*
X260867Y194966D01*
X261534D01*
X262200Y194299D01*
Y192966D01*
X261534Y192300D01*
X258868Y198965D02*
X258201Y198298D01*
Y196965D01*
X258868Y196299D01*
X261534D01*
X262200Y196965D01*
Y198298D01*
X261534Y198965D01*
X258201Y200297D02*
X262200D01*
Y202963D01*
X208201Y296800D02*
X212200D01*
X210867D01*
X208201Y299466D01*
X210201Y297466D01*
X212200Y299466D01*
X208868Y303465D02*
X208201Y302798D01*
Y301465D01*
X208868Y300799D01*
X209534D01*
X210201Y301465D01*
Y302798D01*
X210867Y303465D01*
X211534D01*
X212200Y302798D01*
Y301465D01*
X211534Y300799D01*
X208201Y306797D02*
Y305464D01*
X208868Y304797D01*
X211534D01*
X212200Y305464D01*
Y306797D01*
X211534Y307463D01*
X208868D01*
X208201Y306797D01*
X208868Y308796D02*
X208201Y309463D01*
Y310795D01*
X208868Y311462D01*
X209534D01*
X210201Y310795D01*
Y310129D01*
Y310795D01*
X210867Y311462D01*
X211534D01*
X212200Y310795D01*
Y309463D01*
X211534Y308796D01*
X228201Y226800D02*
X232200D01*
X230867D01*
X228201Y229466D01*
X230201Y227466D01*
X232200Y229466D01*
X228868Y233465D02*
X228201Y232798D01*
Y231465D01*
X228868Y230799D01*
X229534D01*
X230201Y231465D01*
Y232798D01*
X230867Y233465D01*
X231534D01*
X232200Y232798D01*
Y231465D01*
X231534Y230799D01*
X228201Y236797D02*
Y235464D01*
X228868Y234797D01*
X231534D01*
X232200Y235464D01*
Y236797D01*
X231534Y237463D01*
X228868D01*
X228201Y236797D01*
X232200Y238796D02*
Y240129D01*
Y239463D01*
X228201D01*
X228868Y238796D01*
X232200Y244128D02*
X228201D01*
X230201Y242128D01*
Y244794D01*
X288201Y187466D02*
Y184800D01*
X290201D01*
Y186133D01*
Y184800D01*
X292200D01*
X288201Y188799D02*
X292200D01*
Y191464D01*
X288201Y195463D02*
Y192797D01*
X292200D01*
Y195463D01*
X290201Y192797D02*
Y194130D01*
X288201Y196796D02*
X292200D01*
Y198795D01*
X291534Y199462D01*
X288868D01*
X288201Y198795D01*
Y196796D01*
Y200795D02*
X292200D01*
X290867Y202128D01*
X292200Y203461D01*
X288201D01*
X208201Y226800D02*
X212200D01*
X210867D01*
X208201Y229466D01*
X210201Y227466D01*
X212200Y229466D01*
X208868Y233465D02*
X208201Y232798D01*
Y231465D01*
X208868Y230799D01*
X209534D01*
X210201Y231465D01*
Y232798D01*
X210867Y233465D01*
X211534D01*
X212200Y232798D01*
Y231465D01*
X211534Y230799D01*
X208201Y236797D02*
Y235464D01*
X208868Y234797D01*
X211534D01*
X212200Y235464D01*
Y236797D01*
X211534Y237463D01*
X208868D01*
X208201Y236797D01*
Y241462D02*
X208868Y240129D01*
X210201Y238796D01*
X211534D01*
X212200Y239463D01*
Y240795D01*
X211534Y241462D01*
X210867D01*
X210201Y240795D01*
Y238796D01*
X198201Y296800D02*
X202200D01*
X200867D01*
X198201Y299466D01*
X200201Y297466D01*
X202200Y299466D01*
X198868Y303465D02*
X198201Y302798D01*
Y301465D01*
X198868Y300799D01*
X199534D01*
X200201Y301465D01*
Y302798D01*
X200867Y303465D01*
X201534D01*
X202200Y302798D01*
Y301465D01*
X201534Y300799D01*
X198201Y304797D02*
Y306130D01*
Y305464D01*
X202200D01*
Y304797D01*
Y306130D01*
X198201Y308130D02*
Y310795D01*
X198868D01*
X201534Y308130D01*
X202200D01*
X218201Y226800D02*
X222200D01*
X220867D01*
X218201Y229466D01*
X220201Y227466D01*
X222200Y229466D01*
X218868Y233465D02*
X218201Y232798D01*
Y231465D01*
X218868Y230799D01*
X219534D01*
X220201Y231465D01*
Y232798D01*
X220867Y233465D01*
X221534D01*
X222200Y232798D01*
Y231465D01*
X221534Y230799D01*
X218201Y236797D02*
Y235464D01*
X218868Y234797D01*
X221534D01*
X222200Y235464D01*
Y236797D01*
X221534Y237463D01*
X218868D01*
X218201Y236797D01*
X222200Y238796D02*
Y240129D01*
Y239463D01*
X218201D01*
X218868Y238796D01*
Y242128D02*
X218201Y242795D01*
Y244128D01*
X218868Y244794D01*
X221534D01*
X222200Y244128D01*
Y242795D01*
X221534Y242128D01*
X218868D01*
X248201Y188299D02*
X252200D01*
X250867D01*
X248201Y190964D01*
X250201Y188965D01*
X252200Y190964D01*
X248201Y192297D02*
X252200D01*
Y194297D01*
X251534Y194963D01*
X250867D01*
X250201Y194297D01*
Y192297D01*
Y194297D01*
X249534Y194963D01*
X248868D01*
X248201Y194297D01*
Y192297D01*
Y196296D02*
X252200D01*
Y198962D01*
Y200295D02*
X248201D01*
Y202294D01*
X248868Y202961D01*
X250201D01*
X250867Y202294D01*
Y200295D01*
X248868Y299466D02*
X248201Y298799D01*
Y297466D01*
X248868Y296800D01*
X251534D01*
X252200Y297466D01*
Y298799D01*
X251534Y299466D01*
X250201D01*
Y298133D01*
X252200Y300799D02*
X248201D01*
X252200Y303465D01*
X248201D01*
Y304797D02*
X252200D01*
Y306797D01*
X251534Y307463D01*
X248868D01*
X248201Y306797D01*
Y304797D01*
X248868Y264966D02*
X248201Y264299D01*
Y262966D01*
X248868Y262300D01*
X251534D01*
X252200Y262966D01*
Y264299D01*
X251534Y264966D01*
X250201D01*
Y263633D01*
X252200Y266299D02*
X248201D01*
X252200Y268965D01*
X248201D01*
Y270297D02*
X252200D01*
Y272297D01*
X251534Y272963D01*
X248868D01*
X248201Y272297D01*
Y270297D01*
X178201Y260300D02*
X182200D01*
X180867D01*
X178201Y262966D01*
X180201Y260966D01*
X182200Y262966D01*
X178868Y266965D02*
X178201Y266298D01*
Y264965D01*
X178868Y264299D01*
X179534D01*
X180201Y264965D01*
Y266298D01*
X180867Y266965D01*
X181534D01*
X182200Y266298D01*
Y264965D01*
X181534Y264299D01*
X178201Y268297D02*
Y269630D01*
Y268964D01*
X182200D01*
Y268297D01*
Y269630D01*
Y271630D02*
Y272963D01*
Y272296D01*
X178201D01*
X178868Y271630D01*
X152796Y267299D02*
X150130D01*
Y265299D01*
X151463Y265966D01*
X152129D01*
X152796Y265299D01*
Y263966D01*
X152129Y263300D01*
X150796D01*
X150130Y263966D01*
X154128Y267299D02*
Y264633D01*
X155461Y263300D01*
X156794Y264633D01*
Y267299D01*
X158127Y263300D02*
Y265966D01*
X159460Y267299D01*
X160793Y265966D01*
Y263300D01*
Y265299D01*
X158127D01*
X162126Y267299D02*
Y263300D01*
X164792D01*
X166124Y267299D02*
Y263300D01*
X167457Y264633D01*
X168790Y263300D01*
Y267299D01*
X155466Y303132D02*
X154799Y303799D01*
X153466D01*
X152800Y303132D01*
Y300466D01*
X153466Y299800D01*
X154799D01*
X155466Y300466D01*
Y301799D01*
X154133D01*
X156799Y299800D02*
Y303799D01*
X159465Y299800D01*
Y303799D01*
X160797D02*
Y299800D01*
X162797D01*
X163463Y300466D01*
Y303132D01*
X162797Y303799D01*
X160797D01*
X218201Y296800D02*
X222200D01*
X220867D01*
X218201Y299466D01*
X220201Y297466D01*
X222200Y299466D01*
X218868Y303465D02*
X218201Y302798D01*
Y301465D01*
X218868Y300799D01*
X219534D01*
X220201Y301465D01*
Y302798D01*
X220867Y303465D01*
X221534D01*
X222200Y302798D01*
Y301465D01*
X221534Y300799D01*
X218201Y306797D02*
Y305464D01*
X218868Y304797D01*
X221534D01*
X222200Y305464D01*
Y306797D01*
X221534Y307463D01*
X218868D01*
X218201Y306797D01*
Y308796D02*
Y311462D01*
X218868D01*
X221534Y308796D01*
X222200D01*
X268201Y296800D02*
Y299466D01*
Y298133D01*
X272200D01*
Y300799D02*
X268201D01*
Y302798D01*
X268868Y303465D01*
X270201D01*
X270867Y302798D01*
Y300799D01*
X272200Y304797D02*
X271534D01*
Y305464D01*
X272200D01*
Y304797D01*
X268201Y308130D02*
X272200D01*
Y310129D01*
X271534Y310795D01*
X270867D01*
X270201Y310129D01*
Y308130D01*
Y310129D01*
X269534Y310795D01*
X268868D01*
X268201Y310129D01*
Y308130D01*
X272200Y312128D02*
X268201D01*
Y314128D01*
X268868Y314794D01*
X270201D01*
X270867Y314128D01*
Y312128D01*
Y313461D02*
X272200Y314794D01*
X268201Y316127D02*
X272200D01*
Y318127D01*
X271534Y318793D01*
X268868D01*
X268201Y318127D01*
Y316127D01*
X272200Y320126D02*
X271534D01*
Y320792D01*
X272200D01*
Y320126D01*
X268201Y323458D02*
Y324791D01*
Y324125D01*
X272200D01*
Y323458D01*
Y324791D01*
X268201Y326790D02*
X272200D01*
Y328790D01*
X271534Y329456D01*
X268868D01*
X268201Y328790D01*
Y326790D01*
X198201Y226800D02*
X202200D01*
X200867D01*
X198201Y229466D01*
X200201Y227466D01*
X202200Y229466D01*
X198868Y233465D02*
X198201Y232798D01*
Y231465D01*
X198868Y230799D01*
X199534D01*
X200201Y231465D01*
Y232798D01*
X200867Y233465D01*
X201534D01*
X202200Y232798D01*
Y231465D01*
X201534Y230799D01*
X198201Y236797D02*
Y235464D01*
X198868Y234797D01*
X201534D01*
X202200Y235464D01*
Y236797D01*
X201534Y237463D01*
X198868D01*
X198201Y236797D01*
X202200Y241462D02*
Y238796D01*
X199534Y241462D01*
X198868D01*
X198201Y240795D01*
Y239463D01*
X198868Y238796D01*
X238868Y194797D02*
X238201Y194130D01*
Y192797D01*
X238868Y192131D01*
X241534D01*
X242200Y192797D01*
Y194130D01*
X241534Y194797D01*
X240201D01*
Y193464D01*
X242200Y196130D02*
X238201D01*
X242200Y198795D01*
X238201D01*
Y200128D02*
X242200D01*
Y202128D01*
X241534Y202794D01*
X238868D01*
X238201Y202128D01*
Y200128D01*
X178201Y188800D02*
X182200D01*
X180867D01*
X178201Y191466D01*
X180201Y189467D01*
X182200Y191466D01*
X178868Y195465D02*
X178201Y194798D01*
Y193465D01*
X178868Y192799D01*
X179534D01*
X180201Y193465D01*
Y194798D01*
X180867Y195465D01*
X181534D01*
X182200Y194798D01*
Y193465D01*
X181534Y192799D01*
X178201Y196797D02*
Y198130D01*
Y197464D01*
X182200D01*
Y196797D01*
Y198130D01*
X178868Y200130D02*
X178201Y200796D01*
Y202129D01*
X178868Y202796D01*
X181534D01*
X182200Y202129D01*
Y200796D01*
X181534Y200130D01*
X178868D01*
X178201Y226800D02*
X182200D01*
X180867D01*
X178201Y229466D01*
X180201Y227466D01*
X182200Y229466D01*
X178868Y233465D02*
X178201Y232798D01*
Y231465D01*
X178868Y230799D01*
X179534D01*
X180201Y231465D01*
Y232798D01*
X180867Y233465D01*
X181534D01*
X182200Y232798D01*
Y231465D01*
X181534Y230799D01*
X178201Y234797D02*
Y236130D01*
Y235464D01*
X182200D01*
Y234797D01*
Y236130D01*
Y240795D02*
Y238130D01*
X179534Y240795D01*
X178868D01*
X178201Y240129D01*
Y238796D01*
X178868Y238130D01*
X238868Y229466D02*
X238201Y228799D01*
Y227466D01*
X238868Y226800D01*
X241534D01*
X242200Y227466D01*
Y228799D01*
X241534Y229466D01*
X242200Y230799D02*
X239534D01*
X238201Y232132D01*
X239534Y233465D01*
X242200D01*
X240201D01*
Y230799D01*
X242200Y234797D02*
X238201D01*
Y236797D01*
X238868Y237463D01*
X240201D01*
X240867Y236797D01*
Y234797D01*
X238868Y241462D02*
X238201Y240795D01*
Y239463D01*
X238868Y238796D01*
X239534D01*
X240201Y239463D01*
Y240795D01*
X240867Y241462D01*
X241534D01*
X242200Y240795D01*
Y239463D01*
X241534Y238796D01*
X242200Y242795D02*
X238201D01*
X242200Y245461D01*
X238201D01*
X198201Y188300D02*
X202200D01*
X200867D01*
X198201Y190966D01*
X200201Y188967D01*
X202200Y190966D01*
X198868Y194965D02*
X198201Y194298D01*
Y192965D01*
X198868Y192299D01*
X199534D01*
X200201Y192965D01*
Y194298D01*
X200867Y194965D01*
X201534D01*
X202200Y194298D01*
Y192965D01*
X201534Y192299D01*
X198201Y198297D02*
Y196964D01*
X198868Y196297D01*
X201534D01*
X202200Y196964D01*
Y198297D01*
X201534Y198963D01*
X198868D01*
X198201Y198297D01*
X198868Y200296D02*
X198201Y200963D01*
Y202295D01*
X198868Y202962D01*
X201534D01*
X202200Y202295D01*
Y200963D01*
X201534Y200296D01*
X198868D01*
X188201Y188800D02*
X192200D01*
X190867D01*
X188201Y191466D01*
X190201Y189467D01*
X192200Y191466D01*
X188868Y195465D02*
X188201Y194798D01*
Y193465D01*
X188868Y192799D01*
X189534D01*
X190201Y193465D01*
Y194798D01*
X190867Y195465D01*
X191534D01*
X192200Y194798D01*
Y193465D01*
X191534Y192799D01*
X188201Y196797D02*
Y198130D01*
Y197464D01*
X192200D01*
Y196797D01*
Y198130D01*
Y202129D02*
X188201D01*
X190201Y200130D01*
Y202796D01*
X258868Y299466D02*
X258201Y298799D01*
Y297466D01*
X258868Y296800D01*
X261534D01*
X262200Y297466D01*
Y298799D01*
X261534Y299466D01*
X260201D01*
Y298133D01*
X262200Y300799D02*
X258201D01*
X262200Y303465D01*
X258201D01*
Y304797D02*
X262200D01*
Y306797D01*
X261534Y307463D01*
X258868D01*
X258201Y306797D01*
Y304797D01*
X178868Y299466D02*
X178201Y298799D01*
Y297466D01*
X178868Y296800D01*
X181534D01*
X182200Y297466D01*
Y298799D01*
X181534Y299466D01*
X180201D01*
Y298133D01*
X182200Y300799D02*
X178201D01*
X182200Y303465D01*
X178201D01*
Y304797D02*
X182200D01*
Y306797D01*
X181534Y307463D01*
X178868D01*
X178201Y306797D01*
Y304797D01*
X155966Y285299D02*
X153300D01*
Y283299D01*
X154633Y283966D01*
X155299D01*
X155966Y283299D01*
Y281966D01*
X155299Y281300D01*
X153966D01*
X153300Y281966D01*
X157299Y285299D02*
Y282633D01*
X158632Y281300D01*
X159965Y282633D01*
Y285299D01*
X163963Y284632D02*
X163297Y285299D01*
X161964D01*
X161297Y284632D01*
Y283966D01*
X161964Y283299D01*
X163297D01*
X163963Y282633D01*
Y281966D01*
X163297Y281300D01*
X161964D01*
X161297Y281966D01*
X188201Y258800D02*
X192200D01*
X190867D01*
X188201Y261466D01*
X190201Y259466D01*
X192200Y261466D01*
X188868Y265464D02*
X188201Y264798D01*
Y263465D01*
X188868Y262799D01*
X189534D01*
X190201Y263465D01*
Y264798D01*
X190867Y265464D01*
X191534D01*
X192200Y264798D01*
Y263465D01*
X191534Y262799D01*
X188201Y266797D02*
Y268130D01*
Y267464D01*
X192200D01*
Y266797D01*
Y268130D01*
X188201Y272796D02*
Y270130D01*
X190201D01*
X189534Y271463D01*
Y272129D01*
X190201Y272796D01*
X191534D01*
X192200Y272129D01*
Y270796D01*
X191534Y270130D01*
X188201Y226800D02*
X192200D01*
X190867D01*
X188201Y229466D01*
X190201Y227466D01*
X192200Y229466D01*
X188868Y233465D02*
X188201Y232798D01*
Y231465D01*
X188868Y230799D01*
X189534D01*
X190201Y231465D01*
Y232798D01*
X190867Y233465D01*
X191534D01*
X192200Y232798D01*
Y231465D01*
X191534Y230799D01*
X188201Y234797D02*
Y236130D01*
Y235464D01*
X192200D01*
Y234797D01*
Y236130D01*
X188201Y240795D02*
X188868Y239463D01*
X190201Y238130D01*
X191534D01*
X192200Y238796D01*
Y240129D01*
X191534Y240795D01*
X190867D01*
X190201Y240129D01*
Y238130D01*
X258201Y251466D02*
Y254132D01*
Y252799D01*
X262200D01*
Y255465D02*
X258201D01*
Y257465D01*
X258868Y258131D01*
X260201D01*
X260867Y257465D01*
Y255465D01*
X262200Y259464D02*
X261534D01*
Y260130D01*
X262200D01*
Y259464D01*
X258201Y262796D02*
Y264129D01*
Y263463D01*
X262200D01*
Y262796D01*
Y264129D01*
Y266128D02*
X258201D01*
X262200Y268794D01*
X258201D01*
Y270127D02*
Y272793D01*
Y271460D01*
X262200D01*
X278868Y299466D02*
X278201Y298799D01*
Y297466D01*
X278868Y296800D01*
X281534D01*
X282200Y297466D01*
Y298799D01*
X281534Y299466D01*
X280201D01*
Y298133D01*
X282200Y300799D02*
X278201D01*
X282200Y303465D01*
X278201D01*
Y304797D02*
X282200D01*
Y306797D01*
X281534Y307463D01*
X278868D01*
X278201Y306797D01*
Y304797D01*
X208201Y258300D02*
X212200D01*
X210867D01*
X208201Y260966D01*
X210201Y258966D01*
X212200Y260966D01*
X208868Y264965D02*
X208201Y264298D01*
Y262965D01*
X208868Y262299D01*
X209534D01*
X210201Y262965D01*
Y264298D01*
X210867Y264965D01*
X211534D01*
X212200Y264298D01*
Y262965D01*
X211534Y262299D01*
X208201Y268297D02*
Y266964D01*
X208868Y266297D01*
X211534D01*
X212200Y266964D01*
Y268297D01*
X211534Y268963D01*
X208868D01*
X208201Y268297D01*
Y272962D02*
Y270296D01*
X210201D01*
X209534Y271629D01*
Y272295D01*
X210201Y272962D01*
X211534D01*
X212200Y272295D01*
Y270963D01*
X211534Y270296D01*
M02*
