M48
;Layer_Color=9474304
;FILE_FORMAT=2:5
INCH,LZ
;TYPE=PLATED
T1F00S00C0.01200
T2F00S00C0.03543
%
T01
X0158Y02615
X02447Y03653
X025
X02553
X02606
X02659
X02712
X02765
X02818
X02844Y0368
X02897
X0295
X03003
X02977Y03653
X0303
X03056Y0368
X02924Y03653
X02871
X02791Y0368
X02738
X02685
X02632
X02579
X02526
X02473
T02
X018Y021
Y022
X019
Y021
X02
Y022
X021
Y021
X022
Y022
X023
Y021
X024
Y022
X025
Y021
X026
Y022
X027
Y021
X028
Y022
X029
Y021
X03
Y022
Y028
X029
X028
X027
X026
X025
X024
X023
X022
X021
X02
X019
X018
Y029
X019
X02
X021
X022
X023
X024
X025
X026
X027
X028
X029
X03
M30
