G04*
G04 #@! TF.GenerationSoftware,Altium Limited,Altium Designer,18.0.12 (696)*
G04*
G04 Layer_Color=128*
%FSLAX25Y25*%
%MOIN*%
G70*
G01*
G75*
%ADD22R,0.01181X0.06299*%
D22*
X252878Y340413D02*
D03*
Y354587D02*
D03*
X254847Y340413D02*
D03*
Y354587D02*
D03*
X256815Y340413D02*
D03*
Y354587D02*
D03*
X258784Y340413D02*
D03*
Y354587D02*
D03*
X260752Y340413D02*
D03*
Y354587D02*
D03*
X262720Y340413D02*
D03*
Y354587D02*
D03*
X264689Y340413D02*
D03*
Y354587D02*
D03*
X266657Y340413D02*
D03*
Y354587D02*
D03*
X268626Y340413D02*
D03*
Y354587D02*
D03*
X270595Y340413D02*
D03*
Y354587D02*
D03*
X272563Y340413D02*
D03*
Y354587D02*
D03*
X274532Y340413D02*
D03*
Y354587D02*
D03*
X276500Y340413D02*
D03*
Y354587D02*
D03*
X278468Y340413D02*
D03*
Y354587D02*
D03*
X280437Y340413D02*
D03*
Y354587D02*
D03*
X282405Y340413D02*
D03*
Y354587D02*
D03*
X284374Y340413D02*
D03*
Y354587D02*
D03*
X286343Y340413D02*
D03*
Y354587D02*
D03*
X288311Y340413D02*
D03*
Y354587D02*
D03*
X290280Y340413D02*
D03*
Y354587D02*
D03*
X292248Y340413D02*
D03*
Y354587D02*
D03*
X294216Y340413D02*
D03*
Y354587D02*
D03*
X296185Y340413D02*
D03*
Y354587D02*
D03*
X298153Y340413D02*
D03*
Y354587D02*
D03*
X300122Y340413D02*
D03*
Y354587D02*
D03*
M02*
