G04*
G04 #@! TF.GenerationSoftware,Altium Limited,Altium Designer,18.0.12 (696)*
G04*
G04 Layer_Color=8388736*
%FSLAX25Y25*%
%MOIN*%
G70*
G01*
G75*
G04:AMPARAMS|DCode=15|XSize=47.37mil|YSize=19.81mil|CornerRadius=6.95mil|HoleSize=0mil|Usage=FLASHONLY|Rotation=180.000|XOffset=0mil|YOffset=0mil|HoleType=Round|Shape=RoundedRectangle|*
%AMROUNDEDRECTD15*
21,1,0.04737,0.00591,0,0,180.0*
21,1,0.03347,0.01981,0,0,180.0*
1,1,0.01391,-0.01673,0.00295*
1,1,0.01391,0.01673,0.00295*
1,1,0.01391,0.01673,-0.00295*
1,1,0.01391,-0.01673,-0.00295*
%
%ADD15ROUNDEDRECTD15*%
G04:AMPARAMS|DCode=16|XSize=59.18mil|YSize=86.74mil|CornerRadius=16.8mil|HoleSize=0mil|Usage=FLASHONLY|Rotation=180.000|XOffset=0mil|YOffset=0mil|HoleType=Round|Shape=RoundedRectangle|*
%AMROUNDEDRECTD16*
21,1,0.05918,0.05315,0,0,180.0*
21,1,0.02559,0.08674,0,0,180.0*
1,1,0.03359,-0.01280,0.02657*
1,1,0.03359,0.01280,0.02657*
1,1,0.03359,0.01280,-0.02657*
1,1,0.03359,-0.01280,-0.02657*
%
%ADD16ROUNDEDRECTD16*%
%ADD17R,0.06706X0.06706*%
%ADD18C,0.06706*%
D15*
X179000Y166189D02*
D03*
Y168157D02*
D03*
Y170126D02*
D03*
Y172095D02*
D03*
Y174063D02*
D03*
Y176031D02*
D03*
Y178000D02*
D03*
Y179969D02*
D03*
Y181937D02*
D03*
Y183905D02*
D03*
Y185874D02*
D03*
Y187843D02*
D03*
Y189811D02*
D03*
Y191779D02*
D03*
Y193748D02*
D03*
D16*
X189630Y157134D02*
D03*
Y202803D02*
D03*
D17*
X120000Y110000D02*
D03*
D18*
Y120000D02*
D03*
Y130000D02*
D03*
Y140000D02*
D03*
Y150000D02*
D03*
Y160000D02*
D03*
Y170000D02*
D03*
Y180000D02*
D03*
Y190000D02*
D03*
Y200000D02*
D03*
Y210000D02*
D03*
Y220000D02*
D03*
Y230000D02*
D03*
Y240000D02*
D03*
Y250000D02*
D03*
Y260000D02*
D03*
M02*
