G04*
G04 #@! TF.GenerationSoftware,Altium Limited,Altium Designer,18.0.12 (696)*
G04*
G04 Layer_Color=8421504*
%FSLAX25Y25*%
%MOIN*%
G70*
G01*
G75*
G04:AMPARAMS|DCode=15|XSize=133.86mil|YSize=70.87mil|CornerRadius=17.72mil|HoleSize=0mil|Usage=FLASHONLY|Rotation=180.000|XOffset=0mil|YOffset=0mil|HoleType=Round|Shape=RoundedRectangle|*
%AMROUNDEDRECTD15*
21,1,0.13386,0.03543,0,0,180.0*
21,1,0.09843,0.07087,0,0,180.0*
1,1,0.03543,-0.04921,0.01772*
1,1,0.03543,0.04921,0.01772*
1,1,0.03543,0.04921,-0.01772*
1,1,0.03543,-0.04921,-0.01772*
%
%ADD15ROUNDEDRECTD15*%
G04:AMPARAMS|DCode=16|XSize=7.87mil|YSize=25.2mil|CornerRadius=1.97mil|HoleSize=0mil|Usage=FLASHONLY|Rotation=270.000|XOffset=0mil|YOffset=0mil|HoleType=Round|Shape=RoundedRectangle|*
%AMROUNDEDRECTD16*
21,1,0.00787,0.02126,0,0,270.0*
21,1,0.00394,0.02520,0,0,270.0*
1,1,0.00394,-0.01063,-0.00197*
1,1,0.00394,-0.01063,0.00197*
1,1,0.00394,0.01063,0.00197*
1,1,0.00394,0.01063,-0.00197*
%
%ADD16ROUNDEDRECTD16*%
%ADD17R,0.03543X0.01575*%
%ADD18R,0.03189X0.01181*%
%ADD19R,0.02008X0.05512*%
%ADD20R,0.01417X0.05748*%
%ADD21R,0.02008X0.01772*%
%ADD22R,0.01417X0.01772*%
%ADD23R,0.02520X0.00787*%
%ADD24R,0.07087X0.12598*%
G04:AMPARAMS|DCode=25|XSize=133.86mil|YSize=70.87mil|CornerRadius=17.72mil|HoleSize=0mil|Usage=FLASHONLY|Rotation=270.000|XOffset=0mil|YOffset=0mil|HoleType=Round|Shape=RoundedRectangle|*
%AMROUNDEDRECTD25*
21,1,0.13386,0.03543,0,0,270.0*
21,1,0.09843,0.07087,0,0,270.0*
1,1,0.03543,-0.01772,-0.04921*
1,1,0.03543,-0.01772,0.04921*
1,1,0.03543,0.01772,0.04921*
1,1,0.03543,0.01772,-0.04921*
%
%ADD25ROUNDEDRECTD25*%
%ADD26R,0.05906X0.03937*%
%ADD27R,0.02646X0.00787*%
%ADD28R,0.03071X0.03937*%
%ADD29R,0.04528X0.05709*%
%ADD30R,0.05118X0.03347*%
%ADD31R,0.03347X0.05118*%
%ADD32R,0.05709X0.04528*%
%ADD33R,0.04724X0.04724*%
%ADD34R,0.06299X0.05906*%
%ADD35R,0.05512X0.05472*%
%ADD36R,0.19134X0.13228*%
%ADD37R,0.11800X0.06300*%
%ADD38R,0.27559X0.21463*%
%ADD39R,0.03150X0.00984*%
%ADD40R,0.00984X0.03150*%
G04:AMPARAMS|DCode=41|XSize=137.8mil|YSize=137.8mil|CornerRadius=6.89mil|HoleSize=0mil|Usage=FLASHONLY|Rotation=270.000|XOffset=0mil|YOffset=0mil|HoleType=Round|Shape=RoundedRectangle|*
%AMROUNDEDRECTD41*
21,1,0.13780,0.12402,0,0,270.0*
21,1,0.12402,0.13780,0,0,270.0*
1,1,0.01378,-0.06201,-0.06201*
1,1,0.01378,-0.06201,0.06201*
1,1,0.01378,0.06201,0.06201*
1,1,0.01378,0.06201,-0.06201*
%
%ADD41ROUNDEDRECTD41*%
%ADD42R,0.25591X0.11811*%
G36*
X158204Y257165D02*
X163618D01*
Y251751D01*
X158204D01*
Y257165D01*
D02*
G37*
G36*
Y263563D02*
X163618D01*
Y258149D01*
X158204D01*
Y263563D01*
D02*
G37*
G36*
X164602Y257165D02*
X170016D01*
Y251751D01*
X164602D01*
Y257165D01*
D02*
G37*
G36*
Y263563D02*
X170016D01*
Y258149D01*
X164602D01*
Y263563D01*
D02*
G37*
D15*
X121000Y107000D02*
D03*
Y134000D02*
D03*
Y116000D02*
D03*
Y125000D02*
D03*
X175500Y217000D02*
D03*
X200000D02*
D03*
D16*
X118700Y175825D02*
D03*
Y177400D02*
D03*
Y166376D02*
D03*
Y167951D02*
D03*
Y153778D02*
D03*
Y155353D02*
D03*
Y156928D02*
D03*
Y158502D02*
D03*
Y160077D02*
D03*
Y161652D02*
D03*
Y163227D02*
D03*
Y164802D02*
D03*
Y169526D02*
D03*
Y171101D02*
D03*
Y172676D02*
D03*
Y174250D02*
D03*
Y178975D02*
D03*
Y180550D02*
D03*
Y182124D02*
D03*
Y183699D02*
D03*
Y185274D02*
D03*
Y186849D02*
D03*
Y188424D02*
D03*
Y189998D02*
D03*
Y191573D02*
D03*
Y193148D02*
D03*
Y194723D02*
D03*
Y196298D02*
D03*
Y197872D02*
D03*
Y199447D02*
D03*
Y201022D02*
D03*
Y202597D02*
D03*
Y204172D02*
D03*
Y205747D02*
D03*
Y207321D02*
D03*
Y208896D02*
D03*
Y210471D02*
D03*
Y212046D02*
D03*
Y213620D02*
D03*
D17*
X127676Y222026D02*
D03*
Y146947D02*
D03*
D18*
X118405Y222223D02*
D03*
Y146750D02*
D03*
D19*
X130176Y151258D02*
D03*
Y217715D02*
D03*
D20*
X115747Y217971D02*
D03*
Y151002D02*
D03*
D21*
X130176Y208109D02*
D03*
Y212833D02*
D03*
Y193935D02*
D03*
Y198660D02*
D03*
Y203384D02*
D03*
Y175038D02*
D03*
Y179762D02*
D03*
Y189211D02*
D03*
Y184487D02*
D03*
Y165589D02*
D03*
Y170313D02*
D03*
Y160865D02*
D03*
Y156140D02*
D03*
D22*
X115747Y160865D02*
D03*
Y156140D02*
D03*
Y175038D02*
D03*
Y179762D02*
D03*
Y170313D02*
D03*
Y165589D02*
D03*
Y193935D02*
D03*
Y189211D02*
D03*
Y184487D02*
D03*
Y203384D02*
D03*
Y198660D02*
D03*
Y208109D02*
D03*
Y212833D02*
D03*
D23*
X118700Y215195D02*
D03*
D24*
X165424Y300300D02*
D03*
X143376D02*
D03*
D25*
X209000Y285000D02*
D03*
X114500Y239500D02*
D03*
Y260500D02*
D03*
X190500Y285000D02*
D03*
X223000Y329500D02*
D03*
D26*
X216500Y262618D02*
D03*
Y252382D02*
D03*
Y257500D02*
D03*
Y238618D02*
D03*
Y228382D02*
D03*
Y233500D02*
D03*
D27*
X198701Y143173D02*
D03*
Y141598D02*
D03*
Y144748D02*
D03*
Y138449D02*
D03*
Y136874D02*
D03*
Y140024D02*
D03*
Y133724D02*
D03*
Y132150D02*
D03*
Y135299D02*
D03*
Y129000D02*
D03*
Y127425D02*
D03*
Y130575D02*
D03*
Y122701D02*
D03*
Y121126D02*
D03*
Y125850D02*
D03*
Y124276D02*
D03*
Y119551D02*
D03*
Y117976D02*
D03*
Y116402D02*
D03*
Y114827D02*
D03*
Y113252D02*
D03*
X211299Y144748D02*
D03*
Y143173D02*
D03*
Y140024D02*
D03*
Y138449D02*
D03*
Y141598D02*
D03*
Y135299D02*
D03*
Y133724D02*
D03*
Y136874D02*
D03*
Y130575D02*
D03*
Y129000D02*
D03*
Y132150D02*
D03*
Y125850D02*
D03*
Y124276D02*
D03*
Y127425D02*
D03*
Y122701D02*
D03*
Y121126D02*
D03*
Y117976D02*
D03*
Y116402D02*
D03*
Y119551D02*
D03*
Y114827D02*
D03*
Y113252D02*
D03*
D28*
X198701Y147898D02*
D03*
Y110102D02*
D03*
X211299Y147898D02*
D03*
Y110102D02*
D03*
D29*
X224157Y135800D02*
D03*
X231243D02*
D03*
X224257Y144600D02*
D03*
X231343D02*
D03*
X224257Y153300D02*
D03*
X231343D02*
D03*
X188543Y229500D02*
D03*
X181457D02*
D03*
X144543Y261000D02*
D03*
X137457D02*
D03*
X120343Y300800D02*
D03*
X113257D02*
D03*
X120543Y292000D02*
D03*
X113457D02*
D03*
X120543Y283000D02*
D03*
X113457D02*
D03*
X120543Y274000D02*
D03*
X113457D02*
D03*
D30*
X203500Y236653D02*
D03*
Y243347D02*
D03*
X196500Y236653D02*
D03*
Y243347D02*
D03*
X188500Y243347D02*
D03*
Y236653D02*
D03*
X181500Y243347D02*
D03*
Y236653D02*
D03*
X192000Y252153D02*
D03*
Y258846D02*
D03*
X199000Y252153D02*
D03*
Y258846D02*
D03*
D31*
X192154Y266500D02*
D03*
X198846D02*
D03*
X137654Y247000D02*
D03*
X144346D02*
D03*
X144346Y240000D02*
D03*
X137654D02*
D03*
D32*
X209500Y311543D02*
D03*
Y304457D02*
D03*
X201000Y311543D02*
D03*
Y304457D02*
D03*
X192500Y311543D02*
D03*
Y304457D02*
D03*
X184000Y311543D02*
D03*
Y304457D02*
D03*
X175500Y311543D02*
D03*
Y304457D02*
D03*
D33*
X226937Y277913D02*
D03*
X219063D02*
D03*
D34*
X223000Y290709D02*
D03*
D35*
X188500Y335000D02*
D03*
Y327756D02*
D03*
D36*
X204177Y331378D02*
D03*
D37*
X141106Y339000D02*
D03*
Y321400D02*
D03*
D38*
X167800Y330100D02*
D03*
D39*
X173953Y264547D02*
D03*
Y262578D02*
D03*
Y260610D02*
D03*
Y258641D02*
D03*
Y256673D02*
D03*
Y254704D02*
D03*
Y252736D02*
D03*
Y250767D02*
D03*
X154267D02*
D03*
Y252736D02*
D03*
Y254704D02*
D03*
Y256673D02*
D03*
Y258641D02*
D03*
Y260610D02*
D03*
Y262578D02*
D03*
Y264547D02*
D03*
D40*
X171000Y247814D02*
D03*
X169031D02*
D03*
X163126D02*
D03*
X157220Y267500D02*
D03*
X159189D02*
D03*
X161157D02*
D03*
X163126D02*
D03*
X165094D02*
D03*
X167063D02*
D03*
X169031D02*
D03*
X171000D02*
D03*
X161157Y247814D02*
D03*
X159189D02*
D03*
X157220D02*
D03*
X165094D02*
D03*
X167063D02*
D03*
D41*
X164110Y257657D02*
D03*
D42*
X118185Y330212D02*
D03*
Y313874D02*
D03*
M02*
