G04*
G04 #@! TF.GenerationSoftware,Altium Limited,Altium Designer,18.0.12 (696)*
G04*
G04 Layer_Color=16711935*
%FSLAX25Y25*%
%MOIN*%
G70*
G01*
G75*
%ADD69C,0.00800*%
%ADD70C,0.02600*%
D69*
X260000Y340000D02*
D03*
Y110000D02*
D03*
D70*
X156400Y186800D02*
D03*
X166924Y124276D02*
D03*
X154200Y182200D02*
D03*
X136200Y191800D02*
D03*
X238600Y149000D02*
D03*
X157100Y208400D02*
D03*
X159100Y207200D02*
D03*
X165094Y203705D02*
D03*
X192500Y145000D02*
D03*
X157220Y275300D02*
D03*
X128500Y233000D02*
D03*
X127676Y141187D02*
D03*
X135937Y212833D02*
D03*
X109987Y156140D02*
D03*
Y212833D02*
D03*
Y203384D02*
D03*
Y193935D02*
D03*
Y165589D02*
D03*
Y175038D02*
D03*
Y184487D02*
D03*
X108500Y134000D02*
D03*
X133600Y129500D02*
D03*
X131400D02*
D03*
X139056Y203944D02*
D03*
X137500Y205500D02*
D03*
X154244Y136244D02*
D03*
X156500Y164500D02*
D03*
X155800Y137800D02*
D03*
X158056Y162944D02*
D03*
X162389Y169225D02*
D03*
X161444Y141444D02*
D03*
X163900Y167625D02*
D03*
X163000Y143000D02*
D03*
X170011Y172400D02*
D03*
X169000Y146500D02*
D03*
X168456Y173956D02*
D03*
X167444Y144944D02*
D03*
X175900Y177100D02*
D03*
X175000Y150500D02*
D03*
X174344Y178656D02*
D03*
X173444Y148944D02*
D03*
X163126Y204849D02*
D03*
X167063Y202563D02*
D03*
X161157Y205991D02*
D03*
X107000Y274000D02*
D03*
X192500Y149500D02*
D03*
X171000Y242000D02*
D03*
X179000Y279500D02*
D03*
X177500Y281500D02*
D03*
X176000Y283500D02*
D03*
X174500Y285500D02*
D03*
X173175Y287563D02*
D03*
X172000Y289500D02*
D03*
X224500Y128500D02*
D03*
X227000D02*
D03*
X229500D02*
D03*
X232000D02*
D03*
X234500D02*
D03*
X237000D02*
D03*
X165500Y288000D02*
D03*
X204500Y263500D02*
D03*
X172100Y202700D02*
D03*
X162000Y122000D02*
D03*
Y119500D02*
D03*
Y117000D02*
D03*
Y114500D02*
D03*
Y112000D02*
D03*
Y109500D02*
D03*
X220200Y108500D02*
D03*
X189500Y107000D02*
D03*
X184500Y222500D02*
D03*
X206500Y271500D02*
D03*
X132000Y339000D02*
D03*
X168500Y262000D02*
D03*
X159500D02*
D03*
Y253000D02*
D03*
X168500D02*
D03*
X216543Y304457D02*
D03*
X130000Y261000D02*
D03*
X179359Y258641D02*
D03*
X144000Y276000D02*
D03*
X153500Y244000D02*
D03*
X215957Y311543D02*
D03*
X144346Y251654D02*
D03*
M02*
