G04*
G04 #@! TF.GenerationSoftware,Altium Limited,Altium Designer,18.0.12 (696)*
G04*
G04 Layer_Color=8388736*
%FSLAX25Y25*%
%MOIN*%
G70*
G01*
G75*
%ADD39R,0.03150X0.00984*%
%ADD40R,0.00984X0.03150*%
G04:AMPARAMS|DCode=43|XSize=141.86mil|YSize=78.87mil|CornerRadius=21.72mil|HoleSize=0mil|Usage=FLASHONLY|Rotation=180.000|XOffset=0mil|YOffset=0mil|HoleType=Round|Shape=RoundedRectangle|*
%AMROUNDEDRECTD43*
21,1,0.14186,0.03543,0,0,180.0*
21,1,0.09843,0.07887,0,0,180.0*
1,1,0.04343,-0.04921,0.01772*
1,1,0.04343,0.04921,0.01772*
1,1,0.04343,0.04921,-0.01772*
1,1,0.04343,-0.04921,-0.01772*
%
%ADD43ROUNDEDRECTD43*%
G04:AMPARAMS|DCode=44|XSize=15.87mil|YSize=33.2mil|CornerRadius=5.97mil|HoleSize=0mil|Usage=FLASHONLY|Rotation=270.000|XOffset=0mil|YOffset=0mil|HoleType=Round|Shape=RoundedRectangle|*
%AMROUNDEDRECTD44*
21,1,0.01587,0.02126,0,0,270.0*
21,1,0.00394,0.03320,0,0,270.0*
1,1,0.01194,-0.01063,-0.00197*
1,1,0.01194,-0.01063,0.00197*
1,1,0.01194,0.01063,0.00197*
1,1,0.01194,0.01063,-0.00197*
%
%ADD44ROUNDEDRECTD44*%
%ADD45R,0.04343X0.02375*%
%ADD46R,0.03989X0.01981*%
%ADD47R,0.02808X0.06312*%
%ADD48R,0.02217X0.06548*%
%ADD49R,0.02808X0.02572*%
%ADD50R,0.02217X0.02572*%
%ADD51R,0.03320X0.01587*%
%ADD52R,0.07887X0.13398*%
G04:AMPARAMS|DCode=53|XSize=141.86mil|YSize=78.87mil|CornerRadius=21.72mil|HoleSize=0mil|Usage=FLASHONLY|Rotation=270.000|XOffset=0mil|YOffset=0mil|HoleType=Round|Shape=RoundedRectangle|*
%AMROUNDEDRECTD53*
21,1,0.14186,0.03543,0,0,270.0*
21,1,0.09843,0.07887,0,0,270.0*
1,1,0.04343,-0.01772,-0.04921*
1,1,0.04343,-0.01772,0.04921*
1,1,0.04343,0.01772,0.04921*
1,1,0.04343,0.01772,-0.04921*
%
%ADD53ROUNDEDRECTD53*%
%ADD54R,0.06706X0.04737*%
%ADD55R,0.03446X0.01587*%
%ADD56R,0.03871X0.04737*%
%ADD57R,0.05328X0.06509*%
%ADD58R,0.05918X0.04147*%
%ADD59R,0.04147X0.05918*%
%ADD60R,0.06509X0.05328*%
%ADD61R,0.05524X0.05524*%
%ADD62R,0.07099X0.06706*%
%ADD63R,0.06312X0.06272*%
%ADD64R,0.19934X0.14028*%
%ADD65R,0.12600X0.07100*%
%ADD66R,0.28359X0.22263*%
G04:AMPARAMS|DCode=67|XSize=145.8mil|YSize=145.8mil|CornerRadius=10.89mil|HoleSize=0mil|Usage=FLASHONLY|Rotation=270.000|XOffset=0mil|YOffset=0mil|HoleType=Round|Shape=RoundedRectangle|*
%AMROUNDEDRECTD67*
21,1,0.14580,0.12402,0,0,270.0*
21,1,0.12402,0.14580,0,0,270.0*
1,1,0.02178,-0.06201,-0.06201*
1,1,0.02178,-0.06201,0.06201*
1,1,0.02178,0.06201,0.06201*
1,1,0.02178,0.06201,-0.06201*
%
%ADD67ROUNDEDRECTD67*%
%ADD68R,0.26391X0.12611*%
%ADD69C,0.00800*%
%ADD70C,0.02600*%
G36*
X152496Y250079D02*
Y251456D01*
X156038D01*
Y250079D01*
X152496D01*
D02*
G37*
G36*
Y252046D02*
Y253425D01*
X156038D01*
Y252046D01*
X152496D01*
D02*
G37*
G36*
Y254015D02*
Y255394D01*
X156038D01*
Y254015D01*
X152496D01*
D02*
G37*
G36*
Y255983D02*
Y257362D01*
X156038D01*
Y255983D01*
X152496D01*
D02*
G37*
G36*
X157909Y246043D02*
X156531D01*
Y249586D01*
X157909D01*
Y246043D01*
D02*
G37*
G36*
X159878D02*
X158500D01*
Y249586D01*
X159878D01*
Y246043D01*
D02*
G37*
G36*
X161846D02*
X160468D01*
Y249586D01*
X161846D01*
Y246043D01*
D02*
G37*
G36*
X163815D02*
X162437D01*
Y249586D01*
X163815D01*
Y246043D01*
D02*
G37*
G36*
X152496Y257952D02*
Y259331D01*
X156038D01*
Y257952D01*
X152496D01*
D02*
G37*
G36*
Y259921D02*
Y261298D01*
X156038D01*
Y259921D01*
X152496D01*
D02*
G37*
G36*
Y261890D02*
Y263267D01*
X156038D01*
Y261890D01*
X152496D01*
D02*
G37*
G36*
Y263858D02*
Y265235D01*
X156038D01*
Y263858D01*
X152496D01*
D02*
G37*
G36*
X156531Y269271D02*
X157909D01*
Y265728D01*
X156531D01*
Y269271D01*
D02*
G37*
G36*
X158500D02*
X159878D01*
Y265728D01*
X158500D01*
Y269271D01*
D02*
G37*
G36*
X160468D02*
X161846D01*
Y265728D01*
X160468D01*
Y269271D01*
D02*
G37*
G36*
X162437D02*
X163815D01*
Y265728D01*
X162437D01*
Y269271D01*
D02*
G37*
G36*
X165783Y246043D02*
X164405D01*
Y249586D01*
X165783D01*
Y246043D01*
D02*
G37*
G36*
X167752D02*
X166374D01*
Y249586D01*
X167752D01*
Y246043D01*
D02*
G37*
G36*
X169720D02*
X168342D01*
Y249586D01*
X169720D01*
Y246043D01*
D02*
G37*
G36*
X171689D02*
X170311D01*
Y249586D01*
X171689D01*
Y246043D01*
D02*
G37*
G36*
X175724Y251456D02*
Y250079D01*
X172181D01*
Y251456D01*
X175724D01*
D02*
G37*
G36*
Y253425D02*
Y252046D01*
X172181D01*
Y253425D01*
X175724D01*
D02*
G37*
G36*
Y255394D02*
Y254015D01*
X172181D01*
Y255394D01*
X175724D01*
D02*
G37*
G36*
Y257362D02*
Y255983D01*
X172181D01*
Y257362D01*
X175724D01*
D02*
G37*
G36*
X164405Y269271D02*
X165783D01*
Y265728D01*
X164405D01*
Y269271D01*
D02*
G37*
G36*
X166374D02*
X167752D01*
Y265728D01*
X166374D01*
Y269271D01*
D02*
G37*
G36*
X168342D02*
X169720D01*
Y265728D01*
X168342D01*
Y269271D01*
D02*
G37*
G36*
X170311D02*
X171689D01*
Y265728D01*
X170311D01*
Y269271D01*
D02*
G37*
G36*
X175724Y259331D02*
Y257952D01*
X172181D01*
Y259331D01*
X175724D01*
D02*
G37*
G36*
Y261298D02*
Y259921D01*
X172181D01*
Y261298D01*
X175724D01*
D02*
G37*
G36*
Y263267D02*
Y261890D01*
X172181D01*
Y263267D01*
X175724D01*
D02*
G37*
G36*
Y265235D02*
Y263858D01*
X172181D01*
Y265235D01*
X175724D01*
D02*
G37*
D39*
X173953Y264547D02*
D03*
Y262578D02*
D03*
Y260610D02*
D03*
Y258641D02*
D03*
Y256673D02*
D03*
Y254704D02*
D03*
Y252736D02*
D03*
Y250767D02*
D03*
X154267D02*
D03*
Y252736D02*
D03*
Y254704D02*
D03*
Y256673D02*
D03*
Y258641D02*
D03*
Y260610D02*
D03*
Y262578D02*
D03*
Y264547D02*
D03*
D40*
X171000Y247814D02*
D03*
X169031D02*
D03*
X163126D02*
D03*
X157220Y267500D02*
D03*
X159189D02*
D03*
X161157D02*
D03*
X163126D02*
D03*
X165094D02*
D03*
X167063D02*
D03*
X169031D02*
D03*
X171000D02*
D03*
X161157Y247814D02*
D03*
X159189D02*
D03*
X157220D02*
D03*
X165094D02*
D03*
X167063D02*
D03*
D43*
X121000Y107000D02*
D03*
Y134000D02*
D03*
Y116000D02*
D03*
Y125000D02*
D03*
X175500Y217000D02*
D03*
X200000D02*
D03*
D44*
X118700Y175825D02*
D03*
Y177400D02*
D03*
Y166376D02*
D03*
Y167951D02*
D03*
Y153778D02*
D03*
Y155353D02*
D03*
Y156928D02*
D03*
Y158502D02*
D03*
Y160077D02*
D03*
Y161652D02*
D03*
Y163227D02*
D03*
Y164802D02*
D03*
Y169526D02*
D03*
Y171101D02*
D03*
Y172676D02*
D03*
Y174250D02*
D03*
Y178975D02*
D03*
Y180550D02*
D03*
Y182124D02*
D03*
Y183699D02*
D03*
Y185274D02*
D03*
Y186849D02*
D03*
Y188424D02*
D03*
Y189998D02*
D03*
Y191573D02*
D03*
Y193148D02*
D03*
Y194723D02*
D03*
Y196298D02*
D03*
Y197872D02*
D03*
Y199447D02*
D03*
Y201022D02*
D03*
Y202597D02*
D03*
Y204172D02*
D03*
Y205747D02*
D03*
Y207321D02*
D03*
Y208896D02*
D03*
Y210471D02*
D03*
Y212046D02*
D03*
Y213620D02*
D03*
D45*
X127676Y222026D02*
D03*
Y146947D02*
D03*
D46*
X118405Y222223D02*
D03*
Y146750D02*
D03*
D47*
X130176Y151258D02*
D03*
Y217715D02*
D03*
D48*
X115747Y217971D02*
D03*
Y151002D02*
D03*
D49*
X130176Y208109D02*
D03*
Y212833D02*
D03*
Y193935D02*
D03*
Y198660D02*
D03*
Y203384D02*
D03*
Y175038D02*
D03*
Y179762D02*
D03*
Y189211D02*
D03*
Y184487D02*
D03*
Y165589D02*
D03*
Y170313D02*
D03*
Y160865D02*
D03*
Y156140D02*
D03*
D50*
X115747Y160865D02*
D03*
Y156140D02*
D03*
Y175038D02*
D03*
Y179762D02*
D03*
Y170313D02*
D03*
Y165589D02*
D03*
Y193935D02*
D03*
Y189211D02*
D03*
Y184487D02*
D03*
Y203384D02*
D03*
Y198660D02*
D03*
Y208109D02*
D03*
Y212833D02*
D03*
D51*
X118700Y215195D02*
D03*
D52*
X165424Y300300D02*
D03*
X143376D02*
D03*
D53*
X209000Y285000D02*
D03*
X114500Y239500D02*
D03*
Y260500D02*
D03*
X190500Y285000D02*
D03*
X223000Y329500D02*
D03*
D54*
X216500Y262618D02*
D03*
Y252382D02*
D03*
Y257500D02*
D03*
Y238618D02*
D03*
Y228382D02*
D03*
Y233500D02*
D03*
D55*
X198701Y143173D02*
D03*
Y141598D02*
D03*
Y144748D02*
D03*
Y138449D02*
D03*
Y136874D02*
D03*
Y140024D02*
D03*
Y133724D02*
D03*
Y132150D02*
D03*
Y135299D02*
D03*
Y129000D02*
D03*
Y127425D02*
D03*
Y130575D02*
D03*
Y122701D02*
D03*
Y121126D02*
D03*
Y125850D02*
D03*
Y124276D02*
D03*
Y119551D02*
D03*
Y117976D02*
D03*
Y116402D02*
D03*
Y114827D02*
D03*
Y113252D02*
D03*
X211299Y144748D02*
D03*
Y143173D02*
D03*
Y140024D02*
D03*
Y138449D02*
D03*
Y141598D02*
D03*
Y135299D02*
D03*
Y133724D02*
D03*
Y136874D02*
D03*
Y130575D02*
D03*
Y129000D02*
D03*
Y132150D02*
D03*
Y125850D02*
D03*
Y124276D02*
D03*
Y127425D02*
D03*
Y122701D02*
D03*
Y121126D02*
D03*
Y117976D02*
D03*
Y116402D02*
D03*
Y119551D02*
D03*
Y114827D02*
D03*
Y113252D02*
D03*
D56*
X198701Y147898D02*
D03*
Y110102D02*
D03*
X211299Y147898D02*
D03*
Y110102D02*
D03*
D57*
X224157Y135800D02*
D03*
X231243D02*
D03*
X224257Y144600D02*
D03*
X231343D02*
D03*
X224257Y153300D02*
D03*
X231343D02*
D03*
X188543Y229500D02*
D03*
X181457D02*
D03*
X144543Y261000D02*
D03*
X137457D02*
D03*
X120343Y300800D02*
D03*
X113257D02*
D03*
X120543Y292000D02*
D03*
X113457D02*
D03*
X120543Y283000D02*
D03*
X113457D02*
D03*
X120543Y274000D02*
D03*
X113457D02*
D03*
D58*
X203500Y236653D02*
D03*
Y243347D02*
D03*
X196500Y236653D02*
D03*
Y243347D02*
D03*
X188500Y243347D02*
D03*
Y236653D02*
D03*
X181500Y243347D02*
D03*
Y236653D02*
D03*
X192000Y252153D02*
D03*
Y258846D02*
D03*
X199000Y252153D02*
D03*
Y258846D02*
D03*
D59*
X192154Y266500D02*
D03*
X198846D02*
D03*
X137654Y247000D02*
D03*
X144346D02*
D03*
X144346Y240000D02*
D03*
X137654D02*
D03*
D60*
X209500Y311543D02*
D03*
Y304457D02*
D03*
X201000Y311543D02*
D03*
Y304457D02*
D03*
X192500Y311543D02*
D03*
Y304457D02*
D03*
X184000Y311543D02*
D03*
Y304457D02*
D03*
X175500Y311543D02*
D03*
Y304457D02*
D03*
D61*
X226937Y277913D02*
D03*
X219063D02*
D03*
D62*
X223000Y290709D02*
D03*
D63*
X188500Y335000D02*
D03*
Y327756D02*
D03*
D64*
X204177Y331378D02*
D03*
D65*
X141106Y339000D02*
D03*
Y321400D02*
D03*
D66*
X167800Y330100D02*
D03*
D67*
X164110Y257657D02*
D03*
D68*
X118185Y330212D02*
D03*
Y313874D02*
D03*
D69*
X260000Y340000D02*
D03*
Y110000D02*
D03*
D70*
X156400Y186800D02*
D03*
X166924Y124276D02*
D03*
X154200Y182200D02*
D03*
X136200Y191800D02*
D03*
X238600Y149000D02*
D03*
X157100Y208400D02*
D03*
X159100Y207200D02*
D03*
X165094Y203705D02*
D03*
X192500Y145000D02*
D03*
X157220Y275300D02*
D03*
X128500Y233000D02*
D03*
X127676Y141187D02*
D03*
X135937Y212833D02*
D03*
X109987Y156140D02*
D03*
Y212833D02*
D03*
Y203384D02*
D03*
Y193935D02*
D03*
Y165589D02*
D03*
Y175038D02*
D03*
Y184487D02*
D03*
X108500Y134000D02*
D03*
X133600Y129500D02*
D03*
X131400D02*
D03*
X139056Y203944D02*
D03*
X137500Y205500D02*
D03*
X154244Y136244D02*
D03*
X156500Y164500D02*
D03*
X155800Y137800D02*
D03*
X158056Y162944D02*
D03*
X162389Y169225D02*
D03*
X161444Y141444D02*
D03*
X163900Y167625D02*
D03*
X163000Y143000D02*
D03*
X170011Y172400D02*
D03*
X169000Y146500D02*
D03*
X168456Y173956D02*
D03*
X167444Y144944D02*
D03*
X175900Y177100D02*
D03*
X175000Y150500D02*
D03*
X174344Y178656D02*
D03*
X173444Y148944D02*
D03*
X163126Y204849D02*
D03*
X167063Y202563D02*
D03*
X161157Y205991D02*
D03*
X107000Y274000D02*
D03*
X192500Y149500D02*
D03*
X171000Y242000D02*
D03*
X179000Y279500D02*
D03*
X177500Y281500D02*
D03*
X176000Y283500D02*
D03*
X174500Y285500D02*
D03*
X173175Y287563D02*
D03*
X172000Y289500D02*
D03*
X224500Y128500D02*
D03*
X227000D02*
D03*
X229500D02*
D03*
X232000D02*
D03*
X234500D02*
D03*
X237000D02*
D03*
X165500Y288000D02*
D03*
X204500Y263500D02*
D03*
X172100Y202700D02*
D03*
X162000Y122000D02*
D03*
Y119500D02*
D03*
Y117000D02*
D03*
Y114500D02*
D03*
Y112000D02*
D03*
Y109500D02*
D03*
X220200Y108500D02*
D03*
X189500Y107000D02*
D03*
X184500Y222500D02*
D03*
X206500Y271500D02*
D03*
X132000Y339000D02*
D03*
X168500Y262000D02*
D03*
X159500D02*
D03*
Y253000D02*
D03*
X168500D02*
D03*
X216543Y304457D02*
D03*
X130000Y261000D02*
D03*
X179359Y258641D02*
D03*
X144000Y276000D02*
D03*
X153500Y244000D02*
D03*
X215957Y311543D02*
D03*
X144346Y251654D02*
D03*
M02*
