G04*
G04 #@! TF.GenerationSoftware,Altium Limited,Altium Designer,18.0.12 (696)*
G04*
G04 Layer_Physical_Order=2*
G04 Layer_Color=32768*
%FSLAX25Y25*%
%MOIN*%
G70*
G01*
G75*
%ADD81C,0.04000*%
%ADD82C,0.12661*%
%ADD83C,0.04800*%
G04:AMPARAMS|DCode=84|XSize=68mil|YSize=68mil|CornerRadius=0mil|HoleSize=0mil|Usage=FLASHONLY|Rotation=0.000|XOffset=0mil|YOffset=0mil|HoleType=Round|Shape=Relief|Width=10mil|Gap=10mil|Entries=4|*
%AMTHD84*
7,0,0,0.06800,0.04800,0.01000,45*
%
%ADD84THD84*%
D81*
X260000Y100000D02*
G03*
X260000Y120000I0J10000D01*
G01*
X250000Y125000D02*
G03*
X255000Y120000I5000J0D01*
G01*
X250000Y159500D02*
G03*
X245000Y164500I-5000J0D01*
G01*
X207500Y169500D02*
G03*
X212500Y164500I5000J0D01*
G01*
Y174500D02*
G03*
X207500Y169500I0J-5000D01*
G01*
X225000Y174500D02*
G03*
X230000Y179500I0J5000D01*
G01*
Y189500D02*
G03*
X225000Y194500I-5000J0D01*
G01*
X207500Y199500D02*
G03*
X212500Y194500I5000J0D01*
G01*
Y204500D02*
G03*
X207500Y199500I0J-5000D01*
G01*
X245000Y204500D02*
G03*
X250000Y209500I0J5000D01*
G01*
X255000Y330000D02*
G03*
X250000Y325000I0J-5000D01*
G01*
X260000Y330000D02*
G03*
X260000Y350000I0J10000D01*
G01*
X105000D02*
G03*
X100000Y345000I0J-5000D01*
G01*
Y105000D02*
G03*
X105000Y100000I5000J0D01*
G01*
Y100000D02*
X250000Y100000D01*
X212500Y164500D02*
X245000D01*
X212500Y174500D02*
X225000D01*
X230000Y179500D02*
Y189500D01*
X212500Y194500D02*
X225000D01*
X212500Y204500D02*
X245000D01*
X250000Y100000D02*
X260000D01*
X250000Y125000D02*
Y159500D01*
X250000Y209500D02*
X250000D01*
X250000D02*
X250000Y325000D01*
Y350000D02*
X260000D01*
X105000Y350000D02*
X250000Y350000D01*
X105000D02*
Y350000D01*
X100000Y345000D02*
X100000D01*
X100000Y105000D02*
X100000Y345000D01*
X100000Y105000D02*
X100000D01*
X255000Y330000D02*
X260000D01*
X255000Y120000D02*
X260000D01*
D82*
Y340000D02*
D03*
Y110000D02*
D03*
D83*
X156400Y186800D02*
D03*
X166924Y124276D02*
D03*
X154200Y182200D02*
D03*
X136200Y191800D02*
D03*
X157100Y208400D02*
D03*
X159100Y207200D02*
D03*
X165094Y203705D02*
D03*
X157220Y275300D02*
D03*
X133600Y129500D02*
D03*
X131400D02*
D03*
X139056Y203944D02*
D03*
X137500Y205500D02*
D03*
X154244Y136244D02*
D03*
X156500Y164500D02*
D03*
X155800Y137800D02*
D03*
X158056Y162944D02*
D03*
X162389Y169225D02*
D03*
X161444Y141444D02*
D03*
X163900Y167625D02*
D03*
X163000Y143000D02*
D03*
X170011Y172400D02*
D03*
X169000Y146500D02*
D03*
X168456Y173956D02*
D03*
X167444Y144944D02*
D03*
X175900Y177100D02*
D03*
X175000Y150500D02*
D03*
X174344Y178656D02*
D03*
X173444Y148944D02*
D03*
X163126Y204849D02*
D03*
X167063Y202563D02*
D03*
X161157Y205991D02*
D03*
X192500Y149500D02*
D03*
X171000Y242000D02*
D03*
X179000Y279500D02*
D03*
X177500Y281500D02*
D03*
X176000Y283500D02*
D03*
X174500Y285500D02*
D03*
X173175Y287563D02*
D03*
X172000Y289500D02*
D03*
X224500Y128500D02*
D03*
X227000D02*
D03*
X229500D02*
D03*
X232000D02*
D03*
X234500D02*
D03*
X237000D02*
D03*
X172100Y202700D02*
D03*
X162000Y122000D02*
D03*
Y119500D02*
D03*
Y117000D02*
D03*
Y114500D02*
D03*
Y112000D02*
D03*
Y109500D02*
D03*
X206500Y271500D02*
D03*
X132000Y339000D02*
D03*
X179359Y258641D02*
D03*
X144000Y276000D02*
D03*
X153500Y244000D02*
D03*
X215957Y311543D02*
D03*
X144346Y251654D02*
D03*
D84*
X238600Y149000D02*
D03*
X192500Y145000D02*
D03*
X128500Y233000D02*
D03*
X127676Y141187D02*
D03*
X135937Y212833D02*
D03*
X109987Y156140D02*
D03*
Y212833D02*
D03*
Y203384D02*
D03*
Y193935D02*
D03*
Y165589D02*
D03*
Y175038D02*
D03*
Y184487D02*
D03*
X108500Y134000D02*
D03*
X107000Y274000D02*
D03*
X165500Y288000D02*
D03*
X204500Y263500D02*
D03*
X220200Y108500D02*
D03*
X189500Y107000D02*
D03*
X184500Y222500D02*
D03*
X168500Y262000D02*
D03*
X159500D02*
D03*
Y253000D02*
D03*
X168500D02*
D03*
X216543Y304457D02*
D03*
X130000Y261000D02*
D03*
M02*
