G04*
G04 #@! TF.GenerationSoftware,Altium Limited,Altium Designer,18.0.12 (696)*
G04*
G04 Layer_Physical_Order=4*
G04 Layer_Color=16711680*
%FSLAX25Y25*%
%MOIN*%
G70*
G01*
G75*
%ADD14C,0.00800*%
%ADD71C,0.00400*%
%ADD72C,0.00600*%
%ADD80C,0.01800*%
D14*
X136200Y191800D02*
X144346Y199946D01*
Y251654D01*
X150400Y133600D02*
Y185900D01*
Y133600D02*
X162000Y122000D01*
X150400Y185900D02*
X167063Y202563D01*
X148431Y133069D02*
Y187042D01*
Y133069D02*
X162000Y119500D01*
X148431Y187042D02*
X165094Y203705D01*
X146463Y132537D02*
Y188186D01*
Y132537D02*
X162000Y117000D01*
X146463Y188186D02*
X163126Y204849D01*
X144494Y132006D02*
Y189328D01*
Y132006D02*
X162000Y114500D01*
X144494Y189328D02*
X161157Y205991D01*
X142526Y131474D02*
Y190471D01*
X140557Y130943D02*
Y191857D01*
Y130943D02*
X162000Y109500D01*
X140557Y191857D02*
X157100Y208400D01*
X142526Y190471D02*
X159100Y207045D01*
X142526Y131474D02*
X162000Y112000D01*
X221500Y225500D02*
Y275420D01*
X202500Y206500D02*
X221500Y225500D01*
X202500Y163000D02*
Y206500D01*
X219500Y225500D02*
Y274636D01*
X201000Y207000D02*
X219500Y225500D01*
X201000Y162000D02*
Y207000D01*
X217500Y225500D02*
Y273852D01*
X199500Y207500D02*
X217500Y225500D01*
X199500Y161000D02*
Y207500D01*
X215500Y225500D02*
Y273068D01*
X198000Y208000D02*
X215500Y225500D01*
X198000Y160000D02*
Y208000D01*
X213500Y225500D02*
Y272285D01*
X196500Y208500D02*
X213500Y225500D01*
X196500Y159000D02*
Y208500D01*
X202500Y163000D02*
X237000Y128500D01*
X201000Y162000D02*
X234500Y128500D01*
X199500Y161000D02*
X232000Y128500D01*
X198000Y160000D02*
X229500Y128500D01*
X196500Y159000D02*
X227000Y128500D01*
X195000Y158000D02*
X224500Y128500D01*
X195000Y158000D02*
Y209000D01*
X204285Y281500D02*
X213500Y272285D01*
X211500Y225500D02*
Y271500D01*
X195000Y209000D02*
X211500Y225500D01*
X206572Y287563D02*
X219500Y274636D01*
X173175Y287563D02*
X206572D01*
X207420Y289500D02*
X221500Y275420D01*
X172000Y289500D02*
X207420D01*
X205852Y285500D02*
X217500Y273852D01*
X174500Y285500D02*
X205852D01*
X205068Y283500D02*
X215500Y273068D01*
X176000Y283500D02*
X205068D01*
X177500Y281500D02*
X204285D01*
X203500Y279500D02*
X211500Y271500D01*
X179000Y279500D02*
X203500D01*
X132000Y319000D02*
Y339000D01*
Y319000D02*
X138000Y313000D01*
Y282000D02*
Y313000D01*
Y282000D02*
X144000Y276000D01*
D71*
X133000Y130100D02*
X133600Y129500D01*
X131400D02*
X132000Y130100D01*
Y194914D01*
X133000Y130100D02*
Y194500D01*
X132000Y194914D02*
X137500Y200414D01*
Y205500D01*
X133000Y194500D02*
X139056Y200556D01*
Y203944D01*
X168244Y147256D02*
Y170633D01*
X170011Y172400D01*
X154244Y136244D02*
X154261Y136261D01*
Y162261D01*
X156500Y164500D01*
X155061Y138539D02*
X155800Y137800D01*
X155061Y138539D02*
Y161929D01*
X156076Y162944D01*
X158056D01*
X162200Y166079D02*
X163900Y167779D01*
X162389Y167399D02*
Y169225D01*
X161400Y141489D02*
Y166410D01*
X162389Y167399D01*
X161400Y141489D02*
X161444Y141444D01*
X163900Y167625D02*
Y167779D01*
X162200Y143800D02*
Y166079D01*
Y143800D02*
X163000Y143000D01*
X168244Y147256D02*
X169000Y146500D01*
X168456Y171976D02*
Y173956D01*
X167444Y170965D02*
X168456Y171976D01*
X167444Y144944D02*
Y170965D01*
X174200Y175400D02*
X175900Y177100D01*
X174200Y151300D02*
Y175400D01*
Y151300D02*
X175000Y150500D01*
X174344Y176676D02*
Y178656D01*
X173400Y148989D02*
Y175731D01*
X174344Y176676D01*
X173400Y148989D02*
X173444Y148944D01*
D72*
X156400Y186800D02*
Y187000D01*
X172100Y202700D01*
X162624Y124276D02*
X166924D01*
X152300Y134600D02*
X162624Y124276D01*
X152300Y134600D02*
Y180300D01*
X154200Y182200D01*
X193641Y258641D02*
X206500Y271500D01*
X179359Y258641D02*
X193641D01*
D80*
X156400Y186800D02*
D03*
X166924Y124276D02*
D03*
X154200Y182200D02*
D03*
X136200Y191800D02*
D03*
X238600Y149000D02*
D03*
X157100Y208400D02*
D03*
X159100Y207200D02*
D03*
X165094Y203705D02*
D03*
X192500Y145000D02*
D03*
X157220Y275300D02*
D03*
X128500Y233000D02*
D03*
X127676Y141187D02*
D03*
X135937Y212833D02*
D03*
X109987Y156140D02*
D03*
Y212833D02*
D03*
Y203384D02*
D03*
Y193935D02*
D03*
Y165589D02*
D03*
Y175038D02*
D03*
Y184487D02*
D03*
X108500Y134000D02*
D03*
X133600Y129500D02*
D03*
X131400D02*
D03*
X139056Y203944D02*
D03*
X137500Y205500D02*
D03*
X154244Y136244D02*
D03*
X156500Y164500D02*
D03*
X155800Y137800D02*
D03*
X158056Y162944D02*
D03*
X162389Y169225D02*
D03*
X161444Y141444D02*
D03*
X163900Y167625D02*
D03*
X163000Y143000D02*
D03*
X170011Y172400D02*
D03*
X169000Y146500D02*
D03*
X168456Y173956D02*
D03*
X167444Y144944D02*
D03*
X175900Y177100D02*
D03*
X175000Y150500D02*
D03*
X174344Y178656D02*
D03*
X173444Y148944D02*
D03*
X163126Y204849D02*
D03*
X167063Y202563D02*
D03*
X161157Y205991D02*
D03*
X107000Y274000D02*
D03*
X192500Y149500D02*
D03*
X171000Y242000D02*
D03*
X179000Y279500D02*
D03*
X177500Y281500D02*
D03*
X176000Y283500D02*
D03*
X174500Y285500D02*
D03*
X173175Y287563D02*
D03*
X172000Y289500D02*
D03*
X224500Y128500D02*
D03*
X227000D02*
D03*
X229500D02*
D03*
X232000D02*
D03*
X234500D02*
D03*
X237000D02*
D03*
X165500Y288000D02*
D03*
X204500Y263500D02*
D03*
X172100Y202700D02*
D03*
X162000Y122000D02*
D03*
Y119500D02*
D03*
Y117000D02*
D03*
Y114500D02*
D03*
Y112000D02*
D03*
Y109500D02*
D03*
X220200Y108500D02*
D03*
X189500Y107000D02*
D03*
X184500Y222500D02*
D03*
X206500Y271500D02*
D03*
X132000Y339000D02*
D03*
X168500Y262000D02*
D03*
X159500D02*
D03*
Y253000D02*
D03*
X168500D02*
D03*
X216543Y304457D02*
D03*
X130000Y261000D02*
D03*
X179359Y258641D02*
D03*
X144000Y276000D02*
D03*
X153500Y244000D02*
D03*
X215957Y311543D02*
D03*
X144346Y251654D02*
D03*
M02*
