M48
;Layer_Color=9474304
;FILE_FORMAT=2:5
INCH,TZ
;TYPE=PLATED
T1F00S00C0.01000
%
T01
X113878Y108957
X115847
X117815
X119783
X121752
X123721
X127657
X131595
X135531
X139469
X143405
X147343
X152362Y108268
X150787Y105512
X154724Y105905
X144882Y105512
X141437Y105315
X137500
X133563
X129626
X125689Y105315
X158661Y105905
X161122Y108957
X163091
X165059
X167028
X168996
X170965
X165354Y105905
X167913Y95472
X173819
X180709Y99606
X162008Y95472
M30
