G04*
G04 #@! TF.GenerationSoftware,Altium Limited,Altium Designer,18.0.12 (696)*
G04*
G04 Layer_Color=8388736*
%FSLAX25Y25*%
%MOIN*%
G70*
G01*
G75*
%ADD14R,0.79528X0.08661*%
%ADD15R,0.02178X0.08674*%
%ADD16R,0.02375X0.04540*%
%ADD17R,0.01784X0.03635*%
%ADD18R,0.01784X0.03044*%
%ADD19C,0.02400*%
D14*
X143307Y87992D02*
D03*
D15*
X148228D02*
D03*
X106890D02*
D03*
X179724D02*
D03*
X177756D02*
D03*
X175787D02*
D03*
X173819D02*
D03*
X171850D02*
D03*
X169882D02*
D03*
X167913D02*
D03*
X165945D02*
D03*
X163976D02*
D03*
X162008D02*
D03*
X160039D02*
D03*
X158071D02*
D03*
X146260D02*
D03*
X144291D02*
D03*
X142323D02*
D03*
X140354D02*
D03*
X138386D02*
D03*
X136417D02*
D03*
X134449D02*
D03*
X132480D02*
D03*
X130512D02*
D03*
X128543D02*
D03*
X126575D02*
D03*
X124606D02*
D03*
X122638D02*
D03*
X120669D02*
D03*
X118701D02*
D03*
X116732D02*
D03*
X114764D02*
D03*
X112795D02*
D03*
X110827D02*
D03*
X108858D02*
D03*
D16*
X110256Y103287D02*
D03*
X174587D02*
D03*
D17*
X112894Y102244D02*
D03*
X114862D02*
D03*
X116831D02*
D03*
X118799D02*
D03*
X120768D02*
D03*
X122736D02*
D03*
X124705D02*
D03*
X126673D02*
D03*
X128642D02*
D03*
X130610D02*
D03*
X132579D02*
D03*
X134547D02*
D03*
X136516D02*
D03*
X138484D02*
D03*
X140453D02*
D03*
X142421D02*
D03*
X144390D02*
D03*
X146358D02*
D03*
X148327D02*
D03*
X150295D02*
D03*
X152264D02*
D03*
X154232D02*
D03*
X156201D02*
D03*
X158169D02*
D03*
X160138D02*
D03*
X162106D02*
D03*
X164075D02*
D03*
X166043D02*
D03*
X168012D02*
D03*
X169980D02*
D03*
X171949D02*
D03*
D18*
X113878Y111713D02*
D03*
X115847D02*
D03*
X117815D02*
D03*
X119783D02*
D03*
X121752D02*
D03*
X123721D02*
D03*
X125689D02*
D03*
X127657D02*
D03*
X129626D02*
D03*
X131595D02*
D03*
X133563D02*
D03*
X135531D02*
D03*
X137500D02*
D03*
X139469D02*
D03*
X141437D02*
D03*
X143405D02*
D03*
X145374D02*
D03*
X147343D02*
D03*
X149311D02*
D03*
X151279D02*
D03*
X153248D02*
D03*
X155217D02*
D03*
X157185D02*
D03*
X159153D02*
D03*
X161122D02*
D03*
X163091D02*
D03*
X165059D02*
D03*
X167028D02*
D03*
X168996D02*
D03*
X170965D02*
D03*
D19*
X150787Y105512D02*
D03*
X165354Y105905D02*
D03*
X167913Y95472D02*
D03*
X180709Y99606D02*
D03*
X152362Y108268D02*
D03*
X154724Y105905D02*
D03*
X163091Y108957D02*
D03*
X165059D02*
D03*
X167028D02*
D03*
X168996D02*
D03*
X162008Y95472D02*
D03*
X144882Y105512D02*
D03*
X173819Y95472D02*
D03*
X125689Y105315D02*
D03*
X129626Y105315D02*
D03*
X170965Y108957D02*
D03*
X161122D02*
D03*
X123721D02*
D03*
X121752D02*
D03*
X119783D02*
D03*
X117815D02*
D03*
X115847D02*
D03*
X113878D02*
D03*
X158661Y105905D02*
D03*
X147343Y108957D02*
D03*
X143405D02*
D03*
X141437Y105315D02*
D03*
X139469Y108957D02*
D03*
X137500Y105315D02*
D03*
X135531Y108957D02*
D03*
X133563Y105315D02*
D03*
X131595Y108957D02*
D03*
X127657D02*
D03*
M02*
