G04*
G04 #@! TF.GenerationSoftware,Altium Limited,Altium Designer,18.0.12 (696)*
G04*
G04 Layer_Color=16711935*
%FSLAX25Y25*%
%MOIN*%
G70*
G01*
G75*
%ADD19C,0.02400*%
%ADD25R,0.79528X0.10630*%
%ADD26R,0.02178X0.10642*%
D19*
X150787Y105512D02*
D03*
X165354Y105905D02*
D03*
X167913Y95472D02*
D03*
X180709Y99606D02*
D03*
X152362Y108268D02*
D03*
X154724Y105905D02*
D03*
X163091Y108957D02*
D03*
X165059D02*
D03*
X167028D02*
D03*
X168996D02*
D03*
X162008Y95472D02*
D03*
X144882Y105512D02*
D03*
X173819Y95472D02*
D03*
X125689Y105315D02*
D03*
X129626Y105315D02*
D03*
X170965Y108957D02*
D03*
X161122D02*
D03*
X123721D02*
D03*
X121752D02*
D03*
X119783D02*
D03*
X117815D02*
D03*
X115847D02*
D03*
X113878D02*
D03*
X158661Y105905D02*
D03*
X147343Y108957D02*
D03*
X143405D02*
D03*
X141437Y105315D02*
D03*
X139469Y108957D02*
D03*
X137500Y105315D02*
D03*
X135531Y108957D02*
D03*
X133563Y105315D02*
D03*
X131595Y108957D02*
D03*
X127657D02*
D03*
D25*
X143307Y88976D02*
D03*
D26*
X149213D02*
D03*
X162992D02*
D03*
X164961D02*
D03*
X166929D02*
D03*
X170866D02*
D03*
X172835D02*
D03*
X174803D02*
D03*
X178740D02*
D03*
X159055D02*
D03*
X161024D02*
D03*
X168898D02*
D03*
X176772D02*
D03*
X147244D02*
D03*
X145276D02*
D03*
X143307D02*
D03*
X141339D02*
D03*
X139370D02*
D03*
X137402D02*
D03*
X135433D02*
D03*
X133465D02*
D03*
X131496D02*
D03*
X129528D02*
D03*
X127559D02*
D03*
X125591D02*
D03*
X123622D02*
D03*
X121653D02*
D03*
X119685D02*
D03*
X117717D02*
D03*
X115748D02*
D03*
X113779D02*
D03*
X111811D02*
D03*
X109843D02*
D03*
X107874D02*
D03*
M02*
