G04*
G04 #@! TF.GenerationSoftware,Altium Limited,Altium Designer,18.0.12 (696)*
G04*
G04 Layer_Color=8388736*
%FSLAX25Y25*%
%MOIN*%
G70*
G01*
G75*
%ADD10C,0.00394*%
%ADD27C,0.00394*%
D10*
X104232Y94882D02*
G03*
X102264Y96850I-1969J0D01*
G01*
X156004Y95472D02*
G03*
X151279Y95472I-2362J0D01*
G01*
X100000Y97638D02*
G03*
X100787Y96850I787J0D01*
G01*
X185827D02*
G03*
X186614Y97638I0J787D01*
G01*
X184350Y96850D02*
G03*
X182382Y94882I0J-1969D01*
G01*
X156119Y95543D02*
G03*
X151417Y95543I-2351J0D01*
G01*
X186737Y99877D02*
G03*
X186740Y99874I3J0D01*
G01*
X185953Y96921D02*
G03*
X186740Y97709I0J787D01*
G01*
X184476Y96921D02*
G03*
X182508Y94953I0J-1969D01*
G01*
X104358Y84126D02*
G03*
X104358Y84126I0J0D01*
G01*
Y94953D02*
G03*
X102390Y96921I-1969J0D01*
G01*
X100126Y97709D02*
G03*
X100913Y96921I787J0D01*
G01*
X100787Y96850D02*
X102264D01*
X182382Y84055D02*
Y94882D01*
X104232Y84055D02*
Y94882D01*
X104232Y84055D02*
X151279D01*
X156004Y84055D02*
X182382D01*
X151279Y84055D02*
Y95472D01*
X156004Y84055D02*
Y95472D01*
X186614Y97638D02*
Y99803D01*
X184350Y96850D02*
X185827D01*
X100000Y97638D02*
Y99803D01*
X186740Y97709D02*
Y99874D01*
X184476Y96921D02*
X185953D01*
X182508Y84126D02*
Y94953D01*
X156130Y84126D02*
X182508D01*
X156130D02*
Y95543D01*
X151406Y84126D02*
Y95543D01*
X104358Y84126D02*
X151406D01*
X104358Y84126D02*
Y94953D01*
X100913Y96921D02*
X102390D01*
X100126Y97709D02*
Y98425D01*
Y99874D01*
X186653Y113779D02*
X186740Y99874D01*
X100039Y113779D02*
X186653D01*
X100039D02*
X100126Y99874D01*
D27*
X151406Y84126D02*
D03*
M02*
