G04*
G04 #@! TF.GenerationSoftware,Altium Limited,Altium Designer,18.0.12 (696)*
G04*
G04 Layer_Physical_Order=2*
G04 Layer_Color=16711680*
%FSLAX25Y25*%
%MOIN*%
G70*
G01*
G75*
%ADD21C,0.00500*%
%ADD22C,0.01000*%
%ADD23C,0.01600*%
%ADD24R,0.01378X0.09843*%
D21*
X117717Y88976D02*
Y97342D01*
X125689Y105315D01*
X125591Y88976D02*
Y97638D01*
X127657Y99705D01*
Y108957D01*
X127559Y88976D02*
Y96850D01*
X129626Y98917D01*
Y105315D01*
X129528Y88976D02*
Y96457D01*
X131595Y98524D01*
Y108957D01*
X131496Y88976D02*
Y95276D01*
X133563Y97342D01*
Y105315D01*
X139370Y88976D02*
Y96850D01*
X135531Y100689D02*
X139370Y96850D01*
X135531Y100689D02*
Y108957D01*
X141339Y88976D02*
Y96457D01*
X137500Y100295D02*
X141339Y96457D01*
X137500Y100295D02*
Y105315D01*
X143307Y88976D02*
Y96850D01*
X139469Y100689D02*
X143307Y96850D01*
X139469Y100689D02*
Y108957D01*
X145276Y88976D02*
Y96457D01*
X141437Y100295D02*
X145276Y96457D01*
X141437Y100295D02*
Y105315D01*
X147244Y88976D02*
Y96850D01*
X143332Y100763D02*
X147244Y96850D01*
X143332Y100763D02*
Y108883D01*
X143405Y108957D01*
X149213Y88976D02*
Y96850D01*
X144882Y101181D02*
X149213Y96850D01*
X144882Y101181D02*
Y105512D01*
X147343Y100689D02*
Y108957D01*
X149213Y101575D02*
Y107480D01*
X150787Y103150D02*
Y105512D01*
X152362Y104528D02*
Y108268D01*
Y104528D02*
X154534Y102356D01*
X165354Y105905D02*
X166929D01*
X175369Y97466D01*
X159055Y108268D02*
X160417Y106905D01*
X161598D01*
X173031Y95472D01*
X173819D01*
X158661Y105905D02*
X160630D01*
X170866Y95669D01*
X157062Y104356D02*
X160605D01*
X155700Y103356D02*
X159870D01*
X154534Y102356D02*
X159456D01*
X152756Y101181D02*
X159055D01*
X150787Y100000D02*
X157480D01*
X149213Y98819D02*
X156299D01*
X167913Y95472D02*
Y97047D01*
X149213Y107480D02*
X150000Y108268D01*
X156693Y104724D02*
Y107480D01*
Y104724D02*
X157062Y104356D01*
X160605D02*
X167913Y97047D01*
X154724Y104331D02*
X155700Y103356D01*
X159870D02*
X166142Y97083D01*
X159456Y102356D02*
X164961Y96850D01*
X166142Y95052D02*
Y97083D01*
X164961Y88976D02*
Y96850D01*
X163779Y95052D02*
Y96457D01*
X159055Y101181D02*
X163779Y96457D01*
X147343Y100689D02*
X149213Y98819D01*
Y101575D02*
X150787Y100000D01*
X150787Y103150D02*
X152756Y101181D01*
X154724Y104331D02*
Y105905D01*
X175369Y94830D02*
Y97466D01*
X174803Y94265D02*
X175369Y94830D01*
X174803Y88976D02*
Y94265D01*
X159055Y108268D02*
Y111024D01*
X170866Y88976D02*
Y95669D01*
X162992Y94265D02*
X163779Y95052D01*
X157480Y100000D02*
X162008Y95472D01*
X166142Y95052D02*
X166929Y94265D01*
Y88976D02*
Y94265D01*
X156299Y98819D02*
X159055Y96063D01*
X162992Y88976D02*
Y94265D01*
X159055Y88976D02*
Y96063D01*
D22*
X123721Y106004D02*
Y108957D01*
X120079Y102362D02*
X123721Y106004D01*
X121752Y108957D02*
X123721D01*
X119783D02*
X121752D01*
X117815D02*
X119783D01*
X115847D02*
X117815D01*
X113878D02*
X115847D01*
X107874Y102953D02*
X113878Y108957D01*
X107874Y88976D02*
Y102953D01*
X117717Y102362D02*
X120079D01*
X109843Y94488D02*
X117717Y102362D01*
X109843Y88976D02*
Y94488D01*
X159055Y111024D02*
X175984D01*
X180709Y106299D01*
X170965Y108957D02*
X172933D01*
X178740Y103150D01*
X168996Y107382D02*
Y108957D01*
Y107382D02*
X176772Y99606D01*
X178740Y88976D02*
Y103150D01*
X180709Y99606D02*
Y106299D01*
X176772Y88976D02*
Y99606D01*
X156693Y111024D02*
X159055D01*
X150787D02*
X156693D01*
Y107480D02*
Y111024D01*
X150000Y108268D02*
Y110236D01*
X150787Y111024D01*
X168996Y108957D02*
X170965D01*
X167028D02*
X168996D01*
X165059D02*
X167028D01*
X163091D02*
X165059D01*
X161122D02*
X163091D01*
D23*
X150787Y105512D02*
D03*
X165354Y105905D02*
D03*
X167913Y95472D02*
D03*
X180709Y99606D02*
D03*
X152362Y108268D02*
D03*
X154724Y105905D02*
D03*
X163091Y108957D02*
D03*
X165059D02*
D03*
X167028D02*
D03*
X168996D02*
D03*
X162008Y95472D02*
D03*
X144882Y105512D02*
D03*
X173819Y95472D02*
D03*
X125689Y105315D02*
D03*
X129626Y105315D02*
D03*
X170965Y108957D02*
D03*
X161122D02*
D03*
X123721D02*
D03*
X121752D02*
D03*
X119783D02*
D03*
X117815D02*
D03*
X115847D02*
D03*
X113878D02*
D03*
X158661Y105905D02*
D03*
X147343Y108957D02*
D03*
X143405D02*
D03*
X141437Y105315D02*
D03*
X139469Y108957D02*
D03*
X137500Y105315D02*
D03*
X135531Y108957D02*
D03*
X133563Y105315D02*
D03*
X131595Y108957D02*
D03*
X127657D02*
D03*
D24*
X149213Y88976D02*
D03*
X162992D02*
D03*
X164961D02*
D03*
X166929D02*
D03*
X170866D02*
D03*
X172835D02*
D03*
X174803D02*
D03*
X178740D02*
D03*
X159055D02*
D03*
X161024D02*
D03*
X168898D02*
D03*
X176772D02*
D03*
X147244D02*
D03*
X145276D02*
D03*
X143307D02*
D03*
X141339D02*
D03*
X139370D02*
D03*
X137402D02*
D03*
X135433D02*
D03*
X133465D02*
D03*
X131496D02*
D03*
X129528D02*
D03*
X127559D02*
D03*
X125591D02*
D03*
X123622D02*
D03*
X121653D02*
D03*
X119685D02*
D03*
X117717D02*
D03*
X115748D02*
D03*
X113779D02*
D03*
X111811D02*
D03*
X109843D02*
D03*
X107874D02*
D03*
M02*
