G04*
G04 #@! TF.GenerationSoftware,Altium Limited,Altium Designer,18.0.12 (696)*
G04*
G04 Layer_Physical_Order=1*
G04 Layer_Color=255*
%FSLAX25Y25*%
%MOIN*%
G70*
G01*
G75*
%ADD12C,0.01000*%
%ADD13R,0.09449X0.01102*%
G04:AMPARAMS|DCode=14|XSize=7.87mil|YSize=25.2mil|CornerRadius=1.97mil|HoleSize=0mil|Usage=FLASHONLY|Rotation=270.000|XOffset=0mil|YOffset=0mil|HoleType=Round|Shape=RoundedRectangle|*
%AMROUNDEDRECTD14*
21,1,0.00787,0.02126,0,0,270.0*
21,1,0.00394,0.02520,0,0,270.0*
1,1,0.00394,-0.01063,-0.00197*
1,1,0.00394,-0.01063,0.00197*
1,1,0.00394,0.01063,0.00197*
1,1,0.00394,0.01063,-0.00197*
%
%ADD14ROUNDEDRECTD14*%
%ADD15R,0.03543X0.01575*%
%ADD16R,0.03189X0.01181*%
%ADD17R,0.02008X0.05512*%
%ADD18R,0.01417X0.05748*%
%ADD19R,0.02008X0.01772*%
%ADD20R,0.01417X0.01772*%
%ADD21R,0.02520X0.00787*%
%ADD22R,0.05906X0.03937*%
%ADD23R,0.11811X0.19685*%
%ADD39C,0.01200*%
%ADD40C,0.01600*%
%ADD41C,0.02000*%
%ADD42C,0.00600*%
%ADD43C,0.00800*%
%ADD44C,0.01400*%
%ADD45C,0.00400*%
%ADD46O,0.07480X0.04724*%
%ADD47O,0.09449X0.04724*%
%ADD48C,0.05000*%
G36*
X120300Y86800D02*
Y83100D01*
X120100Y82900D01*
X118800D01*
X117600Y84100D01*
Y87500D01*
X117700Y87600D01*
X119500D01*
X120300Y86800D01*
D02*
G37*
G36*
X122200Y106300D02*
Y103500D01*
X118400D01*
X118100Y103800D01*
Y107500D01*
X118200Y107600D01*
X120900D01*
X122200Y106300D01*
D02*
G37*
G36*
X120247Y143753D02*
X119247Y142753D01*
X117747D01*
Y148253D01*
X118747Y149253D01*
Y153253D01*
X120247D01*
Y143753D01*
D02*
G37*
D12*
X118569Y85169D02*
X119500Y84239D01*
X126500Y82650D02*
X150850D01*
X118331Y169520D02*
X118500Y169689D01*
Y174000D01*
X116500Y176000D02*
X118500Y174000D01*
X116500Y176000D02*
Y184000D01*
X118500Y186000D01*
X124500D01*
X128000Y182500D01*
Y161500D02*
Y182500D01*
X124000Y157500D02*
X128000Y161500D01*
X124000Y153417D02*
Y157500D01*
X114728Y165917D02*
X118331Y169520D01*
X114728Y153614D02*
Y165917D01*
D13*
X155260Y217748D02*
D03*
Y215779D02*
D03*
Y213811D02*
D03*
Y209874D02*
D03*
Y205937D02*
D03*
Y203969D02*
D03*
Y200031D02*
D03*
Y196095D02*
D03*
Y194126D02*
D03*
Y192157D02*
D03*
Y188221D02*
D03*
Y182315D02*
D03*
Y202000D02*
D03*
Y198063D02*
D03*
Y190189D02*
D03*
Y186252D02*
D03*
Y184283D02*
D03*
Y180347D02*
D03*
Y211842D02*
D03*
Y207906D02*
D03*
D14*
X115024Y122965D02*
D03*
Y124539D02*
D03*
Y132413D02*
D03*
Y133988D02*
D03*
Y85169D02*
D03*
Y86744D02*
D03*
Y88319D02*
D03*
Y89894D02*
D03*
Y91469D02*
D03*
Y93043D02*
D03*
Y94618D02*
D03*
Y96193D02*
D03*
Y97768D02*
D03*
Y99343D02*
D03*
Y100917D02*
D03*
Y102492D02*
D03*
Y104067D02*
D03*
Y105642D02*
D03*
Y107217D02*
D03*
Y108791D02*
D03*
Y110366D02*
D03*
Y111941D02*
D03*
Y113516D02*
D03*
Y115091D02*
D03*
Y116665D02*
D03*
Y118240D02*
D03*
Y119815D02*
D03*
Y121390D02*
D03*
Y126114D02*
D03*
Y127689D02*
D03*
Y129264D02*
D03*
Y130839D02*
D03*
Y135563D02*
D03*
Y137138D02*
D03*
Y138713D02*
D03*
Y140287D02*
D03*
Y141862D02*
D03*
Y143437D02*
D03*
Y145012D02*
D03*
D15*
X124000Y153417D02*
D03*
Y78339D02*
D03*
D16*
X114728Y153614D02*
D03*
Y78142D02*
D03*
D17*
X126500Y82650D02*
D03*
Y149106D02*
D03*
D18*
X112071Y149362D02*
D03*
Y82394D02*
D03*
D19*
X126500Y139500D02*
D03*
Y144224D02*
D03*
Y125327D02*
D03*
Y130051D02*
D03*
Y134776D02*
D03*
Y106429D02*
D03*
Y111153D02*
D03*
Y120602D02*
D03*
Y115878D02*
D03*
Y96980D02*
D03*
Y101705D02*
D03*
Y92256D02*
D03*
Y87532D02*
D03*
D20*
X112071Y92256D02*
D03*
Y87532D02*
D03*
Y106429D02*
D03*
Y111153D02*
D03*
Y101705D02*
D03*
Y96980D02*
D03*
Y125327D02*
D03*
Y120602D02*
D03*
Y115878D02*
D03*
Y134776D02*
D03*
Y130051D02*
D03*
Y139500D02*
D03*
Y144224D02*
D03*
D21*
X115024Y146587D02*
D03*
D22*
X167000Y116941D02*
D03*
Y122059D02*
D03*
Y111823D02*
D03*
D23*
X181000Y228500D02*
D03*
X167000Y86000D02*
D03*
X181000D02*
D03*
Y112000D02*
D03*
X180800Y180200D02*
D03*
X181000Y158500D02*
D03*
Y136500D02*
D03*
Y206500D02*
D03*
D39*
X120142Y105642D02*
X121684Y104100D01*
X140400D01*
X153241Y116941D01*
X167000D01*
D40*
X180823Y111823D02*
X181000Y112000D01*
X167000Y111823D02*
X180823D01*
X171000Y195500D02*
Y213000D01*
X166252Y217748D02*
X171000Y213000D01*
Y195500D02*
X173000Y193500D01*
X189000D01*
X191500Y191000D01*
Y126500D02*
Y191000D01*
X189000Y124000D02*
X191500Y126500D01*
X172500Y124000D02*
X189000D01*
X170559Y122059D02*
X172500Y124000D01*
X167000Y122059D02*
X170559D01*
X174200Y180200D02*
X180800D01*
X170000Y176000D02*
X174200Y180200D01*
X121500Y179500D02*
X125500Y175500D01*
Y164000D02*
Y175500D01*
X119500Y158000D02*
X125500Y164000D01*
X119500Y148000D02*
Y158000D01*
D41*
X145024Y234480D02*
X158520D01*
X164500Y228500D01*
X181000D01*
Y206500D02*
Y228500D01*
D42*
X163500Y188221D02*
Y194000D01*
X155260Y188221D02*
X163500D01*
Y182315D02*
Y188221D01*
Y173500D02*
Y182315D01*
X155260D02*
X163500D01*
Y194000D02*
Y200000D01*
X163374Y194126D02*
X163500Y194000D01*
X155260Y194126D02*
X163374D01*
X163500Y200000D02*
Y204000D01*
X163469Y200031D02*
X163500Y200000D01*
X155260Y200031D02*
X163469D01*
X163500Y204000D02*
Y206000D01*
X163469Y203969D02*
X163500Y204000D01*
X155260Y203969D02*
X163469D01*
X163500Y206000D02*
Y208000D01*
X163437Y205937D02*
X163500Y206000D01*
X155260Y205937D02*
X163437D01*
X145024Y169520D02*
X159520D01*
X163500Y173500D01*
X161626Y209874D02*
X163500Y208000D01*
X155260Y209874D02*
X161626D01*
X161189Y213811D02*
X166000Y209000D01*
Y152000D02*
Y209000D01*
X132300Y118300D02*
X166000Y152000D01*
X169000Y157000D02*
X170500Y158500D01*
X169000Y150500D02*
Y157000D01*
X132016Y113516D02*
X169000Y150500D01*
X159500Y136500D02*
X181000D01*
X131900Y108900D02*
X159500Y136500D01*
X123100Y108900D02*
X131900D01*
X170500Y158500D02*
X181000D01*
X115024Y113516D02*
X132016D01*
X155260Y213811D02*
X161189D01*
X122100Y118300D02*
X132300D01*
X126500Y92256D02*
Y96980D01*
Y87532D02*
Y92256D01*
Y82650D02*
Y87532D01*
Y79000D02*
Y82650D01*
X125839Y78339D02*
X126500Y79000D01*
X124000Y78339D02*
X125839D01*
X112858Y78142D02*
X114728D01*
X112071Y78929D02*
X112858Y78142D01*
X112071Y78929D02*
Y82394D01*
Y149362D02*
Y153071D01*
X112614Y153614D01*
X114728D01*
X126500Y149106D02*
Y153000D01*
X126083Y153417D02*
X126500Y153000D01*
X124000Y153417D02*
X126083D01*
X126500Y144224D02*
Y149106D01*
X115024Y146587D02*
X118587D01*
Y147087D02*
X119500Y148000D01*
X118587Y146587D02*
Y147087D01*
X167000Y86000D02*
Y96500D01*
X165100Y98400D02*
X167000Y96500D01*
X130600Y98400D02*
X165100D01*
X181000Y86000D02*
Y96200D01*
X176900Y100300D02*
X181000Y96200D01*
X130700Y100300D02*
X176900D01*
X120059Y111941D02*
X123100Y108900D01*
X115024Y111941D02*
X120059D01*
X118891Y115091D02*
X122100Y118300D01*
X115024Y115091D02*
X118891D01*
X112071Y144224D02*
Y149362D01*
Y139500D02*
Y144224D01*
Y134776D02*
Y139500D01*
Y130051D02*
Y134776D01*
Y125327D02*
Y130051D01*
Y120602D02*
Y125327D01*
Y115878D02*
Y120602D01*
Y111153D02*
Y115878D01*
Y106429D02*
Y111153D01*
Y101705D02*
Y106429D01*
Y96980D02*
Y101705D01*
Y92256D02*
Y96980D01*
Y87532D02*
Y92256D01*
Y82394D02*
Y87532D01*
X115024Y85169D02*
X118569D01*
X115024Y86744D02*
X118256D01*
X115024Y104067D02*
X118967D01*
X115024Y105642D02*
X120142D01*
X115024Y107217D02*
X118884D01*
X115024Y143437D02*
X118337D01*
X115024Y145012D02*
X118588D01*
X112071Y115878D02*
X112858Y116665D01*
X115024D01*
X112071Y120602D02*
X112858Y121390D01*
X115024D01*
X112071Y125327D02*
X112858Y126114D01*
X115024D01*
X112071Y130051D02*
X112858Y130839D01*
X115024D01*
X112071Y134776D02*
X112858Y135563D01*
X115024D01*
X112071Y139500D02*
X112858Y140287D01*
X115024D01*
D43*
X155260Y217748D02*
X166252D01*
D44*
X150850Y74850D02*
Y82650D01*
X149000Y73000D02*
X150850Y74850D01*
X122000Y73000D02*
X149000D01*
X119500Y75500D02*
X122000Y73000D01*
X119500Y75500D02*
Y84239D01*
D45*
X130100Y98900D02*
X130600Y98400D01*
X130100Y99700D02*
X130700Y100300D01*
X119276Y98900D02*
X130100D01*
X118531Y98155D02*
X119276Y98900D01*
X118945Y99700D02*
X130100D01*
X118200Y98955D02*
X118945Y99700D01*
X116871Y98955D02*
X118200D01*
X116483Y99343D02*
X116871Y98955D01*
X115024Y99343D02*
X116483D01*
X116871Y98155D02*
X118531D01*
X116483Y97768D02*
X116871Y98155D01*
X115024Y97768D02*
X116483D01*
X128169Y142300D02*
X129500Y143631D01*
X119525Y138325D02*
X123500Y142300D01*
X128169D01*
X115024Y138713D02*
X116483D01*
X116871Y138325D01*
X119525D01*
X150335Y207906D02*
X155260D01*
X148767Y209474D02*
X150335Y207906D01*
X128500Y141500D02*
X130300Y143300D01*
X119857Y137525D02*
X123831Y141500D01*
X128500D01*
X116871Y137525D02*
X119857D01*
X116483Y137138D02*
X116871Y137525D01*
X115024Y137138D02*
X116483D01*
X150335Y211842D02*
X155260D01*
X148767Y210274D02*
X150335Y211842D01*
X129500Y143631D02*
Y195500D01*
X130300Y143300D02*
Y195169D01*
X139800Y204669D01*
X129500Y195500D02*
X139000Y205000D01*
X139800Y204669D02*
Y208805D01*
X138331Y210274D02*
X139800Y208805D01*
X139000Y205000D02*
Y208474D01*
X138000Y209474D02*
X139000Y208474D01*
X136950Y210274D02*
X138331D01*
X134500Y212724D02*
X136950Y210274D01*
Y209474D02*
X138000D01*
X134500Y207024D02*
X136950Y209474D01*
X144500Y212724D02*
X146950Y210274D01*
X148767D01*
X144500Y207024D02*
X146950Y209474D01*
X148767D01*
X131700Y140000D02*
Y192931D01*
X132500Y139669D02*
Y192600D01*
X133700Y137300D02*
Y190731D01*
X134500Y136969D02*
Y190400D01*
X135700Y134100D02*
Y183731D01*
X136500Y133769D02*
Y183400D01*
X137700Y131600D02*
Y179131D01*
X138500Y131269D02*
Y178800D01*
X136866Y129634D02*
X138500Y131269D01*
X129500Y123400D02*
X137700Y131600D01*
X136866Y129634D02*
X136866D01*
X129831Y122600D02*
X136866Y129634D01*
X130031Y127300D02*
X136500Y133769D01*
X129700Y128100D02*
X135700Y134100D01*
X129531Y132000D02*
X134500Y136969D01*
X129200Y132800D02*
X133700Y137300D01*
X129200Y137500D02*
X131700Y140000D01*
X129531Y136700D02*
X132500Y139669D01*
X150335Y184283D02*
X155260D01*
X148767Y182715D02*
X150335Y184283D01*
X141284Y182715D02*
X148767D01*
X118328Y119428D02*
X122300Y123400D01*
X129500D01*
X115024Y119815D02*
X116483D01*
X116871Y119428D01*
X118328D01*
X148767Y181915D02*
X150335Y180347D01*
X155260D01*
X118659Y118628D02*
X122631Y122600D01*
X116871Y118628D02*
X118659D01*
X116483Y118240D02*
X116871Y118628D01*
X115024Y118240D02*
X116483D01*
X137700Y179131D02*
X141284Y182715D01*
X141615Y181915D02*
X148767D01*
X138500Y178800D02*
X141615Y181915D01*
X122631Y122600D02*
X129831D01*
X150335Y190189D02*
X155260D01*
X148767Y188620D02*
X150335Y190189D01*
X140589Y188620D02*
X148767D01*
X118352Y124152D02*
X122300Y128100D01*
X129700D01*
X115024Y124539D02*
X116483D01*
X116871Y124152D01*
X118352D01*
X148767Y187820D02*
X150335Y186252D01*
X155260D01*
X118683Y123352D02*
X122631Y127300D01*
X116871Y123352D02*
X118683D01*
X116483Y122965D02*
X116871Y123352D01*
X115024Y122965D02*
X116483D01*
X135700Y183731D02*
X140589Y188620D01*
X140920Y187820D02*
X148767D01*
X136500Y183400D02*
X140920Y187820D01*
X122631Y127300D02*
X130031D01*
X150335Y196095D02*
X155260D01*
X148767Y194526D02*
X150335Y196095D01*
X137495Y194526D02*
X148767D01*
X119176Y128876D02*
X123100Y132800D01*
X129200D01*
X115024Y129264D02*
X116483D01*
X116871Y128876D01*
X119176D01*
X148767Y193726D02*
X150335Y192157D01*
X155260D01*
X119508Y128076D02*
X123431Y132000D01*
X116871Y128076D02*
X119508D01*
X116483Y127689D02*
X116871Y128076D01*
X115024Y127689D02*
X116483D01*
X133700Y190731D02*
X137495Y194526D01*
X137826Y193726D02*
X148767D01*
X134500Y190400D02*
X137826Y193726D01*
X123431Y132000D02*
X129531D01*
X150335Y202000D02*
X155260D01*
X148767Y200431D02*
X150335Y202000D01*
X139200Y200431D02*
X148767D01*
X123500Y137500D02*
X129200D01*
X119601Y133601D02*
X123500Y137500D01*
X115024Y133988D02*
X116483D01*
X116871Y133601D01*
X119601D01*
X150335Y198063D02*
X155260D01*
X148767Y199632D02*
X150335Y198063D01*
X123831Y136700D02*
X129531D01*
X119932Y132801D02*
X123831Y136700D01*
X116871Y132801D02*
X119932D01*
X116483Y132413D02*
X116871Y132801D01*
X115024Y132413D02*
X116483D01*
X131700Y192931D02*
X139200Y200431D01*
X139532Y199632D02*
X148767D01*
X132500Y192600D02*
X139532Y199632D01*
D46*
X118331Y234480D02*
D03*
Y169520D02*
D03*
D47*
X145024Y234480D02*
D03*
Y169520D02*
D03*
D48*
X150850Y82650D02*
D03*
X170000Y176000D02*
D03*
X121500Y179500D02*
D03*
X134500Y212724D02*
D03*
Y207024D02*
D03*
X144500Y212724D02*
D03*
Y207024D02*
D03*
M02*
