G04*
G04 #@! TF.GenerationSoftware,Altium Limited,Altium Designer,18.0.12 (696)*
G04*
G04 Layer_Color=65535*
%FSLAX25Y25*%
%MOIN*%
G70*
G01*
G75*
%ADD10C,0.01968*%
%ADD11C,0.00787*%
%ADD12C,0.01000*%
D10*
X165102Y176409D02*
G03*
X165102Y176409I-1969J0D01*
G01*
D11*
X163063Y108476D02*
Y125406D01*
X170937Y108476D02*
Y125406D01*
X163063Y108476D02*
X170937D01*
X163063Y125406D02*
X170937D01*
D12*
X150299Y151300D02*
X146300D01*
X147633D01*
X150299Y148634D01*
X148299Y150634D01*
X146300Y148634D01*
Y147301D02*
X146967D01*
Y146635D01*
X146300D01*
Y147301D01*
X150299Y143969D02*
X146300D01*
Y141970D01*
X146967Y141303D01*
X147633D01*
X148299Y141970D01*
Y143969D01*
Y141970D01*
X148966Y141303D01*
X149632D01*
X150299Y141970D01*
Y143969D01*
X148966Y139970D02*
X146967D01*
X146300Y139304D01*
Y137304D01*
X148966D01*
Y133306D02*
Y135305D01*
X148299Y135972D01*
X146967D01*
X146300Y135305D01*
Y133306D01*
X150299Y131973D02*
X146300D01*
X148299D01*
X148966Y131306D01*
Y129974D01*
X148299Y129307D01*
X146300D01*
Y127974D02*
X150299D01*
X147633D02*
X148966Y125975D01*
X147633Y127974D02*
X146300Y125975D01*
X148966Y123309D02*
Y121976D01*
X148299Y121310D01*
X146300D01*
Y123309D01*
X146967Y123976D01*
X147633Y123309D01*
Y121310D01*
X146300Y113312D02*
Y115978D01*
X148966Y113312D01*
X149632D01*
X150299Y113979D01*
Y115312D01*
X149632Y115978D01*
Y111979D02*
X150299Y111313D01*
Y109980D01*
X149632Y109314D01*
X146967D01*
X146300Y109980D01*
Y111313D01*
X146967Y111979D01*
X149632D01*
X146300Y105315D02*
Y107981D01*
X148966Y105315D01*
X149632D01*
X150299Y105981D01*
Y107314D01*
X149632Y107981D01*
X146300Y101316D02*
Y103982D01*
X148966Y101316D01*
X149632D01*
X150299Y101983D01*
Y103315D01*
X149632Y103982D01*
X200697Y139500D02*
X196698D01*
Y137501D01*
X197365Y136834D01*
X198031D01*
X198698Y137501D01*
Y139500D01*
Y137501D01*
X199364Y136834D01*
X200031D01*
X200697Y137501D01*
Y139500D01*
Y135501D02*
X196698D01*
Y132835D01*
X193499Y137501D02*
Y138833D01*
X192832Y139500D01*
X190166D01*
X189500Y138833D01*
Y137501D01*
X190166Y136834D01*
X192832D01*
X193499Y137501D01*
X189500Y134835D02*
X192832D01*
X191499D01*
Y135501D01*
Y134168D01*
Y134835D01*
X192832D01*
X193499Y134168D01*
X189500Y131503D02*
X192832D01*
X191499D01*
Y132169D01*
Y130836D01*
Y131503D01*
X192832D01*
X193499Y130836D01*
X200697Y114834D02*
Y117500D01*
X196698D01*
Y114834D01*
X198698Y117500D02*
Y116167D01*
X199364Y113501D02*
X196698Y110836D01*
X198031Y112168D01*
X199364Y110836D01*
X196698Y113501D01*
X200031Y108836D02*
X199364D01*
Y109503D01*
Y108170D01*
Y108836D01*
X197365D01*
X196698Y108170D01*
X192832Y117500D02*
X193499Y116833D01*
Y115501D01*
X192832Y114834D01*
X192166D01*
X191499Y115501D01*
Y116167D01*
Y115501D01*
X190833Y114834D01*
X190166D01*
X189500Y115501D01*
Y116833D01*
X190166Y117500D01*
X192166Y113501D02*
X189500Y112168D01*
X192166Y110836D01*
X192832Y109503D02*
X193499Y108836D01*
Y107503D01*
X192832Y106837D01*
X192166D01*
X191499Y107503D01*
Y108170D01*
Y107503D01*
X190833Y106837D01*
X190166D01*
X189500Y107503D01*
Y108836D01*
X190166Y109503D01*
X165166Y106499D02*
X162500D01*
Y102500D01*
X165166D01*
X162500Y104499D02*
X163833D01*
X166499Y105166D02*
X169165Y102500D01*
X167832Y103833D01*
X169165Y105166D01*
X166499Y102500D01*
X171164Y105832D02*
Y105166D01*
X170497D01*
X171830D01*
X171164D01*
Y103166D01*
X171830Y102500D01*
X177500Y74499D02*
Y70500D01*
X179499D01*
X180166Y71166D01*
Y73832D01*
X179499Y74499D01*
X177500D01*
X181499Y70500D02*
Y74499D01*
X183498D01*
X184165Y73832D01*
Y72499D01*
X183498Y71833D01*
X181499D01*
X140300Y151300D02*
X144299D01*
Y149301D01*
X143632Y148634D01*
X142299D01*
X141633Y149301D01*
Y151300D01*
Y149967D02*
X140300Y148634D01*
Y145302D02*
Y146635D01*
X140966Y147301D01*
X142299D01*
X142966Y146635D01*
Y145302D01*
X142299Y144635D01*
X141633D01*
Y147301D01*
X142966Y143303D02*
X140300Y141970D01*
X142966Y140637D01*
X144299Y135305D02*
X140300D01*
Y133306D01*
X140966Y132639D01*
X141633D01*
X142299Y133306D01*
Y135305D01*
Y133306D01*
X142966Y132639D01*
X143632D01*
X144299Y133306D01*
Y135305D01*
X201197Y163000D02*
X197198D01*
Y161001D01*
X197865Y160334D01*
X198531D01*
X199198Y161001D01*
Y163000D01*
Y161001D01*
X199864Y160334D01*
X200531D01*
X201197Y161001D01*
Y163000D01*
Y159001D02*
X197198D01*
Y156335D01*
X190000Y163000D02*
X193999D01*
Y161001D01*
X193332Y160334D01*
X191999D01*
X191333Y161001D01*
Y163000D01*
X193999Y159001D02*
X190000D01*
X191333Y157668D01*
X190000Y156335D01*
X193999D01*
X190000Y155003D02*
X193999D01*
X192666Y153670D01*
X193999Y152337D01*
X190000D01*
X156132Y148634D02*
X156799Y149301D01*
Y150634D01*
X156132Y151300D01*
X153466D01*
X152800Y150634D01*
Y149301D01*
X153466Y148634D01*
X155466Y146635D02*
Y145302D01*
X154799Y144635D01*
X152800D01*
Y146635D01*
X153466Y147301D01*
X154133Y146635D01*
Y144635D01*
X156799Y143303D02*
X152800D01*
Y141303D01*
X153466Y140637D01*
X154133D01*
X154799D01*
X155466Y141303D01*
Y143303D01*
X152800Y139304D02*
Y137971D01*
Y138637D01*
X156799D01*
Y139304D01*
X152800Y135972D02*
Y134639D01*
Y135305D01*
X155466D01*
Y135972D01*
X152800Y132639D02*
X155466D01*
Y130640D01*
X154799Y129974D01*
X152800D01*
Y126641D02*
Y127974D01*
X153466Y128641D01*
X154799D01*
X155466Y127974D01*
Y126641D01*
X154799Y125975D01*
X154133D01*
Y128641D01*
X154799Y124642D02*
Y121976D01*
X156799Y120643D02*
X153466D01*
X152800Y119977D01*
Y118644D01*
X153466Y117977D01*
X156799D01*
X152800Y116645D02*
X156799D01*
X155466Y115312D01*
X156799Y113979D01*
X152800D01*
X156132Y107981D02*
X155466D01*
Y108647D01*
Y107314D01*
Y107981D01*
X153466D01*
X152800Y107314D01*
Y104648D02*
Y103315D01*
X153466Y102649D01*
X154799D01*
X155466Y103315D01*
Y104648D01*
X154799Y105315D01*
X153466D01*
X152800Y104648D01*
X156799Y97317D02*
X152800D01*
Y95318D01*
X153466Y94652D01*
X156132D01*
X156799Y95318D01*
Y97317D01*
X152800Y93319D02*
X156799D01*
Y91319D01*
X156132Y90653D01*
X154799D01*
X154133Y91319D01*
Y93319D01*
X163000Y131999D02*
X164333D01*
X163666D01*
Y128000D01*
X163000D01*
X164333D01*
X166332D02*
Y130666D01*
X168332D01*
X168998Y129999D01*
Y128000D01*
X170997Y131332D02*
Y130666D01*
X170331D01*
X171664D01*
X170997D01*
Y128666D01*
X171664Y128000D01*
X164000Y74499D02*
Y70500D01*
X165999D01*
X166666Y71166D01*
Y73832D01*
X165999Y74499D01*
X164000D01*
X167999Y70500D02*
Y74499D01*
X170665Y70500D01*
Y74499D01*
X194999Y189000D02*
X192333D01*
X191000Y187667D01*
X192333Y186334D01*
X194999D01*
Y185001D02*
X191000D01*
Y183002D01*
X191666Y182335D01*
X192333D01*
X192999Y183002D01*
Y185001D01*
Y183002D01*
X193666Y182335D01*
X194332D01*
X194999Y183002D01*
Y185001D01*
X193666Y180336D02*
Y179003D01*
X192999Y178337D01*
X191000D01*
Y180336D01*
X191666Y181003D01*
X192333Y180336D01*
Y178337D01*
X194332Y176337D02*
X193666D01*
Y177004D01*
Y175671D01*
Y176337D01*
X191666D01*
X191000Y175671D01*
X194332Y173005D02*
X193666D01*
Y173672D01*
Y172339D01*
Y173005D01*
X191666D01*
X191000Y172339D01*
X194332Y235834D02*
X194999Y236501D01*
Y237834D01*
X194332Y238500D01*
X191666D01*
X191000Y237834D01*
Y236501D01*
X191666Y235834D01*
X192999D01*
Y237167D01*
X193666Y234501D02*
X191000D01*
X192333D01*
X192999Y233835D01*
X193666Y233168D01*
Y232502D01*
X191000Y229836D02*
Y228503D01*
X191666Y227837D01*
X192999D01*
X193666Y228503D01*
Y229836D01*
X192999Y230503D01*
X191666D01*
X191000Y229836D01*
X193666Y226504D02*
X191666D01*
X191000Y225837D01*
Y223838D01*
X193666D01*
X191000Y222505D02*
X193666D01*
Y220506D01*
X192999Y219839D01*
X191000D01*
X194999Y215841D02*
X191000D01*
Y217840D01*
X191666Y218506D01*
X192999D01*
X193666Y217840D01*
Y215841D01*
X191000Y210509D02*
X194999D01*
Y208510D01*
X194332Y207843D01*
X192999D01*
X192333Y208510D01*
Y210509D01*
X193666Y205844D02*
Y204511D01*
X192999Y203844D01*
X191000D01*
Y205844D01*
X191666Y206510D01*
X192333Y205844D01*
Y203844D01*
X194999Y199846D02*
X191000D01*
Y201845D01*
X191666Y202512D01*
X192999D01*
X193666Y201845D01*
Y199846D01*
X191000Y198513D02*
Y196514D01*
X191666Y195847D01*
X192333Y196514D01*
Y197846D01*
X192999Y198513D01*
X193666Y197846D01*
Y195847D01*
M02*
