G04*
G04 #@! TF.GenerationSoftware,Altium Limited,Altium Designer,18.0.12 (696)*
G04*
G04 Layer_Physical_Order=2*
G04 Layer_Color=16711680*
%FSLAX25Y25*%
%MOIN*%
G70*
G01*
G75*
%ADD40C,0.01600*%
%ADD41C,0.02000*%
%ADD45C,0.00400*%
%ADD46O,0.07480X0.04724*%
%ADD47O,0.09449X0.04724*%
%ADD48C,0.05000*%
D40*
X142000Y176000D02*
X170000D01*
X138500Y179500D02*
X142000Y176000D01*
X121500Y179500D02*
X138500D01*
D41*
X144600Y169096D02*
X145024Y169520D01*
X144600Y151000D02*
Y169096D01*
Y151000D02*
X150850Y144750D01*
Y82650D02*
Y144750D01*
X118331Y169520D02*
X145024D01*
X118331D02*
Y173769D01*
X114900Y177200D02*
X118331Y173769D01*
X114900Y177200D02*
Y190700D01*
X121600Y197400D01*
Y224100D01*
X118331Y227369D02*
X121600Y224100D01*
X118331Y227369D02*
Y234480D01*
X145024D01*
D45*
X134500Y212724D02*
X144500D01*
X134500Y207024D02*
X144500D01*
D46*
X118331Y234480D02*
D03*
Y169520D02*
D03*
D47*
X145024Y234480D02*
D03*
Y169520D02*
D03*
D48*
X150850Y82650D02*
D03*
X170000Y176000D02*
D03*
X121500Y179500D02*
D03*
X134500Y212724D02*
D03*
Y207024D02*
D03*
X144500Y212724D02*
D03*
Y207024D02*
D03*
M02*
