0
SECTION
2
HEADER
9
$INSUNITS
70
4
9
$ACADVER
1
AC1014
9
$HANDSEED
5
FFFF
0
ENDSEC
0
SECTION
2
TABLES
0
TABLE
2
VPORT
5
8
100
AcDbSymbolTable
0
ENDTAB
0
TABLE
2
LTYPE
5
5
100
AcDbSymbolTable
0
LTYPE
5
14
100
AcDbSymbolTableRecord
100
AcDbLinetypeTableRecord
2
BYBLOCK
70
0
0
LTYPE
5
15
100
AcDbSymbolTableRecord
100
AcDbLinetypeTableRecord
2
BYLAYER
70
0
0
ENDTAB
0
TABLE
2
LAYER
5
2
100
AcDbSymbolTable
70
2
0
LAYER
5
50
100
AcDbSymbolTableRecord
100
AcDbLayerTableRecord
2
0
70
0
6
CONTINUOUS
0
ENDTAB
0
TABLE
2
STYLE
5
3
100
AcDbSymbolTable
70
1
0
STYLE
5
11
100
AcDbSymbolTableRecord
100
AcDbTextStyleTableRecord
2
STANDARD
70
0
0
ENDTAB
0
TABLE
2
VIEW
5
6
100
AcDbSymbolTable
70
0
0
ENDTAB
0
TABLE
2
UCS
5
7
100
AcDbSymbolTable
70
0
0
ENDTAB
0
TABLE
2
APPID
5
9
100
AcDbSymbolTable
70
2
0
APPID
5
12
100
AcDbSymbolTableRecord
100
AcDbRegAppTableRecord
2
ACAD
70
0
0
ENDTAB
0
TABLE
2
DIMSTYLE
5
A
100
AcDbSymbolTable
70
1
0
ENDTAB
0
TABLE
2
BLOCK_RECORD
5
1
100
AcDbSymbolTable
70
1
0
BLOCK_RECORD
5
1F
100
AcDbSymbolTableRecord
100
AcDbBlockTableRecord
2
*MODEL_SPACE
0
BLOCK_RECORD
5
1B
100
AcDbSymbolTableRecord
100
AcDbBlockTableRecord
2
*PAPER_SPACE
0
ENDTAB
0
ENDSEC
0
SECTION
2
BLOCKS
0
BLOCK
5
20
100
AcDbEntity
100
AcDbBlockBegin
2
*MODEL_SPACE
0
ENDBLK
5
21
100
AcDbEntity
100
AcDbBlockEnd
0
BLOCK
5
1C
100
AcDbEntity
100
AcDbBlockBegin
2
*PAPER_SPACE
0
ENDBLK
5
1D
100
AcDbEntity
100
AcDbBlockEnd
0
ENDSEC
0
SECTION
2
ENTITIES
0
CIRCLE
5
100
100
AcDbEntity
8
0
100
AcDbCircle
10
69.500000000000938
20
19.500000000000028
30
0
40
1.1000000000000032
210
0
220
0
230
1
0
CIRCLE
5
101
100
AcDbEntity
8
0
100
AcDbCircle
10
19.500000000000909
20
19.500000000000028
30
0
40
1.5875000000000017
210
0
220
0
230
1
0
LWPOLYLINE
5
102
100
AcDbEntity
8
0
100
AcDbPolyline
90
10
70
1
43
0.0
10
19.500000000000909
20
22.000000000000032
42
0.41421356237309503
10
17.000000000000906
20
19.500000000000028
10
17.000000000000909
20
11.500000000000032
10
72.000000000000938
20
11.500000000000028
10
72.000000000000938
20
19.500000000000021
42
0.41421356237309503
10
69.500000000000938
20
22.000000000000036
42
-0.41421356237309709
10
67.000000000000909
20
24.500000000000064
10
67.000000000000909
20
35.499999999999915
10
22.000000000000917
20
35.500000000000028
10
22.000000000000924
20
24.500000000000046
42
-0.41421356237309609
0
LWPOLYLINE
5
103
100
AcDbEntity
8
0
100
AcDbPolyline
90
10
70
1
43
0.0
10
22.000000000000917
20
35.500000000000028
10
22.000000000000924
20
24.500000000000046
42
-0.41421356237309609
10
19.500000000000909
20
22.000000000000032
42
0.41421356237309503
10
17.000000000000909
20
19.500000000000028
10
17.000000000000909
20
11.500000000000032
10
72.000000000000938
20
11.500000000000028
10
72.000000000000938
20
19.500000000000021
42
0.41421356237309503
10
69.500000000000938
20
22.000000000000036
42
-0.41421356237309709
10
67.000000000000909
20
24.500000000000064
10
67.000000000000909
20
35.499999999999915
0
CIRCLE
5
104
100
AcDbEntity
8
0
100
AcDbCircle
10
69.500000000000938
20
19.500000000000028
30
0
40
1.1000000000000032
210
0
220
0
230
1
0
LWPOLYLINE
5
105
100
AcDbEntity
8
0
100
AcDbPolyline
90
4
70
1
43
0.0
10
46.903087882720271
20
13.979070787453196
10
47.243087364870853
20
13.979070787453198
10
47.243087364870888
20
13.639070787453134
10
46.903087882720307
20
13.639070787453134
0
LWPOLYLINE
5
106
100
AcDbEntity
8
0
100
AcDbPolyline
90
4
70
1
43
0.0
10
44.363091751360528
20
13.979070787453196
10
44.70309123351111
20
13.979070787453198
10
44.703091233511145
20
13.639070787453134
10
44.363091751360564
20
13.639070787453134
0
LWPOLYLINE
5
107
100
AcDbEntity
8
0
100
AcDbPolyline
90
4
70
1
43
0.0
10
41.823095620000785
20
13.979070787453196
10
42.163095102151367
20
13.979070787453198
10
42.163095102151402
20
13.639070787453134
10
41.823095620000821
20
13.639070787453134
0
LWPOLYLINE
5
108
100
AcDbEntity
8
0
100
AcDbPolyline
90
4
70
1
43
0.0
10
39.283099488640971
20
13.979070787453125
10
39.623098970791482
20
13.979070787453127
10
39.623098970791524
20
13.639070787453063
10
39.283099488641007
20
13.639070787453063
0
LWPOLYLINE
5
109
100
AcDbEntity
8
0
100
AcDbPolyline
90
4
70
1
43
0.0
10
36.743103357281228
20
13.979070787453125
10
37.08310283943181
20
13.979070787453127
10
37.083102839431852
20
13.639070787453063
10
36.743103357281264
20
13.639070787453063
0
LWPOLYLINE
5
110
100
AcDbEntity
8
0
100
AcDbPolyline
90
4
70
1
43
0.0
10
34.20310722592145
20
13.979070787453125
10
34.543106708071996
20
13.979070787453127
10
34.543106708072003
20
13.639070787453063
10
34.20310722592145
20
13.639070787453063
0
LWPOLYLINE
5
111
100
AcDbEntity
8
0
100
AcDbPolyline
90
4
70
1
43
0.0
10
31.663111094561671
20
13.979070787453125
10
32.003110576712253
20
13.979070787453127
10
32.00311057671226
20
13.639070787453063
10
31.663111094561671
20
13.639070787453063
0
LWPOLYLINE
5
112
100
AcDbEntity
8
0
100
AcDbPolyline
90
4
70
1
43
0.0
10
29.123114963201893
20
13.979070787453054
10
29.463114445352439
20
13.979070787453056
10
29.463114445352442
20
13.639070787453063
10
29.123114963201893
20
13.639070787453063
0
LWPOLYLINE
5
113
100
AcDbEntity
8
0
100
AcDbPolyline
90
4
70
1
43
0.0
10
26.583118831842114
20
13.979070787453054
10
26.923118313992696
20
13.979070787453056
10
26.923118313992699
20
13.639070787452992
10
26.583118831842114
20
13.639070787452992
0
LWPOLYLINE
5
114
100
AcDbEntity
8
0
100
AcDbPolyline
90
4
70
1
43
0.0
10
24.043122700482407
20
13.979070787453054
10
24.383122182632917
20
13.979070787453056
10
24.383122182632921
20
13.639070787452992
10
24.043122700482407
20
13.639070787452992
0
LWPOLYLINE
5
115
100
AcDbEntity
8
0
100
AcDbPolyline
90
4
70
1
43
0.0
10
21.503126569122664
20
13.979070787453054
10
21.843126051273174
20
13.979070787453056
10
21.843126051273178
20
13.639070787452992
10
21.503126569122664
20
13.639070787452992
0
LWPOLYLINE
5
116
100
AcDbEntity
8
0
100
AcDbPolyline
90
4
70
1
43
0.0
10
18.963130437762814
20
13.979070787453054
10
19.30312991991336
20
13.979070787453056
10
19.303129919913363
20
13.639070787452992
10
18.963130437762814
20
13.639070787452992
0
ENDSEC
0
SECTION
2
OBJECTS
0
DICTIONARY
5
C
100
AcDbDictionary
3
ACAD_GROUP
350
D
3
ACAD_MLINESTYLE
350
17
0
DICTIONARY
5
D
100
AcDbDictionary
0
DICTIONARY
5
1A
330
C
100
AcDbDictionary
0
DICTIONARY
5
17
100
AcDbDictionary
0
ENDSEC
0
EOF
