M48
;Layer_Color=9474304
;FILE_FORMAT=2:5
INCH,LZ
;TYPE=PLATED
T1F00S00C0.01000
%
T01
X0374016Y0194953
X0372047Y0197043
X0370079Y0199016
X0375984Y0198921
X0377953Y019689
X0379921Y0194858
X0385827Y0194953
X0383858Y0197043
X038189Y0199016
X0387795Y0198921
X0389764Y019689
X0391732Y0194858
X0397638Y0194953
X0395669Y0197043
X0393701Y0199016
X0399606Y0198921
X0401575Y019689
X0403543Y0194858
X0409449Y0194953
X040748Y0197043
X0405512Y0199016
X0411417Y0198921
X0413386Y019689
X0415354Y0194858
X0417323Y0198921
X0415354Y028915
X0413386Y0291181
X0411417Y0293213
X040748Y0291335
X0405512Y0293307
X0399606Y0293213
X0401575Y0291181
X0403543Y028915
X0409449Y0289244
X0397638
X0395669Y0291335
X0393701Y0293307
X0387795Y0293213
X0389764Y0291181
X0391732Y028915
X0385827Y0289244
X0383858Y0291335
X038189Y0293307
X0375984Y0293213
X0377953Y0291181
X0379921Y028915
X0374016Y0289244
X0372047Y0291335
X0370079Y0293307
X0331102Y0291366
X0333071Y0289276
X0335039Y0287303
X0329134Y0287398
X0327165Y0289429
X0325197Y0291461
X0319291Y0291366
X032126Y0289276
X0323228Y0287303
X0317323Y0287398
X0315354Y0289429
X0313386Y0291461
X0417323Y0293213
X030748Y0291366
X0309449Y0289276
X0311417Y0287303
X0305512Y0287398
X0303543Y0289429
X0301575Y0291461
X0295669Y0291366
X0297638Y0289276
X0299606Y0287303
X0293701Y0287398
X0291732Y0289429
X0289764Y0291461
X0287795Y0287398
X0291732Y0315917
X0289764Y0318008
X0287795Y031998
X0293701Y0319886
X0295669Y0317854
X0297638Y0315823
X0303543Y0315917
X0301575Y0318008
X0299606Y031998
X0305512Y0319886
X030748Y0317854
X0309449Y0315823
X0311417Y031998
X0313386Y0318008
X0315354Y0315917
X0319291Y0317854
X032126Y0315823
X0327165Y0315917
X0325197Y0318008
X0323228Y031998
X0329134Y0319886
X0331102Y0317854
X0333071Y0315823
X0335039Y0319886
X0317323
M30
