G04*
G04 #@! TF.GenerationSoftware,Altium Limited,Altium Designer,18.0.12 (696)*
G04*
G04 Layer_Physical_Order=2*
G04 Layer_Color=16711680*
%FSLAX25Y25*%
%MOIN*%
G70*
G01*
G75*
%ADD12C,0.01000*%
%ADD13R,0.11024X0.08268*%
%ADD14R,0.07874X0.01575*%
%ADD19C,0.05906*%
%ADD20R,0.05906X0.05906*%
D12*
X94878Y70122D02*
X106122D01*
X78500Y86500D02*
X94878Y70122D01*
X78500Y86500D02*
Y112500D01*
X48350Y142650D02*
X78500Y112500D01*
X35012Y142650D02*
X48350D01*
X92878Y60122D02*
X106122D01*
X76000Y77000D02*
X92878Y60122D01*
X76000Y77000D02*
Y111000D01*
X46811Y140189D02*
X76000Y111000D01*
X35012Y140189D02*
X46811D01*
X88878Y50122D02*
X106122D01*
X73500Y65500D02*
X88878Y50122D01*
X73500Y65500D02*
Y110000D01*
X45772Y137728D02*
X73500Y110000D01*
X35012Y137728D02*
X45772D01*
X88378Y40122D02*
X106122D01*
X71000Y57500D02*
X88378Y40122D01*
X71000Y57500D02*
Y109000D01*
X44728Y135272D02*
X71000Y109000D01*
X35012Y135272D02*
X44728D01*
X88878Y30122D02*
X106122D01*
X68500Y50500D02*
X88878Y30122D01*
X68500Y50500D02*
Y108000D01*
X89878Y20122D02*
X106122D01*
X65500Y44500D02*
X89878Y20122D01*
X43689Y132811D02*
X68500Y108000D01*
X35012Y132811D02*
X43689D01*
X65500Y44500D02*
Y107000D01*
X42150Y130350D02*
X65500Y107000D01*
X35012Y130350D02*
X42150D01*
D13*
X27138Y155248D02*
D03*
Y117752D02*
D03*
D14*
X35012Y142650D02*
D03*
Y140189D02*
D03*
Y137728D02*
D03*
Y135272D02*
D03*
Y132811D02*
D03*
Y130350D02*
D03*
D19*
X106122Y20122D02*
D03*
Y30122D02*
D03*
Y40122D02*
D03*
Y50122D02*
D03*
Y60122D02*
D03*
Y70122D02*
D03*
Y80122D02*
D03*
Y90122D02*
D03*
Y100122D02*
D03*
Y110122D02*
D03*
Y120122D02*
D03*
Y130122D02*
D03*
Y140122D02*
D03*
Y150122D02*
D03*
Y160122D02*
D03*
Y170122D02*
D03*
Y180122D02*
D03*
Y190122D02*
D03*
Y200122D02*
D03*
Y210122D02*
D03*
Y220122D02*
D03*
D20*
Y230122D02*
D03*
M02*
