M48
;Layer_Color=9474304
;FILE_FORMAT=2:5
INCH,LZ
;TYPE=PLATED
T1F00S00C0.03543
%
T01
X0106122Y0020122
Y0030122
Y0040122
Y0050122
Y0060122
Y0070122
Y0080122
Y0090122
Y0100122
Y0110122
Y0120122
Y0130122
Y0140122
Y0150122
Y0160122
Y0170122
Y0180122
Y0190122
Y0200122
Y0210122
Y0220122
Y0230122
M30
