G04*
G04 #@! TF.GenerationSoftware,Altium Limited,Altium Designer,18.0.12 (696)*
G04*
G04 Layer_Color=2752767*
%FSLAX25Y25*%
%MOIN*%
G70*
G01*
G75*
%ADD21C,0.00200*%
D21*
X105322Y19322D02*
Y20922D01*
X106922D01*
Y19322D01*
X105322D01*
Y29322D02*
Y30922D01*
X106922D01*
Y29322D01*
X105322D01*
Y39322D02*
Y40922D01*
X106922D01*
Y39322D01*
X105322D01*
Y49322D02*
Y50922D01*
X106922D01*
Y49322D01*
X105322D01*
Y59322D02*
Y60922D01*
X106922D01*
Y59322D01*
X105322D01*
Y69322D02*
Y70922D01*
X106922D01*
Y69322D01*
X105322D01*
Y79322D02*
Y80922D01*
X106922D01*
Y79322D01*
X105322D01*
Y89322D02*
Y90922D01*
X106922D01*
Y89322D01*
X105322D01*
Y99322D02*
Y100922D01*
X106922D01*
Y99322D01*
X105322D01*
Y109322D02*
Y110922D01*
X106922D01*
Y109322D01*
X105322D01*
Y119322D02*
Y120922D01*
X106922D01*
Y119322D01*
X105322D01*
Y129322D02*
Y130922D01*
X106922D01*
Y129322D01*
X105322D01*
Y139322D02*
Y140922D01*
X106922D01*
Y139322D01*
X105322D01*
Y149322D02*
Y150922D01*
X106922D01*
Y149322D01*
X105322D01*
Y159322D02*
Y160922D01*
X106922D01*
Y159322D01*
X105322D01*
Y169322D02*
Y170922D01*
X106922D01*
Y169322D01*
X105322D01*
Y179322D02*
Y180922D01*
X106922D01*
Y179322D01*
X105322D01*
Y189322D02*
Y190922D01*
X106922D01*
Y189322D01*
X105322D01*
Y199322D02*
Y200922D01*
X106922D01*
Y199322D01*
X105322D01*
Y209322D02*
Y210922D01*
X106922D01*
Y209322D01*
X105322D01*
Y219322D02*
Y220922D01*
X106922D01*
Y219322D01*
X105322D01*
Y229322D02*
Y230922D01*
X106922D01*
Y229322D01*
X105322D01*
M02*
