G04*
G04 #@! TF.GenerationSoftware,Altium Limited,Altium Designer,18.0.12 (696)*
G04*
G04 Layer_Color=65535*
%FSLAX25Y25*%
%MOIN*%
G70*
G01*
G75*
%ADD10C,0.00787*%
%ADD11C,0.00600*%
%ADD12C,0.01000*%
D10*
X111122Y15122D02*
Y227622D01*
Y235122D01*
X101122D02*
X111122D01*
X101122Y15122D02*
Y235122D01*
Y15122D02*
X111122D01*
D11*
X9500Y5500D02*
Y10498D01*
X11166Y8832D01*
X12832Y10498D01*
Y5500D01*
X15331D02*
X16998D01*
X17831Y6333D01*
Y7999D01*
X16998Y8832D01*
X15331D01*
X14498Y7999D01*
Y6333D01*
X15331Y5500D01*
X19497D02*
X21163D01*
X20330D01*
Y10498D01*
X19497D01*
X26161Y5500D02*
X24495D01*
X23662Y6333D01*
Y7999D01*
X24495Y8832D01*
X26161D01*
X26994Y7999D01*
Y7166D01*
X23662D01*
X28661Y8832D02*
X31993Y5500D01*
X30327Y7166D01*
X31993Y8832D01*
X28661Y5500D01*
X41989Y10498D02*
X38657D01*
Y7999D01*
X40323Y8832D01*
X41156D01*
X41989Y7999D01*
Y6333D01*
X41156Y5500D01*
X39490D01*
X38657Y6333D01*
X46988Y5500D02*
X43656D01*
X46988Y8832D01*
Y9665D01*
X46155Y10498D01*
X44489D01*
X43656Y9665D01*
X51986Y5500D02*
X48654D01*
X51986Y8832D01*
Y9665D01*
X51153Y10498D01*
X49487D01*
X48654Y9665D01*
X53652D02*
X54485Y10498D01*
X56151D01*
X56985Y9665D01*
Y6333D01*
X56151Y5500D01*
X54485D01*
X53652Y6333D01*
Y9665D01*
X61150Y5500D02*
Y10498D01*
X58651Y7999D01*
X61983D01*
X68647Y10498D02*
Y5500D01*
X71147D01*
X71980Y6333D01*
Y7166D01*
X71147Y7999D01*
X68647D01*
X71147D01*
X71980Y8832D01*
Y9665D01*
X71147Y10498D01*
X68647D01*
X73646Y8832D02*
Y5500D01*
Y7166D01*
X74479Y7999D01*
X75312Y8832D01*
X76145D01*
X81143Y5500D02*
X79477D01*
X78644Y6333D01*
Y7999D01*
X79477Y8832D01*
X81143D01*
X81976Y7999D01*
Y7166D01*
X78644D01*
X84476Y8832D02*
X86142D01*
X86975Y7999D01*
Y5500D01*
X84476D01*
X83643Y6333D01*
X84476Y7166D01*
X86975D01*
X88641Y5500D02*
Y10498D01*
Y7166D02*
X91140Y8832D01*
X88641Y7166D02*
X91140Y5500D01*
X94472D02*
X96139D01*
X96972Y6333D01*
Y7999D01*
X96139Y8832D01*
X94472D01*
X93639Y7999D01*
Y6333D01*
X94472Y5500D01*
X98638Y8832D02*
Y6333D01*
X99471Y5500D01*
X101970D01*
Y8832D01*
X104469Y9665D02*
Y8832D01*
X103636D01*
X105302D01*
X104469D01*
Y6333D01*
X105302Y5500D01*
X93706Y18547D02*
X90374D01*
X93706Y21880D01*
Y22713D01*
X92873Y23546D01*
X91207D01*
X90374Y22713D01*
X98705Y18547D02*
X95372D01*
X98705Y21880D01*
Y22713D01*
X97872Y23546D01*
X96205D01*
X95372Y22713D01*
X93706Y28547D02*
X90374D01*
X93706Y31879D01*
Y32713D01*
X92873Y33546D01*
X91207D01*
X90374Y32713D01*
X95372Y28547D02*
X97039D01*
X96205D01*
Y33546D01*
X95372Y32713D01*
X93706Y38547D02*
X90374D01*
X93706Y41879D01*
Y42713D01*
X92873Y43546D01*
X91207D01*
X90374Y42713D01*
X95372D02*
X96205Y43546D01*
X97872D01*
X98705Y42713D01*
Y39380D01*
X97872Y38547D01*
X96205D01*
X95372Y39380D01*
Y42713D01*
X90374Y48547D02*
X92040D01*
X91207D01*
Y53546D01*
X90374Y52713D01*
X94539Y49380D02*
X95372Y48547D01*
X97039D01*
X97872Y49380D01*
Y52713D01*
X97039Y53546D01*
X95372D01*
X94539Y52713D01*
Y51880D01*
X95372Y51046D01*
X97872D01*
X90374Y58547D02*
X92040D01*
X91207D01*
Y63546D01*
X90374Y62713D01*
X94539D02*
X95372Y63546D01*
X97039D01*
X97872Y62713D01*
Y61879D01*
X97039Y61046D01*
X97872Y60213D01*
Y59380D01*
X97039Y58547D01*
X95372D01*
X94539Y59380D01*
Y60213D01*
X95372Y61046D01*
X94539Y61879D01*
Y62713D01*
X95372Y61046D02*
X97039D01*
X90374Y68547D02*
X92040D01*
X91207D01*
Y73546D01*
X90374Y72713D01*
X94539Y73546D02*
X97872D01*
Y72713D01*
X94539Y69380D01*
Y68547D01*
X90374Y78547D02*
X92040D01*
X91207D01*
Y83546D01*
X90374Y82713D01*
X97872Y83546D02*
X96206Y82713D01*
X94539Y81046D01*
Y79380D01*
X95372Y78547D01*
X97039D01*
X97872Y79380D01*
Y80213D01*
X97039Y81046D01*
X94539D01*
X90374Y88547D02*
X92040D01*
X91207D01*
Y93546D01*
X90374Y92713D01*
X97872Y93546D02*
X94539D01*
Y91046D01*
X96206Y91879D01*
X97039D01*
X97872Y91046D01*
Y89380D01*
X97039Y88547D01*
X95372D01*
X94539Y89380D01*
X90374Y98547D02*
X92040D01*
X91207D01*
Y103546D01*
X90374Y102713D01*
X97039Y98547D02*
Y103546D01*
X94539Y101046D01*
X97872D01*
X90374Y108547D02*
X92040D01*
X91207D01*
Y113546D01*
X90374Y112713D01*
X94539D02*
X95372Y113546D01*
X97039D01*
X97872Y112713D01*
Y111880D01*
X97039Y111046D01*
X96206D01*
X97039D01*
X97872Y110213D01*
Y109380D01*
X97039Y108547D01*
X95372D01*
X94539Y109380D01*
X90374Y118547D02*
X92040D01*
X91207D01*
Y123546D01*
X90374Y122713D01*
X97872Y118547D02*
X94539D01*
X97872Y121879D01*
Y122713D01*
X97039Y123546D01*
X95372D01*
X94539Y122713D01*
X90374Y128547D02*
X92040D01*
X91207D01*
Y133546D01*
X90374Y132713D01*
X94539Y128547D02*
X96206D01*
X95372D01*
Y133546D01*
X94539Y132713D01*
X90374Y138547D02*
X92040D01*
X91207D01*
Y143546D01*
X90374Y142713D01*
X94539D02*
X95372Y143546D01*
X97039D01*
X97872Y142713D01*
Y139380D01*
X97039Y138547D01*
X95372D01*
X94539Y139380D01*
Y142713D01*
X90374Y149380D02*
X91207Y148547D01*
X92873D01*
X93706Y149380D01*
Y152713D01*
X92873Y153546D01*
X91207D01*
X90374Y152713D01*
Y151880D01*
X91207Y151046D01*
X93706D01*
X90374Y162713D02*
X91207Y163546D01*
X92873D01*
X93706Y162713D01*
Y161880D01*
X92873Y161046D01*
X93706Y160213D01*
Y159380D01*
X92873Y158547D01*
X91207D01*
X90374Y159380D01*
Y160213D01*
X91207Y161046D01*
X90374Y161880D01*
Y162713D01*
X91207Y161046D02*
X92873D01*
X90374Y173546D02*
X93706D01*
Y172713D01*
X90374Y169380D01*
Y168547D01*
X93706Y183546D02*
X92040Y182713D01*
X90374Y181046D01*
Y179380D01*
X91207Y178547D01*
X92873D01*
X93706Y179380D01*
Y180213D01*
X92873Y181046D01*
X90374D01*
X93706Y193546D02*
X90374D01*
Y191046D01*
X92040Y191879D01*
X92873D01*
X93706Y191046D01*
Y189380D01*
X92873Y188547D01*
X91207D01*
X90374Y189380D01*
X92873Y198547D02*
Y203546D01*
X90374Y201046D01*
X93706D01*
X90374Y212713D02*
X91207Y213546D01*
X92873D01*
X93706Y212713D01*
Y211879D01*
X92873Y211046D01*
X92040D01*
X92873D01*
X93706Y210213D01*
Y209380D01*
X92873Y208547D01*
X91207D01*
X90374Y209380D01*
X93706Y218547D02*
X90374D01*
X93706Y221880D01*
Y222713D01*
X92873Y223546D01*
X91207D01*
X90374Y222713D01*
Y228547D02*
X92040D01*
X91207D01*
Y233546D01*
X90374Y232713D01*
D12*
X26225Y188394D02*
X24225D01*
X25225D01*
Y183396D01*
X24225Y182396D01*
X23226D01*
X22226Y183396D01*
X28224Y182396D02*
X30223D01*
X29224D01*
Y188394D01*
X28224Y187394D01*
M02*
