M48
;Layer_Color=9474304
;FILE_FORMAT=2:5
INCH,LZ
;TYPE=PLATED
T1F00S00C0.04134
;TYPE=NON_PLATED
T2F00S00C0.03150
%
T01
X0075327Y0054366
X0085327
X0095327
X0105327
X0115327
X0125327
X0135327
X0145327
X0155327
X0165327
X0175327
X0185327
T02
X009102Y013
X010102
X0122516
X0132516
X0154012
X0164012
X0185508
X0195508
X0217004
X0227004
X02485
X02585
M30
