G04*
G04 #@! TF.GenerationSoftware,Altium Limited,Altium Designer,18.0.12 (696)*
G04*
G04 Layer_Color=16711935*
%FSLAX25Y25*%
%MOIN*%
G70*
G01*
G75*
%ADD11C,0.00394*%
%ADD20C,0.01000*%
%ADD25C,0.00600*%
D11*
X0Y0D02*
X66929D01*
Y27559D01*
X0D02*
X66929D01*
X0Y0D02*
Y27559D01*
D20*
X68126Y0D02*
X91551D01*
X68126Y27559D02*
X91551D01*
X90551D02*
Y37559D01*
Y-10000D02*
Y0D01*
Y27559D02*
X92551Y33559D01*
X88551D02*
X90551Y27559D01*
X88551Y-6000D02*
X90551Y0D01*
X92551Y-6000D01*
X66929Y28756D02*
Y39386D01*
X0Y28756D02*
Y39386D01*
X46460Y38386D02*
X66929D01*
X0D02*
X17269D01*
X60929Y40386D02*
X66929Y38386D01*
X60929Y36386D02*
X66929Y38386D01*
X0D02*
X6000Y36386D01*
X0Y38386D02*
X6000Y40386D01*
D25*
X98949Y1683D02*
Y5682D01*
X99949D01*
X103948Y1683D01*
X104947D01*
Y7681D02*
X103948D01*
Y8681D01*
X104947D01*
Y7681D01*
X99949Y12679D02*
X98949Y13679D01*
Y15678D01*
X99949Y16678D01*
X103948D01*
X104947Y15678D01*
Y13679D01*
X103948Y12679D01*
X99949D01*
Y18677D02*
X98949Y19677D01*
Y21676D01*
X99949Y22676D01*
X103948D01*
X104947Y21676D01*
Y19677D01*
X103948Y18677D01*
X99949D01*
X18869Y34787D02*
X20868D01*
X19869D01*
Y40785D01*
X18869Y39785D01*
X23867Y40785D02*
X27866D01*
Y39785D01*
X23867Y35787D01*
Y34787D01*
X29865D02*
Y35787D01*
X30865D01*
Y34787D01*
X29865D01*
X34864Y39785D02*
X35863Y40785D01*
X37863D01*
X38862Y39785D01*
Y35787D01*
X37863Y34787D01*
X35863D01*
X34864Y35787D01*
Y39785D01*
X40862D02*
X41861Y40785D01*
X43861D01*
X44860Y39785D01*
Y35787D01*
X43861Y34787D01*
X41861D01*
X40862Y35787D01*
Y39785D01*
M02*
