G04*
G04 #@! TF.GenerationSoftware,Altium Limited,Altium Designer,18.0.12 (696)*
G04*
G04 Layer_Physical_Order=1*
G04 Layer_Color=255*
%FSLAX25Y25*%
%MOIN*%
G70*
G01*
G75*
G04:AMPARAMS|DCode=12|XSize=47.24mil|YSize=23.62mil|CornerRadius=5.91mil|HoleSize=0mil|Usage=FLASHONLY|Rotation=90.000|XOffset=0mil|YOffset=0mil|HoleType=Round|Shape=RoundedRectangle|*
%AMROUNDEDRECTD12*
21,1,0.04724,0.01181,0,0,90.0*
21,1,0.03543,0.02362,0,0,90.0*
1,1,0.01181,0.00591,0.01772*
1,1,0.01181,0.00591,-0.01772*
1,1,0.01181,-0.00591,-0.01772*
1,1,0.01181,-0.00591,0.01772*
%
%ADD12ROUNDEDRECTD12*%
G04:AMPARAMS|DCode=13|XSize=31.5mil|YSize=55.12mil|CornerRadius=7.87mil|HoleSize=0mil|Usage=FLASHONLY|Rotation=180.000|XOffset=0mil|YOffset=0mil|HoleType=Round|Shape=RoundedRectangle|*
%AMROUNDEDRECTD13*
21,1,0.03150,0.03937,0,0,180.0*
21,1,0.01575,0.05512,0,0,180.0*
1,1,0.01575,-0.00787,0.01968*
1,1,0.01575,0.00787,0.01968*
1,1,0.01575,0.00787,-0.01968*
1,1,0.01575,-0.00787,-0.01968*
%
%ADD13ROUNDEDRECTD13*%
%ADD19C,0.20866*%
%ADD20C,0.01000*%
%ADD21C,0.02600*%
D12*
X36417Y17520D02*
D03*
X34449Y6102D02*
D03*
X32480Y17520D02*
D03*
X30512Y6102D02*
D03*
D13*
X26575Y17126D02*
D03*
X40354D02*
D03*
Y6496D02*
D03*
X26575D02*
D03*
D19*
X58268Y13780D02*
D03*
X8661D02*
D03*
D20*
X45276Y3937D02*
Y23622D01*
X43307Y1969D02*
X45276Y3937D01*
X35433Y1969D02*
X43307D01*
X34449Y2953D02*
X35433Y1969D01*
X34449Y2953D02*
Y6102D01*
X30512Y6102D02*
Y11811D01*
X36417Y11811D02*
Y17520D01*
X36417Y17520D01*
X32480D02*
Y23622D01*
D21*
X45276Y23622D02*
D03*
X30512Y11811D02*
D03*
X36417Y11811D02*
D03*
X32480Y23622D02*
D03*
M02*
